<svg xmlns="http://www.w3.org/2000/svg" viewBox="0 0 192.76 192.76"><defs><style>.cls-1,.cls-3{fill:#fff;}.cls-1,.cls-2,.cls-4{fill-rule:evenodd;}.cls-2{fill:#ed1c24;}</style></defs><title>Asset 1</title><g id="Layer_2" data-name="Layer 2"><g id="Layer_1-2" data-name="Layer 1"><polygon class="cls-1" points="0 0 192.76 0 192.76 192.76 0 192.76 0 0 0 0"/><polygon class="cls-2" points="8.5 67.48 96.3 157.72 184.25 67.48 8.5 67.48 8.5 67.48"/><circle class="cls-3" cx="83.54" cy="84.97"/><path class="cls-4" d="M159.73,106.39a34.19,34.19,0,0,0-3.43-10.3,10.9,10.9,0,0,0-1-2,8.63,8.63,0,0,1-.65-4.09,14.25,14.25,0,0,1,.82-5.07,2.33,2.33,0,0,1,.33-1,9.51,9.51,0,0,0-.16-7A8.62,8.62,0,0,0,148,71.73h-.16A8.62,8.62,0,0,0,140.11,77a2.64,2.64,0,0,0-.49,1.47,9.56,9.56,0,0,0-5.89,2.45c-2.45,2.13-2.94,4.9-3.27,6.87a3.6,3.6,0,0,0-.16,1.31,24.73,24.73,0,0,1-1.47,5.4,10.29,10.29,0,0,1-2.13,3.27,17,17,0,0,0-.49-2,17,17,0,0,0-.49-2,9.32,9.32,0,0,1,0-4.25,18.93,18.93,0,0,1,1.63-4.9l.49-1a10.34,10.34,0,0,0,1.31-6.21A28.51,28.51,0,0,0,132.92,73a10.32,10.32,0,0,1,1.31-1.8l.33-.49a8.59,8.59,0,0,1,2.78-2.29,15.52,15.52,0,0,1,4.9-1.63c.49,0,.82-.16,1.14-.16,1.8-.49,4.41-1,6.38-3.43a8.16,8.16,0,0,0,1-9.16v-.33a9,9,0,0,0-8.17-4.58,10.28,10.28,0,0,0-6.38,3.27,3.58,3.58,0,0,0-.82.65,15.87,15.87,0,0,1-4.25,3.11,7.1,7.1,0,0,1-3.43.82H127a4.61,4.61,0,0,1-2.13,0,24,24,0,0,0-11,2c-5.23,2.45-9.32,7-10.46,11.93h0a.6.6,0,0,1-.16.49v.33a9.91,9.91,0,0,0,5.39,10.14c.16,0,.33.16.49.16h0a19.13,19.13,0,0,0,3.27,1,18.07,18.07,0,0,1-.16,4.09c-.33,1.47-.33,2.13-.82,2.78-1.14-.82-2.45-1.47-3.43-2.13a17.17,17.17,0,0,1-1.8-1.14,8.66,8.66,0,0,1-3.43-3.43,16.29,16.29,0,0,1-2.45-5.23c-.16-.33-.16-.82-.33-1.14a11.13,11.13,0,0,0-4.41-6.38,9.53,9.53,0,0,0-10,.16h-.16l-.16.16a9.1,9.1,0,0,0-3.6,9.32,1.22,1.22,0,0,0,.16.82,9,9,0,0,0-6.38,3.27,11,11,0,0,0-1.8,7v1.14a15,15,0,0,1-.49,5.07,7.92,7.92,0,0,1-1.8,3.92,9,9,0,0,1-1.14,1.47l-1.47,2c-.16-.33-.33-.49-.49-.82-.33-.82-.65-1.47-1-2.13a8.31,8.31,0,0,1-.65-4.09,13.6,13.6,0,0,1,.82-5.07,10.35,10.35,0,0,1,.33-1.14,9.93,9.93,0,0,0-.16-7.19A8.62,8.62,0,0,0,60,79.09h-.33A8.62,8.62,0,0,0,52,84.32a9.93,9.93,0,0,0-.16,7.19,2.36,2.36,0,0,1,.33,1.14A13.61,13.61,0,0,1,53,97.73a10.12,10.12,0,0,1-.16,2.45c-.65-1.64-1.31-2.94-1.8-4.09A22.78,22.78,0,0,1,50,94a8,8,0,0,1-.65-4.09,13.29,13.29,0,0,1,.82-4.9,4.17,4.17,0,0,1,.33-1.14c.33-1.8,1-4.25-.16-7a8.74,8.74,0,0,0-7.68-5.07h-.16a8.74,8.74,0,0,0-7.68,5.07,9.52,9.52,0,0,0-.16,7A10.41,10.41,0,0,0,35,85a13.29,13.29,0,0,1,.82,4.9A8,8,0,0,1,35.15,94c-.33.65-.65,1.31-1,2.13a31.45,31.45,0,0,0-3.43,10.14c-.82,4.9-1.8,17.33,5.4,24.69.33.33.65.49.82.65a8.42,8.42,0,0,0,5.56,1.14h.16a8.41,8.41,0,0,0,5.56-1.14c0-.16.16-.16.33-.33a21.86,21.86,0,0,0,4.74,8.17c.33.33.65.49.82.65a10,10,0,0,0,5.56,1.31H60a10,10,0,0,0,5.56-1.31c.16-.16.49-.33.82-.65a31.92,31.92,0,0,0,2.78-3.76c.33.33.82.33,1,.49a10.8,10.8,0,0,0,6-.16c.16,0,.49-.16.65-.16v-.16a13.09,13.09,0,0,0,3.43-2.13,21.37,21.37,0,0,0,32-.33c.16.16.16.16.16.33h0a8.65,8.65,0,0,0,4.58,4.09,9.38,9.38,0,0,0,7,1c0,.16.33,0,.65-.16,7.19-2.62,10.79-7.85,12.92-13.08a20.85,20.85,0,0,0,3.76,5.56c.33.33.65.49.82.65a9.65,9.65,0,0,0,5.56,1.31H148a9.65,9.65,0,0,0,5.56-1.31c.16-.16.49-.33.82-.65,7.19-7.36,6.21-19.62,5.39-24.52Zm-66.38-8.5v.16a22.74,22.74,0,0,0-6.7,2,29.12,29.12,0,0,1,2-3.92l.49-1a10.91,10.91,0,0,0,1.63-3.92.16.16,0,0,1,.16.16,9.71,9.71,0,0,1,2,4.41c.16.65.33,1.31.49,2.13Zm19.13,35.48Z"/><path class="cls-4" d="M32.21,62.74c2.29,2,4.9,2,6.87,2.13h1a16.25,16.25,0,0,1,5.23.65,9.18,9.18,0,0,1,3.76,2A6.24,6.24,0,0,1,50.52,69a36.31,36.31,0,0,0,9.32,6.38c5.39,2.29,12.59,4.41,19.29.16h.16l.49-.49a10.56,10.56,0,0,0,3.27-4.9,11.35,11.35,0,0,0,.16-5.56,1.47,1.47,0,0,0-.16-.82c-2.62-7.52-10.14-9.81-16.35-11a31.1,31.1,0,0,0-11.12,0,11.24,11.24,0,0,1-2.13.33,9.78,9.78,0,0,1-4.25-.49,19.67,19.67,0,0,1-4.58-2.29,3.42,3.42,0,0,0-1-.65c-1.63-1-3.76-2.45-6.87-2.13a8.62,8.62,0,0,0-7.19,5.89v.16l-.16.16a8.84,8.84,0,0,0,2.78,9Zm51,1.64v0Z"/><path class="cls-4" d="M69.16,34.78l1,.49a16.93,16.93,0,0,1,4.58,2.29,9.27,9.27,0,0,1,2.94,3.27,13.24,13.24,0,0,1,1,2.13,37.94,37.94,0,0,0,6,9.16c4.58,4.74,11,9.81,20.76,8.5.33,0,.65-.16,1-.16h0a9.41,9.41,0,0,0,4.74-3.76c1-1.31,2.29-3.43,2.13-5.72v-.82c-1.47-9.65-8.17-14.55-13.9-17.49a32,32,0,0,0-10.46-3.43c-.82-.16-1.63-.33-2.29-.49a7.63,7.63,0,0,1-3.76-2A15.06,15.06,0,0,1,79.29,23a1.63,1.63,0,0,0-.65-.82c-1.14-1.47-2.78-3.6-5.72-4.25a8.76,8.76,0,0,0-8.83,2.94l-.16.16v.16a8.74,8.74,0,0,0-.49,9.32,9.82,9.82,0,0,0,5.72,4.25Z"/><polygon class="cls-4" points="177.71 143.34 177.71 150.37 139.95 150.37 139.95 155.6 172.48 155.6 172.48 162.47 139.95 162.47 139.95 171.78 132.26 171.78 132.26 143.34 177.71 143.34 177.71 143.34"/><path class="cls-4" d="M116.41,143.34,96.3,163.94l-19.95-20.6h-8v27.79L44.47,143.34H37.28L12.75,171.78h9.48l4.41-5.23H54.77l4.41,5.07h17V154.29L92.7,171.62h7.36l16.51-17.33v17.33h7.68V143.34ZM32.7,159.52l8-9.16,8,9.16Z"/><circle class="cls-3" cx="59.84" cy="83.01"/><path class="cls-1" d="M147.79,75.65Z"/><circle class="cls-3" cx="33.19" cy="54.73"/><path class="cls-1" d="M48.56,59.14a5.51,5.51,0,0,1-1.8,2.78,7.93,7.93,0,0,1,1.14.49,4.47,4.47,0,0,0,1.8-2.62,4.61,4.61,0,0,0,.16-2.94c-.33-.16-.65-.16-1-.33a7.64,7.64,0,0,1-.33,2.62Z"/><path class="cls-1" d="M44,61.1a3.39,3.39,0,0,0,2-2.62,4.6,4.6,0,0,0,.16-2.94,17.37,17.37,0,0,1-3.6-2.13,3.58,3.58,0,0,1-.82-.49c-1.63-1-2.78-1.64-4.41-1.47a5,5,0,0,0-4.09,3.27,4.83,4.83,0,0,0,1.47,4.9c1.31,1.14,2.62,1.31,4.41,1.31h1.14c.82,0,2.29.16,3.6.33L44,61.1Z"/><circle class="cls-3" cx="79.29" cy="65.03"/><path class="cls-1" d="M79.46,65.35c0-.16,0-.16-.16-.33h0c-1.47-4.58-5.39-7-13.24-8.5a24.86,24.86,0,0,0-10,.16c-.82.16-1.64.16-2.29.33H52.65a7.49,7.49,0,0,1-.16,3.27,6.53,6.53,0,0,1-2.13,3.43,5,5,0,0,1,1.14.82c.49.33,1.14,1,1.8,1.47a25.28,25.28,0,0,0,8,5.72c7,2.94,11.61,3.11,15.86.49v-.16a.16.16,0,0,0,.16-.16,5.88,5.88,0,0,0,2-2.94,6.66,6.66,0,0,0,.16-3.6Z"/><path class="cls-1" d="M67,23.34h0Z"/><path class="cls-1" d="M78,35.27a3.57,3.57,0,0,1,.82.65,5.05,5.05,0,0,0,3.43-4.74,3.56,3.56,0,0,0-.82-.65A6.79,6.79,0,0,1,78,35.27Z"/><path class="cls-1" d="M109.38,51.13V50.8c-1.14-8-6.7-11.93-11.93-14.71A28.76,28.76,0,0,0,88.29,33c-1-.16-1.8-.33-2.62-.49a1.23,1.23,0,0,0-.65-.16,6.68,6.68,0,0,1-4.41,5.89c.16.16.16.33.33.49.49.82.82,1.63,1.31,2.62a32.12,32.12,0,0,0,5.23,8.17c4.09,4.09,9.32,8.34,17.49,7.19h.33a6,6,0,0,0,2.78-2.29,4.66,4.66,0,0,0,1.31-3.27Z"/><path class="cls-1" d="M78.8,28.41a20.3,20.3,0,0,1-2.62-3.11c-.16-.16-.33-.49-.65-.82-1.14-1.47-2-2.45-3.6-2.78a4.44,4.44,0,0,0-4.74,1.64,4.71,4.71,0,0,0-.33,5.23c.65,1.31,2,2,3.76,2.62a1.25,1.25,0,0,0,.82.33,21.83,21.83,0,0,1,3.92,2,5.48,5.48,0,0,0,3.43-5.07Z"/><path class="cls-1" d="M42.51,75.65Z"/><path class="cls-1" d="M38.75,83.83a22.46,22.46,0,0,1,1,4.41,7,7,0,0,0,5.72-.16,20.55,20.55,0,0,1,1-4.25,2.32,2.32,0,0,1,.33-1c.33-1.8.65-2.94,0-4.41a4.29,4.29,0,0,0-4.25-2.78,4.22,4.22,0,0,0-4.09,2.78c-.65,1.47-.49,2.62,0,4.41.16.33.16.65.33,1Z"/><path class="cls-1" d="M45.45,92.17v-1a7.7,7.7,0,0,1-5.72.16,2.07,2.07,0,0,1-.16,1,7.36,7.36,0,0,0,5.89-.16Z"/><path class="cls-1" d="M47.74,114.4a32.1,32.1,0,0,1,2.62-8.67,34.91,34.91,0,0,0-2.78-8,14.94,14.94,0,0,1-1.14-2.29c0-.16-.16-.33-.16-.49-1.8,1.31-5.72,1.31-7.36.16,0,.16-.16.16-.16.33a14.94,14.94,0,0,1-1.14,2.29,31.31,31.31,0,0,0-3.11,9.16c-.49,3.43-1.8,15,4.41,21.25.16,0,.16.16.33.16a5.63,5.63,0,0,0,3.11.65h.33c.82,0,2.45,0,3.27-.65.16,0,.16-.16.33-.16a14.29,14.29,0,0,0,1.31-1.63,47.46,47.46,0,0,1,.16-12.1Z"/><path class="cls-1" d="M79.78,100.67A5.28,5.28,0,0,1,77,99c-.16.33-.33.82-.49,1.14a4,4,0,0,0,2.62,1.63,4.15,4.15,0,0,0,3.11-.33c.16-.16.16-.49.33-.82a7.92,7.92,0,0,1-2.78,0Z"/><path class="cls-1" d="M87,88.73c-.16-1.8-1.47-3.11-3.43-3.76a4.6,4.6,0,0,0-4.9,1.63c-1,1.31-1,2.62-1,4.58v1a26.12,26.12,0,0,1,0,3.6,4.06,4.06,0,0,0,2.62,2,4.49,4.49,0,0,0,3.27-.33,20.2,20.2,0,0,1,1.63-3.27c.16-.33.49-.65.49-.82,1-1.63,1.64-2.94,1.31-4.58Z"/><path class="cls-1" d="M79.46,105.41c-.33,0-.65-.16-1-.16a5.36,5.36,0,0,1-3.11-2c-.16.16-.33.33-.33.49-.49.65-1,1.14-1.47,1.8-.82,1-1.63,2.13-2.62,3.43a20.46,20.46,0,0,1,1.31,5.23c.65,3.76,1.31,11.12-1,17.66h0a5,5,0,0,0,3.43,0H75a11.6,11.6,0,0,0,2.29-1.63,22.16,22.16,0,0,1-2.94-9.65,21.48,21.48,0,0,1,5.07-15.2Z"/><path class="cls-1" d="M132.92,66.66c.82-3.6-.49-4.74-3.11-5.89a7.33,7.33,0,0,0-1.8.16h-3.27a21.39,21.39,0,0,0-9.16,1.47c-4.09,2-7.36,5.72-8.34,9.32v.49a4,4,0,0,0,.49,3.27v.16h0l.16.16a4.35,4.35,0,0,0,2.45,2.45h.16l.16.16c3.6,1.47,8.34,1,12.43-1.14a20.7,20.7,0,0,0,6.54-6.54c.65-.82,1.14-1.47,1.64-2.13l.33-.49a9.88,9.88,0,0,1,1.31-1.31v-.16Z"/><path class="cls-1" d="M135.53,61.76a6.55,6.55,0,0,1,.16,3.11l1-.49c.65-3.11-.49-4.25-2.62-5.4l-1,.49a5.58,5.58,0,0,1,2.45,2.29Z"/><path class="cls-1" d="M147.3,55.71a4.56,4.56,0,0,0-4.41-2.62,7.12,7.12,0,0,0-4.09,2.13,2.86,2.86,0,0,1-.82.65,14.73,14.73,0,0,1-1.63,1.47,5.19,5.19,0,0,1,2.78,2.45,5.88,5.88,0,0,1,.16,3.76,16.81,16.81,0,0,1,2.29-.65,2.07,2.07,0,0,0,1-.16c1.8-.33,3.11-.65,4.09-2a4.45,4.45,0,0,0,.65-5.07Z"/><circle class="cls-3" cx="147.3" cy="55.71"/><path class="cls-1" d="M156,106.88a35.49,35.49,0,0,0-3.11-9c-.49-.82-.82-1.63-1.14-2.29a.57.57,0,0,0-.16-.33c-1.47,1-4.41,1.14-6.38.49h0a14.08,14.08,0,0,0-3.27,4.74,11.07,11.07,0,0,0-1.14,4.41v2.45a42.93,42.93,0,0,1-1,11.28c.65,3.43,2,7,4.41,9.48l.33.33a7.25,7.25,0,0,0,3.11.49h.49a7.25,7.25,0,0,0,3.11-.49l.33-.33c6.21-6.21,4.9-17.82,4.41-21.25Z"/><path class="cls-1" d="M143.71,79.25l.16.16a9.43,9.43,0,0,1,5.23,8.5,2.07,2.07,0,0,0-.16,1c.65-.16,1.31-.33,1.8-.49a17.94,17.94,0,0,1,1-4.41,6.84,6.84,0,0,1,.33-1c.33-1.8.65-3.11,0-4.58a4.77,4.77,0,0,0-4.25-2.78,4.73,4.73,0,0,0-4.09,2.78c-.16.33-.16.49-.33.82h.33Z"/><path class="cls-1" d="M150.9,92.49a2.07,2.07,0,0,1-.16-1A7.63,7.63,0,0,1,148,92c-.16.33-.49.82-.65,1.14a7.87,7.87,0,0,0,3.6-.65Z"/><path class="cls-1" d="M119,90a5.33,5.33,0,0,1-3.11-1.31c0,.33-.16,1-.16,1.14V90a4.94,4.94,0,0,0,2.94,1.31,4.5,4.5,0,0,0,2.94-.33V90A7,7,0,0,1,119,90Z"/><path class="cls-1" d="M116.41,85.63l.33.33a4.28,4.28,0,0,0,2.62,1.64,5.9,5.9,0,0,0,2.94-.49,15.37,15.37,0,0,1,1.63-4.25,3.57,3.57,0,0,1,.49-.82,11.24,11.24,0,0,1,.49-1.31,20.28,20.28,0,0,1-8.5,2.45v2.45Z"/><path class="cls-1" d="M117.71,95.27a29.31,29.31,0,0,1,4.74,6,4.33,4.33,0,0,0,1-.82c-.33-1.31-.65-2.62-1-3.76-.16-.82-.33-1.47-.49-2.13a1.48,1.48,0,0,1-.16-.82,5.4,5.4,0,0,1-3.6.33,5.49,5.49,0,0,1-2.29-.82c.65.65,1.14,1.31,1.8,2Z"/><path class="cls-1" d="M136.68,104.76v-.49l-.16-.33a5,5,0,0,0-6.7-3.11l-.65.16a.16.16,0,0,1-.16.16,25.17,25.17,0,0,1-2.13,2,32.23,32.23,0,0,0-7.36,7.52c-4.74,7.36-5.89,13.9-3.43,20.6v.16l.16.16A5.06,5.06,0,0,0,119,134a5.49,5.49,0,0,0,3.92.65h.33c8.17-3.11,10.79-10.14,12.43-16.51a38,38,0,0,0,1-10.63v-2.78Z"/><path class="cls-1" d="M132.26,96.74l-.49,1a6.38,6.38,0,0,1,5.89,2.45,2.33,2.33,0,0,1,.33-1,4.86,4.86,0,0,0-5.72-2.45Z"/><path class="cls-1" d="M141.91,83a5,5,0,0,0-5.39.82c-1.31,1.31-1.64,2.62-2,4.74a2.07,2.07,0,0,0-.16,1,30.23,30.23,0,0,1-1,4.25,6,6,0,0,1,6,2.62,20.62,20.62,0,0,1,2.62-3.27,3.57,3.57,0,0,1,.65-.82c1.31-1.63,2.13-2.78,2.13-4.58A4.9,4.9,0,0,0,141.91,83Z"/><circle class="cls-3" cx="141.91" cy="83.01"/><path class="cls-1" d="M55.92,91.51a23,23,0,0,1,1,5.07c1.31.82,4.58.65,5.89,0a23,23,0,0,1,1-5.07c.16-.33.16-.65.33-1a6.76,6.76,0,0,0,0-4.74,4.64,4.64,0,0,0-8.5,0,6.76,6.76,0,0,0,0,4.74c.16.33.16.65.33,1Z"/><path class="cls-1" d="M68,114.89a31.31,31.31,0,0,0-3.11-9.16,16.49,16.49,0,0,1-1.14-2.45c-1.8,1.47-6,1.47-7.68,0h-.16a16.52,16.52,0,0,1-1.14,2.45,31.3,31.3,0,0,0-3.11,9.16c-.65,3.43-1.8,15.37,4.41,21.74.16.16.16.16.33.16.82.65,2.62.65,3.27.65H60c.65,0,2.45,0,3.27-.65.16,0,.16,0,.33-.16,6.21-6.38,5.07-18.31,4.41-21.74Z"/><path class="cls-1" d="M62.95,100.67c0-.33-.16-.65-.16-1a9.07,9.07,0,0,1-5.89,0,1.23,1.23,0,0,1-.16.82c1.31,1.14,4.74,1,6.21.16Z"/><path class="cls-1" d="M100.55,86.94c-.16-.16-.33-.49-.65-.82a7.14,7.14,0,0,1-5.07,3.76,3.58,3.58,0,0,0,.49.82c1.14.33,2.45-.33,3.6-1.14a4.49,4.49,0,0,0,1.63-2.62Z"/><path class="cls-1" d="M96.13,86a3.92,3.92,0,0,0,1.8-3.11,34.6,34.6,0,0,1-1.31-3.6,4.16,4.16,0,0,1-.33-1.14c-.82-2-1.31-3.27-2.94-4.25a5.13,5.13,0,0,0-7.68,5.4C86,81,87,82,88.61,83.34a2.87,2.87,0,0,0,.82.65A18.66,18.66,0,0,1,92.7,87.1,4.62,4.62,0,0,0,96.13,86Z"/><path class="cls-1" d="M119.51,104.26a27.29,27.29,0,0,0-4.74-6.21,33.29,33.29,0,0,0-8.83-6.87c-.65-.49-1.31-.82-2-1.31a2.93,2.93,0,0,1-1.14-.82,6.59,6.59,0,0,1-6.38,4.41,3.85,3.85,0,0,1,.33,1.31l.49,2.45a40.44,40.44,0,0,0,3.11,10.63c2.94,6,6.54,9.81,11,11.28a31.83,31.83,0,0,1,4.74-10.63,32.27,32.27,0,0,1,3.43-4.25Z"/></g></g></svg>