<?xml version="1.0" encoding="iso-8859-1"?>
<!-- Generator: Adobe Illustrator 18.0.0, SVG Export Plug-In . SVG Version: 6.00 Build 0)  -->
<!DOCTYPE svg PUBLIC "-//W3C//DTD SVG 1.1//EN" "http://www.w3.org/Graphics/SVG/1.1/DTD/svg11.dtd">
<svg version="1.1" id="Capa_1" xmlns="http://www.w3.org/2000/svg" xmlns:xlink="http://www.w3.org/1999/xlink" x="0px" y="0px"
	 viewBox="0 0 153.558 153.558" style="enable-background:new 0 0 153.558 153.558;" xml:space="preserve">
<g>
	<g>
		<g>
			<g>
				<path style="fill:#2E424B;" d="M52.448,47.279c-4.637-1.836-9.274-3.672-13.911-5.508c-1.014-0.404-1.704,0.9-1.822,1.246
					c-0.719,2.016-1.128,4.224-1.213,6.415c-0.614,0.214-0.976,1.022-1.045,1.279c-0.59,2.049-0.847,4.281-0.765,6.467
					c-0.625,0.192-0.948,1.035-1.001,1.294c-0.461,2.075-0.568,4.325-0.319,6.493c-0.644,0.166-0.921,1.05-0.959,1.311
					c-0.333,2.099-0.286,4.361,0.133,6.503c-0.676,0.127-0.906,1.06-0.927,1.32c-0.205,2.126,0.007,4.403,0.602,6.513
					c-0.724,0.075-0.911,1.048-0.917,1.309c-0.075,2.146,0.297,4.435,1.07,6.494c-0.791,0.012-0.919,1.042-0.909,1.302
					c0.057,2.172,0.608,4.467,1.569,6.465c-0.046,0.003-0.092,0.005-0.138,0.008c-0.762,0.04-0.823,1.032-0.799,1.278
					c0.191,2.191,0.921,4.492,2.075,6.405l-0.299,0.034c-0.711,0.082-0.712,1.014-0.676,1.242c0.331,2.211,1.258,4.506,2.61,6.309
					c-0.163,0.029-0.325,0.059-0.488,0.088c-0.659,0.116-0.606,0.984-0.559,1.195c0.474,2.229,1.61,4.514,3.167,6.171
					c-0.231,0.056-0.462,0.112-0.693,0.168c-0.605,0.146-0.507,0.95-0.451,1.143c0.624,2.247,1.99,4.519,3.755,5.981
					c-0.309,0.096-0.618,0.191-0.927,0.287c-0.55,0.169-0.413,0.906-0.351,1.081c0.882,2.557,2.833,5.098,5.152,6.13
					c0.004,0.025-0.002,0.05,0.003,0.075c0.159,0.717-0.014,1.368-0.403,1.977c-0.436,0.683-0.142,1.655,0.538,2.052
					c0.725,0.424,1.615,0.146,2.052-0.538c0.457-0.715,0.704-1.505,0.794-2.317c0.472,0.033,0.949,0.017,1.42-0.086
					c0.792-0.173,1.254-1.095,1.048-1.846c-0.225-0.817-1.051-1.221-1.845-1.048c-0.082,0.019-0.113,0.029-0.123,0.036
					c-0.007-0.001-0.017-0.002-0.03-0.003c0.872-2.206,0.801-4.96,0.172-7.218c-0.047-0.166-0.293-0.811-0.887-0.628
					c-0.309,0.096-0.617,0.19-0.926,0.286c0.664-2.111,0.66-4.563,0.217-6.648c-0.04-0.181-0.261-0.888-0.914-0.729
					c-0.23,0.056-0.46,0.111-0.689,0.167c0.653-2.073,0.753-4.417,0.448-6.463c-0.031-0.195-0.22-0.965-0.931-0.838
					c-0.161,0.028-0.322,0.058-0.482,0.086c0.67-2.028,0.869-4.281,0.695-6.29c-0.021-0.209-0.172-1.038-0.939-0.95
					c-0.098,0.012-0.196,0.022-0.294,0.034c0.702-1.979,0.997-4.15,0.946-6.121c-0.008-0.223-0.115-1.109-0.937-1.066
					c-0.043,0.003-0.087,0.005-0.131,0.007c0.747-1.927,1.141-4.021,1.21-5.952c0.005-0.233-0.052-1.155-0.899-1.183
					c0.798-1.872,1.281-3.895,1.465-5.785c0.02-0.231,0.012-1.112-0.748-1.276c0.858-1.819,1.438-3.774,1.733-5.627
					c0.034-0.23,0.084-1.084-0.589-1.357c0.92-1.763,1.588-3.653,1.991-5.463c0.048-0.229,0.146-1.052-0.443-1.414
					c0.987-1.707,1.748-3.536,2.257-5.304c0.062-0.227,0.203-1.017-0.305-1.451c1.058-1.652,1.912-3.421,2.526-5.146
					c0.076-0.223,0.264-0.986-0.165-1.478c1.13-1.594,2.072-3.301,2.789-4.979C53.155,48.923,53.541,47.713,52.448,47.279z"/>
				<path style="fill:#233842;" d="M50.316,48.585l-11.105-4.397c-0.373-0.147-0.801,0.049-0.915,0.434
					c-0.458,1.548-0.731,3.219-0.795,4.889l-0.053,1.365l-0.708,0.245c-0.161,0.171-0.294,0.313-0.456,0.483
					c-0.46,1.731-0.665,3.625-0.595,5.5l0.057,1.531l-0.725,0.225c-0.244,0.075-0.432,0.277-0.48,0.528
					c-0.327,1.716-0.391,3.554-0.185,5.35l0.199,1.732l-0.74,0.189c-0.276,0.071-0.487,0.303-0.52,0.586
					c-0.193,1.681-0.122,3.447,0.211,5.151l0.386,1.976l-0.774,0.145c-0.315,0.06-0.557,0.326-0.568,0.646
					c-0.056,1.618,0.149,3.328,0.593,4.904l0.644,2.284l-0.856,0.09c-0.36,0.038-0.64,0.347-0.622,0.708
					c0.075,1.543,0.397,3.126,0.936,4.561l0.654,1.744c0.167,0.446-0.158,0.924-0.635,0.931c-0.408,0.006-0.733,0.364-0.677,0.768
					c0.2,1.437,0.628,2.873,1.248,4.161l0.774,1.805c0.189,0.441-0.118,0.936-0.597,0.96l-0.033,0.002
					c-0.417,0.023-0.732,0.41-0.642,0.818c0.307,1.396,0.844,2.774,1.547,3.941l1.053,1.747c0.259,0.43-0.014,0.983-0.512,1.04
					l-0.283,0.032c-0.433,0.05-0.707,0.482-0.58,0.899c0.409,1.344,1.048,2.636,1.845,3.698l1.282,1.71
					c0.309,0.411,0.074,1.004-0.433,1.092l-0.484,0.085c-0.435,0.076-0.683,0.534-0.521,0.944c0.513,1.302,1.26,2.522,2.133,3.452
					l1.536,1.637c0.361,0.384,0.174,1.016-0.338,1.141l-0.732,0.18c-0.433,0.107-0.648,0.587-0.452,0.987
					c0.617,1.257,1.472,2.396,2.416,3.18l0.656,0.544c0.151,0.437,0.337,1.027,0.214,1.376c-0.062,0.174-0.167,0.237-0.266,0.326
					l-0.025,0.009c-0.43,0.156-0.621,0.753-0.39,1.211c0.027,0.054,0.058,0.105,0.085,0.158c0.002,0.008,0.001,0.014,0.004,0.021
					c0.167,0.607,0.599,1.189,1.106,1.716c0.628,0.803,1.323,1.438,2.025,1.81l0.461,0.243l0.32-0.961
					c0.432-1.295,0.589-2.952,0.469-4.64c-0.038-0.527-0.469-0.887-0.896-0.729l-0.317,0.116c-0.4-0.327-0.774-0.687-1.085-1.1
					c-0.034-0.046-0.076-0.074-0.116-0.104l0.257-0.817c0.344-1.096,0.486-2.369,0.424-3.663c-0.021-0.44-0.427-0.76-0.856-0.654
					l-0.833,0.205c-0.522,0.129-0.983-0.363-0.822-0.876l0.701-2.225c0.35-1.11,0.527-2.39,0.521-3.675
					c-0.002-0.435-0.382-0.769-0.81-0.693l-0.583,0.103c-0.513,0.09-0.937-0.4-0.773-0.896l0.688-2.081
					c0.376-1.138,0.594-2.408,0.645-3.689c0.016-0.417-0.36-0.745-0.775-0.696l-0.369,0.045c-0.507,0.061-0.902-0.434-0.731-0.915
					l0.707-1.99c0.401-1.13,0.666-2.391,0.777-3.658c0.037-0.416-0.32-0.762-0.737-0.734l-0.197,0.014
					c-0.503,0.033-0.871-0.467-0.689-0.938l0.744-1.919c0.445-1.148,0.767-2.428,0.939-3.704c0.054-0.399-0.263-0.756-0.666-0.769
					l-0.077-0.003c-0.484-0.016-0.802-0.514-0.612-0.959l0.751-1.762c0.518-1.216,0.904-2.537,1.135-3.87
					c0.063-0.361-0.181-0.708-0.54-0.785l-0.92-0.199l1.073-2.275c0.595-1.262,1.06-2.634,1.362-4.009
					c0.072-0.326-0.11-0.657-0.42-0.783l-0.779-0.317l1.016-1.947c0.67-1.284,1.216-2.692,1.595-4.089
					c0.08-0.294-0.051-0.606-0.312-0.766l-0.67-0.411l0.976-1.687c0.749-1.295,1.383-2.721,1.845-4.138
					c0.086-0.266-0.001-0.558-0.214-0.739l-0.572-0.487l0.94-1.468c0.833-1.302,1.559-2.735,2.11-4.17
					c0.092-0.239,0.04-0.509-0.128-0.702l-0.477-0.549l0.91-1.283c0.773-1.092,1.479-2.284,2.075-3.517
					C50.863,49.162,50.686,48.732,50.316,48.585z"/>
			</g>
			<path style="fill:#F6A65A;" d="M47.902,131.438c0.011-0.451-0.545-0.636-0.854-0.354c-0.623,0.571-1.332,1.049-2.097,1.408
				c-0.387,0.182-0.788,0.334-1.2,0.452c-0.418,0.121-0.876,0.143-1.269,0.337c-0.241,0.119-0.413,0.324-0.457,0.593
				c-0.117,0.72,0.688,0.94,1.249,0.923c0.968-0.031,1.921-0.343,2.737-0.86c0.758-0.481,1.708-1.295,1.865-2.228
				C47.892,131.619,47.9,131.529,47.902,131.438z"/>
		</g>
		<g>
			<g>
				<path style="fill:#2E424B;" d="M101.11,46.412c4.637-1.836,9.274-3.672,13.911-5.508c1.014-0.404,1.704,0.9,1.822,1.246
					c0.719,2.016,1.129,4.224,1.213,6.415c0.614,0.214,0.976,1.023,1.045,1.28c0.59,2.048,0.847,4.28,0.765,6.466
					c0.625,0.192,0.948,1.035,1.001,1.294c0.462,2.075,0.568,4.325,0.319,6.494c0.644,0.165,0.921,1.049,0.959,1.31
					c0.333,2.099,0.286,4.361-0.133,6.503c0.676,0.127,0.906,1.06,0.927,1.32c0.205,2.126-0.007,4.403-0.602,6.513
					c0.724,0.075,0.911,1.048,0.917,1.309c0.075,2.146-0.297,4.435-1.07,6.494c0.791,0.012,0.919,1.042,0.909,1.302
					c-0.057,2.172-0.608,4.467-1.569,6.465c0.046,0.003,0.092,0.005,0.138,0.008c0.762,0.04,0.824,1.032,0.799,1.277
					c-0.191,2.192-0.921,4.492-2.075,6.406l0.299,0.035c0.711,0.081,0.712,1.013,0.676,1.241c-0.331,2.211-1.258,4.506-2.61,6.309
					c0.163,0.029,0.325,0.059,0.488,0.087c0.659,0.117,0.606,0.986,0.559,1.196c-0.474,2.229-1.61,4.514-3.166,6.171
					c0.231,0.056,0.462,0.112,0.693,0.168c0.605,0.146,0.507,0.949,0.451,1.143c-0.624,2.247-1.99,4.519-3.755,5.981
					c0.309,0.096,0.618,0.191,0.927,0.287c0.55,0.169,0.413,0.906,0.351,1.081c-0.883,2.557-2.833,5.098-5.152,6.13
					c-0.004,0.025,0.003,0.05-0.003,0.075c-0.159,0.717,0.014,1.368,0.403,1.977c0.437,0.683,0.142,1.654-0.538,2.052
					c-0.725,0.424-1.615,0.146-2.052-0.538c-0.457-0.715-0.704-1.505-0.794-2.317c-0.472,0.033-0.949,0.017-1.42-0.086
					c-0.792-0.173-1.254-1.095-1.048-1.846c0.225-0.817,1.051-1.221,1.845-1.048c0.082,0.019,0.113,0.029,0.123,0.036
					c0.007-0.001,0.017-0.002,0.03-0.003c-0.872-2.207-0.801-4.96-0.172-7.218c0.047-0.166,0.293-0.811,0.887-0.628
					c0.309,0.096,0.617,0.191,0.926,0.286c-0.664-2.111-0.66-4.563-0.217-6.648c0.041-0.181,0.261-0.888,0.914-0.729
					c0.23,0.056,0.46,0.111,0.689,0.167c-0.653-2.073-0.753-4.417-0.448-6.463c0.031-0.195,0.22-0.964,0.931-0.838
					c0.161,0.028,0.322,0.058,0.482,0.086c-0.67-2.028-0.869-4.281-0.695-6.29c0.021-0.209,0.172-1.037,0.939-0.95
					c0.098,0.012,0.196,0.022,0.293,0.034c-0.703-1.979-0.997-4.15-0.946-6.121c0.008-0.223,0.115-1.109,0.937-1.066
					c0.043,0.003,0.087,0.005,0.131,0.007c-0.747-1.927-1.141-4.021-1.21-5.952c-0.005-0.233,0.052-1.155,0.899-1.183
					c-0.798-1.872-1.281-3.895-1.465-5.785c-0.02-0.231-0.012-1.112,0.748-1.276c-0.858-1.819-1.438-3.774-1.733-5.627
					c-0.033-0.23-0.084-1.084,0.589-1.357c-0.92-1.763-1.588-3.654-1.991-5.463c-0.048-0.229-0.147-1.052,0.443-1.414
					c-0.987-1.707-1.748-3.536-2.257-5.304c-0.061-0.227-0.203-1.017,0.305-1.451c-1.058-1.651-1.912-3.421-2.526-5.147
					c-0.076-0.223-0.264-0.986,0.165-1.477c-1.13-1.594-2.072-3.301-2.789-4.979C100.403,48.057,100.018,46.847,101.11,46.412z"/>
				<path style="fill:#233842;" d="M103.242,47.719l11.105-4.397c0.373-0.147,0.801,0.049,0.915,0.434
					c0.458,1.548,0.73,3.219,0.795,4.889l0.053,1.365l0.708,0.245c0.161,0.171,0.294,0.313,0.455,0.483
					c0.46,1.731,0.665,3.625,0.595,5.5l-0.057,1.531l0.725,0.224c0.244,0.076,0.432,0.278,0.48,0.529
					c0.327,1.715,0.391,3.554,0.185,5.35L119,65.604l0.74,0.189c0.276,0.071,0.487,0.303,0.52,0.586
					c0.193,1.681,0.122,3.447-0.21,5.15l-0.386,1.978l0.774,0.145c0.316,0.06,0.557,0.326,0.568,0.646
					c0.056,1.618-0.149,3.328-0.593,4.904l-0.644,2.284l0.856,0.09c0.36,0.038,0.64,0.347,0.622,0.708
					c-0.075,1.543-0.397,3.126-0.936,4.561l-0.654,1.744c-0.167,0.446,0.158,0.924,0.635,0.931c0.408,0.006,0.733,0.364,0.677,0.768
					c-0.2,1.437-0.628,2.873-1.248,4.161l-0.774,1.805c-0.189,0.441,0.118,0.936,0.597,0.96l0.033,0.002
					c0.418,0.022,0.732,0.41,0.643,0.818c-0.307,1.396-0.844,2.774-1.547,3.941l-1.053,1.747c-0.259,0.43,0.014,0.983,0.512,1.04
					l0.283,0.032c0.433,0.05,0.707,0.482,0.58,0.899c-0.409,1.344-1.048,2.636-1.845,3.698l-1.282,1.71
					c-0.309,0.411-0.074,1.004,0.433,1.092l0.484,0.085c0.435,0.076,0.683,0.534,0.521,0.944c-0.513,1.302-1.26,2.522-2.133,3.453
					l-1.536,1.636c-0.361,0.384-0.174,1.016,0.338,1.141l0.732,0.18c0.433,0.106,0.648,0.587,0.452,0.987
					c-0.617,1.257-1.472,2.396-2.416,3.18l-0.656,0.544c-0.151,0.437-0.338,1.027-0.214,1.376c0.062,0.174,0.167,0.237,0.266,0.326
					l0.025,0.009c0.43,0.156,0.621,0.753,0.39,1.211c-0.027,0.054-0.058,0.105-0.085,0.158c-0.002,0.008-0.001,0.014-0.004,0.021
					c-0.167,0.607-0.599,1.188-1.106,1.716c-0.628,0.803-1.323,1.439-2.025,1.81l-0.461,0.243l-0.32-0.961
					c-0.432-1.295-0.589-2.953-0.469-4.64c0.038-0.527,0.469-0.887,0.896-0.729l0.317,0.116c0.4-0.327,0.774-0.687,1.085-1.1
					c0.034-0.046,0.076-0.073,0.116-0.104l-0.257-0.817c-0.344-1.096-0.486-2.369-0.424-3.663c0.021-0.44,0.427-0.761,0.856-0.654
					l0.834,0.205c0.522,0.129,0.984-0.363,0.822-0.876l-0.701-2.225c-0.35-1.11-0.527-2.39-0.521-3.675
					c0.002-0.435,0.382-0.769,0.81-0.693l0.583,0.103c0.513,0.09,0.937-0.4,0.773-0.896l-0.688-2.081
					c-0.376-1.138-0.594-2.408-0.645-3.689c-0.016-0.417,0.36-0.745,0.775-0.696l0.369,0.045c0.507,0.061,0.902-0.434,0.731-0.915
					l-0.706-1.99c-0.401-1.13-0.666-2.391-0.777-3.658c-0.037-0.416,0.32-0.762,0.737-0.734l0.197,0.014
					c0.503,0.033,0.871-0.467,0.688-0.938l-0.744-1.918c-0.445-1.149-0.767-2.429-0.939-3.705c-0.054-0.4,0.263-0.756,0.666-0.769
					l0.077-0.003c0.484-0.016,0.802-0.514,0.612-0.959l-0.751-1.762c-0.518-1.216-0.904-2.537-1.135-3.87
					c-0.063-0.361,0.181-0.708,0.54-0.785l0.92-0.198l-1.073-2.276c-0.595-1.262-1.06-2.634-1.362-4.009
					c-0.072-0.326,0.11-0.657,0.419-0.783l0.779-0.317l-1.016-1.948c-0.67-1.283-1.216-2.691-1.595-4.088
					c-0.08-0.295,0.051-0.606,0.312-0.766l0.67-0.411l-0.976-1.686c-0.748-1.295-1.383-2.721-1.845-4.138
					c-0.086-0.266,0.001-0.558,0.214-0.739l0.572-0.488l-0.94-1.467c-0.834-1.302-1.559-2.735-2.11-4.17
					c-0.092-0.239-0.039-0.509,0.128-0.702l0.477-0.549l-0.91-1.283c-0.773-1.092-1.479-2.284-2.075-3.517
					C102.695,48.296,102.872,47.865,103.242,47.719z"/>
			</g>
			<path style="fill:#F6A65A;" d="M105.656,130.572c-0.011-0.451,0.545-0.636,0.854-0.354c0.623,0.571,1.332,1.049,2.097,1.408
				c0.387,0.183,0.788,0.334,1.2,0.452c0.418,0.121,0.876,0.143,1.27,0.337c0.241,0.12,0.413,0.324,0.457,0.593
				c0.117,0.72-0.688,0.941-1.249,0.923c-0.968-0.03-1.921-0.343-2.737-0.86c-0.758-0.481-1.707-1.295-1.865-2.227
				C105.666,130.753,105.658,130.662,105.656,130.572z"/>
		</g>
		<g>
			<g>
				<path style="fill:#152A35;" d="M112.83,148.346c-0.285-1.747-0.788-3.438-1.481-5.059c-0.315-0.735-0.667-1.457-1.06-2.161
					c-1.016-1.819-2.284-3.527-3.769-5.096c-0.739-0.781-1.535-1.525-2.378-2.233c-2.632-2.213-5.745-4.051-9.206-5.407
					c-3.216-1.261-6.73-2.103-10.436-2.44c-1.211-0.111-2.44-0.174-3.688-0.174h-6.758c-1.248,0-2.477,0.063-3.688,0.174
					c-3.706,0.338-7.22,1.18-10.436,2.44c-3.461,1.357-6.574,3.195-9.207,5.408c-0.841,0.708-1.636,1.451-2.375,2.232
					c-1.485,1.568-2.754,3.276-3.77,5.097c-0.393,0.704-0.744,1.426-1.06,2.161c-0.695,1.621-1.198,3.314-1.483,5.063
					c-0.118,0.725-0.193,1.459-0.235,2.201c1.158,0.191,2.317,0.378,3.477,0.552c3.972,0.597,7.951,1.094,11.936,1.478
					c0.171,0.017,0.343,0.032,0.514,0.049c17.282,1.651,34.652,1.072,51.877-1.526c1.155-0.174,2.309-0.357,3.462-0.549
					C113.024,149.81,112.949,149.073,112.83,148.346z"/>
				<g>
					<path style="fill:#9BC5BF;" d="M63.417,143.31c-0.081-0.036-0.176-0.052-0.286-0.04c-0.259,0.029-0.525,0.201-0.697,0.395
						c-0.053,0.06-0.091,0.126-0.131,0.191c0.024-0.04-0.268-0.314-0.307-0.346c-0.116-0.096-0.252-0.175-0.408-0.174
						c-0.345,0.004-0.539,0.331-0.453,0.646c0.043,0.161,0.142,0.301,0.252,0.426c0.154,0.174,0.731,0.669,1.05,0.939
						c0.121,0.103,0.298,0.089,0.402-0.031c0.242-0.277,0.652-0.766,0.815-1.082C63.824,143.908,63.731,143.453,63.417,143.31z"/>
					<path style="fill:#9BC5BF;" d="M48.519,144.967c-0.081-0.036-0.176-0.053-0.286-0.04c-0.26,0.029-0.526,0.201-0.697,0.395
						c-0.053,0.059-0.091,0.126-0.131,0.191c0.024-0.04-0.269-0.314-0.307-0.347c-0.116-0.096-0.253-0.174-0.408-0.173
						c-0.345,0.004-0.539,0.331-0.454,0.646c0.043,0.161,0.142,0.301,0.252,0.426c0.154,0.174,0.732,0.669,1.05,0.939
						c0.121,0.103,0.298,0.089,0.402-0.03c0.242-0.278,0.651-0.768,0.815-1.083C48.926,145.566,48.833,145.111,48.519,144.967z"/>
					<path style="fill:#9BC5BF;" d="M55.102,136.976c-0.081-0.037-0.176-0.053-0.286-0.041c-0.259,0.029-0.525,0.202-0.697,0.395
						c-0.053,0.06-0.091,0.126-0.131,0.191c0.024-0.04-0.268-0.314-0.307-0.346c-0.116-0.096-0.252-0.175-0.407-0.173
						c-0.345,0.003-0.539,0.33-0.454,0.645c0.043,0.161,0.142,0.301,0.252,0.426c0.154,0.174,0.731,0.669,1.049,0.939
						c0.121,0.102,0.298,0.089,0.402-0.03c0.243-0.277,0.652-0.767,0.816-1.083C55.509,137.573,55.416,137.118,55.102,136.976z"/>
					<path style="fill:#9BC5BF;" d="M77.5,149.614c-0.081-0.037-0.176-0.053-0.286-0.041c-0.26,0.03-0.525,0.202-0.697,0.395
						c-0.053,0.059-0.091,0.126-0.131,0.191c0.024-0.04-0.268-0.314-0.307-0.346c-0.116-0.096-0.253-0.175-0.408-0.173
						c-0.345,0.003-0.539,0.33-0.453,0.646c0.043,0.16,0.142,0.301,0.252,0.425c0.154,0.174,0.731,0.67,1.05,0.939
						c0.121,0.102,0.298,0.089,0.402-0.03c0.242-0.277,0.651-0.767,0.815-1.083C77.908,150.211,77.814,149.756,77.5,149.614z"/>
					<path style="fill:#9BC5BF;" d="M57.083,149.614c-0.081-0.037-0.176-0.053-0.286-0.041c-0.259,0.03-0.525,0.202-0.697,0.395
						c-0.053,0.059-0.091,0.126-0.131,0.191c0.024-0.04-0.268-0.314-0.307-0.346c-0.116-0.096-0.253-0.175-0.407-0.173
						c-0.345,0.003-0.539,0.33-0.454,0.646c0.043,0.16,0.142,0.301,0.252,0.425c0.154,0.174,0.731,0.67,1.049,0.939
						c0.121,0.102,0.298,0.089,0.402-0.03c0.242-0.277,0.652-0.767,0.816-1.083C57.49,150.211,57.397,149.756,57.083,149.614z"/>
					<path style="fill:#9BC5BF;" d="M99.458,149.614c-0.081-0.037-0.176-0.053-0.286-0.041c-0.26,0.03-0.525,0.202-0.697,0.395
						c-0.053,0.059-0.091,0.126-0.131,0.191c0.024-0.04-0.268-0.314-0.307-0.346c-0.116-0.096-0.252-0.175-0.408-0.173
						c-0.345,0.003-0.539,0.33-0.453,0.646c0.043,0.16,0.142,0.301,0.252,0.425c0.154,0.174,0.731,0.67,1.05,0.939
						c0.121,0.102,0.298,0.089,0.402-0.03c0.242-0.277,0.651-0.767,0.815-1.083C99.865,150.211,99.771,149.756,99.458,149.614z"/>
					<path style="fill:#9BC5BF;" d="M77.5,138.051c-0.081-0.037-0.176-0.053-0.286-0.041c-0.26,0.03-0.525,0.202-0.697,0.395
						c-0.053,0.059-0.091,0.126-0.131,0.191c0.024-0.04-0.268-0.314-0.307-0.346c-0.116-0.096-0.253-0.175-0.408-0.173
						c-0.345,0.003-0.539,0.33-0.453,0.646c0.043,0.16,0.142,0.301,0.252,0.425c0.154,0.174,0.731,0.67,1.05,0.939
						c0.121,0.102,0.298,0.089,0.402-0.03c0.242-0.277,0.651-0.767,0.815-1.083C77.908,138.649,77.814,138.194,77.5,138.051z"/>
					<path style="fill:#9BC5BF;" d="M96.834,135.301c-0.08-0.037-0.176-0.053-0.286-0.041c-0.259,0.03-0.525,0.202-0.697,0.395
						c-0.053,0.059-0.091,0.126-0.131,0.191c0.024-0.04-0.268-0.314-0.307-0.346c-0.116-0.096-0.252-0.175-0.407-0.173
						c-0.345,0.003-0.539,0.33-0.454,0.646c0.043,0.16,0.142,0.301,0.252,0.425c0.154,0.174,0.731,0.67,1.049,0.939
						c0.121,0.102,0.298,0.089,0.402-0.03c0.242-0.277,0.652-0.767,0.816-1.083C97.242,135.899,97.148,135.444,96.834,135.301z"/>
					<path style="fill:#9BC5BF;" d="M90.667,144.967c-0.081-0.036-0.176-0.053-0.286-0.04c-0.259,0.029-0.525,0.201-0.697,0.395
						c-0.053,0.059-0.091,0.126-0.131,0.191c0.024-0.04-0.268-0.314-0.307-0.347c-0.116-0.096-0.252-0.174-0.408-0.173
						c-0.345,0.004-0.539,0.331-0.453,0.646c0.044,0.161,0.142,0.301,0.252,0.426c0.154,0.174,0.731,0.669,1.05,0.939
						c0.121,0.103,0.298,0.089,0.402-0.03c0.242-0.278,0.652-0.768,0.815-1.083C91.074,145.566,90.981,145.111,90.667,144.967z"/>
					<path style="fill:#9BC5BF;" d="M108.278,144.386c-0.081-0.037-0.176-0.053-0.286-0.041c-0.26,0.03-0.525,0.202-0.697,0.395
						c-0.053,0.06-0.091,0.126-0.131,0.191c0.024-0.04-0.268-0.314-0.307-0.346c-0.116-0.096-0.253-0.175-0.408-0.173
						c-0.345,0.003-0.539,0.33-0.453,0.646c0.044,0.16,0.142,0.3,0.252,0.425c0.154,0.174,0.731,0.67,1.05,0.939
						c0.121,0.103,0.298,0.089,0.402-0.03c0.242-0.277,0.651-0.767,0.816-1.083C108.686,144.984,108.592,144.529,108.278,144.386z"
						/>
				</g>
			</g>
			<g>
				<g>
					<path style="fill:#FCD0A3;" d="M77.479,128.896L77.479,128.896c-1.934,0-3.502-1.567-3.502-3.501v-13.964
						c0-1.934,1.567-3.501,3.502-3.501l0,0c1.934,0,3.501,1.567,3.501,3.501v13.964C80.98,127.328,79.413,128.896,77.479,128.896z"
						/>
					<g>
						<path style="fill:#FCD0A3;" d="M77.479,115.333L77.479,115.333c-21.907,0-39.667-17.759-39.667-39.667v-34
							C37.812,19.759,55.572,2,77.479,2l0,0c21.907,0,39.666,17.759,39.666,39.666v34C117.146,97.574,99.386,115.333,77.479,115.333
							z"/>
						<path style="opacity:0.16;fill:#FCD0A3;" d="M55.799,104.884c-5.892-7.366-7.637-16.079-7.841-25.324
							c-0.202-9.157-0.265-17.485,0.294-26.664c0.544-8.917,2.318-17.641,6.815-25.004C61.251,17.764,72.392,8.209,83.054,2.41
							C81.201,2.145,79.309,2,77.382,2l0,0C55.475,2,37.716,19.759,37.716,41.666v34c0,18.021,12.022,33.227,28.48,38.057
							C62.252,111.428,58.702,108.513,55.799,104.884z"/>
					</g>
				</g>
				<path style="fill:#9BC5BF;" d="M92.303,125.134c-2.759-2.36-7.815-3.078-11.343-2.872c0,0,0.197,4.73-1.545,5.98
					c-0.008,0.005-0.032,0.02-0.07,0.043c-1.163,0.698-2.628,0.698-3.78-0.018c-0.021-0.013-0.036-0.021-0.041-0.025
					c-1.743-1.25-1.545-5.98-1.545-5.98c-3.528-0.206-8.584,0.512-11.343,2.872c-1.951,1.67-3.065,4.541-1.466,6.841
					c2.884,4.148,9.063,3.042,13.08,0.495c0.881-0.559,1.885-0.894,2.928-0.89c0.313,0,0.638,0.001,0.939,0.002
					c0.82,0.002,1.614,0.253,2.296,0.708c4.003,2.672,10.406,3.93,13.357-0.315C95.369,129.675,94.253,126.804,92.303,125.134z"/>
			</g>
		</g>
		<g>
			<path style="fill:#233842;" d="M119.101,54.729V42.406c0-23.315-19.079-42.799-42.391-42.399
				C54.067,0.395,35.768,18.934,35.768,41.667v13.062H119.101z"/>
		</g>
	</g>
	<g>
		<g>
			<path style="fill:none;stroke:#6F6F6E;stroke-width:0.1;stroke-linecap:round;stroke-linejoin:round;stroke-miterlimit:10;" d="
				M56.093,91.254c5.626,5.181,13.135,8.348,21.386,8.348c8.251,0,15.76-3.167,21.386-8.348"/>
			<g>
				<path style="fill:#DC2A2C;" d="M72.292,99.148l1.461,1.849c0.617,0.78,1.556,1.235,2.55,1.235h2.47
					c0.995,0,1.933-0.469,2.529-1.265l1.364-1.819H72.292z"/>
				<path style="fill:#E94941;" d="M78.025,97.063l-0.303,0.309c-0.142,0.145-0.374,0.146-0.517,0.002l-0.271-0.271
					c-0.732-0.732-1.922-0.728-2.648,0.012l-1.995,2.032h2.693c0.659,0,1.313,0.104,1.94,0.307l0.304,0.098
					c0.216,0.07,0.45,0.066,0.664-0.011l0.283-0.103c0.531-0.192,1.092-0.291,1.657-0.291h2.834l-2.097-2.097
					C79.865,96.347,78.723,96.353,78.025,97.063z"/>
			</g>
		</g>
		<g>
			
				<ellipse transform="matrix(0.9676 0.2525 -0.2525 0.9676 20.7053 -11.0713)" style="opacity:0.25;fill:#F296A4;" cx="53.482" cy="75.125" rx="11.974" ry="7.361"/>
			
				<ellipse transform="matrix(-0.9676 0.2525 -0.2525 -0.9676 218.4562 122.2109)" style="opacity:0.25;fill:#F296A4;" cx="101.385" cy="75.125" rx="11.974" ry="7.361"/>
		</g>
		<g>
			<g>
				<g>
					<g>
						<g>
							<path style="fill:#152A35;" d="M98.055,62.712c1.364,0.338,2.783-0.466,3.193-1.81c0.047-0.155-0.194-0.22-0.241-0.066
								c-0.37,1.213-1.655,1.941-2.886,1.635C97.965,62.432,97.898,62.673,98.055,62.712L98.055,62.712z"/>
						</g>
					</g>
					<g>
						<g>
							<path style="fill:#152A35;" d="M97.895,62.339c1.189,0,2.184-0.953,2.246-2.138c0.008-0.161-0.242-0.16-0.25,0
								c-0.055,1.05-0.948,1.887-1.996,1.888C97.733,62.089,97.733,62.339,97.895,62.339L97.895,62.339z"/>
						</g>
					</g>
					<g>
						<g>
							<path style="fill:#152A35;" d="M98.157,63.031c0.911,0.627,2.009,0.792,3.065,0.465c0.153-0.048,0.088-0.289-0.066-0.241
								c-0.998,0.309-2.012,0.152-2.872-0.44C98.15,62.723,98.025,62.94,98.157,63.031L98.157,63.031z"/>
						</g>
					</g>
				</g>
				<g>
					<g>
						<circle style="fill:#152A35;" cx="95.115" cy="63.973" r="3.333"/>
						<circle style="fill:#8E8D9C;" cx="95.115" cy="63.973" r="3.104"/>
						<polygon style="fill:#5F5D73;" points="92.511,62.535 93.854,63.185 92.682,62.262 93.947,63.053 92.881,62.009 
							94.053,62.932 93.106,61.78 94.172,62.823 93.355,61.574 94.302,62.728 93.625,61.399 94.441,62.648 93.912,61.252 
							94.588,62.582 94.213,61.139 94.742,62.533 94.525,61.058 94.899,62.501 94.844,61.011 95.06,62.487 95.166,60.999 
							95.221,62.489 95.487,61.022 95.381,62.51 95.804,61.079 95.538,62.547 96.113,61.171 95.689,62.601 96.41,61.295 
							95.834,62.671 96.692,61.45 95.971,62.756 96.955,61.636 96.097,62.856 97.197,61.848 96.212,62.969 97.415,62.086 
							96.314,63.093 97.605,62.346 96.402,63.228 97.767,62.624 96.476,63.371 97.897,62.919 96.533,63.522 97.995,63.226 
							96.573,63.678 98.059,63.541 96.597,63.837 98.088,63.863 96.603,63.998 98.083,64.184 96.591,64.158 98.042,64.504 
							96.563,64.318 97.968,64.817 96.517,64.472 97.86,65.12 96.455,64.62 97.72,65.41 96.376,64.761 97.549,65.684 96.284,64.893 
							97.35,65.937 96.178,65.014 97.124,66.166 96.059,65.122 96.875,66.371 95.929,65.218 96.606,66.547 95.79,65.299 
							96.319,66.694 95.643,65.364 96.018,66.808 95.489,65.412 95.706,66.889 95.331,65.445 95.387,66.935 95.171,65.459 
							95.065,66.947 95.01,65.456 94.744,66.924 94.85,65.437 94.427,66.866 94.693,65.399 94.118,66.776 94.542,65.345 
							93.821,66.652 94.396,65.276 93.539,66.495 94.26,65.19 93.275,66.311 94.133,65.09 93.034,66.098 94.019,64.978 
							92.816,65.861 93.917,64.853 92.625,65.601 93.828,64.718 92.464,65.322 93.755,64.574 92.334,65.028 93.698,64.424 
							92.236,64.72 93.658,64.268 92.172,64.405 93.634,64.109 92.143,64.084 93.628,63.947 92.148,63.762 93.64,63.787 
							92.188,63.443 93.668,63.629 92.263,63.129 93.714,63.475 92.371,62.825 93.776,63.325 						"/>
					</g>
					<g>
						<circle style="opacity:0.35;fill:#1D1A3A;" cx="95.126" cy="63.973" r="1.587"/>
						<path style="fill:#FFFFFF;" d="M96.102,63.26c0.001-0.009,0.005-0.017,0.005-0.025c0-0.271-0.22-0.491-0.49-0.491
							c-0.271,0-0.49,0.22-0.49,0.491c0,0.271,0.219,0.49,0.49,0.49c0.041,0,0.078-0.015,0.116-0.023
							c0.036,0.015,0.075,0.023,0.116,0.023c0.169,0,0.305-0.137,0.305-0.306C96.153,63.36,96.131,63.307,96.102,63.26z"/>
					</g>
				</g>
			</g>
			<g>
				<g>
					<g>
						<g>
							<path style="fill:#152A35;" d="M56.836,62.141c-1.23,0.306-2.515-0.422-2.885-1.634c-0.047-0.154-0.288-0.088-0.241,0.066
								c0.41,1.344,1.829,2.148,3.193,1.809C57.059,62.344,56.993,62.102,56.836,62.141L56.836,62.141z"/>
						</g>
					</g>
					<g>
						<g>
							<path style="fill:#152A35;" d="M57.063,61.76c-1.049,0-1.941-0.837-1.996-1.888c-0.008-0.16-0.258-0.161-0.25,0
								c0.062,1.184,1.057,2.137,2.246,2.138C57.224,62.01,57.224,61.76,57.063,61.76L57.063,61.76z"/>
						</g>
					</g>
					<g>
						<g>
							<path style="fill:#152A35;" d="M56.675,62.486c-0.86,0.591-1.875,0.749-2.873,0.44c-0.154-0.048-0.22,0.194-0.066,0.241
								c1.056,0.327,2.154,0.162,3.066-0.465C56.933,62.611,56.808,62.394,56.675,62.486L56.675,62.486z"/>
						</g>
					</g>
				</g>
				<g>
					<g>
						<circle style="fill:#152A35;" cx="59.737" cy="63.754" r="3.333"/>
						<circle style="fill:#8E8D9C;" cx="59.737" cy="63.754" r="3.104"/>
						<polygon style="fill:#5F5D73;" points="57.132,62.317 58.475,62.965 57.303,62.043 58.568,62.834 57.502,61.79 58.674,62.713 
							57.728,61.56 58.793,62.604 57.977,61.356 58.923,62.509 58.246,61.179 59.062,62.428 58.533,61.033 59.209,62.363 
							58.834,60.919 59.363,62.314 59.146,60.838 59.521,62.282 59.465,60.791 59.681,62.268 59.787,60.78 59.842,62.27 
							60.108,60.802 60.002,62.29 60.425,60.86 60.159,62.327 60.734,60.951 60.31,62.381 61.031,61.075 60.455,62.451 
							61.313,61.231 60.592,62.537 61.577,61.416 60.718,62.637 61.818,61.629 60.834,62.749 62.036,61.866 60.936,62.873 
							62.227,62.126 61.023,63.008 62.388,62.405 61.097,63.152 62.518,62.699 61.154,63.303 62.616,63.006 61.194,63.458 
							62.68,63.322 61.218,63.617 62.709,63.643 61.224,63.779 62.704,63.965 61.212,63.94 62.663,64.284 61.184,64.098 
							62.589,64.598 61.138,64.252 62.481,64.901 61.076,64.401 62.341,65.192 60.998,64.542 62.17,65.464 60.905,64.674 
							61.971,65.717 60.799,64.794 61.745,65.947 60.68,64.904 61.497,66.152 60.55,64.998 61.227,66.328 60.411,65.079 
							60.94,66.474 60.264,65.145 60.639,66.588 60.11,65.194 60.327,66.669 59.952,65.225 60.008,66.716 59.792,65.239 
							59.686,66.728 59.631,65.238 59.365,66.705 59.471,65.217 59.048,66.648 59.314,65.18 58.739,66.556 59.163,65.126 
							58.442,66.432 59.018,65.056 58.16,66.277 58.881,64.971 57.896,66.091 58.755,64.871 57.655,65.878 58.64,64.758 
							57.437,65.641 58.538,64.634 57.247,65.381 58.449,64.499 57.085,65.103 58.376,64.356 56.955,64.808 58.319,64.204 
							56.857,64.501 58.279,64.049 56.793,64.185 58.255,63.89 56.764,63.864 58.25,63.729 56.77,63.542 58.261,63.568 
							56.81,63.223 58.29,63.409 56.884,62.909 58.335,63.255 56.992,62.606 58.397,63.107 						"/>
					</g>
					<g>
						<circle style="opacity:0.35;fill:#1D1A3A;" cx="59.748" cy="63.754" r="1.587"/>
						<path style="fill:#FFFFFF;" d="M60.723,63.04c0-0.009,0.005-0.017,0.005-0.025c0-0.271-0.22-0.49-0.49-0.49
							c-0.271,0-0.49,0.22-0.49,0.49s0.219,0.49,0.49,0.49c0.041,0,0.078-0.014,0.116-0.024c0.036,0.015,0.075,0.024,0.116,0.024
							c0.168,0,0.305-0.137,0.305-0.306C60.774,63.14,60.752,63.087,60.723,63.04z"/>
					</g>
				</g>
			</g>
		</g>
	</g>
</g>
<g>
</g>
<g>
</g>
<g>
</g>
<g>
</g>
<g>
</g>
<g>
</g>
<g>
</g>
<g>
</g>
<g>
</g>
<g>
</g>
<g>
</g>
<g>
</g>
<g>
</g>
<g>
</g>
<g>
</g>
</svg>
