<?xml version="1.0" encoding="iso-8859-1"?>
<!-- Generator: Adobe Illustrator 18.0.0, SVG Export Plug-In . SVG Version: 6.00 Build 0)  -->
<!DOCTYPE svg PUBLIC "-//W3C//DTD SVG 1.1//EN" "http://www.w3.org/Graphics/SVG/1.1/DTD/svg11.dtd">
<svg version="1.1" id="Capa_1" xmlns="http://www.w3.org/2000/svg" xmlns:xlink="http://www.w3.org/1999/xlink" x="0px" y="0px"
	 viewBox="0 0 184.531 184.531" style="enable-background:new 0 0 184.531 184.531;" xml:space="preserve">
<g>
	<g>
		<g>
			<path style="fill:#FCD0A3;" d="M128.736,102.354c4,0,7.667-3.433,7.667-7.666c0-4.234-3.667-7.667-7.667-7.667V102.354z"/>
			<path style="opacity:0.16;fill:#FCD0A3;" d="M128.736,102.354c4,0,7.667-3.433,7.667-7.666c0-4.234-3.667-7.667-7.667-7.667
				V102.354z"/>
		</g>
		<g>
			<path style="fill:#FCD0A3;" d="M50.736,102.354c-4,0-7.667-3.433-7.667-7.666c0-4.234,3.667-7.667,7.667-7.667V102.354z"/>
			<path style="opacity:0.16;fill:#FCD0A3;" d="M50.736,102.354c-4,0-7.667-3.433-7.667-7.666c0-4.234,3.667-7.667,7.667-7.667
				V102.354z"/>
		</g>
	</g>
	<g>
		<g>
			<g>
				<path style="fill:#AD483E;" d="M138.535,92.058c-0.216-0.309,3.162-8.897,3.46-9.762c1.163-3.375,1.92-6.892,2.23-10.448
					c0.606-6.986-0.526-14.184-3.778-20.437c-7.204-13.85-22.886-20.835-37.612-22.407c-8.361-0.892-13.512-0.087-21.667,1.968
					c-5.27,1.328-14.726,5.68-15.243,11.896c-0.376,4.526,1.617,7.257,4.197,10.609c5.582,7.251,14.629,10.804,23.496,11.806
					c4.524,0.512,9.131,0.397,13.626-0.324c4.492-0.722,9.369-2.972,13.801-0.826c6.152,2.98,6.845,10.351,5.862,16.361
					c-0.938,5.737-5.164,10.56-5.641,16.424c-1.052,12.959,21.648,12.332,24.276,1.043C146.601,93.411,141.8,90.76,138.535,92.058z"
					/>
				<g>
					<path style="fill:#E94941;" d="M96.706,28.648c-5.196-0.013-9.562,0.818-15.539,2.325c-5.27,1.328-14.726,5.68-15.243,11.896
						c-0.376,4.526,1.617,7.257,4.197,10.609c5.581,7.251,14.629,10.804,23.496,11.806c4.524,0.512,9.131,0.397,13.626-0.324
						c4.492-0.722,9.369-2.972,13.801-0.826c6.152,2.98,6.845,10.351,5.862,16.361c-0.938,5.737-5.164,10.56-5.641,16.424
						c-0.276,3.413,1.103,5.873,3.318,7.456c2.697-3.208,5.003-2.505,7.817-9.805C134.142,90.056,146.834,34.035,96.706,28.648z"/>
					<g>
						<path style="fill:#EA524B;" d="M114.023,37.246c0,0,15.614-8.348-1.579-37.246C112.444,0,91.132,24.191,114.023,37.246z"/>
						<path style="fill:#E94941;" d="M113.544,37.122c0,0-8.394-15.59,21.912-30.16C135.456,6.962,139.836,38.902,113.544,37.122z"
							/>
					</g>
				</g>
			</g>
			<g>
				<path style="fill:#FCD0A3;" d="M125.272,179.319c-0.285-1.747-0.787-3.438-1.481-5.059c-0.315-0.735-0.667-1.457-1.06-2.161
					c-1.016-1.82-2.284-3.527-3.769-5.096c-0.739-0.781-1.535-1.525-2.378-2.233c-2.633-2.213-5.745-4.051-9.206-5.407
					c-3.216-1.26-6.729-2.102-10.436-2.441c-1.211-0.111-2.44-0.174-3.688-0.174h-6.758c-1.248,0-2.477,0.063-3.688,0.174
					c-3.706,0.339-7.22,1.181-10.436,2.441c-3.461,1.356-6.574,3.195-9.207,5.409c-0.842,0.707-1.637,1.45-2.375,2.23
					c-1.485,1.569-2.754,3.277-3.77,5.097c-0.393,0.704-0.744,1.425-1.06,2.161c-0.695,1.622-1.198,3.315-1.483,5.065
					c-0.118,0.724-0.193,1.459-0.235,2.201c1.158,0.191,2.317,0.378,3.477,0.552c3.972,0.597,7.951,1.094,11.935,1.477
					c0.171,0.017,0.343,0.033,0.514,0.049c17.282,1.652,34.652,1.072,51.878-1.526c1.154-0.174,2.308-0.357,3.461-0.55
					C125.466,180.783,125.39,180.045,125.272,179.319z"/>
				<path style="fill:#3D5561;" d="M118.917,166.958c-0.576-0.605-1.193-1.184-1.833-1.745v12.655l-4.295-1.004
					c-5.624-1.315-11.469-1.383-17.122-0.199l-5.747,1.204l-5.88-1.21c-5.737-1.18-11.661-1.105-17.365,0.221l-4.258,0.989v-12.434
					c-0.608,0.546-1.199,1.104-1.746,1.693c-0.001,0.004-0.003,0.007-0.004,0.011v15.342c2.993,0.411,5.988,0.784,8.988,1.072
					c0.171,0.017,0.343,0.033,0.514,0.049c16.236,1.552,32.549,1.11,48.748-1.1V166.958z"/>
			</g>
			<g>
				<g>
					<path style="fill:#FCD0A3;" d="M89.92,159.869L89.92,159.869c-1.934,0-3.502-1.568-3.502-3.501v-13.963
						c0-1.934,1.567-3.501,3.502-3.501l0,0c1.934,0,3.501,1.567,3.501,3.501v13.963C93.422,158.301,91.854,159.869,89.92,159.869z"
						/>
					<path style="fill:#FCD0A3;" d="M89.92,146.306L89.92,146.306c-21.907,0-39.667-17.76-39.667-39.667v-34
						c0-21.907,17.76-39.667,39.667-39.667l0,0c21.907,0,39.666,17.759,39.666,39.667v34
						C129.587,128.546,111.827,146.306,89.92,146.306z"/>
				</g>
				<path style="opacity:0.16;fill:#FCD0A3;" d="M68.241,135.857c-5.892-7.366-7.637-16.079-7.841-25.324
					c-0.202-9.158-0.266-17.485,0.294-26.664c0.544-8.917,2.318-17.641,6.815-25.005c6.184-10.127,17.325-19.682,27.987-25.481
					c-1.853-0.266-3.745-0.41-5.672-0.41l0,0c-21.907,0-39.667,17.759-39.667,39.667v34c0,18.021,12.022,33.227,28.481,38.057
					C74.694,142.4,71.143,139.485,68.241,135.857z"/>
			</g>
			<g>
				<path style="fill:#AD483E;" d="M89.196,30.979c-7.392,0.127-14.314,2.198-20.294,5.708c-1.824,0.341-3.674,0.569-5.569,0.653
					c-3.769,0.167-7.635-0.048-11.306,1.014c-10.221,2.956-13.895,14.136-13.077,23.803c0.975,11.529,7.967,21.713,20.534,21.713
					h33.319c16.567,0,18.574-5.585,22.76-14.357c1.529-3.203,5.22-4.042,7.926-2.636c1.613,0.839,2.617,2.522,2.865,4.324
					l3.233,23.461l2-21.283C131.587,50.063,112.507,30.579,89.196,30.979z"/>
				<path style="fill:#BC4E43;" d="M89.196,30.979c-7.393,0.058-14.314,2.198-20.294,5.708c-1.824,0.341-3.674,0.569-5.569,0.653
					c-3.769,0.167-7.635-0.048-11.306,1.014c-10.221,2.956-13.895,14.136-13.077,23.803c0.975,11.529,7.967,21.713,20.534,21.713
					h33.319c5.724,0,9.708-0.667,12.647-1.902c-0.061-0.292-0.111-0.588-0.152-0.885c-0.251-1.803-1.1-3.463-2.512-4.612
					c-5.024-4.09-9.941-9.064-6.784-16.629c3.305-7.918,14.513-9.893,21.589-5.979c7.217,3.992,9.053,11.415,8.985,18.945
					l3.012,21.854l2-21.283C133.105,52.912,112.622,30.795,89.196,30.979z"/>
			</g>
		</g>
		<g>
			<g>
				<path style="fill:none;stroke:#6F6F6E;stroke-width:0.1;stroke-linecap:round;stroke-linejoin:round;stroke-miterlimit:10;" d="
					M68.535,122.227c5.626,5.181,13.135,8.348,21.386,8.348c8.25,0,15.759-3.167,21.385-8.348"/>
				<g>
					<path style="fill:#DC2A2C;" d="M84.733,130.121l1.461,1.849c0.616,0.78,1.556,1.235,2.55,1.235h2.47
						c0.995,0,1.932-0.469,2.53-1.265l1.364-1.818H84.733z"/>
					<path style="fill:#E94941;" d="M90.467,128.036l-0.303,0.309c-0.142,0.144-0.374,0.145-0.517,0.002l-0.271-0.271
						c-0.733-0.733-1.923-0.727-2.648,0.012l-1.995,2.032h2.693c0.659,0,1.314,0.103,1.94,0.306l0.304,0.098
						c0.216,0.07,0.45,0.066,0.664-0.011l0.283-0.103c0.531-0.192,1.092-0.291,1.657-0.291h2.834l-2.097-2.097
						C92.307,127.32,91.164,127.325,90.467,128.036z"/>
				</g>
			</g>
			<g>
				
					<ellipse transform="matrix(0.9676 0.2525 -0.2525 0.9676 28.9304 -13.2094)" style="opacity:0.25;fill:#F296A4;" cx="65.924" cy="106.097" rx="11.974" ry="7.361"/>
				
					<ellipse transform="matrix(-0.9676 0.2525 -0.2525 -0.9676 250.7585 180.0098)" style="opacity:0.25;fill:#F296A4;" cx="113.827" cy="106.097" rx="11.974" ry="7.361"/>
			</g>
			<g>
				<g>
					<g>
						<g>
							<g>
								<path style="fill:#67657B;" d="M110.105,93.385c1.364,0.339,2.783-0.465,3.193-1.81c0.047-0.155-0.194-0.22-0.241-0.066
									c-0.369,1.213-1.655,1.94-2.885,1.635C110.015,93.105,109.949,93.346,110.105,93.385L110.105,93.385z"/>
							</g>
						</g>
						<g>
							<g>
								<path style="fill:#67657B;" d="M109.946,93.012c1.189,0,2.184-0.954,2.245-2.138c0.008-0.161-0.242-0.16-0.25,0
									c-0.054,1.05-0.946,1.888-1.995,1.888C109.785,92.762,109.785,93.012,109.946,93.012L109.946,93.012z"/>
							</g>
						</g>
						<g>
							<g>
								<path style="fill:#67657B;" d="M110.207,93.705c0.911,0.626,2.009,0.791,3.065,0.464c0.153-0.048,0.088-0.289-0.066-0.241
									c-0.998,0.309-2.012,0.152-2.872-0.439C110.2,93.397,110.075,93.614,110.207,93.705L110.207,93.705z"/>
							</g>
						</g>
					</g>
					<g>
						<g>
							<circle style="fill:#67657B;" cx="107.167" cy="94.646" r="3.333"/>
							<circle style="fill:#8E8D9C;" cx="107.167" cy="94.646" r="3.104"/>
							<polygon style="fill:#5F5D73;" points="104.563,93.209 105.905,93.858 104.732,92.936 105.998,93.726 104.933,92.683 
								106.105,93.605 105.157,92.453 106.223,93.497 105.406,92.248 106.353,93.401 105.676,92.072 106.492,93.321 105.963,91.926 
								106.64,93.255 106.265,91.812 106.793,93.207 106.576,91.731 106.95,93.175 106.895,91.684 107.111,93.16 107.217,91.672 
								107.272,93.163 107.538,91.695 107.432,93.183 107.855,91.753 107.589,93.22 108.164,91.844 107.74,93.274 108.461,91.968 
								107.885,93.344 108.743,92.124 108.022,93.43 109.006,92.309 108.148,93.529 109.248,92.521 108.264,93.642 109.466,92.759 
								108.365,93.766 109.656,93.019 108.453,93.901 109.817,93.297 108.526,94.045 109.948,93.592 108.584,94.195 110.046,93.899 
								108.624,94.351 110.109,94.215 108.647,94.51 110.139,94.535 108.653,94.671 110.134,94.857 108.643,94.832 110.094,95.177 
								108.613,94.99 110.019,95.49 108.567,95.145 109.911,95.794 108.506,95.294 109.771,96.084 108.428,95.435 109.6,96.357 
								108.335,95.566 109.4,96.61 108.229,95.687 109.176,96.84 108.11,95.796 108.927,97.045 107.98,95.891 108.656,97.221 
								107.841,95.972 108.369,97.367 107.693,96.037 108.068,97.48 107.54,96.086 107.757,97.562 107.382,96.118 107.438,97.608 
								107.222,96.132 107.116,97.621 107.061,96.13 106.795,97.598 106.901,96.11 106.479,97.54 106.744,96.072 106.169,97.449 
								106.593,96.019 105.872,97.324 106.447,95.948 105.59,97.169 106.312,95.863 105.326,96.983 106.185,95.763 105.085,96.771 
								106.069,95.651 104.867,96.533 105.968,95.526 104.677,96.273 105.879,95.392 104.516,95.995 105.807,95.248 104.385,95.7 
								105.749,95.097 104.287,95.394 105.709,94.941 104.224,95.078 105.686,94.782 104.194,94.757 105.68,94.621 104.199,94.435 
								105.69,94.461 104.239,94.115 105.72,94.302 104.314,93.802 105.766,94.147 104.422,93.499 105.827,93.999 							"/>
						</g>
						<g>
							<circle style="opacity:0.35;fill:#1D1A3A;" cx="107.178" cy="94.646" r="1.587"/>
							<path style="fill:#FFFFFF;" d="M108.152,93.933c0.001-0.009,0.006-0.017,0.006-0.026c0-0.271-0.22-0.49-0.49-0.49
								c-0.271,0-0.491,0.22-0.491,0.49c0,0.271,0.22,0.49,0.491,0.49c0.041,0,0.077-0.014,0.115-0.023
								c0.036,0.015,0.075,0.023,0.116,0.023c0.168,0,0.305-0.136,0.305-0.305C108.204,94.033,108.183,93.98,108.152,93.933z"/>
						</g>
					</g>
				</g>
				<g>
					<g>
						<g>
							<g>
								<path style="fill:#67657B;" d="M69.926,93.144c-1.23,0.306-2.515-0.422-2.885-1.635c-0.047-0.154-0.288-0.088-0.241,0.066
									c0.41,1.344,1.829,2.148,3.193,1.81C70.149,93.346,70.083,93.105,69.926,93.144L69.926,93.144z"/>
							</g>
						</g>
						<g>
							<g>
								<path style="fill:#67657B;" d="M70.153,92.762c-1.049,0-1.941-0.838-1.996-1.888c-0.008-0.16-0.258-0.161-0.25,0
									c0.062,1.185,1.057,2.138,2.246,2.138C70.314,93.012,70.314,92.762,70.153,92.762L70.153,92.762z"/>
							</g>
						</g>
						<g>
							<g>
								<path style="fill:#67657B;" d="M69.765,93.489c-0.86,0.591-1.875,0.748-2.873,0.439c-0.154-0.048-0.22,0.194-0.066,0.241
									c1.056,0.327,2.154,0.162,3.066-0.464C70.023,93.614,69.898,93.397,69.765,93.489L69.765,93.489z"/>
							</g>
						</g>
					</g>
					<g>
						<g>
							<circle style="fill:#67657B;" cx="72.826" cy="94.646" r="3.333"/>
							<circle style="fill:#8E8D9C;" cx="72.826" cy="94.646" r="3.104"/>
							<polygon style="fill:#5F5D73;" points="70.222,93.209 71.565,93.858 70.393,92.936 71.658,93.726 70.592,92.683 
								71.764,93.605 70.817,92.453 71.883,93.497 71.066,92.248 72.013,93.401 71.336,92.072 72.152,93.321 71.623,91.926 
								72.299,93.255 71.924,91.812 72.453,93.207 72.236,91.731 72.611,93.175 72.555,91.684 72.771,93.16 72.876,91.672 
								72.932,93.163 73.198,91.695 73.092,93.183 73.515,91.753 73.249,93.22 73.824,91.844 73.4,93.274 74.121,91.968 
								73.545,93.344 74.403,92.124 73.682,93.43 74.666,92.309 73.808,93.529 74.908,92.521 73.923,93.642 75.126,92.759 
								74.025,93.766 75.316,93.019 74.113,93.901 75.478,93.297 74.187,94.045 75.608,93.592 74.244,94.195 75.706,93.899 
								74.284,94.351 75.77,94.215 74.308,94.51 75.799,94.535 74.313,94.671 75.793,94.857 74.302,94.832 75.753,95.177 
								74.273,94.99 75.679,95.49 74.228,95.145 75.571,95.794 74.166,95.294 75.431,96.084 74.087,95.435 75.26,96.357 
								73.995,95.566 75.061,96.61 73.889,95.687 74.835,96.84 73.77,95.796 74.586,97.045 73.64,95.891 74.317,97.221 
								73.501,95.972 74.03,97.367 73.354,96.037 73.729,97.48 73.2,96.086 73.417,97.562 73.042,96.118 73.098,97.608 
								72.882,96.132 72.776,97.621 72.721,96.13 72.455,97.598 72.561,96.11 72.138,97.54 72.404,96.072 71.829,97.449 
								72.252,96.019 71.532,97.324 72.107,95.948 71.25,97.169 71.971,95.863 70.986,96.983 71.845,95.763 70.745,96.771 
								71.73,95.651 70.527,96.533 71.627,95.526 70.336,96.273 71.539,95.392 70.175,95.995 71.466,95.248 70.045,95.7 
								71.409,95.097 69.947,95.394 71.369,94.941 69.883,95.078 71.345,94.782 69.854,94.757 71.339,94.621 69.859,94.435 
								71.351,94.461 69.899,94.115 71.379,94.302 69.974,93.802 71.425,94.147 70.082,93.499 71.487,93.999 							"/>
						</g>
						<g>
							<circle style="opacity:0.35;fill:#1D1A3A;" cx="72.837" cy="94.646" r="1.587"/>
							<path style="fill:#FFFFFF;" d="M73.813,93.933c0-0.009,0.005-0.017,0.005-0.026c0-0.271-0.22-0.49-0.49-0.49
								c-0.271,0-0.49,0.22-0.49,0.49c0,0.271,0.219,0.49,0.49,0.49c0.041,0,0.078-0.014,0.116-0.023
								c0.036,0.015,0.075,0.023,0.116,0.023c0.168,0,0.305-0.136,0.305-0.305C73.864,94.033,73.842,93.98,73.813,93.933z"/>
						</g>
					</g>
				</g>
			</g>
		</g>
	</g>
</g>
<g>
</g>
<g>
</g>
<g>
</g>
<g>
</g>
<g>
</g>
<g>
</g>
<g>
</g>
<g>
</g>
<g>
</g>
<g>
</g>
<g>
</g>
<g>
</g>
<g>
</g>
<g>
</g>
<g>
</g>
</svg>
