<?xml version="1.0" encoding="iso-8859-1"?>
<!-- Generator: Adobe Illustrator 19.0.0, SVG Export Plug-In . SVG Version: 6.00 Build 0)  -->
<svg version="1.1" id="Layer_1" xmlns="http://www.w3.org/2000/svg" xmlns:xlink="http://www.w3.org/1999/xlink" x="0px" y="0px"
	 viewBox="0 0 318.959 318.959" style="enable-background:new 0 0 318.959 318.959;" xml:space="preserve">
<g>
	<g>
		<path style="fill:#636358;" d="M303.671,253.512c-11.151-37.754-67.121-33.566-91.279-44.408
			c-24.157-10.842-20.386-47.219-23.449-53.548H130.01c-3.058,6.329,0.714,42.711-23.449,53.548
			c-24.157,10.842-80.133,6.655-91.279,44.408c-6.149,20.824-5.857,27.193-7.554,50.26c0,0,76.8,15.187,150.014,15.187
			s153.488-15.187,153.488-15.187C309.527,280.699,309.82,274.337,303.671,253.512z"/>
		<path style="fill:#515147;" d="M303.671,253.512c-11.151-37.754-67.121-33.566-91.279-44.408
			c-24.157-10.842-20.386-47.219-23.449-53.548h-31.206c0,0-0.719,51.024,23.438,61.866s80.133,6.655,91.279,44.408
			c5.857,19.83,5.868,26.552,7.324,47.073c19.234-2.816,31.442-5.126,31.442-5.126C309.527,280.699,309.82,274.337,303.671,253.512z
			"/>
		<path style="fill:#DBB491;" d="M201.877,201.1c-12.5-14.951-10.421-40.356-12.927-45.549H130.01
			c-2.512,5.193-0.427,30.599-12.927,45.549c7.655,9.611,23.764,16.232,42.396,16.232S194.221,210.711,201.877,201.1z"/>
		<path style="fill:#CCA483;" d="M177.303,215.196c10.747-2.692,19.509-7.74,24.573-14.096
			c-12.5-14.951-10.421-40.356-12.927-45.549h-31.206C157.743,155.556,157.103,200.943,177.303,215.196z"/>
		<path style="fill:#C69E7F;" d="M122.081,193.152c9.78,7.959,21.24,15.85,37.338,18.132c16.137-2.288,27.569-10.342,37.36-18.334
			c-8.144-14.973-5.626-32.83-7.83-37.4H130.01C127.797,160.126,130.264,178.173,122.081,193.152z"/>
		
			<ellipse transform="matrix(-0.177 0.9842 -0.9842 -0.177 385.6469 -85.3759)" style="fill:#CCA483;" cx="228.519" cy="118.551" rx="21.386" ry="11.629"/>
		
			<ellipse transform="matrix(-0.9842 0.177 -0.177 -0.9842 200.0847 219.268)" style="fill:#DBB491;" cx="90.262" cy="118.558" rx="11.629" ry="21.386"/>
		<path style="fill:#DBB491;" d="M223.64,47.359l-64.221-30.16l-64.188,30.16c0,0-35.989,146.614,64.187,160.806
			C259.633,193.973,223.64,47.359,223.64,47.359z"/>
		<path style="fill:#CCA483;" d="M159.418,208.165c100.216-14.192,64.221-160.806,64.221-160.806h-15.024
			c4.114,61.242,9.808,93.774-13.815,129.24C176.083,204.703,159.418,208.165,159.418,208.165z"/>
		<path style="fill:#999896;" d="M229.124,121.928L229.124,121.928c-9.712,41.57-36.68,55.076-36.68,55.076
			c-5.75-14.85-17.25-14.85-33.027-14.85l0,0l0,0l0,0l0,0c-15.777,0-27.277,0-33.027,14.85c0,0-26.968-13.506-36.68-55.076l0,0
			c3.429,38.58,19.397,79.11,69.707,86.237l0,0l0,0l0,0l0,0l0,0l0,0C209.729,201.038,225.697,160.508,229.124,121.928z"/>
		<path style="fill:#8E8D8D;" d="M159.418,208.165c50.31-7.127,66.278-47.657,69.707-86.237l0,0
			c-7.554,32.341-25.557,47.691-33.173,52.918c-0.377,0.585-0.753,1.169-1.147,1.754
			C176.129,204.635,159.503,208.148,159.418,208.165z"/>
		<path style="fill:#DBB491;" d="M181.439,179.596c0,4.03-3.62,7.093-7.593,6.43c-4.227-0.703-9.623-1.388-14.585-1.388
			c-4.963,0-10.359,0.686-14.585,1.388c-3.974,0.663-7.593-2.4-7.593-6.43v-1.748c0-3.603,2.917-6.52,6.52-6.52h31.307
			c3.603,0,6.52,2.917,6.52,6.52v1.748H181.439z"/>
		<path style="fill:#CCA483;" d="M235.786,52.884c-5.722-22.769-34.595-48.725-76.305-48.725S88.897,30.115,83.175,52.884
			l7.683,63.771c0.051-6.801,0.253-20.482,0.956-29.154c0.956-11.888,6.75-40.806,26.237-40.508
			c7.262,0.112,24.275,11.888,41.43,11.888c16.536,0,33.212-11.764,41.43-11.888c19.487-0.292,25.282,28.626,26.237,40.508
			c0.697,8.673,0.905,22.353,0.956,29.154L235.786,52.884z"/>
		<path style="fill:#999896;" d="M228.118,116.633c18.593-20.459,7.667-67.908,7.667-67.908C230.064,25.956,201.191,0,159.48,0
			S88.897,25.956,83.169,48.725c0,0-10.932,47.483,7.683,67.931l0,0l0,0c0,0-0.006-21.431,0.956-33.313s6.75-40.806,26.237-40.508
			c7.262,0.112,24.275,11.888,41.43,11.888c16.536,0,33.212-11.764,41.43-11.888c19.487-0.292,25.282,28.626,26.237,40.508
			s0.955,33.313,0.955,33.313l0,0l0,0C228.107,116.645,228.114,116.639,228.118,116.633z"/>
		<path style="fill:#393C3D;" d="M237.382,96.32l-26.973,10.128c-2.732-7.059-9.594-12.079-17.604-12.079
			c-8.543,0-15.771,5.705-18.087,13.506c-2.822-1.18-8.673-3.226-15.299-3.226c-6.604,0-12.377,2.035-15.176,3.215
			c-2.321-7.796-9.549-13.495-18.087-13.495c-8.009,0-14.872,5.019-17.604,12.079L81.579,96.32c0.242,1.203,0.511,2.394,0.815,3.569
			c-0.017,0.017-0.028,0.034-0.045,0.051l25.321,9.504c-0.253,1.225-0.382,2.49-0.382,3.788c0,10.404,8.465,18.868,18.868,18.868
			s18.868-8.465,18.868-18.868c0-0.759-0.045-1.512-0.135-2.248c2.243-0.989,7.998-3.221,14.535-3.221
			c6.52,0,12.377,2.237,14.653,3.226c-0.09,0.736-0.135,1.484-0.135,2.243c0,10.404,8.465,18.868,18.868,18.868
			s18.868-8.465,18.868-18.868c0-1.298-0.129-2.563-0.382-3.788l25.253-9.482C236.854,98.765,237.135,97.551,237.382,96.32z
			 M126.15,128.982c-8.684,0-15.749-7.065-15.749-15.749s7.065-15.749,15.749-15.749s15.749,7.065,15.749,15.749
			S134.833,128.982,126.15,128.982z M192.805,128.982c-8.684,0-15.749-7.065-15.749-15.749s7.065-15.749,15.749-15.749
			c8.684,0,15.749,7.065,15.749,15.749S201.489,128.982,192.805,128.982z"/>
	</g>
</g>
<g>
</g>
<g>
</g>
<g>
</g>
<g>
</g>
<g>
</g>
<g>
</g>
<g>
</g>
<g>
</g>
<g>
</g>
<g>
</g>
<g>
</g>
<g>
</g>
<g>
</g>
<g>
</g>
<g>
</g>
</svg>
