<?xml version="1.0" encoding="iso-8859-1"?>
<!-- Generator: Adobe Illustrator 19.0.0, SVG Export Plug-In . SVG Version: 6.00 Build 0)  -->
<svg version="1.1" id="Layer_1" xmlns="http://www.w3.org/2000/svg" xmlns:xlink="http://www.w3.org/1999/xlink" x="0px" y="0px"
	 viewBox="0 0 318.543 318.543" style="enable-background:new 0 0 318.543 318.543;" xml:space="preserve">
<g>
	<g>
		<path style="fill:#393C3D;" d="M79.922,131.247C76.825,123.238,46.631,0,157.948,0s86.355,112.019,83.753,120.888
			c-11.23,38.299-28.086,78.767-82.308,78.767S91.709,161.739,79.922,131.247z"/>
		<path style="fill:#E8C59E;" d="M295.389,253.096c-10.522-37.754-63.361-33.566-86.164-44.408
			c-22.803-10.842-19.245-47.219-22.134-53.548h-55.638c-2.889,6.329,0.674,42.711-22.134,53.548
			c-22.803,10.842-75.642,6.655-86.164,44.408c-5.806,20.824-5.525,27.187-7.133,50.26c0,0,72.5,15.187,141.611,15.187
			s144.888-15.187,144.888-15.187C300.919,280.283,301.195,273.921,295.389,253.096z"/>
		<path style="fill:#DDB58E;" d="M179.761,217.001c22.803,10.842,75.642,6.655,86.164,44.408c5.531,19.83,5.542,26.552,6.913,47.073
			c18.155-2.816,29.682-5.126,29.682-5.126c-1.602-23.067-1.326-29.435-7.133-50.26c-10.522-37.754-63.361-33.566-86.164-44.408
			c-22.803-10.842-19.245-47.219-22.134-53.548h-29.458C157.633,155.14,156.953,206.164,179.761,217.001z"/>
		<path style="fill:#76C4BB;" d="M60.565,310.899c26.805,3.816,62.361,7.644,97.068,7.644c35.326,0,72.388-3.968,100.187-7.846l0,0
			c0,0-21.094-11.157-32.251-37.163c-6.649-15.502-1.973-37.175-14.838-64.171c-1.681-3.53-8.959-13.883-13.978-18.75l-2.265,1.922
			c6.464,13.428,23.522,55.015,13.889,83.55c-7.352,21.78-43.026,29.935-49.102,29.935s-41.75-8.156-49.102-29.935
			c-9.634-28.536,7.425-70.123,13.889-83.55l-2.265-1.922c-5.019,4.862-12.298,15.221-13.978,18.75
			c-12.866,26.99-8.184,48.669-14.838,64.171C81.822,299.534,60.576,310.893,60.565,310.899z"/>
		<path style="fill:#56BEB7;" d="M210.731,209.362c-1.681-3.53-8.959-13.883-13.978-18.75l-2.265,1.922
			c2.923,6.07,8.009,17.902,11.82,31.678c3.502,0.708,7.093,1.439,10.696,2.254C215.559,221.031,213.575,215.326,210.731,209.362z"
			/>
		<path style="fill:#F9F5ED;" d="M237.996,305.295c-6.762-6.615-14.282-16.041-19.689-28.648c-0.393-0.916-0.753-1.844-1.079-2.782
			c-0.388,1.607-0.843,3.193-1.371,4.744c-3.816,11.303-13.939,20.926-29.278,27.816c-3.395,1.523-21.504,6.88-27.311,6.88
			c-5.806,0-23.781-5.295-27.305-6.88c-15.339-6.891-25.461-16.508-29.278-27.816c-0.523-1.557-0.978-3.136-1.371-4.744
			c-0.326,0.939-0.686,1.866-1.079,2.782c-5.452,12.714-13.068,22.218-19.891,28.879c0,0-4.446,4.345-7.801,6.992
			c24.956,3.209,55.335,6.025,85.09,6.025c30.615,0,62.535-2.979,88.598-6.301C241.369,308.369,237.996,305.295,237.996,305.295z"/>
		<path style="fill:#CCA281;" d="M123.971,192.736c9.229,7.959,20.054,15.85,35.241,18.132
			c15.237-2.288,26.023-10.342,35.269-18.334c-7.689-14.973-5.311-32.83-7.391-37.4h-55.638
			C129.367,159.71,131.694,177.758,123.971,192.736z"/>
		<g>
			
				<ellipse transform="matrix(-0.177 0.9842 -0.9842 -0.177 380.1026 -81.5687)" style="fill:#DDB58E;" cx="224.155" cy="118.137" rx="21.386" ry="11.629"/>
			
				<ellipse transform="matrix(-0.9842 0.177 -0.177 -0.9842 207.8558 217.7436)" style="fill:#E8C59E;" cx="94.216" cy="118.143" rx="11.629" ry="21.386"/>
			<path style="fill:#E8C59E;" d="M159.735,56.161c0,0-65.874-7.487-66.683,11.927c-0.793,19.02,0.124,21.712-0.028,26.181
				c-1.551,44.156,7.464,104.645,66.171,113.48c62.979-9.476,68.808-77.969,65.727-122.456
				C223.389,63.142,159.735,56.161,159.735,56.161z"/>
			<path style="fill:#DDB58E;" d="M159.195,207.749c94.331-14.192,60.45-160.806,60.45-160.806h-14.141
				c3.873,61.242,9.229,93.774-13.006,129.24C174.883,204.287,159.195,207.749,159.195,207.749z"/>
			<path style="fill:#DDB58E;" d="M91.709,96.989c0,0,69.072,15.204,106.157-27.429c0,0,10.23,24.523,27.625,27.552V60.905H91.709
				V96.989z"/>
			<path style="fill:#393C3D;" d="M228.076,52.266c-8.538-26.355-68.869-31.925-68.881-31.925l0,0l0,0l0,0l0,0
				c-0.011,0-60.343,5.57-68.881,31.925c-8.538,26.361,1.394,44.723,1.394,44.723c20.234,2.383,88.452,0,107.016-35.045
				c6.683,24.95,26.765,35.168,26.765,35.168S236.614,78.627,228.076,52.266z"/>
		</g>
	</g>
</g>
<g>
</g>
<g>
</g>
<g>
</g>
<g>
</g>
<g>
</g>
<g>
</g>
<g>
</g>
<g>
</g>
<g>
</g>
<g>
</g>
<g>
</g>
<g>
</g>
<g>
</g>
<g>
</g>
<g>
</g>
</svg>
