<?xml version="1.0" encoding="iso-8859-1"?>
<!-- Generator: Adobe Illustrator 18.0.0, SVG Export Plug-In . SVG Version: 6.00 Build 0)  -->
<!DOCTYPE svg PUBLIC "-//W3C//DTD SVG 1.1//EN" "http://www.w3.org/Graphics/SVG/1.1/DTD/svg11.dtd">
<svg version="1.1" id="Capa_1" xmlns="http://www.w3.org/2000/svg" xmlns:xlink="http://www.w3.org/1999/xlink" x="0px" y="0px"
	 viewBox="0 0 168.602 168.602" style="enable-background:new 0 0 168.602 168.602;" xml:space="preserve">
<g>
	<g>
		<path style="fill:#FCD0A3;" d="M45.301,91.416c-4,0-7.667-3.433-7.667-7.666c0-4.234,3.667-7.667,7.667-7.667V91.416z"/>
		<path style="fill:#FCD0A3;" d="M123.301,91.416c4,0,7.667-3.433,7.667-7.666c0-4.234-3.667-7.667-7.667-7.667V91.416z"/>
	</g>
	<g>
		<g>
			<g>
				<rect x="80.616" y="122.349" style="fill:#FCD0A3;" width="7.003" height="20.966"/>
				<path style="fill:#FCD0A3;" d="M84.118,129.753L84.118,129.753c-21.907,0-39.667-17.759-39.667-39.667V56.086
					c0-21.907,17.759-39.666,39.667-39.666l0,0c21.907,0,39.666,17.759,39.666,39.666v34.001
					C123.784,111.993,106.025,129.753,84.118,129.753z"/>
				<path style="opacity:0.16;fill:#FCD0A3;" d="M62.535,119.303c-5.892-7.366-7.637-16.08-7.841-25.324
					c-0.202-9.158-0.265-17.485,0.294-26.664c0.543-8.917,2.318-17.641,6.814-25.004c6.184-10.128,17.325-19.683,27.988-25.481
					c-1.854-0.266-3.746-0.41-5.672-0.41l0,0c-21.907,0-39.667,17.759-39.667,39.666v34.001c0,18.021,12.022,33.226,28.481,38.056
					C68.988,125.847,65.437,122.932,62.535,119.303z"/>
			</g>
			<path style="fill:#152A35;" d="M113.331,26.733c-7.684-7.736-18.281-12.507-29.937-12.308
				c-22.643,0.388-40.942,18.928-40.942,41.661v16.194c9.467,1.734,20.393-1.307,30.498-5.892c-0.928,1.168-1.91,2.3-3.003,3.368
				c-0.699,0.682,0.011,1.98,0.973,1.671c6.265-2.01,13.958-6.126,18.561-11.779c-0.781,2.42-1.757,4.774-2.951,7.065
				c-0.537,1.029,0.709,1.95,1.57,1.212c2.214-1.899,3.799-4.65,6.191-6.442c4.172-3.125,9.617-0.753,12.433,2.885
				c1.586,2.049,3.172,4.099,4.758,6.148c0.527,0.681,1.767,0.112,1.707-0.707c-0.159-2.183-0.546-4.603-0.387-6.896
				c1.607,2.748,4.816,4.766,6.685,7.245c0.528,0.701,1.95,0.597,1.863-0.505c-0.069-0.886-0.139-1.771-0.208-2.657
				c0.22,0.293,2.644,5.283,2.644,5.283l1.272-9.826C126.747,49.387,122.617,36.081,113.331,26.733z"/>
		</g>
		<g>
			<path style="fill:#58B99B;" d="M87.452,140.819h-6.759c-1.248,0-2.477,0.064-3.688,0.174c4.711,0,9.422,0,14.134,0
				C89.929,140.883,88.7,140.819,87.452,140.819z"/>
			<g>
				<path style="fill:#CDEAF8;" d="M119.47,163.39c-0.285-1.747-0.788-3.438-1.482-5.059c-0.315-0.735-0.666-1.457-1.059-2.161
					c-1.015-1.819-2.284-3.527-3.769-5.096c-0.739-0.781-1.535-1.525-2.378-2.233c-2.633-2.212-5.745-4.051-9.206-5.407
					c-3.216-1.26-6.73-2.102-10.436-2.441c-4.712,0-9.422,0-14.134,0c-3.706,0.339-7.22,1.181-10.436,2.441
					c-3.461,1.356-6.574,3.195-9.207,5.409c-0.842,0.708-1.637,1.451-2.375,2.231c-1.485,1.568-2.754,3.277-3.77,5.097
					c-0.393,0.704-0.744,1.425-1.059,2.161c-0.695,1.622-1.198,3.315-1.483,5.064c-0.118,0.725-0.193,1.459-0.236,2.201
					c1.159,0.191,2.317,0.378,3.477,0.552c3.972,0.597,7.951,1.094,11.935,1.477c0.171,0.017,0.343,0.033,0.515,0.049
					c17.282,1.652,34.652,1.072,51.877-1.526c1.154-0.174,2.308-0.357,3.461-0.549C119.663,164.854,119.588,164.117,119.47,163.39z"
					/>
				<path style="fill:#1D1A3A;" d="M101.576,143.434c-3.216-1.26-6.73-2.102-10.436-2.441c-4.712,0-9.422,0-14.134,0
					c-3.706,0.339-7.22,1.181-10.436,2.441C78.238,143.523,89.908,143.523,101.576,143.434z"/>
				<path style="fill:#1D1A3A;" d="M119.47,163.39c-18.288,2.753-36.739,3.453-55.1,1.858c-0.172-0.014-0.343-0.029-0.515-0.044
					c-5.069-0.443-10.13-1.055-15.179-1.809c-0.118,0.725-0.193,1.459-0.236,2.201c1.159,0.191,2.317,0.378,3.477,0.552
					c3.972,0.597,7.951,1.094,11.935,1.477c0.171,0.017,0.343,0.033,0.515,0.049c17.282,1.652,34.652,1.072,51.877-1.526
					c1.154-0.174,2.308-0.357,3.461-0.549C119.663,164.854,119.588,164.117,119.47,163.39z"/>
				<path style="fill:#1D1A3A;" d="M64.386,151.504c16.252,0.608,32.536,0.451,48.773-0.43c-0.739-0.781-1.535-1.525-2.378-2.233
					c-15.452,0.594-30.933,0.682-46.393,0.237c-0.171-0.005-0.343-0.01-0.515-0.015c-2.171-0.064-4.341-0.139-6.511-0.221
					c-0.842,0.708-1.637,1.451-2.375,2.231c2.96,0.159,5.921,0.299,8.883,0.411C64.043,151.491,64.215,151.498,64.386,151.504z"/>
				<path style="fill:#1D1A3A;" d="M64.376,159.589c17.865,1.188,35.795,0.718,53.611-1.257c-0.315-0.735-0.666-1.457-1.059-2.161
					c-17.473,1.635-35.039,2.004-52.549,0.993c-0.171-0.009-0.343-0.02-0.514-0.029c-4.22-0.246-8.436-0.573-12.647-0.964
					c-0.393,0.704-0.744,1.425-1.059,2.161c4.562,0.502,9.13,0.917,13.703,1.224C64.033,159.567,64.205,159.578,64.376,159.589z"/>
				<path style="fill:#1D1A3A;" d="M75.965,140.782L75.965,140.782c0-1.363,1.104-2.467,2.467-2.467l1.518,0.258
					c2.759,0.47,5.577,0.47,8.335,0l1.519-0.258c1.362,0,2.467,1.104,2.467,2.467l0,0C92.271,147.69,75.965,147.315,75.965,140.782z
					"/>
			</g>
		</g>
		<g>
			<g>
				<path style="fill:#FFD444;" d="M125.257,46.307l-0.143-0.007c-1.776-6.084-3.948-12.059-6.608-17.88
					c-1.983-4.338-3.768-8.164-8.552-10.439c-3.494-1.661-4.596-3.506-6.502-6.558c-1.115-1.784-2.467-3.399-4.176-4.764
					c-3.524-2.812-8.431-5.887-13.177-6.563c-5.549-0.79-13.161,3.391-17.136,6.563c-1.71,1.364-3.061,2.979-4.176,4.763
					c-1.907,3.052-3.009,4.896-6.503,6.558c-4.784,2.275-6.569,6.101-8.552,10.439c-2.661,5.821-4.833,11.796-6.608,17.88
					l-0.144,0.007c-1.784,0.081-1.864,2.848-1.864,2.848v13.973c0,0.675,0.324,1.159,0.787,1.465
					c0.334,0.271,0.779,0.454,1.35,0.469c12.726,0.338,69.006,0.338,81.733,0c0.57-0.015,1.016-0.198,1.35-0.469
					c0.463-0.307,0.787-0.791,0.787-1.465V49.155C127.121,49.155,127.041,46.388,125.257,46.307z"/>
				<path style="opacity:0.21;fill:#FFD444;" d="M125.257,46.307l-0.143-0.007c-0.188-0.643-0.398-1.28-0.595-1.92
					c-16.911,1.851-33.369-1.24-49.071-7.766c-0.551-0.229-1.021-0.776-0.807-1.421c1.963-5.9-0.758-12.701,1.881-18.396
					c0.961-2.075,2.462-3.229,4.455-4.255c2.161-1.113,3.986-1.4,5.281-3.875c1.476-2.821,0.617-6.001-0.751-8.621
					c-5.488-0.436-12.708,3.552-16.545,6.614c-1.71,1.364-3.061,2.979-4.176,4.763c-1.907,3.052-3.009,4.896-6.503,6.558
					c-4.784,2.275-6.569,6.101-8.552,10.439c-2.661,5.821-4.833,11.796-6.608,17.88l-0.144,0.007
					c-1.784,0.081-1.864,2.848-1.864,2.848v13.973c0,0.675,0.324,1.159,0.787,1.465c0.334,0.271,0.779,0.454,1.35,0.469
					c12.726,0.338,69.006,0.338,81.733,0c0.57-0.015,1.016-0.198,1.35-0.469c0.463-0.307,0.787-0.791,0.787-1.465V49.155
					C127.121,49.155,127.041,46.388,125.257,46.307z"/>
			</g>
			<g>
				<path style="fill:#FFDE67;" d="M125.257,46.307l-0.143-0.007c-0.005-0.017-0.011-0.034-0.016-0.05h-81.96
					c-0.005,0.017-0.011,0.034-0.016,0.05l-0.144,0.007c-1.784,0.081-1.864,2.848-1.864,2.848v13.973
					c0,0.675,0.324,1.159,0.787,1.465c0.334,0.271,0.779,0.454,1.35,0.469c12.726,0.338,69.006,0.338,81.733,0
					c0.57-0.015,1.016-0.198,1.35-0.469c0.463-0.307,0.787-0.791,0.787-1.465V49.155C127.121,49.155,127.041,46.388,125.257,46.307z
					"/>
				<g>
					<g>
						<path style="fill:#FFD444;" d="M43.38,64.502c-0.276,0-0.5-0.224-0.5-0.5V47.565c0-0.276,0.224-0.5,0.5-0.5s0.5,0.224,0.5,0.5
							v16.438C43.88,64.279,43.656,64.502,43.38,64.502z"/>
					</g>
					<g>
						<path style="fill:#FFD444;" d="M47.255,64.502c-0.276,0-0.5-0.224-0.5-0.5V47.565c0-0.276,0.224-0.5,0.5-0.5
							s0.5,0.224,0.5,0.5v16.438C47.755,64.279,47.531,64.502,47.255,64.502z"/>
					</g>
					<g>
						<path style="fill:#FFD444;" d="M51.13,64.502c-0.276,0-0.5-0.224-0.5-0.5V47.565c0-0.276,0.224-0.5,0.5-0.5
							c0.276,0,0.5,0.224,0.5,0.5v16.438C51.63,64.279,51.406,64.502,51.13,64.502z"/>
					</g>
					<g>
						<path style="fill:#FFD444;" d="M55.005,64.502c-0.276,0-0.5-0.224-0.5-0.5V47.565c0-0.276,0.224-0.5,0.5-0.5
							c0.276,0,0.5,0.224,0.5,0.5v16.438C55.505,64.279,55.281,64.502,55.005,64.502z"/>
					</g>
					<g>
						<path style="fill:#FFD444;" d="M58.88,64.502c-0.276,0-0.5-0.224-0.5-0.5V47.565c0-0.276,0.224-0.5,0.5-0.5
							c0.276,0,0.5,0.224,0.5,0.5v16.438C59.38,64.279,59.156,64.502,58.88,64.502z"/>
					</g>
					<g>
						<path style="fill:#FFD444;" d="M62.755,64.502c-0.276,0-0.5-0.224-0.5-0.5V47.565c0-0.276,0.224-0.5,0.5-0.5
							c0.276,0,0.5,0.224,0.5,0.5v16.438C63.255,64.279,63.031,64.502,62.755,64.502z"/>
					</g>
					<g>
						<path style="fill:#FFD444;" d="M66.63,64.502c-0.276,0-0.5-0.224-0.5-0.5V47.565c0-0.276,0.224-0.5,0.5-0.5
							c0.276,0,0.5,0.224,0.5,0.5v16.438C67.13,64.279,66.906,64.502,66.63,64.502z"/>
					</g>
					<g>
						<path style="fill:#FFD444;" d="M70.505,64.502c-0.276,0-0.5-0.224-0.5-0.5V47.565c0-0.276,0.224-0.5,0.5-0.5
							c0.276,0,0.5,0.224,0.5,0.5v16.438C71.005,64.279,70.781,64.502,70.505,64.502z"/>
					</g>
					<g>
						<path style="fill:#FFD444;" d="M74.38,64.502c-0.276,0-0.5-0.224-0.5-0.5V47.565c0-0.276,0.224-0.5,0.5-0.5
							c0.276,0,0.5,0.224,0.5,0.5v16.438C74.88,64.279,74.656,64.502,74.38,64.502z"/>
					</g>
					<g>
						<path style="fill:#FFD444;" d="M78.255,64.502c-0.276,0-0.5-0.224-0.5-0.5V47.565c0-0.276,0.224-0.5,0.5-0.5
							c0.276,0,0.5,0.224,0.5,0.5v16.438C78.755,64.279,78.531,64.502,78.255,64.502z"/>
					</g>
					<g>
						<path style="fill:#FFD444;" d="M82.13,64.502c-0.276,0-0.5-0.224-0.5-0.5V47.565c0-0.276,0.224-0.5,0.5-0.5
							c0.276,0,0.5,0.224,0.5,0.5v16.438C82.63,64.279,82.406,64.502,82.13,64.502z"/>
					</g>
					<g>
						<path style="fill:#FFD444;" d="M86.005,64.502c-0.276,0-0.5-0.224-0.5-0.5V47.565c0-0.276,0.224-0.5,0.5-0.5
							c0.276,0,0.5,0.224,0.5,0.5v16.438C86.505,64.279,86.281,64.502,86.005,64.502z"/>
					</g>
					<g>
						<path style="fill:#FFD444;" d="M89.88,64.502c-0.276,0-0.5-0.224-0.5-0.5V47.565c0-0.276,0.224-0.5,0.5-0.5
							c0.276,0,0.5,0.224,0.5,0.5v16.438C90.38,64.279,90.156,64.502,89.88,64.502z"/>
					</g>
					<g>
						<path style="fill:#FFD444;" d="M93.755,64.502c-0.276,0-0.5-0.224-0.5-0.5V47.565c0-0.276,0.224-0.5,0.5-0.5
							c0.276,0,0.5,0.224,0.5,0.5v16.438C94.255,64.279,94.031,64.502,93.755,64.502z"/>
					</g>
					<g>
						<path style="fill:#FFD444;" d="M97.63,64.502c-0.276,0-0.5-0.224-0.5-0.5V47.565c0-0.276,0.224-0.5,0.5-0.5
							c0.276,0,0.5,0.224,0.5,0.5v16.438C98.13,64.279,97.906,64.502,97.63,64.502z"/>
					</g>
					<g>
						<path style="fill:#FFD444;" d="M101.505,64.502c-0.276,0-0.5-0.224-0.5-0.5V47.565c0-0.276,0.224-0.5,0.5-0.5
							c0.276,0,0.5,0.224,0.5,0.5v16.438C102.005,64.279,101.781,64.502,101.505,64.502z"/>
					</g>
					<g>
						<path style="fill:#FFD444;" d="M105.38,64.502c-0.276,0-0.5-0.224-0.5-0.5V47.565c0-0.276,0.224-0.5,0.5-0.5
							c0.276,0,0.5,0.224,0.5,0.5v16.438C105.88,64.279,105.656,64.502,105.38,64.502z"/>
					</g>
					<g>
						<path style="fill:#FFD444;" d="M109.255,64.502c-0.276,0-0.5-0.224-0.5-0.5V47.565c0-0.276,0.224-0.5,0.5-0.5
							c0.276,0,0.5,0.224,0.5,0.5v16.438C109.755,64.279,109.531,64.502,109.255,64.502z"/>
					</g>
					<g>
						<path style="fill:#FFD444;" d="M113.13,64.502c-0.276,0-0.5-0.224-0.5-0.5V47.565c0-0.276,0.224-0.5,0.5-0.5
							c0.276,0,0.5,0.224,0.5,0.5v16.438C113.63,64.279,113.406,64.502,113.13,64.502z"/>
					</g>
					<g>
						<path style="fill:#FFD444;" d="M117.005,64.502c-0.276,0-0.5-0.224-0.5-0.5V47.565c0-0.276,0.224-0.5,0.5-0.5
							c0.276,0,0.5,0.224,0.5,0.5v16.438C117.505,64.279,117.281,64.502,117.005,64.502z"/>
					</g>
					<g>
						<path style="fill:#FFD444;" d="M120.88,64.502c-0.276,0-0.5-0.224-0.5-0.5V47.565c0-0.276,0.224-0.5,0.5-0.5
							c0.276,0,0.5,0.224,0.5,0.5v16.438C121.38,64.279,121.156,64.502,120.88,64.502z"/>
					</g>
					<g>
						<path style="fill:#FFD444;" d="M124.755,64.502c-0.276,0-0.5-0.224-0.5-0.5V47.565c0-0.276,0.224-0.5,0.5-0.5
							c0.276,0,0.5,0.224,0.5,0.5v16.438C125.255,64.279,125.031,64.502,124.755,64.502z"/>
					</g>
				</g>
			</g>
		</g>
	</g>
	<g>
		<path style="fill:none;stroke:#233842;stroke-width:0.75;stroke-linecap:round;stroke-linejoin:round;stroke-miterlimit:10;" d="
			M65.276,110.397c0,0,17.191,16.875,37.684,0"/>
		<g>
			<g>
				<g>
					<g>
						<circle style="fill:#67657B;" cx="101.943" cy="78.093" r="3.333"/>
						<circle style="fill:#8E8D9C;" cx="101.943" cy="78.093" r="3.104"/>
						<polygon style="fill:#5F5D73;" points="99.339,76.656 100.682,77.304 99.51,76.382 100.775,77.173 99.709,76.129 
							100.881,77.052 99.934,75.899 101,76.943 100.183,75.695 101.13,76.848 100.453,75.518 101.269,76.767 100.74,75.372 
							101.416,76.702 101.041,75.259 101.57,76.653 101.353,75.177 101.727,76.621 101.672,75.131 101.888,76.607 101.993,75.118 
							102.049,76.609 102.315,75.141 102.209,76.63 102.632,75.199 102.365,76.667 102.941,75.29 102.517,76.72 103.238,75.415 
							102.662,76.791 103.52,75.571 102.799,76.876 103.783,75.756 102.925,76.976 104.025,75.968 103.04,77.089 104.242,76.206 
							103.142,77.213 104.433,76.466 103.23,77.348 104.595,76.744 103.303,77.491 104.725,77.039 103.361,77.642 104.823,77.345 
							103.401,77.798 104.886,77.661 103.424,77.957 104.916,77.982 103.43,78.118 104.91,78.304 103.419,78.279 104.87,78.624 
							103.39,78.437 104.796,78.937 103.345,78.592 104.688,79.24 103.282,78.74 104.548,79.531 103.204,78.881 104.377,79.803 
							103.112,79.013 104.178,80.056 103.006,79.134 103.952,80.287 102.887,79.242 103.703,80.491 102.757,79.338 103.433,80.667 
							102.617,79.418 103.146,80.813 102.47,79.484 102.845,80.927 102.317,79.532 102.533,81.008 102.159,79.564 102.215,81.055 
							101.999,79.579 101.893,81.067 101.838,79.576 101.572,81.044 101.678,79.556 101.255,80.987 101.521,79.519 100.946,80.895 
							101.369,79.465 100.649,80.771 101.224,79.395 100.367,80.615 101.088,79.309 100.103,80.43 100.961,79.21 99.862,80.218 
							100.846,79.097 99.644,79.98 100.744,78.973 99.453,79.72 100.656,78.838 99.292,79.442 100.583,78.695 99.162,79.147 
							100.526,78.544 99.064,78.84 100.486,78.388 99,78.525 100.462,78.229 98.971,78.204 100.456,78.068 98.976,77.882 
							100.468,77.907 99.016,77.562 100.496,77.749 99.091,77.249 100.542,77.594 99.199,76.946 100.604,77.446 						"/>
					</g>
					<g>
						<circle style="opacity:0.35;fill:#1D1A3A;" cx="101.954" cy="78.093" r="1.587"/>
						<path style="fill:#FFFFFF;" d="M102.929,77.38c0.001-0.009,0.005-0.017,0.005-0.026c0-0.271-0.22-0.49-0.491-0.49
							c-0.271,0-0.49,0.22-0.49,0.49c0,0.271,0.22,0.49,0.49,0.49c0.041,0,0.078-0.014,0.116-0.023
							c0.036,0.015,0.075,0.023,0.116,0.023c0.168,0,0.305-0.136,0.305-0.305C102.981,77.479,102.959,77.427,102.929,77.38z"/>
					</g>
				</g>
				<g>
					<g>
						<circle style="fill:#67657B;" cx="67.603" cy="78.093" r="3.333"/>
						<circle style="fill:#8E8D9C;" cx="67.603" cy="78.093" r="3.104"/>
						<polygon style="fill:#5F5D73;" points="64.999,76.656 66.342,77.304 65.17,76.382 66.434,77.173 65.369,76.129 66.541,77.052 
							65.595,75.899 66.659,76.943 65.844,75.695 66.789,76.848 66.113,75.518 66.929,76.767 66.4,75.372 67.076,76.702 
							66.701,75.259 67.23,76.653 67.013,75.177 67.387,76.621 67.331,75.131 67.548,76.607 67.654,75.118 67.709,76.609 
							67.975,75.141 67.868,76.63 68.292,75.199 68.025,76.667 68.6,75.29 68.177,76.72 68.898,75.415 68.322,76.791 69.179,75.571 
							68.459,76.876 69.443,75.756 68.585,76.976 69.685,75.968 68.7,77.089 69.903,76.206 68.802,77.213 70.093,76.466 
							68.89,77.348 70.255,76.744 68.963,77.491 70.385,77.039 69.02,77.642 70.482,77.345 69.061,77.798 70.546,77.661 
							69.084,77.957 70.576,77.982 69.09,78.118 70.57,78.304 69.079,78.279 70.53,78.624 69.05,78.437 70.455,78.937 
							69.005,78.592 70.347,79.24 68.942,78.74 70.207,79.531 68.865,78.881 70.036,79.803 68.772,79.013 69.838,80.056 
							68.665,79.134 69.612,80.287 68.547,79.242 69.363,80.491 68.417,79.338 69.094,80.667 68.278,79.418 68.806,80.813 
							68.13,79.484 68.505,80.927 67.977,79.532 68.194,81.008 67.819,79.564 67.875,81.055 67.658,79.579 67.553,81.067 
							67.498,79.576 67.232,81.044 67.338,79.556 66.915,80.987 67.181,79.519 66.606,80.895 67.03,79.465 66.309,80.771 
							66.885,79.395 66.027,80.615 66.748,79.309 65.763,80.43 66.621,79.21 65.521,80.218 66.506,79.097 65.304,79.98 
							66.404,78.973 65.114,79.72 66.316,78.838 64.952,79.442 66.243,78.695 64.822,79.147 66.186,78.544 64.724,78.84 
							66.145,78.388 64.66,78.525 66.122,78.229 64.631,78.204 66.116,78.068 64.636,77.882 66.128,77.907 64.677,77.562 
							66.156,77.749 64.751,77.249 66.202,77.594 64.859,76.946 66.264,77.446 						"/>
					</g>
					<g>
						<circle style="opacity:0.35;fill:#1D1A3A;" cx="67.614" cy="78.093" r="1.587"/>
						<path style="fill:#FFFFFF;" d="M68.59,77.38c0-0.009,0.005-0.017,0.005-0.026c0-0.271-0.219-0.49-0.49-0.49
							c-0.271,0-0.49,0.22-0.49,0.49c0,0.271,0.22,0.49,0.49,0.49c0.041,0,0.078-0.014,0.116-0.023
							c0.036,0.015,0.075,0.023,0.116,0.023c0.168,0,0.305-0.136,0.305-0.305C68.641,77.479,68.619,77.427,68.59,77.38z"/>
					</g>
				</g>
			</g>
			<g>
				<path style="opacity:0.29;fill:#FCD0A3;" d="M108.822,83.88c-0.809-0.133-1.455-0.211-1.7-0.237
					c-4.793-0.514-10.717-0.877-14.585,2.559c-1.22,1.084-0.764,2.567,0.83,2.924c0.613,0.137,1.251,0.078,1.876,0.018
					c5.536-0.529,11.039-1.12,16.593-1.533c1.441-0.107,3.082-0.898,1.851-2.285C112.758,84.281,110.106,84.091,108.822,83.88z"/>
				<path style="opacity:0.29;fill:#FCD0A3;" d="M58.428,83.88c0.809-0.133,1.455-0.211,1.7-0.237
					c4.793-0.514,10.716-0.877,14.585,2.559c1.22,1.084,0.764,2.567-0.83,2.924c-0.613,0.137-1.251,0.078-1.876,0.018
					c-5.537-0.529-11.039-1.12-16.593-1.533c-1.44-0.107-3.082-0.898-1.851-2.285C54.492,84.281,57.144,84.091,58.428,83.88z"/>
			</g>
		</g>
	</g>
</g>
<g>
</g>
<g>
</g>
<g>
</g>
<g>
</g>
<g>
</g>
<g>
</g>
<g>
</g>
<g>
</g>
<g>
</g>
<g>
</g>
<g>
</g>
<g>
</g>
<g>
</g>
<g>
</g>
<g>
</g>
</svg>
