<?xml version="1.0" encoding="iso-8859-1"?>
<!-- Generator: Adobe Illustrator 18.0.0, SVG Export Plug-In . SVG Version: 6.00 Build 0)  -->
<!DOCTYPE svg PUBLIC "-//W3C//DTD SVG 1.1//EN" "http://www.w3.org/Graphics/SVG/1.1/DTD/svg11.dtd">
<svg version="1.1" id="Capa_1" xmlns="http://www.w3.org/2000/svg" xmlns:xlink="http://www.w3.org/1999/xlink" x="0px" y="0px"
	 viewBox="0 0 153.558 153.558" style="enable-background:new 0 0 153.558 153.558;" xml:space="preserve">
<g>
	<g>
		<g>
			<path style="fill:#FCD0A3;" d="M115.779,80.427c4,0,7.666-3.433,7.666-7.667c0-4.234-3.666-7.667-7.666-7.667V80.427z"/>
			<path style="opacity:0.16;fill:#FCD0A3;" d="M115.779,80.427c4,0,7.666-3.433,7.666-7.667c0-4.234-3.666-7.667-7.666-7.667
				V80.427z"/>
		</g>
		<g>
			<path style="fill:#FCD0A3;" d="M37.779,80.427c-4,0-7.667-3.433-7.667-7.667c0-4.234,3.667-7.667,7.667-7.667V80.427z"/>
			<path style="opacity:0.16;fill:#FCD0A3;" d="M37.779,80.427c-4,0-7.667-3.433-7.667-7.667c0-4.234,3.667-7.667,7.667-7.667
				V80.427z"/>
		</g>
	</g>
	<g>
		<path style="fill:#FFDE67;" d="M89.234,150.729H67.929c-17.989,0-32.572-14.583-32.572-32.571V41.667h83.333v79.605
			C118.69,137.541,105.502,150.729,89.234,150.729z"/>
		<g>
			<path style="fill:#FCD0A3;" d="M77.024,128.896L77.024,128.896c-1.934,0-3.501-1.568-3.501-3.502v-13.963
				c0-1.935,1.567-3.502,3.501-3.502l0,0c1.934,0,3.501,1.567,3.501,3.502v13.963C80.525,127.328,78.958,128.896,77.024,128.896z"/>
			<g>
				<path style="fill:#FCD0A3;" d="M77.024,115.334L77.024,115.334c-21.908,0-39.667-17.76-39.667-39.667v-34
					C37.357,19.759,55.116,2,77.024,2h0.001c21.907,0,39.666,17.76,39.666,39.667v34C116.691,97.574,98.931,115.334,77.024,115.334z
					"/>
				<path style="opacity:0.16;fill:#FCD0A3;" d="M55.344,104.884c-5.892-7.367-7.637-16.08-7.841-25.324
					c-0.202-9.158-0.266-17.485,0.294-26.664c0.543-8.917,2.318-17.642,6.815-25.005C60.796,17.764,71.937,8.209,82.599,2.41
					C80.746,2.145,78.854,2,76.927,2l0,0C55.02,2,37.26,19.759,37.26,41.667v34c0,18.021,12.022,33.227,28.481,38.057
					C61.798,111.427,58.247,108.512,55.344,104.884z"/>
			</g>
		</g>
		<g>
			<g>
				<path style="fill:none;stroke:#6F6F6E;stroke-width:0.1;stroke-linecap:round;stroke-linejoin:round;stroke-miterlimit:10;" d="
					M55.638,91.255c5.626,5.181,13.135,8.348,21.386,8.348c8.25,0,15.76-3.167,21.385-8.348"/>
				<g>
					<path style="fill:#DC2A2C;" d="M71.837,99.148l1.461,1.849c0.617,0.779,1.556,1.234,2.55,1.234h2.47
						c0.995,0,1.932-0.469,2.529-1.265l1.364-1.818H71.837z"/>
					<path style="fill:#E94941;" d="M77.571,97.063l-0.304,0.309c-0.142,0.145-0.373,0.146-0.517,0.003l-0.271-0.271
						c-0.733-0.732-1.922-0.727-2.648,0.013l-1.994,2.032h2.693c0.659,0,1.313,0.104,1.94,0.306l0.304,0.099
						c0.216,0.069,0.45,0.065,0.664-0.012l0.284-0.103c0.531-0.192,1.092-0.29,1.657-0.29h2.834l-2.097-2.097
						C79.41,96.347,78.268,96.352,77.571,97.063z"/>
				</g>
			</g>
			<g>
				
					<ellipse transform="matrix(0.9676 0.2526 -0.2526 0.9676 20.6941 -10.9577)" style="opacity:0.25;fill:#F296A4;" cx="53.028" cy="75.125" rx="11.974" ry="7.361"/>
				
					<ellipse transform="matrix(-0.9676 0.2526 -0.2526 -0.9676 217.563 122.3211)" style="opacity:0.25;fill:#F296A4;" cx="100.93" cy="75.125" rx="11.974" ry="7.361"/>
			</g>
			<g>
				<g>
					<g>
						<g>
							<g>
								<path style="fill:#67657B;" d="M99.791,62.368c1.364,0.338,2.783-0.465,3.193-1.81c0.047-0.155-0.194-0.22-0.241-0.066
									c-0.37,1.213-1.655,1.941-2.885,1.635C99.701,62.088,99.634,62.329,99.791,62.368L99.791,62.368z"/>
							</g>
						</g>
						<g>
							<g>
								<path style="fill:#67657B;" d="M99.631,61.996c1.189-0.001,2.184-0.954,2.246-2.139c0.008-0.161-0.242-0.16-0.25,0
									c-0.055,1.051-0.947,1.888-1.996,1.889C99.469,61.746,99.469,61.996,99.631,61.996L99.631,61.996z"/>
							</g>
						</g>
						<g>
							<g>
								<path style="fill:#67657B;" d="M99.893,62.688c0.911,0.626,2.009,0.792,3.065,0.465c0.153-0.048,0.088-0.289-0.066-0.241
									c-0.998,0.309-2.012,0.152-2.872-0.439C99.886,62.38,99.761,62.597,99.893,62.688L99.893,62.688z"/>
							</g>
						</g>
					</g>
					<g>
						<g>
							<circle style="fill:#67657B;" cx="96.852" cy="63.63" r="3.333"/>
							<circle style="fill:#8E8D9C;" cx="96.852" cy="63.63" r="3.104"/>
							<polygon style="fill:#5F5D73;" points="94.247,62.192 95.59,62.842 94.418,61.919 95.683,62.71 94.617,61.666 95.789,62.589 
								94.843,61.436 95.908,62.48 95.092,61.231 96.038,62.384 95.361,61.055 96.177,62.304 95.648,60.909 96.324,62.239 
								95.949,60.796 96.478,62.19 96.261,60.715 96.635,62.158 96.58,60.668 96.796,62.143 96.902,60.655 96.957,62.146 
								97.223,60.678 97.117,62.167 97.54,60.736 97.274,62.204 97.849,60.827 97.425,62.258 98.146,60.952 97.57,62.328 
								98.428,61.107 97.707,62.413 98.691,61.293 97.833,62.512 98.933,61.505 97.948,62.626 99.151,61.743 98.051,62.75 
								99.342,62.002 98.138,62.884 99.503,62.281 98.212,63.028 99.633,62.576 98.269,63.178 99.731,62.883 98.309,63.335 
								99.795,63.198 98.333,63.494 99.824,63.518 98.339,63.655 99.819,63.841 98.327,63.815 99.779,64.16 98.299,63.973 
								99.704,64.473 98.253,64.129 99.596,64.777 98.191,64.277 99.456,65.067 98.113,64.418 99.285,65.341 98.02,64.55 
								99.086,65.593 97.914,64.671 98.86,65.823 97.795,64.779 98.612,66.028 97.665,64.875 98.342,66.204 97.526,64.955 
								98.055,66.35 97.379,65.02 97.754,66.465 97.225,65.069 97.442,66.545 97.067,65.101 97.123,66.592 96.907,65.116 
								96.801,66.604 96.746,65.113 96.48,66.581 96.586,65.093 96.163,66.523 96.429,65.055 95.854,66.432 96.278,65.002 
								95.557,66.307 96.133,64.931 95.275,66.152 95.996,64.846 95.011,65.967 95.87,64.747 94.77,65.755 95.755,64.634 
								94.552,65.516 95.653,64.509 94.362,65.258 95.564,64.375 94.2,64.978 95.491,64.231 94.07,64.684 95.434,64.081 
								93.972,64.377 95.394,63.925 93.908,64.061 95.37,63.765 93.879,63.741 95.364,63.604 93.885,63.419 95.376,63.444 
								93.925,63.098 95.405,63.286 93.999,62.786 95.45,63.131 94.107,62.482 95.512,62.982 							"/>
						</g>
						<g>
							<circle style="opacity:0.35;fill:#1D1A3A;" cx="96.863" cy="63.63" r="1.587"/>
							<path style="fill:#FFFFFF;" d="M97.838,62.917c0-0.009,0.005-0.017,0.005-0.026c0-0.271-0.22-0.49-0.49-0.49
								c-0.271,0-0.49,0.22-0.49,0.49c0,0.271,0.219,0.49,0.49,0.49c0.041,0,0.078-0.014,0.116-0.022
								c0.036,0.015,0.075,0.022,0.116,0.022c0.168,0,0.305-0.136,0.305-0.305C97.889,63.016,97.867,62.964,97.838,62.917z"/>
						</g>
					</g>
				</g>
				<g>
					<g>
						<g>
							<g>
								<path style="fill:#67657B;" d="M55.833,62.127c-1.23,0.305-2.516-0.422-2.886-1.635c-0.047-0.154-0.288-0.088-0.241,0.066
									c0.41,1.344,1.829,2.148,3.193,1.81C56.056,62.329,55.989,62.088,55.833,62.127L55.833,62.127z"/>
							</g>
						</g>
						<g>
							<g>
								<path style="fill:#67657B;" d="M56.059,61.746c-1.049-0.001-1.941-0.838-1.996-1.889c-0.008-0.16-0.258-0.161-0.25,0
									c0.062,1.185,1.056,2.138,2.246,2.139C56.22,61.996,56.22,61.746,56.059,61.746L56.059,61.746z"/>
							</g>
						</g>
						<g>
							<g>
								<path style="fill:#67657B;" d="M55.671,62.472c-0.86,0.592-1.875,0.749-2.872,0.439c-0.154-0.048-0.22,0.194-0.066,0.241
									c1.056,0.327,2.154,0.162,3.065-0.465C55.929,62.597,55.804,62.38,55.671,62.472L55.671,62.472z"/>
							</g>
						</g>
					</g>
					<g>
						<g>
							<circle style="fill:#67657B;" cx="58.733" cy="63.63" r="3.333"/>
							<circle style="fill:#8E8D9C;" cx="58.733" cy="63.63" r="3.104"/>
							<polygon style="fill:#5F5D73;" points="56.129,62.192 57.471,62.842 56.299,61.919 57.564,62.71 56.498,61.666 57.67,62.589 
								56.724,61.436 57.789,62.48 56.973,61.231 57.919,62.384 57.242,61.055 58.058,62.304 57.53,60.909 58.205,62.239 
								57.831,60.796 58.359,62.19 58.142,60.715 58.517,62.158 58.461,60.668 58.677,62.143 58.783,60.655 58.838,62.146 
								59.104,60.678 58.998,62.167 59.421,60.736 59.155,62.204 59.73,60.827 59.306,62.258 60.027,60.952 59.451,62.328 
								60.309,61.107 59.588,62.413 60.573,61.293 59.715,62.512 60.814,61.505 59.829,62.626 61.032,61.743 59.932,62.75 
								61.222,62.002 60.02,62.884 61.384,62.281 60.093,63.028 61.514,62.576 60.15,63.178 61.612,62.883 60.19,63.335 
								61.676,63.198 60.214,63.494 61.705,63.518 60.22,63.655 61.7,63.841 60.208,63.815 61.659,64.16 60.179,63.973 
								61.585,64.473 60.134,64.129 61.477,64.777 60.072,64.277 61.337,65.067 59.994,64.418 61.166,65.341 59.901,64.55 
								60.967,65.593 59.795,64.671 60.741,65.823 59.676,64.779 60.492,66.028 59.547,64.875 60.223,66.204 59.407,64.955 
								59.936,66.35 59.26,65.02 59.635,66.465 59.106,65.069 59.323,66.545 58.948,65.101 59.004,66.592 58.788,65.116 
								58.682,66.604 58.627,65.113 58.361,66.581 58.468,65.093 58.044,66.523 58.311,65.055 57.736,66.432 58.159,65.002 
								57.438,66.307 58.014,64.931 57.156,66.152 57.877,64.846 56.893,65.967 57.751,64.747 56.651,65.755 57.636,64.634 
								56.433,65.516 57.533,64.509 56.243,65.258 57.446,64.375 56.081,64.978 57.372,64.231 55.951,64.684 57.316,64.081 
								55.853,64.377 57.275,63.925 55.79,64.061 57.252,63.765 55.76,63.741 57.246,63.604 55.766,63.419 57.257,63.444 
								55.806,63.098 57.286,63.286 55.88,62.786 57.331,63.131 55.989,62.482 57.393,62.982 							"/>
						</g>
						<g>
							<circle style="opacity:0.35;fill:#1D1A3A;" cx="58.743" cy="63.63" r="1.587"/>
							<path style="fill:#FFFFFF;" d="M59.719,62.917c0-0.009,0.005-0.017,0.005-0.026c0-0.271-0.219-0.49-0.49-0.49
								c-0.271,0-0.49,0.22-0.49,0.49c0,0.271,0.22,0.49,0.49,0.49c0.041,0,0.078-0.014,0.116-0.022
								c0.036,0.015,0.075,0.022,0.116,0.022c0.168,0,0.305-0.136,0.305-0.305C59.77,63.016,59.749,62.964,59.719,62.917z"/>
						</g>
					</g>
				</g>
			</g>
		</g>
		<path style="fill:#FFE176;" d="M118.646,54.729V42.405c0-23.315-19.08-42.798-42.392-42.399
			C53.612,0.394,35.313,18.934,35.313,41.667v31.896l7.349-4.796c12.889-8.41,27.877-13.038,43.264-13.357L118.646,54.729z"/>
		<g>
			<path style="fill:#9BC5BF;" d="M112.375,148.346c-0.285-1.747-0.788-3.439-1.482-5.059c-0.315-0.735-0.667-1.457-1.06-2.161
				c-1.015-1.819-2.284-3.528-3.769-5.097c-0.739-0.781-1.535-1.524-2.378-2.233c-2.633-2.212-5.745-4.051-9.206-5.407
				c-3.216-1.26-6.73-2.101-10.436-2.44c-0.096-0.009-0.195-0.012-0.292-0.021c0-0.032-0.011-0.064-0.013-0.097
				c0.128-0.225,0.207-0.476,0.207-0.73c0-0.849-0.688-1.458-1.5-1.5c-0.186-0.011-0.371-0.021-0.557-0.03
				c0.022-0.734,0.188-1.479,0.633-2.299c0.608-1.121,1.594-2.491,0.766-3.797c-0.821-1.294-2.394-0.815-3.58-0.475
				c-2.135,0.613-4.252,1.02-6.419,0.528c-0.15-0.127-0.335-0.23-0.562-0.298c-1.613-0.48-3.36,0.43-3.122,2.308
				c0.126,0.991,0.94,1.541,1.235,2.448c0.087,0.267,0.214,1.094,0.191,1.825h-0.208c-0.784,0-1.536,0.69-1.5,1.5
				c0.005,0.104,0.02,0.205,0.043,0.304c-0.04,0.135-0.064,0.273-0.068,0.412c-3.478,0.373-6.787,1.172-9.823,2.361
				c-3.461,1.357-6.574,3.195-9.207,5.409c-0.841,0.707-1.636,1.45-2.375,2.23c-1.485,1.568-2.754,3.277-3.769,5.097
				c-0.393,0.704-0.745,1.426-1.06,2.161c-0.695,1.622-1.198,3.314-1.483,5.064c-0.118,0.724-0.193,1.459-0.235,2.201
				c1.158,0.191,2.317,0.377,3.477,0.552c3.972,0.597,7.951,1.094,11.935,1.477c0.172,0.017,0.343,0.033,0.515,0.049
				c17.282,1.652,34.652,1.072,51.877-1.525c1.155-0.174,2.309-0.357,3.461-0.55C112.57,149.81,112.494,149.073,112.375,148.346z"/>
			<g>
				<g>
					<circle style="fill:#E94941;" cx="99.452" cy="132.258" r="0.72"/>
					<circle style="fill:#E94941;" cx="99.452" cy="146.659" r="0.72"/>
					<path style="fill:#E94941;" d="M106.652,140.178c0.397,0,0.72-0.323,0.72-0.72c0-0.1-0.02-0.194-0.056-0.281
						c-0.109-0.258-0.365-0.438-0.664-0.438c-0.298,0-0.554,0.181-0.663,0.438c-0.037,0.087-0.057,0.182-0.057,0.281
						C105.932,139.855,106.254,140.178,106.652,140.178z"/>
					<circle style="fill:#E94941;" cx="77.851" cy="125.059" r="0.72"/>
					<circle style="fill:#E94941;" cx="70.652" cy="132.258" r="0.72"/>
					<circle style="fill:#E94941;" cx="85.051" cy="132.259" r="0.72"/>
					<path style="fill:#E94941;" d="M70.652,118.578c0.397,0,0.72-0.322,0.72-0.719c0-0.266-0.15-0.488-0.364-0.613
						c-0.43,0.146-0.789,0.41-1.044,0.769C70.036,118.334,70.309,118.578,70.652,118.578z"/>
					<path style="fill:#E94941;" d="M63.451,138.739c-0.1,0-0.194,0.02-0.28,0.056c-0.172,0.073-0.31,0.211-0.383,0.383
						c-0.037,0.087-0.057,0.182-0.057,0.281c0,0.297,0.181,0.553,0.439,0.663c0.086,0.036,0.181,0.057,0.28,0.057
						c0.396,0,0.72-0.323,0.72-0.72c0-0.1-0.02-0.194-0.057-0.281C64.005,138.92,63.749,138.739,63.451,138.739z"/>
					<path style="fill:#E94941;" d="M77.851,153.138c-0.287,0-0.53,0.17-0.646,0.412c0.426,0,0.852-0.016,1.278-0.019
						C78.364,153.301,78.13,153.138,77.851,153.138z"/>
					<circle style="fill:#E94941;" cx="70.652" cy="146.658" r="0.72"/>
					<circle style="fill:#E94941;" cx="85.051" cy="146.659" r="0.72"/>
					<path style="fill:#E94941;" d="M92.252,140.178c0.396,0,0.72-0.323,0.72-0.72c0-0.1-0.02-0.194-0.057-0.281
						c-0.109-0.258-0.366-0.438-0.663-0.438c-0.299,0-0.554,0.181-0.663,0.438c-0.037,0.087-0.057,0.182-0.057,0.281
						C91.532,139.855,91.853,140.178,92.252,140.178z"/>
					<path style="fill:#E94941;" d="M77.851,140.178c0.397,0,0.72-0.323,0.72-0.72c0-0.1-0.02-0.194-0.057-0.281
						c-0.109-0.258-0.365-0.438-0.663-0.438c-0.298,0-0.554,0.181-0.663,0.438c-0.036,0.087-0.057,0.182-0.057,0.281
						C77.132,139.855,77.454,140.178,77.851,140.178z"/>
					<circle style="fill:#E94941;" cx="56.251" cy="132.258" r="0.72"/>
					<path style="fill:#E94941;" d="M41.851,147.378c0.397,0,0.72-0.322,0.72-0.719c0-0.306-0.191-0.564-0.459-0.668
						c-0.128,0.452-0.239,0.909-0.337,1.371C41.801,147.365,41.824,147.378,41.851,147.378z"/>
					<circle style="fill:#E94941;" cx="56.251" cy="146.658" r="0.72"/>
					<path style="fill:#E94941;" d="M49.051,140.178c0.397,0,0.72-0.323,0.72-0.72c0-0.1-0.02-0.194-0.057-0.281
						c-0.109-0.258-0.365-0.438-0.663-0.438c-0.298,0-0.554,0.181-0.663,0.438c-0.037,0.087-0.057,0.182-0.057,0.281
						C48.331,139.855,48.654,140.178,49.051,140.178z"/>
				</g>
				<circle style="fill:#E94941;" cx="92.252" cy="150.729" r="0.635"/>
				<circle style="fill:#E94941;" cx="107.372" cy="148.562" r="0.636"/>
				<circle style="fill:#E94941;" cx="80.525" cy="119.823" r="0.635"/>
				<circle style="fill:#E94941;" cx="62.732" cy="149.834" r="0.635"/>
				<circle style="fill:#E94941;" cx="64.171" cy="130.903" r="0.635"/>
				<circle style="fill:#E94941;" cx="49.051" cy="148.562" r="0.635"/>
				<circle style="fill:#E94941;" cx="55.638" cy="140.178" r="0.635"/>
				<circle style="fill:#E94941;" cx="59.93" cy="135.727" r="0.635"/>
				<circle style="fill:#E94941;" cx="73.522" cy="136.998" r="0.635"/>
				<circle style="fill:#E94941;" cx="88.117" cy="136.362" r="0.635"/>
				<circle style="fill:#E94941;" cx="97.669" cy="136.362" r="0.635"/>
				<circle style="fill:#E94941;" cx="71.836" cy="126.414" r="0.635"/>
				<circle style="fill:#E94941;" cx="70.667" cy="140.813" r="0.635"/>
				<circle style="fill:#E94941;" cx="85.771" cy="140.813" r="0.635"/>
				<circle style="fill:#E94941;" cx="100.807" cy="140.178" r="0.635"/>
				<circle style="fill:#E94941;" cx="78.484" cy="147.927" r="0.635"/>
				<circle style="fill:#E94941;" cx="92.252" cy="132.259" r="0.635"/>
				<circle style="fill:#E94941;" cx="77.845" cy="132.259" r="0.635"/>
				<circle style="fill:#E94941;" cx="86.407" cy="127.685" r="0.635"/>
				<circle style="fill:#E94941;" cx="74.835" cy="121.093" r="0.635"/>
				<circle style="fill:#E94941;" cx="46.46" cy="144.062" r="0.635"/>
				<circle style="fill:#E94941;" cx="62.732" cy="145.334" r="0.635"/>
				<circle style="fill:#E94941;" cx="92.252" cy="144.698" r="0.635"/>
				<circle style="fill:#E94941;" cx="104.44" cy="145.334" r="0.635"/>
				<circle style="fill:#E94941;" cx="109.95" cy="145.991" r="0.635"/>
				<circle style="fill:#E94941;" cx="69.296" cy="152" r="0.635"/>
				<circle style="fill:#E94941;" cx="58.2" cy="151.365" r="0.635"/>
				<circle style="fill:#E94941;" cx="102.078" cy="150.468" r="0.635"/>
				<circle style="fill:#E94941;" cx="85.052" cy="152" r="0.635"/>
			</g>
		</g>
	</g>
</g>
<g>
</g>
<g>
</g>
<g>
</g>
<g>
</g>
<g>
</g>
<g>
</g>
<g>
</g>
<g>
</g>
<g>
</g>
<g>
</g>
<g>
</g>
<g>
</g>
<g>
</g>
<g>
</g>
<g>
</g>
</svg>
