<?xml version="1.0" encoding="iso-8859-1"?>
<!-- Generator: Adobe Illustrator 19.0.0, SVG Export Plug-In . SVG Version: 6.00 Build 0)  -->
<svg version="1.1" id="Layer_1" xmlns="http://www.w3.org/2000/svg" xmlns:xlink="http://www.w3.org/1999/xlink" x="0px" y="0px"
	 viewBox="0 0 318.964 318.964" style="enable-background:new 0 0 318.964 318.964;" xml:space="preserve">
<g>
	<g>
		<path style="fill:#EAE5DC;" d="M303.673,253.517c-11.151-37.754-67.121-33.566-91.279-44.408
			c-24.157-10.842-20.386-47.219-23.449-53.548h-58.932c-3.058,6.329,0.714,42.711-23.449,53.548
			c-24.157,10.842-80.133,6.655-91.279,44.408c-6.149,20.824-5.857,27.193-7.554,50.26c0,0,76.8,15.187,150.014,15.187
			s153.488-15.187,153.488-15.187C309.53,280.704,309.822,274.342,303.673,253.517z"/>
		<path style="fill:#E0DBD3;" d="M303.673,253.517c-11.151-37.754-67.121-33.566-91.279-44.408
			c-24.157-10.842-20.386-47.219-23.449-53.548h-31.206c0,0-0.719,51.024,23.438,61.866s80.133,6.655,91.279,44.408
			c5.857,19.83,5.868,26.552,7.324,47.073c19.234-2.816,31.442-5.126,31.442-5.126C309.53,280.704,309.822,274.342,303.673,253.517z
			"/>
		<path style="fill:#4C4C4C;" d="M253.987,218.467l-22.544-4.345c0,0-4.794,43.374-6.278,101.373
			c7.953-0.748,15.637-1.568,22.932-2.422C249.592,258.188,253.987,218.467,253.987,218.467z"/>
		<path style="fill:#4C4C4C;" d="M64.954,218.467c0,0,4.407,39.845,5.896,94.859c7.284,0.86,14.968,1.681,22.932,2.422
			c-1.473-58.128-6.284-101.626-6.284-101.626L64.954,218.467z"/>
		<path style="fill:#393C3D;" d="M230.009,229.084c7.891,2.063,15.541,4.693,22.207,8.453c1.006-12.112,1.776-19.071,1.776-19.071
			l-22.544-4.345C231.443,214.122,230.847,219.535,230.009,229.084z"/>
		<path style="fill:#DBB491;" d="M201.878,201.105c-12.5-14.951-10.421-40.356-12.927-45.549h-58.938
			c-2.512,5.193-0.427,30.599-12.927,45.549c7.655,9.611,23.764,16.232,42.396,16.232S194.223,210.716,201.878,201.105z"/>
		<polygon style="fill:#C6C5AF;" points="209.157,207.406 176.108,236.122 171.173,205.748 		"/>
		<polygon style="fill:#C6C5AF;" points="109.234,207.743 142.817,236.122 146.796,205.517 		"/>
		<polygon style="fill:#C6C5AF;" points="172.005,205.517 146.796,205.517 144.885,211.7 173.961,211.869 		"/>
		<polygon style="fill:#AAA88F;" points="146.796,205.517 144.885,211.7 145.987,212.419 		"/>
		<polygon style="fill:#AAA88F;" points="173.961,211.869 171.173,205.748 172.331,212.858 		"/>
		<path style="fill:#4C4C4C;" d="M173.432,318.739l0.579-7.987l-6.081-80.51h-16.024l-7.099,80.515l0.585,8.066
			c4.12,0.084,8.24,0.141,12.354,0.141C162.95,318.964,168.188,318.879,173.432,318.739z"/>
		<polygon style="fill:#3A3A38;" points="151.967,230.596 167.93,230.237 168.256,234.733 		"/>
		<polygon style="fill:#4C4C4C;" points="140.54,208.181 178.255,208.159 176.108,221.03 167.592,230.596 151.967,230.596 
			142.693,221.03 		"/>
		<path style="fill:#EAEAE1;" d="M146.796,205.517l-25.72-13.984c0,0-3.389,4.817-11.843,16.21l31.723,22.853l2.704-14.923
			L146.796,205.517z"/>
		<path style="fill:#EAEAE1;" d="M171.122,205.517l25.72-13.984c0,0,3.861,4.48,12.315,15.873l-32.195,23.191l-2.704-14.923
			L171.122,205.517z"/>
		<path style="fill:#E0DBD3;" d="M196.842,191.533l-25.72,13.984l1.776,5.772c2.372,2.602,5.109,4.716,8.279,6.138
			c2.799,1.253,6.02,2.31,9.555,3.249l18.419-13.265C200.703,196.013,196.842,191.533,196.842,191.533z"/>
		
			<ellipse transform="matrix(-0.177 0.9842 -0.9842 -0.177 385.6545 -85.3725)" style="fill:#CCA483;" cx="228.522" cy="118.556" rx="21.386" ry="11.629"/>
		
			<ellipse transform="matrix(-0.9842 0.177 -0.177 -0.9842 200.0894 219.2784)" style="fill:#DBB491;" cx="90.264" cy="118.564" rx="11.629" ry="21.386"/>
		<path style="fill:#DBB491;" d="M223.641,47.364H159.42H95.233c0,0-35.989,146.614,64.187,160.806
			C259.636,193.978,223.641,47.364,223.641,47.364z"/>
		<path style="fill:#CCA483;" d="M159.42,208.17c100.216-14.192,64.221-160.806,64.221-160.806h-15.024
			c4.114,61.242,9.808,93.774-13.815,129.24C176.085,204.708,159.42,208.17,159.42,208.17z"/>
		<path style="fill:#CCA483;" d="M192.666,55.233L99.369,78.941c0,0,8.335,17.042,48.112,22.724
			c53.053,7.577,78.031-1.523,78.031-1.523L192.666,55.233z"/>
		<path style="fill:#393C3D;" d="M233.893,90.3l-7.273,49.366h-5.227c1.557-15.507,1.754-31.037,0.275-46.595L233.893,90.3z"/>
		<path style="fill:#515151;" d="M153.406,0.354C125.584-2.316,87.937,9.97,89.949,42.75c0,0-4.474-1.894-13.22,5.48
			c-7.127,6.008-8.577,22.106,1.489,40.749c4.339,8.032,11.196,20.583,14.04,50.726h6.087c-2.49-21.15-3.946-41.165,1.029-60.77
			c0,0,20.026,20.521,78.194,20.712s72.197-7.127,74.715-38.771C253.993,39.361,236.012,8.29,153.406,0.354z"/>
	</g>
</g>
<g>
</g>
<g>
</g>
<g>
</g>
<g>
</g>
<g>
</g>
<g>
</g>
<g>
</g>
<g>
</g>
<g>
</g>
<g>
</g>
<g>
</g>
<g>
</g>
<g>
</g>
<g>
</g>
<g>
</g>
</svg>
