<?xml version="1.0" encoding="iso-8859-1"?>
<!-- Generator: Adobe Illustrator 18.0.0, SVG Export Plug-In . SVG Version: 6.00 Build 0)  -->
<!DOCTYPE svg PUBLIC "-//W3C//DTD SVG 1.1//EN" "http://www.w3.org/Graphics/SVG/1.1/DTD/svg11.dtd">
<svg version="1.1" id="Capa_1" xmlns="http://www.w3.org/2000/svg" xmlns:xlink="http://www.w3.org/1999/xlink" x="0px" y="0px"
	 viewBox="0 0 158.241 158.241" style="enable-background:new 0 0 158.241 158.241;" xml:space="preserve">
<g>
	<g>
		<path style="fill:#FCD0A3;" d="M41.769,81.054c-4,0-7.667-3.433-7.667-7.667c0-4.234,3.667-7.667,7.667-7.666V81.054z"/>
		<path style="fill:#FCD0A3;" d="M119.769,81.054c4,0,7.667-3.433,7.667-7.667c0-4.234-3.667-7.667-7.667-7.666V81.054z"/>
	</g>
	<g>
		<g>
			<rect x="77.669" y="111.987" style="fill:#FCD0A3;" width="7.003" height="20.966"/>
			<g>
				<path style="fill:#FCD0A3;" d="M81.171,119.391L81.171,119.391c-21.908,0-39.667-17.759-39.667-39.667v-34
					c0-21.907,17.759-39.666,39.667-39.666l0,0c21.907,0,39.666,17.759,39.666,39.666v34
					C120.837,101.632,103.078,119.391,81.171,119.391z"/>
				<path style="opacity:0.16;fill:#FCD0A3;" d="M59.587,108.942c-5.892-7.366-7.637-16.08-7.841-25.324
					c-0.202-9.158-0.265-17.485,0.295-26.664c0.543-8.917,2.318-17.641,6.814-25.004C65.039,21.821,76.18,12.267,86.843,6.468
					c-1.854-0.266-3.746-0.41-5.672-0.41l0,0c-21.908,0-39.667,17.759-39.667,39.666v34c0,18.021,12.022,33.226,28.481,38.056
					C66.041,115.486,62.49,112.57,59.587,108.942z"/>
			</g>
		</g>
		<path style="fill:#1D1A3A;" d="M116.567,153.029c-0.285-1.747-0.787-3.438-1.481-5.059c-0.315-0.735-0.667-1.457-1.06-2.161
			c-1.016-1.819-2.284-3.527-3.769-5.096c-0.739-0.781-1.535-1.525-2.378-2.233c-2.633-2.212-5.745-4.051-9.206-5.407
			c-2.892-1.133-6.034-1.906-9.331-2.301c0.011-0.117,0.026-0.23,0.026-0.351c0-1.363-1.104-2.467-2.467-2.467l-1.518,0.258
			c-2.759,0.47-5.576,0.47-8.335,0l-1.518-0.258c-1.363,0-2.467,1.104-2.467,2.467c0,0.116,0.017,0.227,0.026,0.339
			c-3.33,0.392-6.503,1.169-9.421,2.313c-3.461,1.356-6.574,3.195-9.207,5.409c-0.842,0.708-1.637,1.451-2.375,2.231
			c-1.485,1.568-2.754,3.277-3.77,5.097c-0.393,0.704-0.744,1.425-1.06,2.161c-0.695,1.622-1.198,3.315-1.483,5.064
			c-0.118,0.725-0.193,1.459-0.235,2.201c1.158,0.191,2.317,0.378,3.477,0.552c3.972,0.597,7.951,1.094,11.935,1.477
			c0.171,0.017,0.343,0.033,0.515,0.049c17.282,1.652,34.652,1.072,51.877-1.526c1.154-0.174,2.309-0.357,3.461-0.549
			C116.761,154.493,116.686,153.756,116.567,153.029z"/>
		<g>
			<path style="fill:#152A35;" d="M129.093,33.866c-5.913-5.999-7.248-14.95-12.011-21.792c-3.718-5.339-8.742-9.284-15.138-10.819
				C90.32-1.534,74.161,0.227,64.11,7.506c-9.351,0.078-18.892,3.89-24.508,11.615c-8.261,11.364-0.739,27.661-10.458,38.059
				c-0.373,0.399-0.388,1.016,0,1.414c2.628,2.705,6.084,3.707,9.542,3.71C71.858,62.339,103.241,34.9,103.241,34.9
				c2.546-1.079,5.493-0.021,6.772,2.431l10.823,24.589c0,0,3.73-1.751,5.085-2.638c0.364-0.238,0.595-0.693,0.46-1.129
				c-1.405-4.571-1.306-9.27-1.97-13.96c-0.259-1.828-0.405-4.17-1.546-5.649c2.219-0.509,4.281-1.59,6.227-3.263
				C129.505,34.926,129.45,34.229,129.093,33.866z"/>
			<path style="opacity:0.21;fill:#152A35;" d="M117.536,37.766c-0.577-3.114-1.703-7.8-4.777-9.401
				c-2.981-1.554-6.51,0.514-9.049,2.05c-4.734,2.866-22.539,18.057-44.711,23.725c-6.218,1.589-26.415,3.918-30.121,3.648
				c-0.03,0.286,0.047,0.58,0.266,0.805c2.628,2.705,6.084,3.707,9.542,3.71C71.858,62.339,103.241,34.9,103.241,34.9
				c2.546-1.079,5.493-0.021,6.772,2.431l10.823,24.589c0,0,0.064-0.03,0.175-0.083C117.793,54.45,118.972,45.518,117.536,37.766z"
				/>
		</g>
	</g>
	<g>
		<g>
			<g>
				<g>
					<g>
						<circle style="fill:#67657B;" cx="98.996" cy="67.732" r="3.333"/>
						<circle style="fill:#8E8D9C;" cx="98.996" cy="67.732" r="3.104"/>
						<polygon style="fill:#5F5D73;" points="96.392,66.294 97.734,66.943 96.563,66.021 97.827,66.812 96.762,65.768 
							97.934,66.691 96.987,65.538 98.052,66.582 97.235,65.333 98.182,66.486 97.506,65.157 98.321,66.406 97.793,65.011 
							98.469,66.341 98.094,64.897 98.622,66.292 98.405,64.816 98.78,66.26 98.725,64.769 98.941,66.245 99.046,64.757 
							99.102,66.248 99.367,64.78 99.261,66.268 99.685,64.838 99.418,66.305 99.993,64.929 99.569,66.359 100.29,65.053 
							99.715,66.429 100.572,65.209 99.851,66.515 100.836,65.394 99.978,66.614 101.077,65.607 100.093,66.727 101.295,65.844 
							100.194,66.852 101.485,66.104 100.283,66.986 101.647,66.383 100.357,67.13 101.777,66.677 100.413,67.28 101.875,66.984 
							100.453,67.436 101.939,67.3 100.477,67.596 101.968,67.621 100.483,67.757 101.963,67.943 100.472,67.917 101.923,68.262 
							100.442,68.076 101.848,68.575 100.397,68.23 101.74,68.879 100.335,68.379 101.6,69.169 100.257,68.52 101.43,69.442 
							100.164,68.652 101.23,69.695 100.058,68.772 101.005,69.925 99.94,68.881 100.756,70.13 99.81,68.976 100.486,70.306 
							99.67,69.057 100.199,70.452 99.523,69.122 99.898,70.566 99.369,69.171 99.586,70.647 99.212,69.203 99.268,70.694 
							99.051,69.217 98.945,70.706 98.89,69.215 98.624,70.683 98.731,69.195 98.308,70.625 98.573,69.157 97.998,70.534 
							98.422,69.104 97.701,70.41 98.277,69.033 97.419,70.254 98.141,68.948 97.156,70.069 98.014,68.848 96.914,69.856 
							97.899,68.736 96.696,69.618 97.797,68.611 96.506,69.359 97.709,68.477 96.345,69.08 97.636,68.333 96.214,68.786 
							97.578,68.182 96.116,68.479 97.538,68.027 96.053,68.163 97.515,67.867 96.024,67.842 97.509,67.706 96.028,67.52 
							97.521,67.546 96.069,67.201 97.549,67.387 96.144,66.887 97.595,67.233 96.251,66.584 97.656,67.084 						"/>
					</g>
					<g>
						<circle style="opacity:0.35;fill:#1D1A3A;" cx="99.007" cy="67.732" r="1.587"/>
						<path style="fill:#FFFFFF;" d="M99.982,67.018c0.001-0.009,0.006-0.017,0.006-0.026c0-0.271-0.22-0.49-0.49-0.49
							c-0.271,0-0.49,0.22-0.49,0.49c0,0.271,0.219,0.49,0.49,0.49c0.041,0,0.077-0.014,0.115-0.023
							c0.036,0.015,0.075,0.023,0.116,0.023c0.168,0,0.305-0.136,0.305-0.305C100.033,67.118,100.012,67.065,99.982,67.018z"/>
					</g>
				</g>
				<g>
					<g>
						<circle style="fill:#67657B;" cx="64.656" cy="67.732" r="3.333"/>
						<circle style="fill:#8E8D9C;" cx="64.656" cy="67.732" r="3.104"/>
						<polygon style="fill:#5F5D73;" points="62.052,66.294 63.395,66.943 62.222,66.021 63.487,66.812 62.421,65.768 
							63.593,66.691 62.647,65.538 63.712,66.582 62.896,65.333 63.842,66.486 63.166,65.157 63.982,66.406 63.453,65.011 
							64.129,66.341 63.754,64.897 64.282,66.292 64.066,64.816 64.44,66.26 64.384,64.769 64.6,66.245 64.706,64.757 
							64.761,66.248 65.027,64.78 64.921,66.268 65.344,64.838 65.078,66.305 65.653,64.929 65.23,66.359 65.95,65.053 
							65.375,66.429 66.232,65.209 65.511,66.515 66.496,65.394 65.638,66.614 66.737,65.607 65.753,66.727 66.955,65.844 
							65.855,66.852 67.146,66.104 65.943,66.986 67.307,66.383 66.016,67.13 67.437,66.677 66.073,67.28 67.535,66.984 
							66.113,67.436 67.599,67.3 66.137,67.596 67.628,67.621 66.143,67.757 67.623,67.943 66.131,67.917 67.583,68.262 
							66.103,68.076 67.508,68.575 66.057,68.23 67.4,68.879 65.995,68.379 67.26,69.169 65.917,68.52 67.089,69.442 65.824,68.652 
							66.89,69.695 65.718,68.772 66.665,69.925 65.599,68.881 66.416,70.13 65.469,68.976 66.146,70.306 65.33,69.057 
							65.859,70.452 65.183,69.122 65.558,70.566 65.029,69.171 65.246,70.647 64.872,69.203 64.927,70.694 64.711,69.217 
							64.606,70.706 64.55,69.215 64.284,70.683 64.39,69.195 63.967,70.625 64.233,69.157 63.658,70.534 64.082,69.104 
							63.361,70.41 63.937,69.033 63.079,70.254 63.8,68.948 62.816,70.069 63.674,68.848 62.574,69.856 63.559,68.736 
							62.357,69.618 63.457,68.611 62.166,69.359 63.369,68.477 62.004,69.08 63.296,68.333 61.874,68.786 63.238,68.182 
							61.776,68.479 63.198,68.027 61.712,68.163 63.175,67.867 61.683,67.842 63.169,67.706 61.689,67.52 63.18,67.546 
							61.729,67.201 63.209,67.387 61.803,66.887 63.254,67.233 61.911,66.584 63.317,67.084 						"/>
					</g>
					<g>
						<circle style="opacity:0.35;fill:#1D1A3A;" cx="64.667" cy="67.732" r="1.587"/>
						<path style="fill:#FFFFFF;" d="M65.642,67.018c0.001-0.009,0.005-0.017,0.005-0.026c0-0.271-0.219-0.49-0.49-0.49
							c-0.271,0-0.49,0.22-0.49,0.49c0,0.271,0.22,0.49,0.49,0.49c0.041,0,0.078-0.014,0.116-0.023
							c0.036,0.015,0.075,0.023,0.116,0.023c0.169,0,0.305-0.136,0.305-0.305C65.693,67.118,65.672,67.065,65.642,67.018z"/>
					</g>
				</g>
			</g>
			<g>
				<path style="opacity:0.29;fill:#FCD0A3;" d="M105.875,73.519c-0.81-0.133-1.455-0.21-1.7-0.237
					c-4.793-0.514-10.717-0.877-14.586,2.559c-1.22,1.083-0.764,2.567,0.83,2.924c0.613,0.137,1.251,0.078,1.876,0.018
					c5.537-0.529,11.039-1.12,16.594-1.533c1.44-0.107,3.082-0.898,1.851-2.285C109.811,73.919,107.159,73.73,105.875,73.519z"/>
				<path style="opacity:0.29;fill:#FCD0A3;" d="M55.481,73.519c0.809-0.133,1.455-0.21,1.7-0.237
					c4.793-0.514,10.716-0.877,14.585,2.559c1.22,1.083,0.764,2.567-0.83,2.924c-0.613,0.137-1.251,0.078-1.876,0.018
					c-5.537-0.529-11.039-1.12-16.593-1.533c-1.44-0.107-3.082-0.898-1.851-2.285C51.545,73.919,54.197,73.73,55.481,73.519z"/>
			</g>
		</g>
		<g>
			<path style="fill:#233842;" d="M109.694,92.777c-1.608,2.672-5.771,4.827-8.886,4.782c-1.845-0.027-3.33-0.856-4.75-1.827
				c-1.923-1.315-2.832-3.323-5.255-3.921c-7.17-1.771-13.514,6.57-9.048,12.779c4.429,6.159,15.476,3.726,20.887,0.396
				c3.737-2.299,8.805-7.004,8.86-11.719C111.515,92.291,110.184,91.964,109.694,92.777z"/>
			<path style="fill:#233842;" d="M52.647,92.777c1.608,2.672,5.77,4.827,8.885,4.782c1.845-0.027,3.33-0.856,4.75-1.827
				c1.923-1.315,2.832-3.323,5.255-3.921c7.17-1.771,13.514,6.57,9.048,12.779c-4.429,6.159-15.475,3.726-20.887,0.396
				c-3.737-2.299-8.805-7.004-8.86-11.719C50.826,92.291,52.157,91.964,52.647,92.777z"/>
		</g>
	</g>
</g>
<g>
</g>
<g>
</g>
<g>
</g>
<g>
</g>
<g>
</g>
<g>
</g>
<g>
</g>
<g>
</g>
<g>
</g>
<g>
</g>
<g>
</g>
<g>
</g>
<g>
</g>
<g>
</g>
<g>
</g>
</svg>
