<?xml version="1.0" encoding="iso-8859-1"?>
<!-- Generator: Adobe Illustrator 19.0.0, SVG Export Plug-In . SVG Version: 6.00 Build 0)  -->
<svg version="1.1" id="Layer_1" xmlns="http://www.w3.org/2000/svg" xmlns:xlink="http://www.w3.org/1999/xlink" x="0px" y="0px"
	 viewBox="0 0 318.543 318.543" style="enable-background:new 0 0 318.543 318.543;" xml:space="preserve">
<g>
	<g>
		<path style="fill:#8E633F;" d="M79.922,131.247c-1.512-6.784-22.679-88.328,28.643-119.477
			c17.205-10.443,28.159-1.804,28.159-1.804S140.518,0,157.948,0c111.316,0,88.963,114.059,86.361,122.928
			c-11.23,38.299-30.694,76.727-84.916,76.727S83.93,149.267,79.922,131.247z"/>
		<path style="fill:#E8C59E;" d="M295.389,253.096c-10.522-37.754-63.361-33.566-86.164-44.408
			c-22.803-10.842-19.245-47.219-22.134-53.548h-55.638c-2.889,6.329,0.674,42.711-22.134,53.548
			c-22.803,10.842-75.642,6.655-86.164,44.408c-5.806,20.824-5.525,27.187-7.133,50.26c0,0,72.5,15.187,141.611,15.187
			s144.888-15.187,144.888-15.187C300.919,280.283,301.195,273.921,295.389,253.096z"/>
		<path style="fill:#DDB58E;" d="M179.761,217.001c22.803,10.842,75.642,6.655,86.164,44.408c5.531,19.83,5.542,26.552,6.913,47.073
			c18.155-2.816,29.682-5.126,29.682-5.126c-1.602-23.067-1.326-29.435-7.133-50.26c-10.522-37.754-63.361-33.566-86.164-44.408
			c-22.803-10.842-19.245-47.219-22.134-53.548h-29.458C157.633,155.14,156.953,206.164,179.761,217.001z"/>
		<path style="fill:#515151;" d="M157.633,318.543c35.292,0,72.32-3.963,100.114-7.835c-0.348-6.385-1.574-35.933,4.834-51.282
			c9.28-22.246,27.496-17.952,27.496-17.952c-11.893-17.576-36.467-21.937-57.134-26.147l0,0
			c13.304,10.865,21.842,28.508,10.28,69.718c0,0-15.906-2.72-36.618,5.21c-10.64,4.075-32.785,15.766-47.326,15.766
			s-36.68-11.691-47.326-15.766c-20.712-7.931-36.618-5.21-36.618-5.21c-11.567-41.21-3.024-58.853,10.28-69.718l0,0
			c-20.667,4.21-45.24,8.571-57.134,26.147l0,0c0,0,18.211-4.289,27.496,17.952c6.481,15.535,5.148,45.623,4.817,51.507
			C87.566,314.732,123.021,318.543,157.633,318.543z"/>
		<path style="fill:#474747;" d="M290.071,241.473c-11.893-17.576-36.467-21.937-57.134-26.147l0,0
			c6.334,5.171,11.584,11.882,14.102,21.932c7.357,4.446,13.422,10.454,17.053,18.925
			C273.699,237.617,290.071,241.473,290.071,241.473z"/>
		<path style="fill:#CCA281;" d="M123.971,192.736c9.229,7.959,20.054,15.85,35.241,18.132
			c15.237-2.288,26.023-10.342,35.269-18.334c-7.689-14.973-5.311-32.83-7.391-37.4h-55.638
			C129.367,159.71,131.694,177.758,123.971,192.736z"/>
		<g>
			<ellipse style="fill:#F4F4F2;" cx="115.303" cy="207.332" rx="3.187" ry="3.187"/>
			<ellipse style="fill:#F4F4F2;" cx="117.323" cy="214.847" rx="3.187" ry="3.187"/>
			<ellipse style="fill:#F4F4F2;" cx="120.613" cy="221.889" rx="3.187" ry="3.187"/>
			<ellipse style="fill:#F4F4F2;" cx="125.073" cy="228.25" rx="3.187" ry="3.187"/>
			<ellipse style="fill:#F4F4F2;" cx="130.566" cy="233.778" rx="3.187" ry="3.187"/>
			<ellipse style="fill:#F4F4F2;" cx="136.943" cy="238.234" rx="3.187" ry="3.187"/>
			<ellipse style="fill:#F4F4F2;" cx="143.999" cy="241.513" rx="3.187" ry="3.187"/>
			<ellipse style="fill:#F4F4F2;" cx="151.503" cy="243.521" rx="3.187" ry="3.187"/>
			<circle style="fill:#F4F4F2;" cx="159.263" cy="244.21" r="3.187"/>
			<ellipse style="fill:#F4F4F2;" cx="166.999" cy="243.537" rx="3.187" ry="3.187"/>
			<ellipse style="fill:#F4F4F2;" cx="174.525" cy="241.524" rx="3.187" ry="3.187"/>
			<ellipse style="fill:#F4F4F2;" cx="181.572" cy="238.224" rx="3.187" ry="3.187"/>
			<ellipse style="fill:#F4F4F2;" cx="187.945" cy="233.754" rx="3.187" ry="3.187"/>
			<ellipse style="fill:#F4F4F2;" cx="193.443" cy="228.278" rx="3.187" ry="3.187"/>
			<ellipse style="fill:#F4F4F2;" cx="197.911" cy="221.9" rx="3.187" ry="3.187"/>
			<ellipse style="fill:#F4F4F2;" cx="201.199" cy="214.835" rx="3.187" ry="3.187"/>
			<ellipse style="fill:#F4F4F2;" cx="203.202" cy="207.319" rx="3.187" ry="3.187"/>
		</g>
		<g>
			
				<ellipse transform="matrix(-0.177 0.9842 -0.9842 -0.177 380.1026 -81.5687)" style="fill:#DDB58E;" cx="224.155" cy="118.137" rx="21.386" ry="11.629"/>
			
				<ellipse transform="matrix(-0.9842 0.177 -0.177 -0.9842 207.8558 217.7436)" style="fill:#E8C59E;" cx="94.216" cy="118.143" rx="11.629" ry="21.386"/>
			<path style="fill:#E8C59E;" d="M159.735,56.161c0,0-65.874-7.487-66.683,11.927c-0.793,19.02,0.124,21.712-0.028,26.181
				c-1.551,44.156,7.464,104.645,66.171,113.48c62.979-9.476,68.808-77.969,65.727-122.456
				C223.389,63.142,159.735,56.161,159.735,56.161z"/>
			<path style="fill:#DDB58E;" d="M159.195,207.749c94.331-14.192,60.45-160.806,60.45-160.806h-14.141
				c3.873,61.242,9.229,93.774-13.006,129.24C174.883,204.287,159.195,207.749,159.195,207.749z"/>
			<path style="fill:#DDB58E;" d="M222.781,133.782v-6.43v-68.83H90.843v75.26H98.6c-0.68-39.266,27.221-38.423,34.033-60.781
				c9.69,23.989,35.64,20.139,61.557,48.247c12.146,13.18,16.232,26.248,16.362,37.726h12.23L222.781,133.782L222.781,133.782z"/>
			<path style="fill:#8E633F;" d="M78.877,65.289c8.538-26.355,85.04-44.948,85.046-44.948l0,0l0,0l0,0l0,0
				c0.011,0,57.027,6.885,68.881,31.925c16.39,34.629,11.511,68.622-1.394,99.08c-11.719,27.67-34.662,39.271-34.662,39.271
				s32.706-37.355-2.557-75.609c-25.917-28.109-49.304-18.02-61.557-50.119c-8.667,32.099-38.895,23.14-33.415,71.905
				c6.053,53.823,42.992,74.074,42.992,74.074s-45.398-9.139-62.198-78.211C70.367,92.965,77.803,68.594,78.877,65.289z"/>
		</g>
	</g>
</g>
<g>
</g>
<g>
</g>
<g>
</g>
<g>
</g>
<g>
</g>
<g>
</g>
<g>
</g>
<g>
</g>
<g>
</g>
<g>
</g>
<g>
</g>
<g>
</g>
<g>
</g>
<g>
</g>
<g>
</g>
</svg>
