<?xml version="1.0" encoding="iso-8859-1"?>
<!-- Generator: Adobe Illustrator 18.0.0, SVG Export Plug-In . SVG Version: 6.00 Build 0)  -->
<!DOCTYPE svg PUBLIC "-//W3C//DTD SVG 1.1//EN" "http://www.w3.org/Graphics/SVG/1.1/DTD/svg11.dtd">
<svg version="1.1" id="Capa_1" xmlns="http://www.w3.org/2000/svg" xmlns:xlink="http://www.w3.org/1999/xlink" x="0px" y="0px"
	 viewBox="0 0 154.069 154.069" style="enable-background:new 0 0 154.069 154.069;" xml:space="preserve">
<g>
	<g>
		<g>
			<path style="fill:#FCD0A3;" d="M116.034,80.939c4,0,7.667-3.433,7.667-7.667c0-4.234-3.667-7.667-7.667-7.667V80.939z"/>
			<path style="opacity:0.16;fill:#FCD0A3;" d="M116.034,80.939c4,0,7.667-3.433,7.667-7.667c0-4.234-3.667-7.667-7.667-7.667
				V80.939z"/>
		</g>
		<g>
			<path style="fill:#FCD0A3;" d="M38.034,80.939c-4,0-7.667-3.433-7.667-7.667c0-4.234,3.667-7.667,7.667-7.667V80.939z"/>
			<path style="opacity:0.16;fill:#FCD0A3;" d="M38.034,80.939c-4,0-7.667-3.433-7.667-7.667c0-4.234,3.667-7.667,7.667-7.667
				V80.939z"/>
		</g>
	</g>
	<g>
		<g>
			<g>
				<path style="fill:#FFDE67;" d="M88.795,150.729H67.491c-17.989,0-32.572-14.583-32.572-32.571V41.666h83.333v79.605
					C118.252,137.54,105.064,150.729,88.795,150.729z"/>
				<g>
					<path style="fill:#233842;" d="M111.937,148.858c-0.285-1.747-0.787-3.439-1.481-5.059c-0.315-0.735-0.667-1.457-1.06-2.161
						c-1.016-1.819-2.284-3.528-3.769-5.097c-0.739-0.781-1.535-1.524-2.378-2.233c-2.633-2.212-5.745-4.051-9.206-5.407
						c-3.216-1.26-6.729-2.101-10.436-2.44c-1.211-0.111-2.44-0.174-3.688-0.174h-6.759c-1.248,0-2.477,0.063-3.688,0.174
						c-3.706,0.339-7.22,1.181-10.436,2.44c-3.461,1.357-6.574,3.195-9.207,5.409c-0.842,0.707-1.637,1.45-2.375,2.23
						c-1.485,1.568-2.754,3.277-3.77,5.097c-0.393,0.704-0.744,1.426-1.06,2.161c-0.695,1.622-1.198,3.314-1.483,5.064
						c-0.118,0.724-0.193,1.459-0.235,2.201c1.158,0.191,2.317,0.377,3.477,0.552c3.972,0.597,7.951,1.094,11.935,1.477
						c0.171,0.017,0.343,0.033,0.515,0.049c17.282,1.652,34.652,1.072,51.877-1.525c1.154-0.174,2.309-0.357,3.461-0.55
						C112.131,150.321,112.056,149.584,111.937,148.858z"/>
					<path style="fill:#E94941;" d="M42.922,144.393c4.828,5.174,16.077,2.941,21.345-0.15c6.695-3.929,8.485-10.072,8.732-17.408
						c0.006-0.194-0.095-0.37-0.061-0.545c-1.216,0.003-2.283,0.063-3.464,0.171c-3.706,0.339-7.22,1.181-10.436,2.44
						c-3.461,1.357-6.574,3.195-9.207,5.409c-0.842,0.707-1.637,1.45-2.375,2.23c-1.485,1.568-2.754,3.277-3.77,5.097
						c-0.393,0.704-0.744,1.426-1.06,2.161c-0.035,0.082-0.064,0.166-0.098,0.249C42.662,144.151,42.795,144.257,42.922,144.393z"/>
					<path style="fill:#E94941;" d="M80.295,128.001c-0.03,9.881,6.972,18.192,16.443,20.189c4.729,0.996,10.179,1.009,14.96-0.551
						c-0.295-1.317-0.712-2.601-1.243-3.841c-0.315-0.735-0.667-1.457-1.06-2.161c-1.016-1.819-2.284-3.527-3.769-5.097
						c-0.739-0.781-1.535-1.524-2.378-2.233c-2.633-2.212-5.745-4.051-9.206-5.407c-3.216-1.26-6.729-2.101-10.436-2.44
						c-1.211-0.111-2.049-0.172-3.297-0.172C80.311,126.288,80.297,127.301,80.295,128.001z"/>
				</g>
				<g>
					<path style="fill:#FCD0A3;" d="M76.586,128.896L76.586,128.896c-1.934,0-3.502-1.567-3.502-3.502v-13.963
						c0-1.934,1.568-3.502,3.502-3.502l0,0c1.934,0,3.501,1.568,3.501,3.502v13.963C80.087,127.328,78.519,128.896,76.586,128.896z"
						/>
					<path style="fill:#FCD0A3;" d="M76.586,115.333L76.586,115.333c-21.907,0-39.667-17.76-39.667-39.667v-34
						C36.919,19.759,54.678,2,76.586,2l0,0c21.908,0,39.666,17.759,39.666,39.667v34C116.252,97.573,98.493,115.333,76.586,115.333z
						"/>
					<path style="opacity:0.16;fill:#FCD0A3;" d="M54.906,104.884c-5.892-7.366-7.637-16.08-7.841-25.324
						c-0.202-9.157-0.265-17.485,0.294-26.664c0.543-8.917,2.318-17.641,6.814-25.005C60.358,17.763,71.498,8.208,82.161,2.41
						C80.308,2.144,78.416,2,76.489,2l0,0C54.582,2,36.822,19.759,36.822,41.666v34c0,18.021,12.022,33.227,28.481,38.057
						C61.359,111.427,57.808,108.512,54.906,104.884z"/>
				</g>
			</g>
			<path style="fill:#FFE176;" d="M118.207,54.729V42.404c0-23.314-19.079-42.798-42.391-42.398
				c-22.642,0.388-40.942,18.928-40.942,41.66v31.896l7.35-4.796c12.889-8.41,28.036-41.051,43.423-41.37L118.207,54.729z"/>
		</g>
		<g>
			<g>
				<path style="fill:none;stroke:#6F6F6E;stroke-width:0.1;stroke-linecap:round;stroke-linejoin:round;stroke-miterlimit:10;" d="
					M55.2,91.254c5.626,5.181,13.135,8.348,21.386,8.348c8.25,0,15.76-3.167,21.386-8.348"/>
				<g>
					<path style="fill:#DC2A2C;" d="M71.398,99.148l1.461,1.849c0.616,0.78,1.556,1.234,2.55,1.234h2.47
						c0.995,0,1.933-0.468,2.53-1.265l1.364-1.818H71.398z"/>
					<path style="fill:#E94941;" d="M77.132,97.063l-0.303,0.309c-0.142,0.145-0.374,0.146-0.517,0.003l-0.271-0.271
						c-0.733-0.732-1.923-0.727-2.648,0.013l-1.995,2.032h2.693c0.659,0,1.313,0.104,1.94,0.306l0.304,0.099
						c0.217,0.069,0.45,0.065,0.664-0.012l0.283-0.103c0.532-0.191,1.092-0.29,1.657-0.29h2.834l-2.097-2.097
						C78.972,96.347,77.829,96.352,77.132,97.063z"/>
				</g>
			</g>
			<g>
				
					<ellipse transform="matrix(0.9676 0.2525 -0.2525 0.9676 20.6768 -10.8459)" style="opacity:0.25;fill:#F296A4;" cx="52.589" cy="75.125" rx="11.974" ry="7.36"/>
				
					<ellipse transform="matrix(-0.9676 0.2525 -0.2525 -0.9676 216.6995 122.4357)" style="opacity:0.25;fill:#F296A4;" cx="100.492" cy="75.125" rx="11.974" ry="7.36"/>
			</g>
			<g>
				<g>
					<g>
						<g>
							<g>
								<g>
									<path style="fill:#67657B;" d="M96.902,62.646c1.364,0.339,2.783-0.466,3.193-1.81c0.047-0.155-0.194-0.22-0.241-0.066
										c-0.37,1.213-1.655,1.941-2.885,1.635C96.812,62.366,96.745,62.607,96.902,62.646L96.902,62.646z"/>
								</g>
							</g>
							<g>
								<g>
									<path style="fill:#67657B;" d="M96.741,62.274c1.189-0.001,2.184-0.954,2.245-2.139c0.008-0.161-0.242-0.16-0.25,0
										c-0.054,1.051-0.946,1.888-1.995,1.889C96.58,62.024,96.58,62.274,96.741,62.274L96.741,62.274z"/>
								</g>
							</g>
							<g>
								<g>
									<path style="fill:#67657B;" d="M97.003,62.966c0.911,0.626,2.01,0.791,3.066,0.465c0.154-0.047,0.088-0.289-0.066-0.241
										c-0.998,0.308-2.013,0.152-2.873-0.439C96.996,62.658,96.871,62.875,97.003,62.966L97.003,62.966z"/>
								</g>
							</g>
						</g>
						<g>
							<g>
								<circle style="fill:#67657B;" cx="93.962" cy="63.907" r="3.333"/>
								<circle style="fill:#8E8D9C;" cx="93.962" cy="63.907" r="3.104"/>
								<polygon style="fill:#5F5D73;" points="91.358,62.47 92.7,63.119 91.528,62.196 92.793,62.987 91.728,61.944 92.9,62.866 
									91.953,61.714 93.018,62.758 92.202,61.509 93.148,62.662 92.472,61.333 93.287,62.582 92.759,61.187 93.435,62.517 
									93.06,61.072 93.588,62.468 93.371,60.992 93.746,62.436 93.691,60.945 93.906,62.421 94.012,60.933 94.068,62.424 
									94.333,60.956 94.227,62.444 94.651,61.014 94.384,62.482 94.959,61.105 94.535,62.535 95.256,61.23 94.681,62.606 
									95.538,61.385 94.817,62.691 95.802,61.57 94.944,62.79 96.043,61.782 95.059,62.903 96.261,62.021 95.16,63.028 
									96.451,62.279 95.249,63.162 96.612,62.559 95.321,63.306 96.743,62.854 95.379,63.456 96.841,63.16 95.419,63.612 
									96.904,63.476 95.443,63.772 96.935,63.796 95.448,63.933 96.929,64.118 95.438,64.093 96.889,64.438 95.408,64.251 
									96.814,64.751 95.362,64.406 96.706,65.055 95.301,64.555 96.566,65.345 95.223,64.695 96.396,65.618 95.13,64.827 
									96.196,65.871 95.024,64.948 95.971,66.101 94.905,65.057 95.722,66.306 94.776,65.153 95.452,66.482 94.636,65.233 
									95.165,66.628 94.488,65.298 94.863,66.741 94.335,65.347 94.552,66.822 94.178,65.379 94.234,66.869 94.017,65.394 
									93.911,66.881 93.857,65.391 93.59,66.859 93.696,65.371 93.274,66.801 93.54,65.333 92.964,66.71 93.388,65.279 
									92.667,66.585 93.243,65.209 92.385,66.43 93.107,65.124 92.122,66.244 92.98,65.025 91.88,66.032 92.864,64.912 
									91.662,65.794 92.763,64.787 91.472,65.535 92.675,64.653 91.311,65.256 92.602,64.509 91.18,64.961 92.544,64.359 
									91.082,64.654 92.504,64.202 91.019,64.339 92.481,64.043 90.989,64.018 92.475,63.882 90.994,63.696 92.486,63.722 
									91.035,63.377 92.515,63.563 91.11,63.064 92.561,63.408 91.217,62.76 92.622,63.26 								"/>
							</g>
							<g>
								<circle style="opacity:0.35;fill:#1D1A3A;" cx="93.973" cy="63.907" r="1.587"/>
								<path style="fill:#FFFFFF;" d="M94.948,63.195c0-0.01,0.005-0.017,0.005-0.026c0-0.271-0.22-0.49-0.49-0.49
									c-0.271,0-0.49,0.22-0.49,0.49c0,0.271,0.219,0.49,0.49,0.49c0.041,0,0.077-0.014,0.115-0.023
									c0.036,0.015,0.075,0.023,0.116,0.023c0.168,0,0.305-0.137,0.305-0.305C94.999,63.294,94.978,63.241,94.948,63.195z"/>
							</g>
						</g>
					</g>
					<g>
						<g>
							<g>
								<g>
									<path style="fill:#67657B;" d="M56.592,62.185c-1.23,0.306-2.515-0.422-2.886-1.634c-0.047-0.154-0.288-0.088-0.241,0.066
										c0.41,1.344,1.829,2.148,3.193,1.809C56.815,62.387,56.748,62.146,56.592,62.185L56.592,62.185z"/>
								</g>
							</g>
							<g>
								<g>
									<path style="fill:#67657B;" d="M56.818,61.804c-1.049,0-1.941-0.837-1.996-1.888c-0.008-0.16-0.258-0.161-0.25,0
										c0.062,1.185,1.057,2.137,2.246,2.138C56.979,62.054,56.979,61.804,56.818,61.804L56.818,61.804z"/>
								</g>
							</g>
							<g>
								<g>
									<path style="fill:#67657B;" d="M56.43,62.53c-0.861,0.592-1.875,0.749-2.873,0.44c-0.154-0.048-0.22,0.194-0.066,0.241
										c1.056,0.327,2.154,0.162,3.066-0.465C56.688,62.655,56.564,62.438,56.43,62.53L56.43,62.53z"/>
								</g>
							</g>
						</g>
						<g>
							<g>
								<circle style="fill:#67657B;" cx="59.492" cy="63.688" r="3.333"/>
								<circle style="fill:#8E8D9C;" cx="59.492" cy="63.688" r="3.104"/>
								<polygon style="fill:#5F5D73;" points="56.887,62.25 58.231,62.9 57.058,61.977 58.323,62.768 57.257,61.724 58.429,62.647 
									57.483,61.494 58.548,62.538 57.732,61.289 58.678,62.443 58.002,61.113 58.818,62.362 58.288,60.968 58.965,62.297 
									58.59,60.854 59.118,62.248 58.902,60.773 59.276,62.216 59.22,60.726 59.436,62.201 59.542,60.714 59.597,62.204 
									59.863,60.737 59.757,62.225 60.18,60.794 59.914,62.262 60.489,60.885 60.066,62.316 60.786,61.01 60.211,62.386 
									61.068,61.165 60.347,62.471 61.332,61.351 60.473,62.57 61.573,61.563 60.589,62.684 61.791,61.801 60.691,62.808 
									61.982,62.061 60.779,62.943 62.143,62.339 60.852,63.086 62.273,62.634 60.909,63.237 62.371,62.941 60.949,63.393 
									62.435,63.256 60.973,63.552 62.464,63.577 60.979,63.713 62.459,63.899 60.967,63.873 62.419,64.219 60.939,64.032 
									62.344,64.532 60.893,64.187 62.236,64.835 60.831,64.335 62.096,65.125 60.753,64.476 61.925,65.399 60.66,64.608 
									61.726,65.652 60.554,64.729 61.501,65.882 60.435,64.837 61.252,66.086 60.305,64.933 60.982,66.262 60.166,65.014 
									60.695,66.408 60.019,65.078 60.394,66.523 59.865,65.127 60.082,66.604 59.708,65.159 59.763,66.65 59.547,65.174 
									59.442,66.662 59.386,65.171 59.12,66.639 59.226,65.152 58.803,66.581 59.07,65.114 58.494,66.49 58.918,65.06 
									58.197,66.366 58.773,64.99 57.915,66.21 58.636,64.904 57.652,66.026 58.51,64.805 57.41,65.813 58.395,64.693 
									57.193,65.575 58.293,64.568 57.002,65.316 58.205,64.433 56.841,65.036 58.132,64.289 56.71,64.742 58.074,64.139 
									56.612,64.435 58.034,63.983 56.549,64.119 58.01,63.823 56.519,63.799 58.005,63.662 56.525,63.477 58.016,63.502 
									56.565,63.157 58.045,63.344 56.639,62.844 58.091,63.19 56.747,62.54 58.153,63.04 								"/>
							</g>
							<g>
								<circle style="opacity:0.35;fill:#1D1A3A;" cx="59.503" cy="63.688" r="1.587"/>
								<path style="fill:#FFFFFF;" d="M60.478,62.975c0-0.009,0.005-0.017,0.005-0.025c0-0.271-0.22-0.49-0.49-0.49
									c-0.271,0-0.49,0.219-0.49,0.49c0,0.271,0.219,0.49,0.49,0.49c0.041,0,0.078-0.015,0.116-0.023
									c0.036,0.015,0.075,0.023,0.116,0.023c0.168,0,0.305-0.137,0.305-0.306C60.529,63.074,60.507,63.022,60.478,62.975z"/>
							</g>
						</g>
					</g>
				</g>
				<g>
					<path style="fill:#EB5C54;" d="M110.768,55.978H83.578c-2.538,0-4.603,2.065-4.603,4.604c0,0.087,0.011,0.17,0.013,0.256
						h-4.896c0.002-0.086,0.013-0.169,0.013-0.256c0-2.538-2.065-4.604-4.603-4.604H42.314c-0.523,0-0.948,0.425-0.948,0.948
						c0,10.034,8.164,18.198,18.198,18.198c7.301,0,13.346-5.415,14.372-12.436h5.21c1.026,7.021,7.071,12.436,14.372,12.436
						c10.034,0,18.197-8.164,18.197-18.198C111.715,56.403,111.291,55.978,110.768,55.978z M59.564,73.228
						c-8.671,0-15.782-6.805-16.275-15.353h26.214c1.493,0,2.708,1.214,2.708,2.707C72.211,67.555,66.537,73.228,59.564,73.228z
						 M93.518,73.228c-6.974,0-12.647-5.673-12.647-12.646c0-1.493,1.215-2.707,2.708-2.707h26.214
						C109.3,66.423,102.189,73.228,93.518,73.228z"/>
				</g>
			</g>
		</g>
	</g>
</g>
<g>
</g>
<g>
</g>
<g>
</g>
<g>
</g>
<g>
</g>
<g>
</g>
<g>
</g>
<g>
</g>
<g>
</g>
<g>
</g>
<g>
</g>
<g>
</g>
<g>
</g>
<g>
</g>
<g>
</g>
</svg>
