<?xml version="1.0" encoding="iso-8859-1"?>
<!-- Generator: Adobe Illustrator 19.0.0, SVG Export Plug-In . SVG Version: 6.00 Build 0)  -->
<svg version="1.1" id="Layer_1" xmlns="http://www.w3.org/2000/svg" xmlns:xlink="http://www.w3.org/1999/xlink" x="0px" y="0px"
	 viewBox="0 0 307.797 307.797" style="enable-background:new 0 0 307.797 307.797;" xml:space="preserve">
<g>
	<g>
		<path style="fill:#BA443E;" d="M214.995,181.967c0,0-43.144,9.133-61.158,18.155v42.666h72.804
			C226.641,242.788,243.138,181.051,214.995,181.967z"/>
		<path style="fill:#BA443E;" d="M88.627,181.967c0,0,43.144,9.133,61.158,18.155v42.666h-72.81
			C76.975,242.788,60.484,181.051,88.627,181.967z"/>
		<path style="fill:#EAE5DC;" d="M298.09,242.35c-11.151-37.754-67.121-33.566-91.279-44.408
			c-24.157-10.842-20.386-47.219-23.449-53.548H124.43c-3.058,6.329,0.714,42.711-23.449,53.548
			c-24.157,10.842-80.133,6.655-91.279,44.408c-6.149,20.824-5.857,27.193-7.554,50.26c0,0,76.8,15.187,150.014,15.187
			S305.65,292.61,305.65,292.61C303.947,269.537,304.239,263.174,298.09,242.35z"/>
		<path style="fill:#E0DBD3;" d="M298.09,242.35c-11.151-37.754-67.121-33.566-91.279-44.408
			c-24.157-10.842-20.386-47.219-23.449-53.548h-31.206c0,0-0.719,51.024,23.438,61.866s80.133,6.655,91.279,44.408
			c5.857,19.83,5.868,26.552,7.324,47.073c19.234-2.816,31.442-5.126,31.442-5.126C303.947,269.537,304.239,263.174,298.09,242.35z"
			/>
		<path style="fill:#9E6F4C;" d="M184.509,215.213c9.741-3.805,17.756-9.409,23.168-16.21l0.416-0.517
			c-0.433-0.18-0.86-0.36-1.276-0.545c-24.157-10.842-20.386-47.219-23.449-53.548h-58.938c-3.058,6.329,0.714,42.711-23.449,53.548
			c-0.416,0.185-0.843,0.371-1.276,0.545l0.416,0.517c5.413,6.795,13.428,12.399,23.168,16.21c9.229,3.603,19.813,5.508,30.61,5.508
			C164.696,220.722,175.28,218.816,184.509,215.213z"/>
		<path style="fill:#8E633F;" d="M206.812,197.941c-4.345-1.95-7.779-4.727-10.516-8.004l0,0
			c-5.064,6.357-13.827,11.404-24.573,14.096c1.214,0.86,2.507,1.607,3.878,2.22c4.71,2.113,10.634,3.659,17.199,5.053
			c6.031-3.378,11.089-7.548,14.872-12.304l0.416-0.517C207.655,198.312,207.227,198.127,206.812,197.941z"/>
		<path style="fill:#BC9173;" d="M196.295,189.937c-12.5-14.951-10.421-40.356-12.927-45.549H124.43
			c-2.512,5.193-0.427,30.599-12.927,45.549c7.655,9.611,23.764,16.232,42.396,16.232S188.64,199.549,196.295,189.937z"/>
		<path style="fill:#AF8468;" d="M171.722,204.034c10.747-2.692,19.509-7.74,24.573-14.096
			c-12.5-14.951-10.421-40.356-12.927-45.549h-31.206C152.162,144.394,151.522,189.78,171.722,204.034z"/>
		<path style="fill:#A87B62;" d="M116.499,181.99c9.78,7.959,21.24,15.85,37.338,18.132c16.137-2.288,27.569-10.342,37.36-18.334
			c-8.144-14.973-5.626-32.83-7.83-37.4h-58.938C122.216,148.963,124.683,167.011,116.499,181.99z"/>
		
			<ellipse transform="matrix(-0.177 0.9842 -0.9842 -0.177 368.0925 -93.0212)" style="fill:#AF8468;" cx="222.938" cy="107.389" rx="21.386" ry="11.629"/>
		
			<ellipse transform="matrix(-0.9842 0.177 -0.177 -0.9842 187.0342 198.1087)" style="fill:#BC9173;" cx="84.681" cy="107.397" rx="11.629" ry="21.386"/>
		<path style="fill:#BC9173;" d="M218.058,36.197h-64.221H89.65c0,0-35.989,146.614,64.187,160.806
			C254.053,182.81,218.058,36.197,218.058,36.197z"/>
		<path style="fill:#AF8468;" d="M153.837,197.003c100.216-14.192,64.221-160.806,64.221-160.806h-15.024
			c4.114,61.242,9.808,93.774-13.815,129.24C170.502,193.54,153.837,197.003,153.837,197.003z"/>
		<path style="fill:#AF8468;" d="M214.63,51.996H93.399v16.525c0.062,0.09,0.096,0.141,0.096,0.141s29.312,9.763,60.45,9.763
			s60.32-9.763,60.32-9.763s0.135-0.197,0.365-0.556C214.63,68.105,214.63,51.996,214.63,51.996z"/>
		<path style="fill:#393C3D;" d="M224.275,37.141C208.554,2.141,178.433,0,153.877,0S99.199,2.141,83.478,37.141
			c-3.378,7.526-3.569,28.008-3.569,44.926c0,26.574,6.767,46.477,6.767,46.477h5.727c2.81-22.96,1.09-64.041,1.09-64.041
			s29.312,9.763,60.45,9.763s60.32-9.763,60.32-9.763s-1.197,41.036,1.613,63.996l5.16,0.006c0,0,6.807-19.858,6.807-46.432
			C227.844,65.149,227.653,44.667,224.275,37.141z"/>
		<path style="fill:#AF8468;" d="M191.473,71.994l-3.755-26.602l-3.968,27.766C186.257,72.748,189.185,72.444,191.473,71.994z"/>
		<path style="fill:#E0605C;" d="M298.09,242.35c-7.492-25.371-35.236-31.801-59.955-36.579
			c-4.783,10.668-11.011,21.583-18.475,28.39c-18.711,17.047-65.823,28.069-65.823,28.069l-2.13,0.337l-1.922-0.337
			c0,0-46.415-11.016-65.126-28.069c-7.324-6.672-13.445-17.295-18.194-27.766c-23.871,4.738-49.591,11.668-56.763,35.955
			c-6.149,20.824-5.857,27.193-7.554,50.26c0,0,76.8,15.187,150.014,15.187S305.65,292.61,305.65,292.61
			C303.947,269.537,304.239,263.174,298.09,242.35z"/>
		<path style="fill:#D15852;" d="M298.09,242.35c-7.492-25.371-35.236-31.801-59.955-36.579c-2.13,4.749-4.547,9.544-7.228,14.007
			c16.468,5.177,30.885,13.669,35.966,30.891c5.857,19.83,5.868,26.552,7.324,47.073c19.234-2.816,31.442-5.126,31.442-5.126
			C303.947,269.537,304.239,263.174,298.09,242.35z"/>
		<path style="fill:#D15852;" d="M88.627,181.967c-9.459,1.815-12.894,8.161-9.358,21.004
			c10.353,37.591,70.516,59.253,70.516,59.253s-81.207-9.825-98.501-52.39C57.787,188.645,69.607,177.999,88.627,181.967z"/>
		<path style="fill:#D15852;" d="M214.995,181.967c9.459,1.815,12.894,8.161,9.358,21.004
			c-10.353,37.591-70.516,59.253-70.516,59.253s81.611-10.786,98.9-53.351C246.24,187.689,234.015,177.999,214.995,181.967z"/>
		<path style="fill:#C65044;" d="M214.995,181.967c9.459,1.815,12.894,8.161,9.358,21.004c-1.304,4.744-3.406,9.229-6.076,13.456
			c8.493,1.922,16.924,4.328,24.405,7.891c4.272-4.615,7.745-9.746,10.061-15.445C246.24,187.689,234.015,177.999,214.995,181.967z"
			/>
		<path style="fill:#EAE5DC;" d="M160.835,264.832c-2.17,0-4.002,2.046-3.519,4.373c0.141,0.112,12.124,10.089,15.895,38.203
			c1.877-0.067,3.755-0.141,5.632-0.225C174.875,276.489,161.487,265.355,160.835,264.832z"/>
		<path style="fill:#EAE5DC;" d="M142.787,264.832c2.17,0,4.002,2.046,3.518,4.373c-0.141,0.112-12.124,10.089-15.895,38.203
			c-1.877-0.067-3.755-0.141-5.632-0.225C128.747,276.489,142.129,265.355,142.787,264.832z"/>
	</g>
</g>
<g>
</g>
<g>
</g>
<g>
</g>
<g>
</g>
<g>
</g>
<g>
</g>
<g>
</g>
<g>
</g>
<g>
</g>
<g>
</g>
<g>
</g>
<g>
</g>
<g>
</g>
<g>
</g>
<g>
</g>
</svg>
