<?xml version="1.0" encoding="iso-8859-1"?>
<!-- Generator: Adobe Illustrator 19.0.0, SVG Export Plug-In . SVG Version: 6.00 Build 0)  -->
<svg version="1.1" id="Layer_1" xmlns="http://www.w3.org/2000/svg" xmlns:xlink="http://www.w3.org/1999/xlink" x="0px" y="0px"
	 viewBox="0 0 317.85 317.85" style="enable-background:new 0 0 317.85 317.85;" xml:space="preserve">
<g>
	<g>
		<path style="fill:#545251;" d="M93.759,138.558c0,0,6.166,44.92-45.639,43.054c0,0,9.802,17.255,34.533,10.263
			c0,0-13.534,20.667-46.668,10.803c0,0,17.93,34.319,68.937,27.395h22.067v-91.414L93.759,138.558z"/>
		<path style="fill:#3B3B3B;" d="M115.719,191.875c0,0-3.142,11.134-22.511,20.178l30.475,2.985l9.431-22.078l-39.276-46.32
			l-0.006-0.006C93.838,146.635,98.295,176.379,115.719,191.875z"/>
		<path style="fill:#3B3B3B;" d="M80.916,194.016L80.916,194.016c9.117-1.36,14.119-8.543,14.119-8.543
			c-7.059,4.716-12.377,6.396-12.377,6.396S82.097,192.729,80.916,194.016z"/>
		<path style="fill:#545251;" d="M224.051,138.558c0,0-6.166,44.92,45.639,43.054c0,0-9.802,17.255-34.533,10.263
			c0,0,13.534,20.667,46.668,10.803c0,0-17.93,34.319-68.937,27.395h-22.067v-91.414L224.051,138.558z"/>
		<path style="fill:#3B3B3B;" d="M202.086,191.875c0,0,3.142,11.134,22.511,20.178l-30.475,2.985l-9.431-22.078l39.277-46.319
			l0.006-0.006C223.972,146.635,219.509,176.379,202.086,191.875z"/>
		<path style="fill:#3B3B3B;" d="M236.888,194.016L236.888,194.016c-9.117-1.36-14.119-8.543-14.119-8.543
			c7.059,4.716,12.377,6.396,12.377,6.396S235.714,192.729,236.888,194.016z"/>
		<path style="fill:#EAE5DC;" d="M303.116,252.403c-11.151-37.754-67.121-33.566-91.279-44.408
			c-24.157-10.842-20.386-47.219-23.449-53.548h-58.932c-3.058,6.329,0.714,42.711-23.449,53.548
			c-24.157,10.842-80.133,6.655-91.279,44.408c-6.149,20.824-5.857,27.193-7.554,50.26c0,0,76.8,15.187,150.014,15.187
			s153.488-15.187,153.488-15.187C308.973,279.59,309.265,273.228,303.116,252.403z"/>
		<path style="fill:#C6C1BA;" d="M182.087,317.316c20.92-0.86,41.615-2.675,60.09-4.738V287.87h-60.09V317.316z"/>
		<path style="fill:#E0DBD3;" d="M303.116,252.403c-11.151-37.754-67.121-33.566-91.279-44.408
			c-24.157-10.842-20.386-47.219-23.449-53.548h-31.206c0,0-0.719,51.024,23.438,61.866s80.133,6.655,91.279,44.408
			c5.857,19.83,5.868,26.552,7.324,47.073c19.234-2.816,31.442-5.126,31.442-5.126C308.973,279.59,309.265,273.228,303.116,252.403z
			"/>
		<path style="fill:#E0605C;" d="M189.535,225.267c9.741-3.805,17.756-9.409,23.168-16.21l0.416-0.517
			c-0.433-0.18-0.86-0.36-1.276-0.545c-24.157-10.842-20.386-47.219-23.449-53.548h-58.938c-3.058,6.329,0.714,42.711-23.449,53.548
			c-0.416,0.185-0.843,0.371-1.276,0.545l0.416,0.517c5.413,6.795,13.428,12.399,23.168,16.21c9.229,3.603,19.813,5.508,30.61,5.508
			S180.306,228.87,189.535,225.267z"/>
		<path style="fill:#D15852;" d="M211.837,207.995c-4.345-1.95-7.779-4.727-10.516-8.004l0,0
			c-5.064,6.357-13.827,11.404-24.573,14.097c1.214,0.86,2.507,1.607,3.878,2.22c4.71,2.113,10.634,3.659,17.199,5.053
			c6.031-3.378,11.089-7.548,14.872-12.304l0.416-0.517C212.68,208.366,212.253,208.18,211.837,207.995z"/>
		<path style="fill:#DBB491;" d="M201.321,199.991c-12.5-14.951-10.421-40.356-12.927-45.549h-58.938
			c-2.512,5.193-0.427,30.599-12.927,45.549c7.655,9.611,23.764,16.232,42.396,16.232S193.666,209.602,201.321,199.991z"/>
		<path style="fill:#CCA483;" d="M176.748,214.088c10.747-2.692,19.509-7.74,24.573-14.097
			c-12.5-14.951-10.421-40.356-12.927-45.549h-31.206C157.188,154.447,156.547,199.834,176.748,214.088z"/>
		<path style="fill:#C69E7F;" d="M121.525,192.043c9.78,7.959,21.24,15.85,37.338,18.132c16.137-2.288,27.569-10.342,37.36-18.334
			c-8.144-14.973-5.626-32.83-7.83-37.4h-58.938C127.241,159.017,129.709,177.065,121.525,192.043z"/>
		
			<ellipse transform="matrix(-0.177 0.9842 -0.9842 -0.177 383.9031 -86.1352)" style="fill:#CCA483;" cx="227.965" cy="117.443" rx="21.386" ry="11.629"/>
		
			<ellipse transform="matrix(-0.9842 0.177 -0.177 -0.9842 198.7876 217.1673)" style="fill:#DBB491;" cx="89.708" cy="117.45" rx="11.629" ry="21.386"/>
		<path style="fill:#DBB491;" d="M223.084,46.25l-64.221-30.16L94.676,46.25c0,0-35.989,146.614,64.187,160.806
			C259.079,192.864,223.084,46.25,223.084,46.25z"/>
		<path style="fill:#CCA483;" d="M158.863,207.056C259.079,192.864,223.084,46.25,223.084,46.25H208.06
			c4.114,61.242,9.808,93.774-13.815,129.24C175.528,203.594,158.863,207.056,158.863,207.056z"/>
		<path style="fill:#545251;" d="M88.262,68.081l12.658-4.721c0,0,2.063,10.488,2.035,33.201c-0.006,4.879-0.09,9.415-0.225,13.636
			c-0.483,15.434-0.888,16.052-1.416,25.085l-10.134-2.085c0,0-0.646-1.933-2.198-20.926c-0.719-8.807-1.242-18.441-1.237-27.788
			C87.757,78.788,87.948,73.291,88.262,68.081z"/>
		<path style="fill:#3B3B3B;" d="M96.98,108.358c0,0,1.933-2.687,5.941-6.306l-0.067,3.738c0,0-1.467,1.118-2.855,2.569
			c-1.394,1.45-3.136,3.67-3.136,3.67s-1.978-2.119-4.665-5.598c-2.687-3.479-3.974-5.598-3.974-5.598l-0.236-5.075l0,0
			C90.421,99.871,93.394,104.081,96.98,108.358z"/>
		<path style="fill:#545251;" d="M90.747,24.729c0,0,14.636-22.893,51.091-24.669c0,0,43.745-2.136,61.669,19.048
			c0,0,9.139-0.523,17.924,6.531c0,0,8.195,6.711,9.128,18.964c0.922,12.129,1.692,27.648,1.102,41.39
			c-1.321,30.458-5.362,47.303-5.362,47.303l-9.881,1.995c0,0-2.591-5.784-4.873-27.535c-1.911-18.261-1.405-37.754-1.405-37.754
			s-14.844,15.018-39.091,15.85c-15.85,0.545-28.609,2.518-38.765,5.081c0,0,0.427-1.495,2.029-3.378
			c1.602-1.883,3.108-2.675,3.108-2.675c-27.738,5.845-40.446,23.477-40.446,23.477C58.468,62.387,90.747,24.729,90.747,24.729z"/>
		<path style="fill:#3B3B3B;" d="M165.934,68.401c0,0-5.21,15.237-32.352,20.099l0,0c0.214-0.298,0.455-0.618,0.736-0.944
			c1.602-1.889,3.108-2.675,3.108-2.675S154.749,81.548,165.934,68.401z"/>
	</g>
</g>
<g>
</g>
<g>
</g>
<g>
</g>
<g>
</g>
<g>
</g>
<g>
</g>
<g>
</g>
<g>
</g>
<g>
</g>
<g>
</g>
<g>
</g>
<g>
</g>
<g>
</g>
<g>
</g>
<g>
</g>
</svg>
