<?xml version="1.0" encoding="iso-8859-1"?>
<!-- Generator: Adobe Illustrator 18.0.0, SVG Export Plug-In . SVG Version: 6.00 Build 0)  -->
<!DOCTYPE svg PUBLIC "-//W3C//DTD SVG 1.1//EN" "http://www.w3.org/Graphics/SVG/1.1/DTD/svg11.dtd">
<svg version="1.1" id="Capa_1" xmlns="http://www.w3.org/2000/svg" xmlns:xlink="http://www.w3.org/1999/xlink" x="0px" y="0px"
	 viewBox="0 0 184.531 184.531" style="enable-background:new 0 0 184.531 184.531;" xml:space="preserve">
<g>
	<g>
		<g>
			<path style="fill:#FCD0A3;" d="M132.278,102.354c4,0,7.667-3.433,7.667-7.666c0-4.234-3.667-7.667-7.667-7.667V102.354z"/>
			<path style="opacity:0.16;fill:#FCD0A3;" d="M132.278,102.354c4,0,7.667-3.433,7.667-7.666c0-4.234-3.667-7.667-7.667-7.667
				V102.354z"/>
		</g>
		<g>
			<path style="fill:#FCD0A3;" d="M54.278,102.354c-4,0-7.667-3.433-7.667-7.666c0-4.234,3.667-7.667,7.667-7.667V102.354z"/>
			<path style="opacity:0.16;fill:#FCD0A3;" d="M54.278,102.354c-4,0-7.667-3.433-7.667-7.666c0-4.234,3.667-7.667,7.667-7.667
				V102.354z"/>
		</g>
	</g>
	<g>
		<g>
			<g>
				<path style="fill:#FCD0A3;" d="M128.583,179.319c-0.285-1.747-0.787-3.438-1.481-5.059c-0.315-0.735-0.667-1.457-1.06-2.161
					c-1.016-1.82-2.284-3.527-3.769-5.096c-0.739-0.781-1.535-1.525-2.378-2.233c-2.633-2.213-5.745-4.051-9.206-5.407
					c-3.216-1.26-6.729-2.102-10.436-2.441c-1.211-0.111-2.439-0.174-3.688-0.174h-6.759c-1.248,0-2.477,0.063-3.688,0.174
					c-3.706,0.339-7.22,1.181-10.436,2.441c-3.462,1.356-6.574,3.195-9.208,5.409c-0.841,0.707-1.636,1.45-2.375,2.23
					c-1.485,1.569-2.754,3.277-3.77,5.097c-0.393,0.704-0.744,1.425-1.06,2.161c-0.694,1.622-1.197,3.315-1.482,5.065
					c-0.118,0.724-0.193,1.459-0.235,2.201c1.158,0.191,2.316,0.378,3.476,0.552c3.972,0.597,7.951,1.094,11.936,1.477
					c0.171,0.017,0.343,0.033,0.514,0.049c17.282,1.652,34.652,1.072,51.878-1.526c1.154-0.174,2.309-0.357,3.461-0.55
					C128.777,180.783,128.702,180.045,128.583,179.319z"/>
				<path style="fill:#E94941;" d="M127.101,174.26c-0.349-0.814-0.742-1.612-1.188-2.387c-0.004-0.002-0.007-0.003-0.011-0.005
					l-1.048,0.184c-20.951,3.683-42.385,3.683-63.336,0l-1.049-0.184c-0.004,0.002-0.007,0.003-0.011,0.005
					c-0.445,0.775-0.839,1.572-1.188,2.386c-0.694,1.622-1.197,3.315-1.482,5.065c-0.118,0.724-0.193,1.459-0.235,2.201
					c1.158,0.191,2.316,0.378,3.476,0.552c3.972,0.597,7.951,1.094,11.936,1.477c0.171,0.017,0.343,0.033,0.514,0.049
					c17.282,1.652,34.652,1.072,51.878-1.526c1.154-0.174,2.309-0.357,3.461-0.55c-0.042-0.744-0.117-1.482-0.236-2.208
					C128.298,177.572,127.796,175.88,127.101,174.26z"/>
			</g>
			<g>
				<g>
					<g>
						<path style="fill:#E94941;" d="M100.017,28.648c-5.195-0.013-9.563,0.818-15.539,2.325c-5.27,1.328-14.726,5.68-15.243,11.896
							c-0.376,4.526,1.617,7.257,4.197,10.609c5.582,7.251,14.629,10.804,23.496,11.806c4.523,0.512,9.131,0.397,13.626-0.324
							c4.492-0.722,9.369-2.972,13.801-0.826c6.152,2.98,6.845,10.351,5.862,16.361c-0.937,5.737-5.164,10.56-5.64,16.424
							c-0.277,3.413,1.102,5.873,3.318,7.456c2.696-3.208,5.002-2.505,7.816-9.805C137.453,90.056,150.145,34.035,100.017,28.648z"
							/>
						<g>
							<path style="fill:#EA524B;" d="M117.335,37.246c0,0,15.614-8.348-1.578-37.246C115.757,0,94.444,24.191,117.335,37.246z"/>
							<path style="fill:#E94941;" d="M116.856,37.122c0,0-8.394-15.59,21.912-30.16C138.768,6.962,143.147,38.902,116.856,37.122z"
								/>
						</g>
					</g>
					<path style="fill:#AD483E;" d="M138.848,110.715c-7.755-8.812-9.243-19.288-9.968-30.561c0.144-0.255,0.209-0.565,0.137-0.923
						c-0.127-0.627-0.254-1.253-0.381-1.88c-0.084-0.414-0.506-0.848-0.926-0.925c-23.537-4.33-47.12,2.315-70.761,0.766
						c-1.087-0.071-1.475,0.981-1.174,1.782c-0.037,0.112-0.065,0.231-0.073,0.364c-0.707,11.584-2.079,22.353-10.021,31.377
						c-5.323,6.047-11.418,11.82-11.645,20.429c-0.384,14.58,14.334,23.712,26.803,18.901c3.287,3.541,8.965,3.526,13.461,3.172
						c3.555-0.28,6.75-1.324,9.281-3.508c0.096,0.1,0.208,0.193,0.354,0.269c2.662,1.373,5.5,2.032,8.328,1.983
						c2.828,0.049,5.665-0.61,8.327-1.983c0.146-0.076,0.26-0.169,0.355-0.269c2.53,2.184,5.727,3.228,9.281,3.508
						c4.496,0.355,10.173,0.369,13.461-3.172c12.468,4.812,27.186-4.321,26.803-18.901
						C150.266,122.535,144.171,116.762,138.848,110.715z"/>
				</g>
				<g>
					<g>
						<path style="fill:#FCD0A3;" d="M93.232,159.869L93.232,159.869c-1.935,0-3.502-1.568-3.502-3.501v-13.963
							c0-1.934,1.567-3.501,3.502-3.501l0,0c1.934,0,3.501,1.567,3.501,3.501v13.963C96.733,158.301,95.166,159.869,93.232,159.869z
							"/>
						<path style="fill:#FCD0A3;" d="M93.232,146.306L93.232,146.306c-21.907,0-39.667-17.76-39.667-39.667v-34
							c0-21.907,17.76-39.667,39.666-39.667h0.001c21.907,0,39.666,17.759,39.666,39.667v34
							C132.898,128.546,115.139,146.306,93.232,146.306z"/>
					</g>
					<path style="opacity:0.16;fill:#FCD0A3;" d="M71.552,135.857c-5.893-7.366-7.638-16.079-7.842-25.324
						c-0.202-9.158-0.266-17.485,0.294-26.664c0.544-8.917,2.318-17.641,6.815-25.005c6.184-10.127,17.324-19.682,27.987-25.481
						c-1.854-0.266-3.745-0.41-5.672-0.41l0,0c-21.907,0-39.667,17.759-39.667,39.667v34c0,18.021,12.023,33.227,28.482,38.057
						C78.006,142.4,74.455,139.485,71.552,135.857z"/>
				</g>
				<g>
					<path style="fill:#AD483E;" d="M92.507,30.979c-7.391,0.127-14.313,2.198-20.294,5.708c-1.824,0.341-3.674,0.569-5.569,0.653
						c-3.769,0.167-7.635-0.048-11.306,1.014C45.117,41.309,41.443,52.489,42.26,62.156c0.975,11.529,7.968,21.713,20.533,21.713
						h33.32c16.566,0,18.574-5.585,22.76-14.357c1.529-3.203,5.22-4.042,7.926-2.636c1.613,0.839,2.617,2.522,2.865,4.324
						l3.233,23.461l2-21.283C134.898,50.063,115.819,30.579,92.507,30.979z"/>
					<path style="fill:#BC4E43;" d="M92.507,30.979c-7.392,0.058-14.313,2.198-20.294,5.708c-1.824,0.341-3.674,0.569-5.569,0.653
						c-3.769,0.167-7.635-0.048-11.306,1.014C45.117,41.309,41.443,52.489,42.26,62.156c0.975,11.529,7.968,21.713,20.533,21.713
						h33.32c5.724,0,9.708-0.667,12.646-1.902c-0.06-0.292-0.111-0.588-0.152-0.885c-0.251-1.803-1.101-3.463-2.512-4.612
						c-5.025-4.09-9.941-9.064-6.784-16.629c3.305-7.918,14.513-9.893,21.59-5.979c7.217,3.992,9.052,11.415,8.984,18.945
						l3.012,21.854l2-21.283C136.417,52.912,115.933,30.795,92.507,30.979z"/>
				</g>
			</g>
		</g>
		<g>
			<g>
				<path style="fill:none;stroke:#6F6F6E;stroke-width:0.1;stroke-linecap:round;stroke-linejoin:round;stroke-miterlimit:10;" d="
					M71.846,122.227c5.626,5.181,13.135,8.348,21.386,8.348c8.25,0,15.76-3.167,21.386-8.348"/>
				<g>
					<path style="fill:#DC2A2C;" d="M88.045,130.121l1.461,1.849c0.616,0.78,1.556,1.235,2.55,1.235h2.471
						c0.995,0,1.932-0.469,2.529-1.265l1.364-1.818H88.045z"/>
					<path style="fill:#E94941;" d="M93.778,128.036l-0.303,0.309c-0.143,0.144-0.374,0.145-0.518,0.002l-0.271-0.271
						c-0.733-0.733-1.923-0.727-2.648,0.012l-1.994,2.032h2.692c0.659,0,1.313,0.103,1.94,0.306l0.304,0.098
						c0.217,0.07,0.45,0.066,0.664-0.011l0.283-0.103c0.531-0.192,1.092-0.291,1.657-0.291h2.834l-2.098-2.097
						C95.618,127.32,94.475,127.325,93.778,128.036z"/>
				</g>
			</g>
			<g>
				
					<ellipse transform="matrix(0.9676 0.2525 -0.2525 0.9676 29.0376 -14.0455)" style="opacity:0.25;fill:#F296A4;" cx="69.235" cy="106.097" rx="11.974" ry="7.361"/>
				
					<ellipse transform="matrix(-0.9676 0.2525 -0.2525 -0.9676 257.2735 179.1736)" style="opacity:0.25;fill:#F296A4;" cx="117.138" cy="106.097" rx="11.974" ry="7.361"/>
			</g>
			<g>
				<g>
					<g>
						<g>
							<g>
								<path style="fill:#67657B;" d="M114.25,93.355c1.364,0.339,2.783-0.465,3.193-1.81c0.047-0.155-0.194-0.22-0.241-0.066
									c-0.37,1.213-1.655,1.941-2.885,1.635C114.16,93.075,114.093,93.317,114.25,93.355L114.25,93.355z"/>
							</g>
						</g>
						<g>
							<g>
								<path style="fill:#67657B;" d="M114.09,92.983c1.189,0,2.185-0.953,2.246-2.138c0.008-0.161-0.242-0.16-0.25,0
									c-0.054,1.051-0.947,1.888-1.996,1.888C113.928,92.733,113.928,92.983,114.09,92.983L114.09,92.983z"/>
							</g>
						</g>
						<g>
							<g>
								<path style="fill:#67657B;" d="M114.352,93.675c0.911,0.626,2.009,0.791,3.065,0.464c0.154-0.048,0.088-0.289-0.066-0.241
									c-0.998,0.309-2.012,0.152-2.872-0.439C114.345,93.368,114.22,93.585,114.352,93.675L114.352,93.675z"/>
							</g>
						</g>
					</g>
					<g>
						<g>
							<circle style="fill:#67657B;" cx="111.311" cy="94.617" r="3.333"/>
							<circle style="fill:#8E8D9C;" cx="111.311" cy="94.617" r="3.104"/>
							<polygon style="fill:#5F5D73;" points="108.707,93.179 110.05,93.829 108.877,92.906 110.142,93.697 109.076,92.653 
								110.248,93.576 109.301,92.423 110.367,93.467 109.551,92.219 110.497,93.372 109.82,92.043 110.636,93.291 110.107,91.896 
								110.784,93.226 110.409,91.782 110.937,93.177 110.72,91.702 111.094,93.146 111.039,91.655 111.256,93.131 111.361,91.643 
								111.417,93.133 111.682,91.666 111.576,93.153 111.999,91.723 111.733,93.191 112.307,91.814 111.884,93.245 112.605,91.939 
								112.029,93.315 112.887,92.094 112.166,93.4 113.15,92.28 112.293,93.5 113.392,92.492 112.408,93.612 113.61,92.73 
								112.509,93.737 113.801,92.989 112.597,93.872 113.962,93.268 112.671,94.015 114.093,93.563 112.728,94.166 114.19,93.87 
								112.768,94.322 114.254,94.186 112.792,94.481 114.283,94.506 112.798,94.642 114.278,94.828 112.786,94.803 114.237,95.147 
								112.758,94.961 114.163,95.461 112.712,95.116 114.055,95.765 112.65,95.264 113.915,96.054 112.572,95.405 113.744,96.328 
								112.479,95.537 113.545,96.581 112.373,95.658 113.319,96.811 112.255,95.767 113.071,97.015 112.125,95.862 112.801,97.191 
								111.985,95.942 112.513,97.337 111.838,96.008 112.213,97.451 111.684,96.057 111.901,97.532 111.526,96.088 111.583,97.579 
								111.366,96.103 111.26,97.591 111.205,96.101 110.939,97.568 111.046,96.081 110.622,97.511 110.888,96.043 110.313,97.42 
								110.737,95.989 110.016,97.295 110.592,95.919 109.734,97.14 110.456,95.834 109.47,96.954 110.329,95.734 109.229,96.742 
								110.214,95.622 109.011,96.504 110.112,95.497 108.821,96.244 110.023,95.362 108.659,95.966 109.95,95.219 108.529,95.671 
								109.893,95.068 108.431,95.364 109.853,94.912 108.368,95.048 109.83,94.753 108.339,94.728 109.824,94.592 108.343,94.406 
								109.835,94.431 108.384,94.086 109.864,94.272 108.459,93.773 109.91,94.118 108.566,93.469 109.971,93.97 							"/>
						</g>
						<g>
							<circle style="opacity:0.35;fill:#1D1A3A;" cx="111.321" cy="94.617" r="1.587"/>
							<path style="fill:#FFFFFF;" d="M112.297,93.904c0.001-0.009,0.005-0.017,0.005-0.026c0-0.271-0.219-0.49-0.49-0.49
								c-0.271,0-0.49,0.22-0.49,0.49c0,0.271,0.22,0.49,0.49,0.49c0.041,0,0.078-0.014,0.116-0.023
								c0.036,0.015,0.074,0.023,0.116,0.023c0.168,0,0.305-0.137,0.305-0.305C112.348,94.003,112.327,93.951,112.297,93.904z"/>
						</g>
					</g>
				</g>
				<g>
					<g>
						<g>
							<g>
								<path style="fill:#67657B;" d="M73.238,93.158c-1.23,0.306-2.515-0.422-2.885-1.635c-0.047-0.154-0.288-0.088-0.241,0.066
									c0.41,1.344,1.829,2.148,3.193,1.809C73.461,93.36,73.394,93.119,73.238,93.158L73.238,93.158z"/>
							</g>
						</g>
						<g>
							<g>
								<path style="fill:#67657B;" d="M73.465,92.777c-1.049,0-1.942-0.837-1.996-1.888c-0.008-0.16-0.258-0.161-0.25,0
									c0.061,1.185,1.057,2.138,2.246,2.138C73.626,93.027,73.626,92.777,73.465,92.777L73.465,92.777z"/>
							</g>
						</g>
						<g>
							<g>
								<path style="fill:#67657B;" d="M73.076,93.503c-0.86,0.591-1.875,0.748-2.872,0.439c-0.154-0.048-0.22,0.194-0.066,0.241
									c1.056,0.327,2.154,0.162,3.065-0.464C73.334,93.629,73.209,93.412,73.076,93.503L73.076,93.503z"/>
							</g>
						</g>
					</g>
					<g>
						<g>
							<circle style="fill:#67657B;" cx="76.138" cy="94.661" r="3.333"/>
							<circle style="fill:#8E8D9C;" cx="76.138" cy="94.661" r="3.104"/>
							<polygon style="fill:#5F5D73;" points="73.534,93.223 74.877,93.873 73.704,92.95 74.969,93.741 73.903,92.697 75.075,93.62 
								74.129,92.467 75.194,93.511 74.378,92.263 75.324,93.416 74.647,92.087 75.464,93.336 74.934,91.94 75.611,93.27 
								75.236,91.826 75.764,93.221 75.548,91.746 75.923,93.189 75.866,91.699 76.083,93.174 76.188,91.687 76.244,93.177 
								76.509,91.71 76.403,93.197 76.826,91.767 76.56,93.235 77.135,91.858 76.712,93.289 77.432,91.983 76.856,93.359 
								77.715,92.138 76.993,93.444 77.977,92.324 77.12,93.544 78.219,92.536 77.235,93.656 78.437,92.774 77.337,93.781 
								78.628,93.033 77.425,93.916 78.789,93.312 77.498,94.059 78.92,93.606 77.555,94.21 79.017,93.914 77.595,94.366 
								79.081,94.229 77.619,94.525 79.11,94.55 77.625,94.686 79.105,94.872 77.613,94.847 79.064,95.191 77.585,95.005 
								78.99,95.505 77.539,95.16 78.883,95.809 77.477,95.308 78.742,96.098 77.399,95.449 78.571,96.372 77.306,95.581 
								78.372,96.624 77.2,95.702 78.146,96.854 77.082,95.811 77.898,97.059 76.952,95.906 77.628,97.235 76.812,95.986 
								77.342,97.381 76.665,96.052 77.04,97.496 76.511,96.101 76.728,97.576 76.353,96.132 76.41,97.623 76.193,96.147 
								76.088,97.635 76.032,96.145 75.766,97.612 75.873,96.124 75.45,97.555 75.716,96.087 75.14,97.463 75.564,96.033 
								74.843,97.339 75.419,95.963 74.561,97.184 75.283,95.878 74.298,96.998 75.156,95.778 74.056,96.786 75.041,95.665 
								73.839,96.548 74.939,95.541 73.648,96.289 74.85,95.406 73.487,96.01 74.778,95.263 73.356,95.715 74.72,95.112 
								73.259,95.408 74.68,94.956 73.195,95.092 74.657,94.797 73.166,94.772 74.651,94.636 73.171,94.45 74.662,94.475 
								73.211,94.13 74.691,94.317 73.286,93.817 74.737,94.162 73.393,93.513 74.799,94.014 							"/>
						</g>
						<g>
							<circle style="opacity:0.35;fill:#1D1A3A;" cx="76.148" cy="94.661" r="1.587"/>
							<path style="fill:#FFFFFF;" d="M77.124,93.948c0.001-0.009,0.006-0.017,0.006-0.026c0-0.271-0.22-0.49-0.49-0.49
								c-0.271,0-0.49,0.22-0.49,0.49c0,0.271,0.219,0.49,0.49,0.49c0.041,0,0.077-0.014,0.115-0.023
								c0.036,0.015,0.074,0.023,0.116,0.023c0.168,0,0.305-0.136,0.305-0.305C77.176,94.047,77.154,93.995,77.124,93.948z"/>
						</g>
					</g>
				</g>
			</g>
		</g>
	</g>
</g>
<g>
</g>
<g>
</g>
<g>
</g>
<g>
</g>
<g>
</g>
<g>
</g>
<g>
</g>
<g>
</g>
<g>
</g>
<g>
</g>
<g>
</g>
<g>
</g>
<g>
</g>
<g>
</g>
<g>
</g>
</svg>
