<?xml version="1.0" encoding="iso-8859-1"?>
<!-- Generator: Adobe Illustrator 19.0.0, SVG Export Plug-In . SVG Version: 6.00 Build 0)  -->
<svg version="1.1" id="Layer_1" xmlns="http://www.w3.org/2000/svg" xmlns:xlink="http://www.w3.org/1999/xlink" x="0px" y="0px"
	 viewBox="0 0 339.376 339.376" style="enable-background:new 0 0 339.376 339.376;" xml:space="preserve">
<g>
	<g>
		<path style="fill:#515151;" d="M313.879,273.929c-11.151-37.754-67.121-33.566-91.279-44.408
			c-24.157-10.842-20.386-47.219-23.449-53.548h-58.932c-3.058,6.329,0.714,42.711-23.449,53.548
			c-24.157,10.842-80.133,6.655-91.279,44.408c-6.149,20.824-5.857,27.193-7.554,50.26c0,0,76.8,15.187,150.014,15.187
			s153.488-15.187,153.488-15.187C319.736,301.116,320.028,294.753,313.879,273.929z"/>
		<g>
			<path style="fill:#6D6D6D;" d="M17.937,324.188c0,0,1.45,0.287,4.131,0.781v-38.147C19.37,298.755,19.229,306.641,17.937,324.188
				z"/>
			<path style="fill:#6D6D6D;" d="M30.381,263.379v63.058c1.298,0.225,2.687,0.455,4.159,0.703v-68.954
				C33.022,259.782,31.629,261.507,30.381,263.379z"/>
			<path style="fill:#6D6D6D;" d="M42.859,251.373v77.115c1.343,0.214,2.726,0.427,4.159,0.646v-80.201
				C45.585,249.698,44.196,250.508,42.859,251.373z"/>
			<path style="fill:#6D6D6D;" d="M55.331,245.168v85.203c1.36,0.197,2.743,0.393,4.159,0.59v-87.288
				C58.085,244.145,56.696,244.64,55.331,245.168z"/>
			<path style="fill:#6D6D6D;" d="M67.808,241.217v90.874c1.366,0.18,2.754,0.36,4.159,0.54v-92.448
				C70.574,240.509,69.185,240.857,67.808,241.217z"/>
			<path style="fill:#6D6D6D;" d="M80.281,238.367v95.281c1.371,0.163,2.76,0.326,4.159,0.483v-96.59
				C83.057,237.811,81.669,238.086,80.281,238.367z"/>
			<path style="fill:#6D6D6D;" d="M92.753,235.945v99.103c1.377,0.146,2.76,0.287,4.159,0.427v-100.35
				C95.546,235.4,94.158,235.669,92.753,235.945z"/>
			<path style="fill:#6D6D6D;" d="M105.23,233.281v102.998c1.377,0.124,2.765,0.247,4.159,0.371V232.168
				C108.046,232.556,106.658,232.927,105.23,233.281z"/>
			<path style="fill:#6D6D6D;" d="M117.703,229.076v108.247c1.383,0.107,2.765,0.208,4.159,0.309v-111.04
				C120.58,227.514,119.198,228.346,117.703,229.076z"/>
			<path style="fill:#6D6D6D;" d="M130.175,217.498v120.675c1.383,0.084,2.771,0.163,4.159,0.236V208.533
				C133.26,211.647,131.906,214.688,130.175,217.498z"/>
			<path style="fill:#6D6D6D;" d="M142.653,175.973v162.846c1.383,0.056,2.771,0.112,4.159,0.163V175.973H142.653z"/>
			<path style="fill:#6D6D6D;" d="M155.125,175.973v163.256c1.388,0.034,2.771,0.056,4.159,0.079V175.973H155.125z"/>
			<path style="fill:#6D6D6D;" d="M167.597,175.973v163.402c0.118,0,0.236,0,0.348,0c1.265,0,2.535-0.006,3.805-0.011V175.973
				H167.597z"/>
			<path style="fill:#6D6D6D;" d="M180.075,175.973v163.273c1.383-0.028,2.771-0.062,4.159-0.101V175.979h-4.159V175.973z"/>
			<path style="fill:#6D6D6D;" d="M192.547,175.973v162.88c1.388-0.056,2.771-0.118,4.159-0.18v-162.7L192.547,175.973
				L192.547,175.973z"/>
			<path style="fill:#6D6D6D;" d="M205.019,208.488v129.746c1.388-0.079,2.777-0.163,4.159-0.253V217.476
				C207.447,214.654,206.092,211.608,205.019,208.488z"/>
			<path style="fill:#6D6D6D;" d="M217.497,226.581v110.827c1.388-0.101,2.777-0.208,4.159-0.315V229.071
				C220.161,228.335,218.773,227.503,217.497,226.581z"/>
			<path style="fill:#6D6D6D;" d="M229.969,232.162v104.24c1.394-0.124,2.782-0.247,4.159-0.377v-102.75
				C232.695,232.921,231.306,232.55,229.969,232.162z"/>
			<path style="fill:#6D6D6D;" d="M242.441,235.119v100.103c1.394-0.141,2.782-0.287,4.159-0.427V235.94
				C245.195,235.669,243.807,235.394,242.441,235.119z"/>
			<path style="fill:#6D6D6D;" d="M254.919,237.535v96.343c1.4-0.157,2.788-0.32,4.159-0.483v-95.033
				C257.684,238.081,256.296,237.805,254.919,237.535z"/>
			<path style="fill:#6D6D6D;" d="M267.391,240.177v92.212c1.405-0.174,2.793-0.354,4.159-0.528v-90.649
				C270.167,240.852,268.785,240.509,267.391,240.177z"/>
			<path style="fill:#6D6D6D;" d="M279.869,243.668v87.08c1.411-0.191,2.799-0.388,4.159-0.579v-85.006
				C282.656,244.634,281.268,244.14,279.869,243.668z"/>
			<path style="fill:#6D6D6D;" d="M292.341,248.928v80.043c1.428-0.214,2.816-0.422,4.159-0.624v-76.986
				C295.157,250.497,293.768,249.687,292.341,248.928z"/>
			<path style="fill:#6D6D6D;" d="M304.813,258.169v68.869c1.473-0.236,2.861-0.466,4.159-0.68v-63.001
				C307.724,261.491,306.336,259.765,304.813,258.169z"/>
			<path style="fill:#6D6D6D;" d="M317.291,286.755v38.181c2.692-0.478,4.148-0.753,4.148-0.753
				C320.14,306.607,320,298.727,317.291,286.755z"/>
		</g>
		<path style="opacity:0.25;fill:#303233;enable-background:new    ;" d="M191.389,237.833
			c24.157,10.842,80.133,6.655,91.279,44.408c5.857,19.83,5.868,26.552,7.324,47.073c19.234-2.816,31.442-5.126,31.442-5.126
			c-1.697-23.067-1.405-29.435-7.554-50.26c-11.151-37.754-67.121-33.566-91.279-44.408c-24.157-10.842-20.386-47.219-23.449-53.548
			h-31.206C167.951,175.973,167.231,226.997,191.389,237.833z"/>
		<g>
			<polygon style="opacity:0.25;fill:#303233;enable-background:new    ;" points="219.363,227.817 186.313,256.533 
				169.626,228.582 			"/>
			<polygon style="opacity:0.25;fill:#303233;enable-background:new    ;" points="119.439,228.155 153.023,256.533 
				169.626,228.582 			"/>
			<path style="fill:#515151;" d="M169.626,228.582l-38.344-16.637c0,0-3.389,4.817-11.843,16.21l31.723,22.853L169.626,228.582z"/>
			<path style="fill:#515151;" d="M169.626,228.582l37.422-16.637c0,0,3.861,4.48,12.315,15.873l-32.195,23.191L169.626,228.582z"/>
			<path style="fill:#474747;" d="M207.048,211.945l-28.867,12.832c3.26,5.778,7.548,10.516,13.208,13.057
				c2.799,1.253,6.02,2.31,9.555,3.249l18.419-13.265C210.909,216.424,207.048,211.945,207.048,211.945z"/>
		</g>
		<g>
			<circle style="fill:#2F3233;" cx="169.626" cy="267.921" r="6.346"/>
			<circle style="fill:#2F3233;" cx="169.626" cy="299.688" r="6.346"/>
			<circle style="fill:#2F3233;" cx="169.626" cy="331.456" r="6.346"/>
		</g>
		<path style="fill:#C69E7F;" d="M132.288,213.569c9.78,7.959,21.24,15.85,37.338,18.132c16.137-2.288,27.569-10.342,37.36-18.334
			c-8.144-14.973-5.626-32.83-7.83-37.4h-58.938C138.004,180.542,140.472,198.59,132.288,213.569z"/>
		<g>
			
				<ellipse transform="matrix(-0.177 0.9842 -0.9842 -0.177 417.7567 -71.3924)" style="fill:#DDB58E;" cx="238.728" cy="138.968" rx="21.386" ry="11.629"/>
			
				<ellipse transform="matrix(-0.9842 0.177 -0.177 -0.9842 223.9516 257.974)" style="fill:#E8C59E;" cx="100.469" cy="138.976" rx="11.629" ry="21.386"/>
			<path style="fill:#E8C59E;" d="M233.847,67.776l-63.653,9.218l-65.396-8.33c0,0-5.48,31.83-5.48,46.438
				c0,44.184,7.931,104.645,70.303,113.48C269.841,214.39,233.847,67.776,233.847,67.776z"/>
			<path style="fill:#DDB58E;" d="M169.626,228.582c100.216-14.192,64.221-160.806,64.221-160.806h-15.024
				c4.114,61.242,9.808,93.774-13.815,129.24C186.291,225.12,169.626,228.582,169.626,228.582z"/>
			<path style="fill:#DDB58E;" d="M108.052,87.105c0,0,42.284,13.13,114.222-5.615V70.097L108.052,87.105z"/>
			<g>
				<path style="fill:#E0DBD3;" d="M96.929,133.116l4.322,13.995h8.706c0.236-13.776,0.051-34.724-1.905-60.006
					c18.846,3.119,40.058,2.557,40.058,2.557c42.593-2.383,84.877-14.9,84.877-14.9c-2.962,30.801-3.254,56.392-2.979,72.349h8.723
					l4.924-13.995c-6.183-16.699,7.7-94.511,7.7-94.511c-15.299-5.935-26.883-1.647-26.883-1.647
					C190.737,15.347,156.659,20.4,156.659,20.4s-4.828-10.432-15.963-16.828C129.95-2.6,103.724-2.802,84.361,19.635
					c-16.244,18.818-15.03,51.552,3.097,61.355c1.467,0.793,3.091,1.512,4.839,2.17C95.417,100.567,98.829,123.465,96.929,133.116z"
					/>
				<path style="fill:#C6C1BA;" d="M159.211,59.12c10.572-9.358,7.088-29.795,5.812-39.232c-5.261,0.051-8.369,0.511-8.369,0.511
					l0,0l0,0c0,0,10.359,23.224-0.905,35.741c-5.059,5.615-13.293,8.212-25.096,7.155c-1.017-0.146-20.229-3.041-25.512-13.591
					c-2.153-4.294-1.652-9.493,1.489-15.457c3.119-5.919,7.234-9.015,12.225-9.218c8.763-0.348,22.297,6.801,22.297,6.801
					c-1.726-2.788-12.084-11.798-22.404-11.427c-6.745,0.242-12.157,4.165-16.103,11.646c-3.889,7.385-4.407,14.035-1.529,19.768
					c6.492,12.944,28.081,15.946,28.997,16.064l0.09,0.011c7.402,0.669,13.692,0.062,18.829-1.799
					C153.191,64.595,156.153,61.829,159.211,59.12z"/>
				<g>
					<path style="fill:#EAE5DC;" d="M229.946,132.784c3.743-0.877,8.38-2.327,12.601-4.659c-0.236-1.838-0.377-3.934-0.444-6.245
						c-3.67,2.512-8.245,4.114-12.09,5.104C229.986,128.979,229.963,130.918,229.946,132.784z"/>
					<path style="fill:#EAE5DC;" d="M230.413,113.011c-0.079,2.012-0.146,3.974-0.202,5.896c3.766-1.023,8.099-2.591,11.938-4.963
						c0.073-2.288,0.191-4.688,0.348-7.166C239.203,109.779,234.583,111.746,230.413,113.011z"/>
					<path style="fill:#EAE5DC;" d="M97.44,128.136c4.215,2.327,8.847,3.771,12.585,4.648c-0.017-1.866-0.039-3.8-0.073-5.8
						c-4.019-1.034-8.836-2.732-12.585-5.452C97.48,123.932,97.508,126.152,97.44,128.136z"/>
					<path style="fill:#EAE5DC;" d="M95.749,104.934c0.377,2.827,0.703,5.609,0.972,8.29c4.092,2.777,8.909,4.558,13.034,5.677
						c-0.056-1.917-0.124-3.884-0.202-5.896C104.59,111.504,98.992,109.003,95.749,104.934z"/>
				</g>
			</g>
			<g>
				<path style="fill:#E0DBD3;" d="M181.868,179.368c-6.143,0.006-12.27,5.84-12.27,5.84s-6.126-5.834-12.27-5.84
					c-9.932-0.011-17.525,26.288-42.059,25.995c0,0,12.562,9.347,27.164,9.347s27.164-11.978,27.164-11.978
					s12.562,11.978,27.164,11.978s27.164-9.347,27.164-9.347C199.393,205.655,191.794,179.362,181.868,179.368z"/>
			</g>
		</g>
	</g>
</g>
<g>
</g>
<g>
</g>
<g>
</g>
<g>
</g>
<g>
</g>
<g>
</g>
<g>
</g>
<g>
</g>
<g>
</g>
<g>
</g>
<g>
</g>
<g>
</g>
<g>
</g>
<g>
</g>
<g>
</g>
</svg>
