<?xml version="1.0" encoding="iso-8859-1"?>
<!-- Generator: Adobe Illustrator 19.0.0, SVG Export Plug-In . SVG Version: 6.00 Build 0)  -->
<svg version="1.1" id="Layer_1" xmlns="http://www.w3.org/2000/svg" xmlns:xlink="http://www.w3.org/1999/xlink" x="0px" y="0px"
	 viewBox="0 0 318.965 318.965" style="enable-background:new 0 0 318.965 318.965;" xml:space="preserve">
<g>
	<g>
		<path style="fill:#E8C59E;" d="M303.673,253.518c-11.151-37.754-67.121-33.566-91.279-44.408
			c-24.157-10.842-20.386-47.219-23.449-53.548h-58.932c-3.058,6.329,0.714,42.711-23.449,53.548
			c-24.157,10.842-80.133,6.655-91.279,44.408c-6.149,20.824-5.857,27.193-7.554,50.26c0,0,76.8,15.187,150.014,15.187
			s153.488-15.187,153.488-15.187C309.53,280.705,309.822,274.342,303.673,253.518z"/>
		<path style="fill:#DDB58E;" d="M303.673,253.518c-11.151-37.754-67.121-33.566-91.279-44.408
			c-24.157-10.842-20.386-47.219-23.449-53.548h-31.205c0,0-0.719,51.024,23.438,61.866s80.133,6.655,91.279,44.408
			c5.857,19.83,5.868,26.552,7.324,47.073c19.234-2.816,31.442-5.126,31.442-5.126C309.53,280.705,309.822,274.342,303.673,253.518z
			"/>
		<path style="fill:#CCA281;" d="M122.083,193.158c9.78,7.959,21.24,15.85,37.338,18.132c16.137-2.288,27.569-10.342,37.36-18.334
			c-8.144-14.973-5.626-32.83-7.83-37.4h-58.938C127.799,160.131,130.267,178.179,122.083,193.158z"/>
		
			<ellipse transform="matrix(-0.177 0.9842 -0.9842 -0.177 385.656 -85.3712)" style="fill:#DDB58E;" cx="228.522" cy="118.557" rx="21.386" ry="11.629"/>
		
			<ellipse transform="matrix(-0.9842 0.177 -0.177 -0.9842 200.0904 219.2806)" style="fill:#E8C59E;" cx="90.265" cy="118.565" rx="11.629" ry="21.386"/>
		<path style="fill:#E8C59E;" d="M223.642,47.365h-64.221H95.233c0,0-35.989,146.614,64.187,160.806
			C259.636,193.979,223.642,47.365,223.642,47.365z"/>
		<path style="fill:#DDB58E;" d="M159.421,208.171c100.216-14.192,64.221-160.806,64.221-160.806h-15.024
			c4.114,61.242,9.808,93.774-13.815,129.24C176.086,204.708,159.421,208.171,159.421,208.171z"/>
		<path style="fill:#DDB58E;" d="M216.06,75.035c-26.867-1.619-56.695,12.27-56.695,12.27s-29.817-13.889-56.684-12.27
			c0,0-13.433,12.045-3.35,41.688c-6.537-30.16,3.35-37.518,3.35-37.518c26.867-1.619,56.684,12.27,56.684,12.27
			s29.829-13.889,56.695-12.27c0,0,10.353,8.262,3.35,37.518C229.493,87.08,216.06,75.035,216.06,75.035z"/>
		<path style="fill:#545250;" d="M231.359,39.457c0,0-9.167-39.412-71.938-39.457l0,0c-0.017,0-0.034,0-0.051,0s-0.034,0-0.051,0
			l0,0C96.548,0.045,87.381,39.457,87.381,39.457c-7.593,26.883-2.136,60.152-2.136,60.152l6.998,40.064l6.93,0.354l0.152-23.309
			c-10.083-29.643,3.35-41.688,3.35-41.688c26.867-1.619,56.684,12.27,56.684,12.27s29.829-13.889,56.695-12.27
			c0,0,13.433,12.045,3.35,41.688l0.354,23.309l6.857-0.36l6.874-40.058C233.501,99.609,238.952,66.334,231.359,39.457z"/>
		<path style="fill:#605E5B;" d="M159.376,47.803C145.29,40.26,105.58,40.26,105.58,40.26c39.361,4.716,53.795,13.433,53.795,13.433
			s14.434-8.718,53.795-13.433C213.165,40.266,173.456,40.266,159.376,47.803z"/>
		<path style="fill:#EAE5DC;" d="M61.763,312.214c27.451,3.496,62.102,6.75,95.983,6.75c33.443,0,68.364-3.17,96.427-6.615
			c-2.844-33.847,1.113-81.032,2.22-92.768c-8.678-2.018-17.463-3.49-25.394-5.126c-16.081,56.206-58.55,55.953-73.034,55.953
			c-14.462,0-56.673,0.562-72.804-55.386c-8.116,1.607-16.969,3.131-25.608,5.283C60.689,232.339,64.617,278.53,61.763,312.214z"/>
		<path style="fill:#E0DBD3;" d="M226.132,228.118c10.314,2.451,20.425,5.711,28.704,10.988c0.601-8.926,1.214-15.912,1.551-19.532
			c-8.678-2.018-17.463-3.49-25.394-5.126C229.572,219.44,227.937,223.982,226.132,228.118z"/>
		<path style="fill:#3B8D93;" d="M303.673,253.518c-7.492-25.371-35.236-31.801-59.955-36.579
			c0.259,16.671-11.348,44.448-18.475,51.608c-24.804,24.916-67.953,40.362-67.953,40.362s-40.204-10.454-67.048-40.362
			c-6.615-7.369-18.273-36.309-18.194-50.985c-23.871,4.738-49.591,11.668-56.763,35.955c-6.149,20.824-5.857,27.193-7.554,50.26
			c0,0,76.8,15.187,150.014,15.187s153.488-15.187,153.488-15.187C309.53,280.705,309.822,274.342,303.673,253.518z"/>
		<path style="fill:#348789;" d="M303.673,253.518c-7.492-25.371-35.236-31.801-59.955-36.579c0.073,4.615-0.77,10.083-2.17,15.732
			c14.304,5.306,26.355,13.731,30.913,29.165c5.857,19.83,5.868,26.552,7.324,47.073c19.234-2.816,31.442-5.126,31.442-5.126
			C309.53,280.705,309.822,274.342,303.673,253.518z"/>
		<path style="fill:#5C9EA0;" d="M243.719,216.933L243.719,216.933c-4.452-0.86-8.808-1.669-12.933-2.524l0.039,2.72
			c0.09,5.857-2.018,15.058-5.632,24.607c-3.968,10.466-7.835,16.452-9.089,17.711c-18.329,18.413-48.686,31.582-59.331,35.843
			c-9.943-3.243-37.512-13.709-56.942-35.359c-1.208-1.343-5.025-7.672-9.128-18.655c-3.586-9.606-5.8-18.666-5.772-23.646
			l0.017-2.569c-4.154,0.821-8.498,1.624-12.905,2.496l0,0c-0.084,14.67,11.578,43.61,18.194,50.985
			c26.844,29.907,67.048,40.362,67.048,40.362s43.155-15.44,67.953-40.362C232.37,261.381,243.978,233.61,243.719,216.933z"/>
		<path style="fill:#51989E;" d="M241.549,232.665c1.4-5.649,2.243-11.118,2.17-15.732l0,0c-4.452-0.86-8.808-1.669-12.933-2.524
			l0.039,2.72c0.051,3.119-0.528,7.183-1.619,11.747C233.422,229.956,237.576,231.193,241.549,232.665z"/>
	</g>
</g>
<g>
</g>
<g>
</g>
<g>
</g>
<g>
</g>
<g>
</g>
<g>
</g>
<g>
</g>
<g>
</g>
<g>
</g>
<g>
</g>
<g>
</g>
<g>
</g>
<g>
</g>
<g>
</g>
<g>
</g>
</svg>
