<?xml version="1.0" encoding="iso-8859-1"?>
<!-- Generator: Adobe Illustrator 18.0.0, SVG Export Plug-In . SVG Version: 6.00 Build 0)  -->
<!DOCTYPE svg PUBLIC "-//W3C//DTD SVG 1.1//EN" "http://www.w3.org/Graphics/SVG/1.1/DTD/svg11.dtd">
<svg version="1.1" id="Capa_1" xmlns="http://www.w3.org/2000/svg" xmlns:xlink="http://www.w3.org/1999/xlink" x="0px" y="0px"
	 viewBox="0 0 172.416 172.416" style="enable-background:new 0 0 172.416 172.416;" xml:space="preserve">
<g>
	<g>
		<g>
			<path style="fill:#FCD0A3;" d="M125.221,94.285c4,0,7.667-3.433,7.667-7.667c0-4.234-3.667-7.667-7.667-7.667V94.285z"/>
			<path style="opacity:0.16;fill:#FCD0A3;" d="M125.221,94.285c4,0,7.667-3.433,7.667-7.667c0-4.234-3.667-7.667-7.667-7.667
				V94.285z"/>
		</g>
		<g>
			<path style="fill:#FCD0A3;" d="M47.221,94.285c-4,0-7.667-3.433-7.667-7.667c0-4.234,3.667-7.667,7.667-7.667V94.285z"/>
			<path style="opacity:0.16;fill:#FCD0A3;" d="M47.221,94.285c-4,0-7.667-3.433-7.667-7.667c0-4.234,3.667-7.667,7.667-7.667
				V94.285z"/>
		</g>
	</g>
	<g>
		<g>
			<ellipse style="fill:#EB5C54;" cx="86.208" cy="55.658" rx="57" ry="40"/>
			<g>
				<path style="fill:#FCD0A3;" d="M86.208,147.242L86.208,147.242c-1.935,0-3.502-1.567-3.502-3.502v-13.963
					c0-1.934,1.567-3.502,3.502-3.502l0,0c1.934,0,3.501,1.568,3.501,3.502v13.963C89.709,145.675,88.141,147.242,86.208,147.242z"
					/>
				<g>
					<path style="fill:#FCD0A3;" d="M86.208,133.68L86.208,133.68c-21.907,0-39.667-17.76-39.667-39.667v-34
						c0-21.907,17.76-39.667,39.667-39.667l0,0c21.907,0,39.666,17.759,39.666,39.667v34
						C125.874,115.92,108.115,133.68,86.208,133.68z"/>
					<path style="opacity:0.16;fill:#FCD0A3;" d="M64.528,123.23c-5.893-7.366-7.638-16.08-7.842-25.324
						c-0.202-9.157-0.265-17.485,0.295-26.664c0.543-8.917,2.317-17.641,6.814-25.005C69.979,36.11,81.12,26.555,91.783,20.756
						c-1.853-0.266-3.745-0.41-5.672-0.41l0,0c-21.907,0-39.667,17.759-39.667,39.667v34c0,18.021,12.022,33.227,28.481,38.057
						C70.981,129.773,67.431,126.858,64.528,123.23z"/>
				</g>
			</g>
			<path style="fill:#FFE176;" d="M125.874,90.075l1.955-29.324c0-23.314-19.079-42.798-42.391-42.398
				C62.796,18.74,44.496,37.28,44.496,60.013l-0.11,3.719c-0.376,12.619-4.254,24.885-11.2,35.427l0,0c0,0,13.75-7.584,18.66-12.046
				c11.391-10.349,28.036-41.051,43.423-41.37L125.874,90.075z"/>
			<path style="fill:#EB5C54;" d="M114.588,20.976C111.143,8.882,99.746,0,86.208,0c-13.539,0-24.936,8.882-28.38,20.976
				C40.834,27.841,29.352,40.67,29.217,55.397c0.37-0.155,0.757-0.295,1.162-0.419c9.793-2.992,18.995-7.601,28.793-10.566
				c9.845-2.979,20.5-3.889,30.759-3.763c17.809,0.219,37.507,4.786,53.242,14.049C142.687,40.266,131.308,27.732,114.588,20.976z"
				/>
			<g>
				<path style="fill:#9BC5BF;" d="M121.558,167.204c-0.284-1.747-0.787-3.439-1.481-5.059c-0.314-0.735-0.666-1.457-1.06-2.161
					c-1.016-1.819-2.283-3.528-3.769-5.097c-0.739-0.781-1.535-1.524-2.378-2.233c-2.633-2.212-5.745-4.051-9.205-5.407
					c-3.217-1.26-6.73-2.102-10.437-2.44c-1.211-0.111-2.439-0.174-3.688-0.174h-6.759c-1.247,0-2.477,0.063-3.687,0.174
					c-3.706,0.339-7.22,1.181-10.436,2.44c-3.461,1.357-6.574,3.195-9.207,5.409c-0.842,0.707-1.637,1.45-2.376,2.23
					c-1.484,1.568-2.753,3.277-3.77,5.097c-0.393,0.704-0.744,1.426-1.059,2.161c-0.695,1.622-1.198,3.314-1.483,5.064
					c-0.118,0.724-0.193,1.459-0.235,2.201c1.158,0.191,2.317,0.377,3.476,0.552c3.972,0.597,7.951,1.094,11.936,1.477
					c0.171,0.017,0.343,0.033,0.515,0.049c17.281,1.652,34.651,1.072,51.877-1.525c1.154-0.174,2.309-0.357,3.462-0.55
					C121.753,168.668,121.678,167.931,121.558,167.204z"/>
				<g>
					<g>
						<path style="fill:#DD3437;" d="M95.74,143.511c0,0,6.921,2.44,10.95-10.903C106.69,132.607,93.329,132.857,95.74,143.511z"/>
						<path style="fill:#DC2A2C;" d="M95.643,143.329c0,0,2.421-6.929,15.355-1.735C110.999,141.594,102.455,151.869,95.643,143.329
							z"/>
					</g>
					<path style="fill:#E94941;" d="M98.048,142.456c-0.324-0.313-0.693-0.503-1.083-0.619c0.626-0.793,0.896-1.711,0.311-2.733
						c-0.795-1.392-2.233-1.52-3.66-1.174c-2.249,0.545-4.311,1.32-6.653,1.393c-2.608,0.081-5.212-0.245-7.821-0.164
						c-1.774,0.055-3.842,0.745-3.305,2.947c0.143,0.584,0.421,1.061,0.776,1.462c0.175,0.197-0.155,2.174-0.111,2.576
						c0.269,2.444,2.097,4.119,4.377,4.805c3.691,1.112,8.024,0.431,11.491-1.101C94.467,148.922,101.099,145.407,98.048,142.456z"
						/>
				</g>
			</g>
		</g>
		<g>
			<g>
				<path style="fill:none;stroke:#6F6F6E;stroke-width:0.1;stroke-linecap:round;stroke-linejoin:round;stroke-miterlimit:10;" d="
					M64.822,109.601c5.626,5.181,13.135,8.348,21.386,8.348s15.76-3.167,21.386-8.348"/>
				<g>
					<path style="fill:#DC2A2C;" d="M81.02,117.494l1.461,1.849c0.616,0.78,1.556,1.234,2.55,1.234h2.471
						c0.995,0,1.932-0.468,2.529-1.265l1.364-1.818H81.02z"/>
					<path style="fill:#E94941;" d="M86.754,115.409l-0.303,0.309c-0.142,0.145-0.374,0.146-0.518,0.003l-0.271-0.271
						c-0.732-0.733-1.923-0.727-2.648,0.013l-1.994,2.032h2.692c0.659,0,1.314,0.104,1.941,0.306l0.303,0.099
						c0.217,0.069,0.45,0.065,0.664-0.012l0.283-0.103c0.531-0.191,1.092-0.29,1.657-0.29h2.834l-2.098-2.097
						C88.595,114.693,87.451,114.698,86.754,115.409z"/>
				</g>
			</g>
			<g>
				
					<ellipse transform="matrix(0.9676 0.2525 -0.2525 0.9676 25.6218 -12.681)" style="opacity:0.25;fill:#F296A4;" cx="62.211" cy="93.471" rx="11.974" ry="7.361"/>
				
					<ellipse transform="matrix(-0.9676 0.2525 -0.2525 -0.9676 240.2643 156.1041)" style="opacity:0.25;fill:#F296A4;" cx="110.114" cy="93.471" rx="11.974" ry="7.361"/>
			</g>
			<g>
				<g>
					<g>
						<g>
							<g>
								<g>
									<path style="fill:#67657B;" d="M107.225,80.744c1.364,0.339,2.783-0.465,3.193-1.81c0.047-0.155-0.194-0.22-0.241-0.066
										c-0.369,1.213-1.655,1.941-2.885,1.635C107.135,80.464,107.069,80.705,107.225,80.744L107.225,80.744z"/>
								</g>
							</g>
							<g>
								<g>
									<path style="fill:#67657B;" d="M107.065,80.371c1.189,0,2.185-0.953,2.246-2.138c0.008-0.161-0.242-0.16-0.25,0
										c-0.054,1.051-0.947,1.887-1.996,1.888C106.904,80.121,106.904,80.371,107.065,80.371L107.065,80.371z"/>
								</g>
							</g>
							<g>
								<g>
									<path style="fill:#67657B;" d="M107.327,81.063c0.911,0.626,2.009,0.792,3.065,0.465c0.153-0.048,0.088-0.289-0.066-0.241
										c-0.998,0.309-2.012,0.152-2.872-0.44C107.32,80.755,107.195,80.972,107.327,81.063L107.327,81.063z"/>
								</g>
							</g>
						</g>
						<g>
							<g>
								<circle style="fill:#67657B;" cx="104.286" cy="82.005" r="3.333"/>
								<circle style="fill:#8E8D9C;" cx="104.286" cy="82.005" r="3.104"/>
								<polygon style="fill:#5F5D73;" points="101.682,80.567 103.025,81.217 101.853,80.294 103.118,81.085 102.053,80.041 
									103.224,80.964 102.277,79.812 103.343,80.855 102.526,79.606 103.473,80.76 102.796,79.431 103.612,80.68 103.083,79.285 
									103.76,80.614 103.385,79.171 103.913,80.565 103.696,79.09 104.07,80.533 104.014,79.043 104.231,80.519 104.337,79.031 
									104.392,80.521 104.658,79.054 104.552,80.542 104.974,79.111 104.709,80.579 105.284,79.202 104.86,80.633 105.581,79.327 
									105.005,80.703 105.863,79.482 105.141,80.788 106.126,79.668 105.268,80.888 106.368,79.88 105.384,81.001 106.586,80.118 
									105.485,81.125 106.776,80.378 105.574,81.26 106.937,80.656 105.646,81.403 107.068,80.951 105.704,81.554 107.166,81.258 
									105.744,81.71 107.229,81.573 105.767,81.869 107.259,81.895 105.773,82.03 107.254,82.216 105.762,82.19 107.213,82.536 
									105.733,82.35 107.139,82.85 105.687,82.504 107.031,83.152 105.626,82.652 106.89,83.442 105.548,82.793 106.72,83.716 
									105.455,82.925 106.52,83.969 105.348,83.046 106.295,84.199 105.23,83.154 106.047,84.403 105.1,83.25 105.777,84.579 
									104.961,83.331 105.49,84.726 104.813,83.396 105.188,84.84 104.66,83.444 104.877,84.921 104.502,83.477 104.558,84.967 
									104.342,83.491 104.236,84.979 104.181,83.488 103.915,84.956 104.021,83.469 103.598,84.898 103.864,83.432 
									103.289,84.808 103.713,83.377 102.992,84.684 103.567,83.308 102.71,84.527 103.431,83.222 102.446,84.343 103.305,83.122 
									102.205,84.13 103.189,83.01 101.987,83.893 103.088,82.885 101.797,83.633 102.999,82.75 101.636,83.354 102.927,82.606 
									101.505,83.06 102.869,82.456 101.407,82.752 102.829,82.3 101.344,82.437 102.806,82.141 101.314,82.116 102.8,81.979 
									101.319,81.794 102.81,81.819 101.359,81.475 102.84,81.661 101.434,81.161 102.886,81.507 101.542,80.857 102.947,81.357 
																	"/>
							</g>
							<g>
								<circle style="opacity:0.35;fill:#1D1A3A;" cx="104.298" cy="82.005" r="1.587"/>
								<path style="fill:#FFFFFF;" d="M105.272,81.292c0.001-0.009,0.006-0.017,0.006-0.025c0-0.271-0.22-0.491-0.49-0.491
									c-0.271,0-0.491,0.22-0.491,0.491c0,0.271,0.22,0.49,0.491,0.49c0.041,0,0.077-0.015,0.115-0.023
									c0.036,0.015,0.075,0.023,0.116,0.023c0.168,0,0.305-0.137,0.305-0.306C105.324,81.392,105.303,81.339,105.272,81.292z"/>
							</g>
						</g>
					</g>
					<g>
						<g>
							<g>
								<g>
									<path style="fill:#67657B;" d="M66.214,80.532c-1.23,0.306-2.515-0.422-2.885-1.634c-0.047-0.154-0.288-0.088-0.241,0.066
										c0.41,1.344,1.829,2.148,3.193,1.809C66.437,80.734,66.37,80.493,66.214,80.532L66.214,80.532z"/>
								</g>
							</g>
							<g>
								<g>
									<path style="fill:#67657B;" d="M66.44,80.15c-1.049,0-1.941-0.837-1.996-1.888c-0.008-0.16-0.258-0.161-0.25,0
										c0.062,1.185,1.057,2.137,2.246,2.138C66.601,80.4,66.601,80.15,66.44,80.15L66.44,80.15z"/>
								</g>
							</g>
							<g>
								<g>
									<path style="fill:#67657B;" d="M66.052,80.876c-0.86,0.591-1.875,0.749-2.872,0.44c-0.154-0.048-0.22,0.194-0.066,0.241
										c1.056,0.327,2.154,0.162,3.065-0.465C66.31,81.002,66.185,80.785,66.052,80.876L66.052,80.876z"/>
								</g>
							</g>
						</g>
						<g>
							<g>
								<circle style="fill:#67657B;" cx="69.114" cy="82.034" r="3.333"/>
								<circle style="fill:#8E8D9C;" cx="69.114" cy="82.034" r="3.104"/>
								<polygon style="fill:#5F5D73;" points="66.51,80.597 67.852,81.246 66.681,80.323 67.945,81.114 66.88,80.07 68.052,80.993 
									67.104,79.841 68.17,80.885 67.353,79.636 68.3,80.789 67.623,79.46 68.439,80.709 67.91,79.314 68.587,80.644 68.212,79.2 
									68.74,80.595 68.523,79.119 68.898,80.563 68.842,79.072 69.058,80.548 69.164,79.061 69.22,80.551 69.485,79.083 
									69.379,80.571 69.802,79.141 69.536,80.608 70.111,79.231 69.687,80.662 70.408,79.356 69.832,80.732 70.69,79.512 
									69.969,80.817 70.954,79.697 70.096,80.917 71.195,79.909 70.211,81.03 71.413,80.147 70.312,81.154 71.603,80.407 
									70.401,81.289 71.764,80.686 70.473,81.433 71.895,80.98 70.531,81.583 71.993,81.287 70.571,81.739 72.056,81.603 
									70.595,81.898 72.086,81.924 70.6,82.06 72.081,82.245 70.59,82.22 72.041,82.565 70.56,82.379 71.966,82.879 
									70.514,82.533 71.858,83.182 70.453,82.682 71.718,83.472 70.375,82.822 71.547,83.745 70.282,82.954 71.348,83.998 
									70.176,83.075 71.123,84.229 70.057,83.184 70.874,84.433 69.928,83.279 70.604,84.608 69.788,83.36 70.317,84.755 
									69.64,83.425 70.015,84.869 69.487,83.474 69.704,84.95 69.33,83.506 69.386,84.996 69.169,83.521 69.063,85.009 
									69.008,83.518 68.742,84.985 68.848,83.498 68.426,84.928 68.691,83.461 68.116,84.837 68.54,83.406 67.819,84.713 
									68.394,83.337 67.537,84.557 68.259,83.251 67.273,84.372 68.132,83.151 67.032,84.159 68.016,83.039 66.814,83.922 
									67.915,82.914 66.624,83.662 67.826,82.779 66.463,83.383 67.754,82.636 66.332,83.089 67.696,82.485 66.234,82.781 
									67.656,82.329 66.171,82.466 67.633,82.17 66.141,82.146 67.627,82.009 66.146,81.823 67.639,81.849 66.187,81.504 
									67.667,81.69 66.262,81.19 67.713,81.536 66.369,80.887 67.774,81.387 								"/>
							</g>
							<g>
								<circle style="opacity:0.35;fill:#1D1A3A;" cx="69.125" cy="82.034" r="1.587"/>
								<path style="fill:#FFFFFF;" d="M70.099,81.321c0.001-0.009,0.006-0.017,0.006-0.025c0-0.271-0.22-0.49-0.49-0.49
									c-0.271,0-0.49,0.219-0.49,0.49c0,0.271,0.219,0.49,0.49,0.49c0.041,0,0.077-0.015,0.115-0.023
									c0.036,0.015,0.075,0.023,0.116,0.023c0.168,0,0.305-0.137,0.305-0.306C70.151,81.421,70.13,81.368,70.099,81.321z"/>
							</g>
						</g>
					</g>
				</g>
				<path style="fill:#3D5561;" d="M122.055,72.118H91.45c-0.553,0-1,0.447-1,1v4.257c-3.882-1.518-6.898-0.792-8.575-0.06v-4.197
					c0-0.553-0.447-1-1-1H50.27c-0.553,0-1,0.447-1,1v6.597c0,6.747,5.489,12.236,12.236,12.236h6.597
					c7.113,0,12.982-5.42,13.697-12.346c0.747-0.479,4.006-2.224,8.721-0.02c0.707,6.936,6.581,12.365,13.699,12.365h6.598
					c6.747,0,12.236-5.489,12.236-12.236v-6.597C123.055,72.565,122.607,72.118,122.055,72.118z M79.875,78.181
					c0,6.49-5.28,11.771-11.771,11.771h-6.597c-5.644,0-10.236-4.592-10.236-10.236v-5.597h28.604V78.181z M121.055,79.715
					c0,5.645-4.592,10.236-10.236,10.236h-6.598c-6.49,0-11.771-5.28-11.771-11.771v-4.063h28.605V79.715z"/>
			</g>
		</g>
	</g>
</g>
<g>
</g>
<g>
</g>
<g>
</g>
<g>
</g>
<g>
</g>
<g>
</g>
<g>
</g>
<g>
</g>
<g>
</g>
<g>
</g>
<g>
</g>
<g>
</g>
<g>
</g>
<g>
</g>
<g>
</g>
</svg>
