<?xml version="1.0" encoding="iso-8859-1"?>
<!-- Generator: Adobe Illustrator 19.0.0, SVG Export Plug-In . SVG Version: 6.00 Build 0)  -->
<svg version="1.1" id="Layer_1" xmlns="http://www.w3.org/2000/svg" xmlns:xlink="http://www.w3.org/1999/xlink" x="0px" y="0px"
	 viewBox="0 0 318.543 318.543" style="enable-background:new 0 0 318.543 318.543;" xml:space="preserve">
<g>
	<g>
		<path style="fill:#393C3D;" d="M82.778,120.197c0,0-36.152-120.197,75.164-120.197s77.66,120.197,77.66,120.197H82.778z"/>
		<path style="fill:#2F3233;" d="M87.499,147.429c0,0-24.905,26.13-8.566,67.161c8.566,21.504-1.22,27.743-1.22,27.743
			s21.651,4.075,19.194-20.448c-0.731-7.296,0.017-9.072,7.071-16.974c7.054-7.903,14.046-15.53,10.55-33.802L87.499,147.429z"/>
		<path style="fill:#E8C59E;" d="M295.389,253.096c-10.522-37.754-63.361-33.566-86.164-44.408
			c-22.803-10.842-19.245-47.219-22.134-53.548h-55.638c-2.889,6.329,0.674,42.711-22.134,53.548
			c-22.803,10.842-75.642,6.655-86.164,44.408c-5.806,20.824-5.525,27.187-7.133,50.26c0,0,72.5,15.187,141.611,15.187
			s144.888-15.187,144.888-15.187C300.919,280.283,301.195,273.921,295.389,253.096z"/>
		<path style="fill:#DDB58E;" d="M179.761,217.001c22.803,10.842,75.642,6.655,86.164,44.408c5.531,19.83,5.542,26.552,6.913,47.073
			c18.155-2.816,29.682-5.126,29.682-5.126c-1.602-23.067-1.326-29.435-7.133-50.26c-10.522-37.754-63.361-33.566-86.164-44.408
			c-22.803-10.842-19.245-47.219-22.134-53.548h-29.458C157.633,155.14,156.953,206.164,179.761,217.001z"/>
		<path style="fill:#9E6F4C;" d="M61.661,311.056c26.675,3.76,61.737,7.487,95.972,7.487c35.326,0,72.388-3.968,100.187-7.846
			c13.383-11.792,33.156-14.361,44.201-14.81c-1.124-17.283-1.506-24.405-6.632-42.79c-9.724-34.887-55.582-33.96-80.482-42.171
			c3.058,17.874-48.877,95.14-55.363,95.14c-6.486,0-58.359-77.829-55.335-95.331c-24.764,8.42-71.253,7.211-81.049,42.363
			c-5.12,18.374-5.508,25.495-6.632,42.767C27.566,296.257,48.065,298.758,61.661,311.056z"/>
		<path style="fill:#8E633F;" d="M295.389,253.096c-9.724-34.887-55.582-33.96-80.482-42.171c0.545,3.181-0.658,8.251-3.035,14.434
			c22.662,4.744,47.236,11.601,54.053,36.056c4.89,17.536,5.463,24.821,6.481,40.452c10.747-4.407,22.168-5.677,29.615-5.98
			C300.897,278.597,300.515,271.476,295.389,253.096z"/>
		<g>
			<path style="fill:#EAE5DC;" d="M64.808,311.646c26.4,3.552,59.978,6.896,92.802,6.896c33.555,0,68.656-3.496,96.107-7.133
				v-35.326c0,0-54.323,8.526-96.242,8.526s-92.667-8.526-92.667-8.526S64.809,311.646,64.808,311.646z"/>
			<path style="fill:#EAE5DC;" d="M64.808,276.085c0,0,0-29.795-8.97-55.363l20.234-4.929c0,0,13.799,34.078,10.303,81.246
				L64.808,276.085z"/>
			<path style="fill:#EAE5DC;" d="M253.717,276.085c0,0,0-29.795,8.971-55.363l-20.234-4.929c0,0-13.799,34.078-10.303,81.246
				L253.717,276.085z"/>
			<path style="fill:#E0DBD3;" d="M242.454,215.798c0,0-2.467,6.098-5.053,16.71c7.341,2.956,14.023,6.863,19.239,12.36
				c1.326-7.768,3.249-16.159,6.053-24.141L242.454,215.798z"/>
			<path style="fill:#515151;" d="M86.184,279.187l-20.431,1.074c-2.585,0.135-4.8-1.956-4.929-4.665l-0.438-9.122
				c-0.129-2.709,1.872-5.025,4.457-5.16l20.431-1.074c2.585-0.135,4.8,1.956,4.929,4.665l0.438,9.122
				C90.77,276.737,88.769,279.052,86.184,279.187z M64.977,264.225c-1.057,0.056-1.872,1-1.821,2.108l0.438,9.122
				c0.051,1.107,0.956,1.962,2.012,1.905l20.431-1.074c1.057-0.056,1.872-1,1.821-2.108l-0.438-9.122
				c-0.051-1.107-0.956-1.962-2.012-1.905L64.977,264.225z"/>
			<path style="fill:#515151;" d="M227.93,274.027l0.438-9.122c0.129-2.709,2.344-4.8,4.929-4.665l20.431,1.074
				c2.585,0.135,4.586,2.451,4.457,5.16l-0.438,9.122c-0.129,2.709-2.344,4.8-4.929,4.665l-20.431-1.074
				C229.802,279.052,227.801,276.737,227.93,274.027z M233.163,263.152c-1.057-0.056-1.962,0.798-2.012,1.905l-0.438,9.122
				c-0.051,1.107,0.764,2.052,1.821,2.108l20.431,1.074c1.057,0.056,1.962-0.798,2.012-1.905l0.438-9.122
				c0.051-1.107-0.764-2.052-1.821-2.108L233.163,263.152z"/>
		</g>
		<path style="fill:#CCA281;" d="M123.971,192.736c9.229,7.959,20.054,15.85,35.241,18.132
			c15.237-2.288,26.023-10.342,35.269-18.334c-7.689-14.973-5.311-32.83-7.391-37.4h-55.638
			C129.367,159.71,131.694,177.758,123.971,192.736z"/>
		<g>
			
				<ellipse transform="matrix(-0.177 0.9842 -0.9842 -0.177 380.1026 -81.5687)" style="fill:#DDB58E;" cx="224.155" cy="118.137" rx="21.386" ry="11.629"/>
			
				<ellipse transform="matrix(-0.9842 0.177 -0.177 -0.9842 207.8558 217.7436)" style="fill:#E8C59E;" cx="94.216" cy="118.143" rx="11.629" ry="21.386"/>
			<path style="fill:#E8C59E;" d="M159.735,56.161c0,0-65.874-7.487-66.683,11.927c-0.793,19.02,0.124,21.712-0.028,26.181
				c-1.551,44.156,7.464,104.645,66.171,113.48c62.979-9.476,68.808-77.969,65.727-122.456
				C223.389,63.142,159.735,56.161,159.735,56.161z"/>
			<path style="fill:#DDB58E;" d="M159.195,207.749c94.331-14.192,60.45-160.806,60.45-160.806h-14.141
				c3.873,61.242,9.229,93.774-13.006,129.24C174.883,204.287,159.195,207.749,159.195,207.749z"/>
			<path style="fill:#DDB58E;" d="M109.605,92.83c26.833,6.621,64.896,8.555,98.085,3.327c0,0,1.962-0.332,4.412-1.062v-35
				l-89.694,1.63L109.605,92.83z"/>
			<path style="fill:#393C3D;" d="M239.677,68.184l-8.24-22.87H85.863l-8.24,22.87c-8.021,99.794,34.595,123.153,34.595,123.153
				c-23.016-60.096-2.597-110.681-2.597-110.681c-0.371,6.239-0.017,12.174-0.017,12.174c32.184,5.396,64.896,5.227,98.085,0
				c0,0,0.36-5.935-0.017-12.174c0,0,20.42,50.586-2.597,110.681C205.077,191.337,247.692,167.978,239.677,68.184z"/>
		</g>
	</g>
</g>
<g>
</g>
<g>
</g>
<g>
</g>
<g>
</g>
<g>
</g>
<g>
</g>
<g>
</g>
<g>
</g>
<g>
</g>
<g>
</g>
<g>
</g>
<g>
</g>
<g>
</g>
<g>
</g>
<g>
</g>
</svg>
