<?xml version="1.0" encoding="iso-8859-1"?>
<!-- Generator: Adobe Illustrator 19.0.0, SVG Export Plug-In . SVG Version: 6.00 Build 0)  -->
<svg version="1.1" id="Layer_1" xmlns="http://www.w3.org/2000/svg" xmlns:xlink="http://www.w3.org/1999/xlink" x="0px" y="0px"
	 viewBox="0 0 318.55 318.55" style="enable-background:new 0 0 318.55 318.55;" xml:space="preserve">
<g>
	<g>
		<path style="fill:#EAEAE1;" d="M109.021,207.329v109.298c15.76,1.169,32.223,1.922,48.517,1.922
			c17.064,0,34.511-0.826,51.238-2.091l0.174-109.467L109.021,207.329L109.021,207.329z"/>
		<path style="fill:#EAEAE1;" d="M303.466,253.103c-11.151-37.754-67.121-33.566-91.279-44.408
			c-24.157-10.842-20.386-47.219-23.449-53.548h-58.932c-3.058,6.329,0.714,42.711-23.449,53.548
			c-24.157,10.842-80.133,6.655-91.279,44.408c-6.149,20.824-5.857,27.193-7.554,50.26c0,0,76.8,15.187,150.014,15.187
			s153.488-15.187,153.488-15.187C309.323,280.29,309.615,273.927,303.466,253.103z"/>
		<path style="fill:#6D6D6D;" d="M303.466,253.103c-11.151-37.754-67.121-33.566-91.279-44.408c-1.141-0.511-2.22-1.079-3.237-1.703
			l0,0c0,0-37.731,52.114-49.045,52.114s-50.878-51.777-50.878-51.777h-0.017c-0.849,0.489-1.726,0.944-2.653,1.36
			c-24.157,10.842-80.133,6.655-91.279,44.408c-6.149,20.824-5.857,27.193-7.554,50.26c0,0,76.8,15.187,150.014,15.187
			s153.488-15.187,153.488-15.187C309.323,280.29,309.615,273.927,303.466,253.103z"/>
		<path style="fill:#606060;" d="M303.466,253.103c-11.151-37.754-67.121-33.566-91.279-44.408c-1.141-0.511-2.22-1.079-3.237-1.703
			l0,0c0,0-4.721,6.52-11.326,14.951c27.119,5.829,65.598,8.881,74.631,39.474c5.857,19.83,5.868,26.552,7.324,47.073
			c19.234-2.816,31.442-5.126,31.442-5.126C309.323,280.29,309.615,273.927,303.466,253.103z"/>
		<path style="fill:#C6C5AF;" d="M208.95,206.991l-43.498-1.315l20.24,30.902c4.227-4.952,8.352-10.072,11.933-14.636
			L208.95,206.991z"/>
		<path style="fill:#606060;" d="M200.199,222.482c-0.871-0.18-1.726-0.36-2.574-0.54c-3.575,4.564-7.7,9.684-11.933,14.636
			l3.513,5.362L200.199,222.482z"/>
		<path style="fill:#C6C5AF;" d="M152.974,205.676l-43.948,1.652c0,0,11.174,14.625,23.342,28.328L152.974,205.676z"/>
		<path style="fill:#606060;" d="M132.375,235.657c-12.169-13.703-23.342-28.328-23.342-28.328l0,0l19.026,34.612L132.375,235.657z"
			/>
		<path style="fill:#515151;" d="M200.199,222.482l8.751-15.49c0,0-4.721,6.52-11.326,14.951
			C198.468,222.128,199.328,222.302,200.199,222.482z"/>
		<path style="fill:#EAEAE1;" d="M152.974,205.676l-32.105-14.557c0,0-3.389,4.817-11.843,16.21l19.251,29.092L152.974,205.676z"/>
		<path style="fill:#EAEAE1;" d="M165.452,205.676l31.183-14.557c0,0,3.861,4.48,12.315,15.873l-19.723,29.43L165.452,205.676z"/>
		<path style="fill:#E0DBD3;" d="M208.95,206.991c-8.453-11.393-12.315-15.873-12.315-15.873l-28.575,13.338
			c3.221,5.548,7.425,10.089,12.916,12.551c4.851,2.175,10.988,3.749,17.789,5.177L208.95,206.991z"/>
		<path style="fill:#393C3D;" d="M81.064,107.388c0,0-16.733-56.229,5.154-60.315c0,0,5.109-47.073,71.725-47.073
			c58.32,0,73.624,27.766,75.755,49.478c0,0,20.622,0,4.204,59.489l-37.956,46.05h-87.552L81.064,107.388z"/>
		
			<ellipse transform="matrix(-0.177 0.9842 -0.9842 -0.177 385.0027 -85.6566)" style="fill:#DDB58E;" cx="228.314" cy="118.142" rx="21.386" ry="11.629"/>
		
			<ellipse transform="matrix(-0.9842 0.177 -0.177 -0.9842 199.6052 218.4941)" style="fill:#E8C59E;" cx="90.057" cy="118.15" rx="11.629" ry="21.386"/>
		<path style="fill:#E8C59E;" d="M223.434,46.95l-63.653,9.218c0,0-22.556,0.922-40.957,9.729
			c-16.89,8.088-29.75,23.91-29.919,28.378c-1.647,44.156,7.931,104.645,70.303,113.48C259.429,193.564,223.434,46.95,223.434,46.95
			z"/>
		<path style="fill:#DDB58E;" d="M159.213,207.756C259.429,193.564,223.434,46.95,223.434,46.95h-15.023
			c4.114,61.242,9.808,93.774-13.815,129.24C175.878,204.293,159.213,207.756,159.213,207.756z"/>
		<path style="fill:#DDB58E;" d="M221.051,40.419c0,0-34.741,15.721-86.597,14.883c-45.712-0.736-45.117,36.146-45.516,38.636
			c0,0,6.25-15.743,35.972-20.836c27.007-4.626,42.211,2.63,59.23,11.904c17.025,9.274,26.102,6.672,33.538,3.968
			C222.985,87.053,231.275,48.957,221.051,40.419z"/>
		<path style="fill:#393C3D;" d="M221.051,36.265c0,0-34.752,16.328-86.597,14.883c-55.408-1.54-45.802,41.654-45.516,42.795
			c0,0,6.25-19.903,35.972-24.995c27.007-4.626,42.211,2.63,59.23,11.904c17.025,9.274,26.102,6.672,33.538,3.968
			c5.3-1.928,16.631-9.566,20.476-26.608C238.16,58.214,231.275,44.803,221.051,36.265z"/>
		<path style="fill:#515151;" d="M181.64,201.584c0-1.461-4.294-1.321-9.01-2.878c-4.109-1.36-8.29-4.525-13.54-4.525
			c-4.957,0-8.83,2.962-12.832,4.266c-5.092,1.664-9.718,1.86-9.718,3.136c0,4.733,4.626,9.038,9.712,12.236
			c0,0-1.265-2.614-0.377-3.946c0,0,2.687,4.907,5.216,6.632c3.513,2.394,7.104,2.951,7.998,2.951c0.978,0,3.873-0.798,8.088-3.03
			c2.715-1.439,5.233-6.57,5.233-6.57c1.04,1.456-0.601,3.895-0.601,3.895C176.868,210.482,181.64,206.098,181.64,201.584z"/>
		<path style="fill:#393C3D;" d="M174.558,204.631c-0.568,2.58-2.153,5.227-2.153,5.227c0.348,0.483,0.393,1.079,0.304,1.658
			C174.805,208.475,174.558,204.631,174.558,204.631z"/>
		<path style="fill:#393C3D;" d="M143.729,204.631c0,0-0.247,3.85,1.855,6.896v-0.006c-0.062-0.596-0.011-1.192,0.292-1.647
			C145.876,209.875,144.296,207.205,143.729,204.631z"/>
		<path style="fill:#3A3A38;" d="M228.976,99.739h-1.922c-10.91-7.751-21.746-8.2-27.67-8.453c-5.924-0.247-24.112,2.001-30.986,2.4
			c-6.874,0.399-7.667,0.298-9.409,0.298s-2.541,0.101-9.409-0.298c-6.874-0.399-25.062-2.653-30.986-2.4
			c-5.924,0.247-16.761,0.703-27.67,8.453h-1.923c-0.703,0-1.27,0.54-1.27,1.203v9.504c0,0.663,0.568,1.203,1.27,1.203
			c0,0,1.54,0.073,1.922,0.298c0.371,0.219,1.057,0.433,1.804,4.26c0.804,4.103,3.254,24.006,26.552,24.18
			c23.303,0.169,29.312-14.389,31.818-20.397c2.299-5.514,2.585-11.011,2.49-12.416c-0.073-1.051-1.102-2.333-0.63-4.086
			c0.472-1.754,4.62-2.153,6.025-2.153s5.553,0.399,6.025,2.153s-0.556,3.035-0.63,4.086c-0.096,1.405,0.185,6.902,2.49,12.416
			c2.507,6.003,8.515,20.566,31.818,20.397c23.303-0.169,25.748-20.077,26.552-24.18c0.748-3.828,1.433-4.041,1.804-4.26
			c0.382-0.225,1.922-0.298,1.922-0.298c0.703,0,1.27-0.54,1.27-1.203v-9.504C230.241,100.278,229.673,99.739,228.976,99.739z
			 M139.12,131.018c-4.912,3.985-12.365,6.256-19.908,6.228c-21.566-0.067-22.151-17.283-22.325-23.045
			c-0.54-17.829,13.934-19.745,21.252-19.655c7.667,0.096,27.024,0.365,30.391,10.533
			C150.715,111.694,148.259,123.61,139.12,131.018z M221.079,114.201c-0.174,5.761-0.759,22.977-22.325,23.045
			c-7.543,0.022-14.996-2.248-19.908-6.228c-9.139-7.408-11.595-19.324-9.403-25.939c3.367-10.168,22.724-10.443,30.391-10.533
			C207.152,94.455,221.625,96.378,221.079,114.201z"/>
	</g>
</g>
<g>
</g>
<g>
</g>
<g>
</g>
<g>
</g>
<g>
</g>
<g>
</g>
<g>
</g>
<g>
</g>
<g>
</g>
<g>
</g>
<g>
</g>
<g>
</g>
<g>
</g>
<g>
</g>
<g>
</g>
</svg>
