<?xml version="1.0" encoding="iso-8859-1"?>
<!-- Generator: Adobe Illustrator 19.0.0, SVG Export Plug-In . SVG Version: 6.00 Build 0)  -->
<svg version="1.1" id="Layer_1" xmlns="http://www.w3.org/2000/svg" xmlns:xlink="http://www.w3.org/1999/xlink" x="0px" y="0px"
	 viewBox="0 0 318.55 318.55" style="enable-background:new 0 0 318.55 318.55;" xml:space="preserve">
<g>
	<g>
		<path style="fill:#9E6F4C;" d="M303.466,253.103c-11.151-37.754-67.121-33.566-91.279-44.408
			c-24.157-10.842-20.386-47.219-23.449-53.548h-58.932c-3.058,6.329,0.714,42.711-23.449,53.548
			c-24.157,10.842-80.133,6.655-91.279,44.408c-6.149,20.824-5.857,27.193-7.554,50.26c0,0,76.8,15.187,150.014,15.187
			s153.488-15.187,153.488-15.187C309.323,280.29,309.615,273.927,303.466,253.103z"/>
		<path style="fill:#916243;" d="M180.976,217.007c24.157,10.842,80.133,6.655,91.279,44.408c5.857,19.83,5.868,26.552,7.324,47.073
			c19.234-2.816,31.442-5.126,31.442-5.126c-1.697-23.067-1.405-29.435-7.554-50.26c-11.151-37.754-67.121-33.566-91.279-44.408
			c-24.157-10.842-20.386-47.219-23.449-53.548h-31.206C157.538,155.147,156.819,206.171,180.976,217.007z"/>
		<path style="fill:#7F5732;" d="M303.466,253.103c-11.151-37.754-67.121-33.566-91.279-44.408c-1.141-0.511-2.22-1.079-3.237-1.703
			l0,0c0,0,0.674,22.623-10.381,44.903c-10.724,21.617-33.094,42.908-38.664,42.908c-5.637,0-28.682-21.718-39.957-43.509
			c-11.354-21.943-10.921-43.964-10.921-43.964h-0.017c-0.849,0.489-1.726,0.944-2.653,1.36
			c-24.157,10.842-80.133,6.655-91.279,44.408c-6.149,20.824-5.857,27.193-7.554,50.26c0,0,76.8,15.187,150.014,15.187
			s153.488-15.187,153.488-15.187C309.323,280.29,309.615,273.927,303.466,253.103z"/>
		<path style="fill:#4C3626;" d="M60.414,311.653c27.631,3.552,62.771,6.897,97.124,6.897c35.112,0,71.854-3.496,100.581-7.133
			v-22.853c0,0-56.852,8.526-100.721,8.526s-96.978-8.526-96.978-8.526v23.089H60.414z"/>
		<path style="fill:#754D2D;" d="M207.461,223.909c25.821,4.941,56.808,10.466,64.794,37.512
			c5.857,19.829,5.868,26.552,7.324,47.073c19.234-2.816,31.442-5.126,31.442-5.126c-1.697-23.067-1.405-29.435-7.554-50.26
			c-11.151-37.754-67.121-33.566-91.279-44.408c-1.141-0.511-2.22-1.079-3.237-1.703l0,0
			C208.95,206.991,209.153,213.933,207.461,223.909z"/>
		<polygon style="fill:#87573D;" points="109.027,207.329 109.027,207.329 128.053,241.946 159.213,205.676 		"/>
		<polygon style="fill:#87573D;" points="159.213,205.676 185.692,236.578 189.205,241.946 208.95,206.991 		"/>
		<path style="fill:#9E6F4C;" d="M159.213,205.676l-38.344-14.557c0,0-3.389,4.817-11.843,16.21l19.251,29.092L159.213,205.676z"/>
		<path style="fill:#9E6F4C;" d="M159.213,205.676l37.422-14.557c0,0,3.861,4.48,12.315,15.873l-19.723,29.43L159.213,205.676z"/>
		<path style="fill:#916243;" d="M208.95,206.991c-8.453-11.393-12.315-15.873-12.315-15.873l-28.575,13.338
			c3.221,5.548,7.425,10.089,12.916,12.551c4.851,2.175,10.988,3.749,17.789,5.177L208.95,206.991z"/>
		<circle style="fill:#515151;" cx="159.32" cy="228.102" r="7.031"/>
		<circle style="fill:#515151;" cx="159.32" cy="253.052" r="7.031"/>
		<circle style="fill:#515151;" cx="159.32" cy="278.002" r="7.031"/>
		<path style="fill:#393C3D;" d="M81.064,107.388c0,0-16.733-56.229,5.154-60.315c0,0,5.109-47.073,71.725-47.073
			c58.319,0,73.624,27.766,75.755,49.478c0,0,20.622,0,4.204,59.489l-37.956,46.05h-87.552L81.064,107.388z"/>
		
			<ellipse transform="matrix(-0.177 0.9842 -0.9842 -0.177 385.0027 -85.6566)" style="fill:#DDB58E;" cx="228.314" cy="118.142" rx="21.386" ry="11.629"/>
		
			<ellipse transform="matrix(-0.9842 0.177 -0.177 -0.9842 199.6052 218.4941)" style="fill:#E8C59E;" cx="90.057" cy="118.15" rx="11.629" ry="21.386"/>
		<path style="fill:#E8C59E;" d="M223.434,46.95l-63.653,9.218l-65.396-8.33c0,0-5.48,31.83-5.48,46.438
			c0,44.184,7.931,104.645,70.303,113.48C259.429,193.564,223.434,46.95,223.434,46.95z"/>
		<path style="fill:#DDB58E;" d="M159.213,207.756C259.429,193.564,223.434,46.95,223.434,46.95h-15.023
			c4.114,61.242,9.808,93.774-13.815,129.24C175.878,204.293,159.213,207.756,159.213,207.756z"/>
		<path style="fill:#DDB58E;" d="M156.757,85.946c0,0,13.54-2.125,13.023-18.615c0,0,34.589-7.841,44.926-4.688v-9.915h-56.47
			C158.235,52.728,162.052,76.048,156.757,85.946z"/>
		<path style="fill:#DDB58E;" d="M145.184,75.463c0,0,2.406,3.867,5.514,4.058c3.108,0.197,6.464-2.765,4.575-6.256
			c-1.512-2.793-6.964-6.008-22.769-8.442c-17.885-2.754-24.118-3.193-36.742-2.333V52.306h66.363v24.186
			c0,0-6.559,11.786-13.602,6.52C145.673,80.876,145.207,78.094,145.184,75.463z"/>
		<path style="fill:#393C3D;" d="M229.724,38.991H88.742v58.005c0,0,3.119-28.283,10.179-35.342
			c7.059-7.059,60.292,6.239,60.292,6.239s52.328-14.203,60.292-6.239c7.964,7.964,10.224,35.342,10.224,35.342V38.991H229.724z"/>
		<path style="fill:#393C3D;" d="M166.722,64.661h-21.571c0,0,11.466,2.293,12.157,8.588c0.77,7.026-2.973,8.066-6.452,8.049
			c-1.815-0.011-4.676-1.709-5.671-5.84c-0.714,1.349-0.478,4.519,0.141,5.941c1.141,2.619,3.091,4.862,8.296,4.862
			C169.522,86.261,166.722,64.661,166.722,64.661z"/>
		<path style="fill:#3A3A38;" d="M198.653,96.563c-16.378-0.056-31.532,5.238-39.665,5.238s-23.286-5.3-39.665-5.238
			c-14.546,0.051-28.232,2.394-32.678,3.603c-0.719,0.197-1.225,0.849-1.225,1.596v6.953c0,0.652,0.382,1.242,0.978,1.506
			c0.63,0.275,1.416,0.719,1.933,1.355c0.972,1.197,2.737,13.467,8.161,17.75c3.507,2.765,13.467,5.25,22.145,5.081
			c8.673-0.169,18.863-0.59,24.483-4.851c7.762-5.879,8.819-16.744,10.713-19.554c1.518-2.248,3.873-2.602,5.154-2.602
			s3.637,0.348,5.154,2.602c1.894,2.81,2.951,13.675,10.713,19.554c5.626,4.26,15.811,4.682,24.483,4.851
			c8.672,0.169,18.638-2.31,22.145-5.081c5.424-4.283,7.189-16.553,8.161-17.75c0.517-0.635,1.304-1.079,1.934-1.355
			c0.596-0.264,0.978-0.854,0.978-1.506v-6.953c0-0.748-0.5-1.4-1.225-1.596C226.886,98.958,213.194,96.614,198.653,96.563z
			 M146.826,117.056c-1.332,4.778-4.024,8.566-7.29,10.477c-3.311,1.939-14.569,3.103-19.824,3.108
			c-6.913,0.006-18.323-1.883-20.892-4.165s-3.367-6.391-3.94-9.875c-0.573-3.479-1.669-9.426,1.265-12.157
			c3.648-3.389,19.335-4.525,23.505-4.333c8.673,0.399,25.343,2.338,27.85,6.391C149.096,109.058,147.938,113.065,146.826,117.056z
			 M223.08,116.595c-0.573,3.479-1.371,7.593-3.94,9.875c-2.569,2.282-13.973,4.171-20.892,4.165c-5.25,0-16.513-1.163-19.824-3.108
			c-3.266-1.911-5.958-5.699-7.29-10.477c-1.113-3.991-2.271-7.998-0.686-10.561c2.512-4.052,19.178-5.992,27.85-6.391
			c4.165-0.191,19.852,0.944,23.505,4.333C224.75,107.169,223.648,113.116,223.08,116.595z"/>
	</g>
</g>
<g>
</g>
<g>
</g>
<g>
</g>
<g>
</g>
<g>
</g>
<g>
</g>
<g>
</g>
<g>
</g>
<g>
</g>
<g>
</g>
<g>
</g>
<g>
</g>
<g>
</g>
<g>
</g>
<g>
</g>
</svg>
