<?xml version="1.0" encoding="iso-8859-1"?>
<!-- Generator: Adobe Illustrator 19.0.0, SVG Export Plug-In . SVG Version: 6.00 Build 0)  -->
<svg version="1.1" id="Layer_1" xmlns="http://www.w3.org/2000/svg" xmlns:xlink="http://www.w3.org/1999/xlink" x="0px" y="0px"
	 viewBox="0 0 319.049 319.049" style="enable-background:new 0 0 319.049 319.049;" xml:space="preserve">
<g>
	<g>
		<path style="fill:#E8C59E;" d="M295.642,253.602c-10.522-37.754-63.361-33.566-86.164-44.408
			c-22.803-10.842-19.245-47.219-22.134-53.548h-55.638c-2.889,6.329,0.674,42.711-22.134,53.548
			c-22.803,10.842-75.642,6.655-86.164,44.408c-5.806,20.824-5.525,27.187-7.133,50.26c0,0,72.5,15.187,141.611,15.187
			s144.888-15.187,144.888-15.187C301.173,280.789,301.448,274.426,295.642,253.602z"/>
		<path style="fill:#DDB58E;" d="M180.015,217.506c22.803,10.842,75.642,6.655,86.164,44.408c5.531,19.83,5.542,26.552,6.913,47.073
			c18.155-2.816,29.682-5.126,29.682-5.126c-1.602-23.067-1.326-29.435-7.133-50.26c-10.522-37.754-63.361-33.566-86.164-44.408
			c-22.803-10.842-19.245-47.219-22.134-53.548h-29.458C157.887,155.646,157.207,206.67,180.015,217.506z"/>
		<path style="fill:#E0605C;" d="M61.915,311.561c26.675,3.76,61.737,7.487,95.972,7.487c35.326,0,72.388-3.968,100.187-7.846
			c13.383-11.792,33.156-14.361,44.201-14.81c-1.124-17.283-1.506-24.405-6.632-42.79c-9.724-34.887-55.582-33.96-80.482-42.171
			c3.058,17.874-48.877,37.366-55.363,37.366c-6.486,0-58.359-20.054-55.335-37.557c-24.764,8.42-71.253,7.211-81.049,42.363
			c-5.12,18.374-5.508,25.495-6.632,42.767C27.82,296.762,48.318,299.264,61.915,311.561z"/>
		<g>
			<circle style="fill:#F9F5ED;" cx="55.569" cy="243.327" r="10.393"/>
			<circle style="fill:#F9F5ED;" cx="97.145" cy="243.327" r="10.393"/>
			<path style="fill:#F9F5ED;" d="M138.726,253.725c4.924,0,9.044-3.423,10.117-8.021c-5.43-2.001-12.135-4.867-18.677-8.279
				c-1.158,1.675-1.838,3.71-1.838,5.902C128.333,249.072,132.987,253.725,138.726,253.725z"/>
			<path style="fill:#F9F5ED;" d="M180.307,253.725c5.739,0,10.393-4.654,10.393-10.393c0-2.023-0.579-3.912-1.579-5.508
				c-6.649,3.389-13.439,6.211-18.874,8.144C171.415,250.426,175.479,253.725,180.307,253.725z"/>
			<circle style="fill:#F9F5ED;" cx="221.889" cy="243.327" r="10.393"/>
			<circle style="fill:#F9F5ED;" cx="263.47" cy="243.327" r="10.393"/>
			<path style="fill:#F9F5ED;" d="M24.38,284.909c0-4.097-2.372-7.638-5.812-9.33c-0.809,5.812-1.192,11.528-1.697,19.318
				C21.21,293.643,24.38,289.647,24.38,284.909z"/>
			<circle style="fill:#F9F5ED;" cx="55.569" cy="284.909" r="10.393"/>
			<circle style="fill:#F9F5ED;" cx="97.145" cy="284.909" r="10.393"/>
			<circle style="fill:#F9F5ED;" cx="138.726" cy="284.909" r="10.393"/>
			<circle style="fill:#F9F5ED;" cx="180.307" cy="284.909" r="10.393"/>
			<circle style="fill:#F9F5ED;" cx="221.889" cy="284.909" r="10.393"/>
			<circle style="fill:#F9F5ED;" cx="263.47" cy="284.909" r="10.393"/>
			<path style="fill:#F9F5ED;" d="M294.653,284.909c0,4.744,3.181,8.746,7.526,9.988c-0.506-7.796-0.888-13.512-1.697-19.329
				C297.031,277.259,294.653,280.805,294.653,284.909z"/>
			<path style="fill:#F9F5ED;" d="M132.195,318.407c4.525,0.219,9.077,0.382,13.636,0.495c-1.86-1.737-4.356-2.805-7.099-2.805
				C136.253,316.092,133.977,316.963,132.195,318.407z"/>
			<path style="fill:#F9F5ED;" d="M173.304,318.812c4.457-0.135,8.914-0.32,13.355-0.551c-1.754-1.355-3.957-2.164-6.346-2.164
				C177.609,316.092,175.148,317.126,173.304,318.812z"/>
		</g>
		<path style="opacity:0.25;fill:#B53C39;enable-background:new    ;" d="M295.642,253.602
			c-9.724-34.887-55.582-33.96-80.482-42.171c0.545,3.181-0.658,8.251-3.035,14.434c22.662,4.744,47.236,11.601,54.053,36.056
			c4.89,17.536,5.463,24.821,6.481,40.452c10.747-4.407,22.168-5.677,29.615-5.98C301.151,279.102,300.768,271.981,295.642,253.602z
			"/>
		<path style="fill:#F9F5ED;" d="M225.739,257.879c15.603-11.899,20.774-29.03,22.488-38.883
			c-11.966-2.777-23.927-4.558-33.072-7.571c3.058,17.874-48.877,37.366-55.363,37.366
			C169.623,284.802,201.205,276.59,225.739,257.879z"/>
		<path style="fill:#EAE5DC;" d="M208.405,225.094c11.725,2.383,24.264,5.115,34.808,10.415c2.788-6.216,4.249-12.096,5.019-16.508
			c-11.966-2.777-23.927-4.558-33.072-7.571C215.942,215.994,213.132,220.665,208.405,225.094z"/>
		<path style="fill:#F9F5ED;" d="M71.34,218.878c1.692,9.83,6.846,27.058,22.511,39.001c24.54,18.711,56.116,26.923,65.947-9.089
			c-6.486,0-58.359-20.054-55.335-37.557C95.38,214.325,83.385,216.118,71.34,218.878z"/>
		<path style="fill:#CCA281;" d="M124.225,193.242c9.229,7.959,20.054,15.85,35.241,18.132
			c15.237-2.288,26.023-10.342,35.269-18.334c-7.689-14.973-5.311-32.83-7.391-37.4h-55.638
			C129.621,160.215,131.948,178.263,124.225,193.242z"/>
		<g>
			
				<ellipse transform="matrix(-0.177 0.9842 -0.9842 -0.177 380.8999 -81.2246)" style="fill:#DDB58E;" cx="224.41" cy="118.642" rx="21.386" ry="11.629"/>
			
				<ellipse transform="matrix(-0.9842 0.177 -0.177 -0.9842 208.448 218.7022)" style="fill:#E8C59E;" cx="94.469" cy="118.648" rx="11.629" ry="21.386"/>
			<path style="fill:#E8C59E;" d="M159.989,27.895c-40.092,0-65.874,21.28-66.683,40.699c-0.793,19.02,0.124,21.712-0.028,26.181
				c-1.551,44.156,7.464,104.645,66.171,113.48c62.979-9.476,68.808-77.969,65.727-122.456c-0.573-8.274-0.843-11.297-0.809-21.471
				C224.412,49.978,200.081,27.895,159.989,27.895z"/>
			<path style="fill:#DDB58E;" d="M159.449,208.255c94.331-14.192,60.45-160.806,60.45-160.806h-14.141
				c3.873,61.242,9.229,93.774-13.006,129.24C175.136,204.792,159.449,208.255,159.449,208.255z"/>
			<path style="fill:#DDB58E;" d="M205.656,26.04h-92.813v67.599h2.602c3.367-26.479,4.519-61.422,44.004-47.106l0,0
				c39.485-14.321,40.637,20.628,44.004,47.106h2.209V26.04H205.656z"/>
			<path style="fill:#393C3D;" d="M248.497,100.198c-7.869-40.468-23.567-83.826-57.268-95.539
				c-15.429-5.362-25.973-5.075-31.785-4.081c-5.812-1-16.356-1.282-31.785,4.081c-33.701,11.713-49.4,55.071-57.268,95.539
				s-32.594,126.003,78.127,109.029c0,0-26.563-1.321-34.887-23.534c-6.407-17.104-1.27-68.195,2.226-95.298
				c3.423-26.535,3.856-62.012,43.588-47.601l0,0c39.732-14.406,40.165,21.066,43.588,47.601
				c3.496,27.103,8.633,78.194,2.226,95.298c-8.324,22.213-34.887,23.534-34.887,23.534
				C281.091,226.201,256.365,140.667,248.497,100.198z"/>
		</g>
	</g>
</g>
<g>
</g>
<g>
</g>
<g>
</g>
<g>
</g>
<g>
</g>
<g>
</g>
<g>
</g>
<g>
</g>
<g>
</g>
<g>
</g>
<g>
</g>
<g>
</g>
<g>
</g>
<g>
</g>
<g>
</g>
</svg>
