<?xml version="1.0" encoding="iso-8859-1"?>
<!-- Generator: Adobe Illustrator 19.0.0, SVG Export Plug-In . SVG Version: 6.00 Build 0)  -->
<svg version="1.1" id="Layer_1" xmlns="http://www.w3.org/2000/svg" xmlns:xlink="http://www.w3.org/1999/xlink" x="0px" y="0px"
	 viewBox="0 0 318.543 318.543" style="enable-background:new 0 0 318.543 318.543;" xml:space="preserve">
<g>
	<g>
		<path style="fill:#76C4BB;" d="M303.462,253.096c-11.151-37.754-67.121-33.566-91.279-44.408
			c-24.157-10.842-20.386-47.219-23.449-53.548h-58.932c-3.058,6.329,0.714,42.711-23.449,53.548
			c-24.157,10.842-80.133,6.655-91.279,44.408c-6.149,20.824-5.857,27.193-7.554,50.26c0,0,76.8,15.187,150.014,15.187
			s153.488-15.187,153.488-15.187C309.318,280.283,309.611,273.921,303.462,253.096z"/>
		<g>
			<path style="fill:#39788E;" d="M68.711,282.323l-12.933,25.872l1.523,3.046c6.733,0.888,13.95,1.765,21.527,2.597l2.822-5.643
				L68.711,282.323z"/>
			<path style="fill:#39788E;" d="M94.583,282.323L81.65,308.195l3.136,6.273c6.065,0.624,12.332,1.208,18.734,1.726l4.002-7.998
				L94.583,282.323z"/>
			<path style="fill:#39788E;" d="M120.454,282.323l-12.933,25.872l4.317,8.628c5.514,0.388,11.106,0.725,16.744,0.995l4.811-9.622
				L120.454,282.323z"/>
			<path style="fill:#39788E;" d="M146.326,282.323l-12.933,25.872l5.014,10.022c5.222,0.174,10.466,0.281,15.693,0.315
				l5.171-10.336L146.326,282.323z"/>
			<path style="fill:#39788E;" d="M172.198,282.323l-12.933,25.872l5.154,10.303c5.244-0.067,10.511-0.202,15.771-0.405l4.952-9.904
				L172.198,282.323z"/>
			<path style="fill:#39788E;" d="M198.069,282.323l-12.933,25.872l4.733,9.465c5.694-0.292,11.354-0.652,16.935-1.062l4.204-8.403
				L198.069,282.323z"/>
			<path style="fill:#39788E;" d="M223.941,282.323l-12.933,25.872l3.884,7.773c6.481-0.534,12.832-1.135,18.981-1.765l3.001-6.003
				L223.941,282.323z"/>
			<path style="fill:#39788E;" d="M249.807,282.323l-12.933,25.872l2.698,5.401c7.655-0.832,14.956-1.714,21.769-2.597l1.4-2.805
				L249.807,282.323z"/>
		</g>
		<path style="fill:#56BEB7;" d="M180.972,217.001c24.157,10.842,80.133,6.655,91.279,44.408c5.857,19.83,5.868,26.552,7.324,47.073
			c19.234-2.816,31.442-5.126,31.442-5.126c-1.697-23.067-1.405-29.435-7.554-50.26c-11.151-37.754-67.121-33.566-91.279-44.408
			c-24.157-10.842-20.386-47.219-23.449-53.548H157.53C157.534,155.14,156.814,206.164,180.972,217.001z"/>
		<path style="fill:#E8C59E;" d="M201.667,200.684c-12.5-14.951-10.421-40.356-12.927-45.549h-58.938
			c-2.512,5.193-0.427,30.599-12.927,45.549c5.963,14.029,37.99,51.575,42.396,51.575
			C163.671,252.259,195.209,215.854,201.667,200.684z"/>
		<path style="fill:#DDB58E;" d="M180.972,217.001c2.501,1.124,5.345,2.085,8.448,2.951c5.514-7.341,10.173-14.4,12.247-19.267
			c-12.5-14.951-10.421-40.356-12.927-45.549h-31.206C157.534,155.14,156.814,206.164,180.972,217.001z"/>
		<path style="fill:#C69E7F;" d="M121.871,192.736c9.78,7.959,21.24,15.85,37.338,18.132c16.137-2.288,27.569-10.342,37.36-18.334
			c-8.144-14.973-5.626-32.83-7.83-37.4h-58.938C127.587,159.71,130.054,177.758,121.871,192.736z"/>
		
			<ellipse transform="matrix(-0.177 0.9842 -0.9842 -0.177 384.9915 -85.6598)" style="fill:#DDB58E;" cx="228.31" cy="118.135" rx="21.386" ry="11.629"/>
		
			<ellipse transform="matrix(-0.9842 0.177 -0.177 -0.9842 199.5964 218.4798)" style="fill:#E8C59E;" cx="90.053" cy="118.142" rx="11.629" ry="21.386"/>
		<path style="fill:#E8C59E;" d="M223.43,46.943l-63.653,9.218l-65.396-8.33c0,0-5.48,31.83-5.48,46.438
			c0,44.184,7.931,104.645,70.303,113.48C259.424,193.557,223.43,46.943,223.43,46.943z"/>
		<path style="fill:#DDB58E;" d="M209.378,60.658H79.458c-0.225,1.057-0.427,2.085-0.607,3.086v23.354
			c0.264-0.169,0.399-0.275,0.399-0.275c-0.135,0.219-0.27,0.438-0.399,0.658v22.904c0.821-0.719,1.411-1.034,1.411-1.034
			c0.843,4.367-0.017,8.476-1.411,11.893l1.467,5.283c24.247-14.608,32.881-50.625,32.881-50.625
			c21.853,2.299,42.475,21.089,42.475,21.089c-0.371-10.01-1.99-14.484-1.99-14.484c12.877,11.033,22.556,23.82,22.556,23.82
			c-2.226-17.677-3.271-21.448-3.271-21.448c19.048,31.133,30.509,54.891,36.416,68.296V60.658H209.378z"/>
		<path style="fill:#DDB58E;" d="M159.209,207.749C259.426,193.557,223.43,46.943,223.43,46.943h-15.024
			c4.114,61.242,9.808,93.774-13.815,129.24C175.874,204.287,159.209,207.749,159.209,207.749z"/>
		<path style="fill:#4C3626;" d="M111.945,72.157c0,0-10.499,46.842-39.086,58.398c0,0,8.38-13.439,6.155-24.95
			c0,0-5.042,2.72-6.155,10.145c0,0-4.12-17.8,5.143-32.673c0,0-6.256,4.828-15.906,1.113c0,0,11.758-2.777,15.378-23.494
			C81.324,38.664,94.819,0,159.203,0c31.655,0,44.875,8.324,54.323,15.951c9.774,7.886,19.29,22.887,33.448,11.438
			c0,0,0.393,15.726-13.54,15.845c0,0,4.244,6.413,4.721,15.502c0.792,15.058,10.876,22.033,20.324,19.515
			c0,0-5.21,13.624-21.162,8.645c0,0,0.703,15.665,16.333,40.452c0,0-10.269,1.473-18.795-8.403c0,0,2.091,12.528,9.145,17.845
			c0,0-22.645-3.592-32.673-27.356c0,0,7.532,32.06,1.855,52.3c0,0-12.056-47.106-48.911-90.913c0,0,7.83,12.281,10.055,29.958
			c0,0-12.944-17.508-25.838-26.085c0,0,4.575,7.914,4.946,17.924C153.453,92.628,133.798,74.456,111.945,72.157z"/>
	</g>
</g>
<g>
</g>
<g>
</g>
<g>
</g>
<g>
</g>
<g>
</g>
<g>
</g>
<g>
</g>
<g>
</g>
<g>
</g>
<g>
</g>
<g>
</g>
<g>
</g>
<g>
</g>
<g>
</g>
<g>
</g>
</svg>
