<?xml version="1.0" encoding="iso-8859-1"?>
<!-- Generator: Adobe Illustrator 19.0.0, SVG Export Plug-In . SVG Version: 6.00 Build 0)  -->
<svg version="1.1" id="Layer_1" xmlns="http://www.w3.org/2000/svg" xmlns:xlink="http://www.w3.org/1999/xlink" x="0px" y="0px"
	 viewBox="0 0 318.543 318.543" style="enable-background:new 0 0 318.543 318.543;" xml:space="preserve">
<g>
	<g>
		<path style="fill:#2F3233;" d="M243.465,195.007c0,0-5.89-10.033-7.841-24.933c1.355-9.898,3.833-20.965,7.841-33.28
			c7.301-22.432,7.627-48.219,4.845-66.127c-1.371-14.951-5.317-28.356-12.096-37.793c-5.188-7.228-16.699-21.24-42.396-28.412
			c-9.19-2.709-20.605-4.367-34.64-4.457C158.768,0,158.358,0,157.948,0C91.332,0,67.461,38.068,64.752,76.294
			c-3.979,56.161,13.883,74.726,17.025,102.942c0.112,0.995,0.202,1.99,0.27,2.973c-1.917,4.952-4.755,9.999-8.785,15.164
			c0,0,2.406,1.225,8.212,2.827c-2.67,20.757-11.208,36.635-11.208,36.635l178.943,1.827c0,0-12.045-12.09-14.49-39.845
			C240.998,196.682,243.465,195.007,243.465,195.007z"/>
		<path style="fill:#E8C59E;" d="M295.389,253.096c-10.522-37.754-63.361-33.566-86.164-44.408
			c-22.803-10.842-19.245-47.219-22.134-53.548h-55.638c-2.889,6.329,0.674,42.711-22.134,53.548
			c-22.803,10.842-75.642,6.655-86.164,44.408c-5.806,20.824-5.525,27.187-7.133,50.26c0,0,72.5,15.187,141.611,15.187
			s144.888-15.187,144.888-15.187C300.919,280.283,301.195,273.921,295.389,253.096z"/>
		<path style="fill:#EAE5DC;" d="M255.988,296.729c-0.304-14.175,1.652-56.875-6.115-77.784c-7.903-1.911-15.873-3.333-23.095-4.912
			c-7.824,10.179-15.541,30.368-27.687,48.815c-15.018,22.808-38.012,42.784-39.822,42.784c-3.738,0-16.586-12.186-37.883-19.054
			c-25.293-8.156-58.398-9.892-58.831,10.156c-0.09,4.215-0.32,9.836-0.618,14.366c26.642,3.743,61.579,7.442,95.697,7.442
			c34.803,0,71.303-3.85,98.957-7.678l0,0C256.303,306.374,256.078,300.871,255.988,296.729z"/>
		<path style="fill:#DDB58E;" d="M179.761,217.001c22.803,10.842,75.642,6.655,86.164,44.408c5.531,19.83,5.542,26.552,6.913,47.073
			c18.155-2.816,29.682-5.126,29.682-5.126c-1.602-23.067-1.326-29.435-7.133-50.26c-10.522-37.754-63.361-33.566-86.164-44.408
			c-22.803-10.842-19.245-47.219-22.134-53.548h-29.458C157.633,155.14,156.953,206.164,179.761,217.001z"/>
		<path style="fill:#E0DBD3;" d="M226.778,214.033c-2.574,3.35-5.137,7.779-7.846,12.877c13.203,3.086,26.361,7.419,35.691,15.974
			c-0.899-9.06-2.366-17.525-4.749-23.938C241.965,217.034,233.995,215.612,226.778,214.033z"/>
		<path style="fill:#CCA281;" d="M123.971,192.736c9.229,7.959,20.054,15.85,35.241,18.132
			c15.237-2.288,26.023-10.342,35.269-18.334c-7.689-14.973-5.311-32.83-7.391-37.4h-55.638
			C129.367,159.71,131.694,177.758,123.971,192.736z"/>
		<g>
			
				<ellipse transform="matrix(-0.177 0.9842 -0.9842 -0.177 380.1026 -81.5687)" style="fill:#DDB58E;" cx="224.155" cy="118.137" rx="21.386" ry="11.629"/>
			
				<ellipse transform="matrix(-0.9842 0.177 -0.177 -0.9842 207.8558 217.7436)" style="fill:#E8C59E;" cx="94.216" cy="118.143" rx="11.629" ry="21.386"/>
			<path style="fill:#E8C59E;" d="M208.539,55.296c0,0-12.472,7.279-41.255,7.442c-18.644,0.107-33.724-1.664-51.046,7.149
				c-15.901,8.088-23.056,19.914-23.213,24.382c-1.551,44.156,7.464,104.645,66.171,113.48
				c57.617-8.667,67.402-66.745,66.29-110.636C224.777,69.15,208.539,55.296,208.539,55.296z"/>
			<path style="fill:#DDB58E;" d="M225.485,97.119c-0.708-27.963-16.952-41.823-16.952-41.823s-0.781,0.455-2.406,1.141
				c3.738,55.2,7.43,86.164-13.63,119.747c-17.621,28.103-33.308,31.565-33.308,31.565l0,0
				C216.812,199.082,226.598,141.004,225.485,97.119z"/>
			<path style="fill:#DDB58E;" d="M211.793,58.719c-1.922-2.282-3.254-3.423-3.254-3.423s-12.472,7.279-41.255,7.442
				c-18.644,0.107-33.724-1.664-51.046,7.149c-15.901,8.088-23.056,19.914-23.213,24.382c0,0,11.151-20.937,35.994-25.416
				C152.097,64.688,187.658,72.039,211.793,58.719z"/>
			<path style="fill:#EAE5DC;" d="M225.541,143.348h-0.034c-0.894,0-1.624-0.725-1.624-1.624v-4.929
				c0-0.894,0.725-1.624,1.624-1.624h0.034c0.894,0,1.624,0.725,1.624,1.624v4.929C227.166,142.623,226.441,143.348,225.541,143.348
				z"/>
			<path style="fill:#EAE5DC;" d="M93.108,143.348h-0.034c-0.894,0-1.624-0.725-1.624-1.624v-4.929c0-0.894,0.725-1.624,1.624-1.624
				h0.034c0.894,0,1.624,0.725,1.624,1.624v4.929C94.733,142.623,94.008,143.348,93.108,143.348z"/>
		</g>
		<g>
			<path style="fill:#EAE5DC;" d="M245.804,208.48c3.592,1.518,3.985,4.142,2.271,6.424c-1.765,2.349-6.183,2.855-6.183,2.855
				s-2.743-3.53-2.271-6.424C240.082,208.519,242.218,206.962,245.804,208.48z"/>
			<path style="fill:#EAE5DC;" d="M236.215,206.305c-3.895-0.18-5.385,2.018-4.817,4.817c0.579,2.883,4.345,5.244,4.345,5.244
				s3.996-2.001,4.817-4.817C241.358,208.811,240.104,206.485,236.215,206.305z"/>
			<path style="fill:#EAE5DC;" d="M246.248,233.137c-3.681,1.281-6.447-2.462-7.577-7.813c-1.158-5.508,1.09-10.825,1.09-10.825
				s5.087,2.76,7.577,7.813C249.755,227.219,249.929,231.862,246.248,233.137z"/>
			<path style="fill:#EAE5DC;" d="M225.586,228.456c2.765,2.743,6.88,0.562,10.201-3.777c3.423-4.474,3.687-10.235,3.687-10.235
				s-5.778,0.298-10.201,3.777C224.974,221.598,222.815,225.713,225.586,228.456z"/>
			<path style="fill:#EAE5DC;" d="M265.554,221.121c-0.86,3.8-7.06,3.816-14.097,1.506c-7.251-2.378-12.067-7.442-12.067-7.442
				s6.537-2.512,14.096-1.506C260.827,214.657,266.414,217.321,265.554,221.121z"/>
			<path style="fill:#EAE5DC;" d="M213.226,209.255c-0.86,3.8,4.721,6.486,12.067,7.442c7.565,0.984,14.096-1.506,14.096-1.506
				s-4.817-5.087-12.067-7.442C220.28,205.462,214.092,205.456,213.226,209.255z"/>
			
				<ellipse transform="matrix(-0.2212 0.9752 -0.9752 -0.2212 502.2251 29.3586)" style="fill:#FFBC36;" cx="239.39" cy="215.212" rx="3.417" ry="9.279"/>
		</g>
	</g>
</g>
<g>
</g>
<g>
</g>
<g>
</g>
<g>
</g>
<g>
</g>
<g>
</g>
<g>
</g>
<g>
</g>
<g>
</g>
<g>
</g>
<g>
</g>
<g>
</g>
<g>
</g>
<g>
</g>
<g>
</g>
</svg>
