<?xml version="1.0" encoding="iso-8859-1"?>
<!-- Generator: Adobe Illustrator 18.0.0, SVG Export Plug-In . SVG Version: 6.00 Build 0)  -->
<!DOCTYPE svg PUBLIC "-//W3C//DTD SVG 1.1//EN" "http://www.w3.org/Graphics/SVG/1.1/DTD/svg11.dtd">
<svg version="1.1" id="Capa_1" xmlns="http://www.w3.org/2000/svg" xmlns:xlink="http://www.w3.org/1999/xlink" x="0px" y="0px"
	 viewBox="0 0 159.221 159.221" style="enable-background:new 0 0 159.221 159.221;" xml:space="preserve">
<g>
	<g>
		<path style="fill:#FCD0A3;" d="M40.61,84.755c-4,0-7.667-3.433-7.667-7.667s3.667-7.667,7.667-7.667V84.755z"/>
		<path style="fill:#FCD0A3;" d="M118.61,84.755c4,0,7.667-3.433,7.667-7.667s-3.667-7.667-7.667-7.667V84.755z"/>
	</g>
	<g>
		<g>
			<g>
				<rect x="76.649" y="113.23" style="fill:#FCD0A3;" width="7.003" height="20.966"/>
				<path style="fill:#FCD0A3;" d="M80.15,120.634L80.15,120.634c-21.907,0-39.667-17.76-39.667-39.667v-34
					C40.483,25.059,58.242,7.3,80.15,7.3l0,0c21.907,0,39.667,17.76,39.667,39.667v34
					C119.817,102.874,102.057,120.634,80.15,120.634z"/>
				<path style="opacity:0.16;fill:#FCD0A3;" d="M58.567,110.184c-5.892-7.366-7.637-16.079-7.841-25.324
					c-0.202-9.157-0.265-17.485,0.295-26.664c0.543-8.917,2.318-17.641,6.814-25.005C64.018,23.064,75.159,13.509,85.821,7.71
					C83.969,7.445,82.076,7.3,80.15,7.3l0,0c-21.907,0-39.667,17.76-39.667,39.667v34c0,18.021,12.022,33.227,28.481,38.057
					C65.02,116.727,61.469,113.813,58.567,110.184z"/>
			</g>
			<path style="fill:#AE3024;" d="M109.363,17.613c-1.896-1.908-3.97-3.635-6.192-5.15c-0.302-0.205-0.578-0.432-0.842-0.668
				c-0.117-1.572,0.506-3.202,0.108-4.939c-0.169-0.737-1.161-0.963-1.671-0.441c-0.313,0.319-0.642,0.6-0.979,0.861
				c-0.288-1.582-0.106-3.266,0.597-4.842c0.176-0.394,0.342-0.796,0.498-1.206c0.342-0.895-0.764-1.466-1.469-1.13
				C95.362,2.031,91.2,3.54,86.908,4.655c-1.99,0.518-4.048,0.69-6.103,0.651c-0.458-0.008-0.918-0.009-1.38,0
				c-22.643,0.387-40.942,18.927-40.942,41.66v7.995c-0.022,0.056-0.064,0.089-0.066,0.17c-0.059,2.428-1.128,4.667-3.329,5.694
				c-1.267,0.591-0.367,2.146,0.658,1.872c0.628-0.168,1.235-0.38,1.825-0.623c-0.473,0.986-1.051,1.927-1.768,2.805
				c-0.73,0.896,0.158,2.043,1.212,1.57c0.439-0.197,0.887-0.39,1.339-0.579c3.172-1.336,6.546-2.083,9.968-2.445
				c24.858-2.632,53.898-27.283,53.898-27.283c2.546-1.08,5.493-0.021,6.771,2.43l10.824,24.59l1.271-9.827
				C122.779,40.267,118.649,26.962,109.363,17.613z"/>
		</g>
		<g>
			<g>
				<path style="fill:#9BC5BF;" d="M115.546,154.01c-0.285-1.747-0.788-3.438-1.481-5.059c-0.315-0.736-0.667-1.457-1.06-2.161
					c-1.016-1.82-2.284-3.528-3.769-5.097c-0.739-0.781-1.535-1.525-2.378-2.233c-2.632-2.212-5.744-4.051-9.205-5.407
					c-3.216-1.26-6.731-2.102-10.436-2.44c-1.211-0.111-2.44-0.174-3.688-0.174H76.77c-1.248,0-2.477,0.063-3.688,0.174
					c-3.706,0.339-7.22,1.181-10.436,2.44c-3.461,1.356-6.574,3.195-9.207,5.409c-0.842,0.707-1.637,1.45-2.375,2.23
					c-1.485,1.568-2.754,3.277-3.77,5.097c-0.393,0.704-0.744,1.426-1.059,2.161c-0.695,1.622-1.198,3.314-1.483,5.064
					c-0.118,0.725-0.193,1.46-0.236,2.201c1.159,0.191,2.317,0.378,3.477,0.553c3.972,0.597,7.951,1.094,11.935,1.477
					c0.172,0.017,0.343,0.033,0.515,0.049c17.282,1.652,34.651,1.072,51.877-1.525c1.155-0.174,2.309-0.357,3.462-0.55
					C115.74,155.473,115.664,154.736,115.546,154.01z"/>
				<g>
					<path style="fill:#233842;" d="M76.463,131.473c-1.142,0.009-2.269,0.064-3.38,0.166c-3.706,0.339-7.22,1.181-10.436,2.44
						c-3.461,1.356-6.574,3.195-9.207,5.409c-0.841,0.707-1.636,1.45-2.375,2.23c-1.485,1.569-2.754,3.277-3.77,5.097
						c-0.393,0.704-0.744,1.426-1.059,2.161c-0.695,1.622-1.198,3.315-1.483,5.064c-0.118,0.725-0.193,1.459-0.235,2.201
						c1.158,0.191,2.317,0.378,3.477,0.552c3.972,0.597,7.951,1.094,11.935,1.477c0.172,0.017,0.343,0.033,0.515,0.049
						c5.333,0.51,10.676,0.782,16.019,0.873V131.473z"/>
					<path style="fill:#233842;" d="M115.546,154.037c-0.285-1.747-0.787-3.438-1.481-5.059c-0.315-0.735-0.667-1.457-1.06-2.161
						c-1.016-1.819-2.284-3.527-3.769-5.097c-0.739-0.781-1.535-1.524-2.377-2.233c-2.633-2.212-5.745-4.051-9.206-5.407
						c-3.216-1.26-6.731-2.102-10.436-2.44c-1.151-0.105-2.319-0.163-3.504-0.169v27.721c9.554-0.168,19.103-0.963,28.608-2.396
						c1.154-0.174,2.308-0.357,3.461-0.55C115.74,155.501,115.664,154.763,115.546,154.037z"/>
					<polygon style="fill:#3D5561;" points="76.648,127.316 76.648,159.221 71.44,139.542 72.129,137.316 67.963,131.466 					"/>
					<polygon style="fill:#3D5561;" points="83.651,127.316 83.651,159.221 88.859,139.542 88.17,137.316 92.336,131.466 					"/>
				</g>
			</g>
			<g>
				<path style="fill:#DC2A2C;" d="M85.057,129.686l-4.907,2.492l-4.907-2.492c-1.163-0.59-2.539,0.255-2.539,1.559v4.187
					c0,1.226,1.294,2.02,2.388,1.465l5.058-2.568l5.059,2.568c1.093,0.556,2.388-0.239,2.388-1.465v-4.187
					C87.596,129.941,86.219,129.096,85.057,129.686z"/>
				<path style="fill:#E94941;" d="M87.408,133.496c0.296-3.096-2.352-3.049-4.471-2.051c-0.803,0.378-1.593,0.853-2.459,1.082
					c-0.858,0.229-1.712,0.281-2.578,0.078c-1.244-0.292-2.952-1.966-4.288-0.884c-0.626,0.507-0.816,1.747-0.909,2.515v1.195
					c0,1.226,1.294,2.02,2.388,1.465l5.058-2.568l5.059,2.568c1.093,0.556,2.388-0.239,2.388-1.465v-1.071
					C87.45,134.138,87.374,133.85,87.408,133.496z"/>
				<path style="fill:#DC2A2C;" d="M81.036,136.167h-1.773c-0.784,0-1.42-0.636-1.42-1.42v-2.987c0-0.784,0.636-1.42,1.42-1.42
					h1.773c0.784,0,1.42,0.636,1.42,1.42v2.987C82.456,135.531,81.82,136.167,81.036,136.167z"/>
			</g>
		</g>
	</g>
	<g>
		<g>
			<path style="fill:#FFFFFF;" d="M64.159,101.261h33.815c0,0-1.599,10.761-17.725,10.723
				C65.622,111.949,64.159,101.261,64.159,101.261z"/>
			<path style="fill:#F7B6AF;" d="M78.182,106.205c-1.985,0.202-6.78,1.843-8.728,2.883c2.39,1.636,5.824,2.885,10.796,2.896
				c5.963,0.014,9.915-1.454,12.558-3.303C92.36,108.312,87.591,105.25,78.182,106.205z"/>
		</g>
		<g>
			<g>
				<path style="opacity:0.29;fill:#FCD0A3;" d="M104.854,74.761c-0.809-0.133-1.455-0.211-1.7-0.237
					c-4.793-0.515-10.716-0.877-14.585,2.559c-1.22,1.084-0.764,2.568,0.83,2.924c0.613,0.138,1.251,0.078,1.876,0.019
					c5.536-0.529,11.038-1.12,16.593-1.533c1.44-0.106,3.082-0.898,1.851-2.285C108.79,75.161,106.138,74.971,104.854,74.761z"/>
				<path style="opacity:0.29;fill:#FCD0A3;" d="M54.46,74.761c0.809-0.133,1.455-0.211,1.7-0.237
					c4.793-0.515,10.717-0.877,14.586,2.559c1.22,1.084,0.764,2.568-0.83,2.924c-0.613,0.138-1.251,0.078-1.876,0.019
					c-5.536-0.529-11.039-1.12-16.593-1.533c-1.44-0.106-3.082-0.898-1.851-2.285C50.524,75.161,53.176,74.971,54.46,74.761z"/>
			</g>
			<g>
				<g>
					<g>
						<g>
							<circle style="fill:#67657B;" cx="97.975" cy="68.973" r="3.333"/>
							<circle style="fill:#8E8D9C;" cx="97.975" cy="68.973" r="3.104"/>
							<polygon style="fill:#5F5D73;" points="95.371,67.536 96.714,68.185 95.541,67.263 96.806,68.053 95.74,67.01 96.912,67.932 
								95.966,66.78 97.031,67.824 96.215,66.576 97.161,67.728 96.484,66.399 97.301,67.648 96.772,66.254 97.448,67.583 
								97.073,66.139 97.602,67.534 97.385,66.058 97.759,67.502 97.703,66.011 97.919,67.487 98.025,66 98.08,67.49 98.347,66.022 
								98.24,67.511 98.663,66.08 98.397,67.548 98.972,66.172 98.549,67.601 99.27,66.296 98.693,67.672 99.551,66.451 
								98.83,67.757 99.815,66.636 98.957,67.856 100.057,66.849 99.071,67.97 100.275,67.087 99.174,68.094 100.465,67.346 
								99.262,68.228 100.626,67.625 99.335,68.372 100.757,67.92 99.392,68.522 100.854,68.226 99.433,68.678 100.918,68.542 
								99.456,68.838 100.947,68.863 99.462,68.999 100.942,69.185 99.45,69.159 100.901,69.505 99.422,69.318 100.827,69.818 
								99.376,69.472 100.719,70.121 99.314,69.621 100.579,70.411 99.236,69.761 100.408,70.684 99.144,69.893 100.209,70.937 
								99.037,70.014 99.983,71.168 98.918,70.123 99.734,71.372 98.788,70.219 99.465,71.548 98.65,70.3 99.178,71.694 
								98.502,70.364 98.877,71.808 98.349,70.413 98.566,71.889 98.191,70.445 98.246,71.935 98.03,70.46 97.925,71.948 
								97.869,70.457 97.604,71.925 97.709,70.437 97.286,71.867 97.553,70.4 96.978,71.776 97.401,70.345 96.681,71.652 
								97.256,70.276 96.399,71.496 97.119,70.19 96.135,71.311 96.993,70.091 95.893,71.098 96.878,69.978 95.676,70.861 
								96.775,69.853 95.485,70.601 96.688,69.719 95.323,70.322 96.614,69.575 95.193,70.028 96.558,69.425 95.096,69.72 
								96.518,69.268 95.032,69.405 96.494,69.109 95.002,69.085 96.487,68.949 95.008,68.762 96.499,68.788 95.048,68.443 
								96.528,68.63 95.122,68.13 96.573,68.475 95.231,67.826 96.636,68.326 							"/>
						</g>
						<g>
							<circle style="opacity:0.35;fill:#1D1A3A;" cx="97.985" cy="68.973" r="1.587"/>
							<path style="fill:#FFFFFF;" d="M98.961,68.261c0.001-0.009,0.005-0.017,0.005-0.025c0-0.271-0.219-0.491-0.49-0.491
								c-0.271,0-0.49,0.22-0.49,0.491c0,0.271,0.22,0.49,0.49,0.49c0.041,0,0.078-0.015,0.116-0.023
								c0.036,0.015,0.074,0.023,0.115,0.023c0.169,0,0.306-0.137,0.306-0.306C99.013,68.36,98.991,68.307,98.961,68.261z"/>
						</g>
					</g>
					<g>
						<g>
							<circle style="fill:#67657B;" cx="63.635" cy="68.973" r="3.333"/>
							<circle style="fill:#8E8D9C;" cx="63.635" cy="68.973" r="3.104"/>
							<polygon style="fill:#5F5D73;" points="61.031,67.536 62.374,68.185 61.201,67.263 62.466,68.053 61.4,67.01 62.572,67.932 
								61.626,66.78 62.691,67.824 61.875,66.576 62.821,67.728 62.145,66.399 62.961,67.648 62.432,66.254 63.108,67.583 
								62.733,66.139 63.261,67.534 63.045,66.058 63.419,67.502 63.363,66.011 63.58,67.487 63.685,66 63.74,67.49 64.006,66.022 
								63.9,67.511 64.323,66.08 64.057,67.548 64.632,66.172 64.209,67.601 64.929,66.296 64.354,67.672 65.211,66.451 
								64.49,67.757 65.475,66.636 64.617,67.856 65.717,66.849 64.732,67.97 65.934,67.087 64.834,68.094 66.125,67.346 
								64.922,68.228 66.286,67.625 64.995,68.372 66.416,67.92 65.052,68.522 66.514,68.226 65.092,68.678 66.578,68.542 
								65.116,68.838 66.608,68.863 65.122,68.999 66.602,69.185 65.11,69.159 66.562,69.505 65.082,69.318 66.487,69.818 
								65.036,69.472 66.379,70.121 64.974,69.621 66.239,70.411 64.896,69.761 66.068,70.684 64.803,69.893 65.869,70.937 
								64.697,70.014 65.644,71.168 64.578,70.123 65.395,71.372 64.449,70.219 65.125,71.548 64.309,70.3 64.838,71.694 
								64.162,70.364 64.537,71.808 64.008,70.413 64.225,71.889 63.851,70.445 63.906,71.935 63.69,70.46 63.585,71.948 
								63.529,70.457 63.263,71.925 63.369,70.437 62.946,71.867 63.213,70.4 62.638,71.776 63.061,70.345 62.34,71.652 
								62.916,70.276 62.059,71.496 62.779,70.19 61.795,71.311 62.653,70.091 61.553,71.098 62.538,69.978 61.336,70.861 
								62.436,69.853 61.145,70.601 62.348,69.719 60.983,70.322 62.275,69.575 60.853,70.028 62.218,69.425 60.755,69.72 
								62.177,69.268 60.692,69.405 62.154,69.109 60.662,69.085 62.148,68.949 60.668,68.762 62.159,68.788 60.708,68.443 
								62.188,68.63 60.782,68.13 62.233,68.475 60.891,67.826 62.296,68.326 							"/>
						</g>
						<g>
							<circle style="opacity:0.35;fill:#1D1A3A;" cx="63.646" cy="68.973" r="1.587"/>
							<path style="fill:#FFFFFF;" d="M64.621,68.261c0.001-0.009,0.005-0.017,0.005-0.025c0-0.271-0.219-0.491-0.49-0.491
								c-0.271,0-0.49,0.22-0.49,0.491c0,0.271,0.22,0.49,0.49,0.49c0.041,0,0.078-0.015,0.116-0.023
								c0.036,0.015,0.075,0.023,0.116,0.023c0.169,0,0.305-0.137,0.305-0.306C64.672,68.36,64.651,68.307,64.621,68.261z"/>
						</g>
					</g>
				</g>
				<g>
					<path style="fill:#3D5561;" d="M106.762,61.098H89.188c-3.219,0-5.838,2.62-5.838,5.838v1.065h-5.572v-1.065
						c0-3.218-2.619-5.838-5.838-5.838H54.365c-3.219,0-5.838,2.62-5.838,5.838v4.074c0,3.22,2.619,5.838,5.838,5.838H71.94
						c3.219,0,5.838-2.618,5.838-5.838v-1.065h5.572v1.065c0,3.22,2.619,5.838,5.838,5.838h17.574c3.219,0,5.838-2.618,5.838-5.838
						v-4.074C112.6,63.719,109.981,61.098,106.762,61.098z M75.777,71.011c0,2.116-1.722,3.838-3.838,3.838H54.365
						c-2.116,0-3.838-1.722-3.838-3.838v-4.074c0-2.116,1.722-3.838,3.838-3.838H71.94c2.116,0,3.838,1.722,3.838,3.838V71.011z
						 M110.6,71.011c0,2.116-1.722,3.838-3.838,3.838H89.188c-2.116,0-3.838-1.722-3.838-3.838v-4.074
						c0-2.116,1.722-3.838,3.838-3.838h17.574c2.116,0,3.838,1.722,3.838,3.838V71.011z"/>
				</g>
			</g>
		</g>
	</g>
</g>
<g>
</g>
<g>
</g>
<g>
</g>
<g>
</g>
<g>
</g>
<g>
</g>
<g>
</g>
<g>
</g>
<g>
</g>
<g>
</g>
<g>
</g>
<g>
</g>
<g>
</g>
<g>
</g>
<g>
</g>
</svg>
