<?xml version="1.0" encoding="iso-8859-1"?>
<!-- Generator: Adobe Illustrator 18.0.0, SVG Export Plug-In . SVG Version: 6.00 Build 0)  -->
<!DOCTYPE svg PUBLIC "-//W3C//DTD SVG 1.1//EN" "http://www.w3.org/Graphics/SVG/1.1/DTD/svg11.dtd">
<svg version="1.1" id="Capa_1" xmlns="http://www.w3.org/2000/svg" xmlns:xlink="http://www.w3.org/1999/xlink" x="0px" y="0px"
	 viewBox="0 0 159.483 159.483" style="enable-background:new 0 0 159.483 159.483;" xml:space="preserve">
<g>
	<g>
		<path style="fill:#FCD0A3;" d="M40.741,85.003c-4,0-7.667-3.433-7.667-7.667c0-4.234,3.667-7.667,7.667-7.667V85.003z"/>
		<path style="fill:#FCD0A3;" d="M118.741,85.003c4,0,7.667-3.433,7.667-7.667c0-4.234-3.667-7.667-7.667-7.667V85.003z"/>
	</g>
	<path style="fill:#58B99B;" d="M83.615,131.7h-6.759c-1.247,0-2.477,0.063-3.688,0.174c4.712,0,9.422,0,14.134,0
		C86.092,131.763,84.862,131.7,83.615,131.7z"/>
	<g>
		<rect x="76.779" y="113.229" style="fill:#FCD0A3;" width="7.003" height="20.967"/>
		<path style="fill:#FCD0A3;" d="M80.28,120.633L80.28,120.633c-21.907,0-39.666-17.76-39.666-39.667v-34
			C40.614,25.059,58.373,7.3,80.28,7.3l0,0c21.907,0,39.667,17.759,39.667,39.667v34C119.947,102.873,102.187,120.633,80.28,120.633
			z"/>
		<path style="opacity:0.16;fill:#FCD0A3;" d="M58.697,110.184c-5.892-7.366-7.637-16.08-7.841-25.324
			c-0.202-9.157-0.265-17.485,0.294-26.664c0.543-8.917,2.318-17.641,6.814-25.005C64.149,23.063,75.29,13.509,85.952,7.71
			C84.1,7.444,82.207,7.3,80.28,7.3l0,0c-21.907,0-39.666,17.759-39.666,39.667v34c0,18.021,12.022,33.227,28.481,38.057
			C65.15,116.727,61.6,113.813,58.697,110.184z"/>
	</g>
	<path style="fill:#DC2A2C;" d="M115.778,155.369c-0.039-0.368-0.087-0.734-0.146-1.098c-0.285-1.747-0.787-3.438-1.481-5.059
		c-0.315-0.735-0.667-1.457-1.06-2.161c-1.016-1.819-2.284-3.527-3.769-5.096c-0.74-0.781-1.536-1.525-2.379-2.233
		c-2.632-2.213-5.744-4.052-9.205-5.407c-2.892-1.134-6.034-1.906-9.331-2.302c0.01-0.116,0.026-0.229,0.026-0.351
		c0-1.362-1.105-2.467-2.468-2.467l-1.518,0.259c-2.759,0.47-5.577,0.47-8.335,0l-1.518-0.259c-1.363,0-2.467,1.105-2.467,2.467
		c0,0.117,0.017,0.227,0.027,0.34c-3.33,0.391-6.503,1.168-9.422,2.313c-3.461,1.355-6.574,3.195-9.207,5.408
		c-0.842,0.707-1.637,1.45-2.375,2.23c-1.485,1.569-2.754,3.277-3.77,5.098c-0.393,0.703-0.745,1.425-1.059,2.16
		c-0.695,1.622-1.198,3.315-1.483,5.064c-0.118,0.725-0.193,1.459-0.235,2.201c1.158,0.191,2.317,0.378,3.477,0.552
		c3.972,0.597,7.951,1.094,11.935,1.477c0.171,0.016,0.343,0.032,0.515,0.049c2.16,0.206,4.322,0.378,6.484,0.515
		c4.325,0.274,8.654,0.411,12.982,0.413c8.658,0.004,17.315-0.529,25.944-1.575c2.157-0.261,4.313-0.554,6.466-0.879
		c1.155-0.174,2.309-0.357,3.462-0.55C115.847,156.107,115.817,155.737,115.778,155.369z"/>
	<g>
		<g>
			<path style="fill:#F5A251;" d="M109.494,17.613c-1.896-1.908-3.97-3.634-6.192-5.15c-0.302-0.206-0.578-0.432-0.842-0.668
				c-0.117-1.573,0.506-3.202,0.108-4.939c-0.169-0.737-1.161-0.962-1.671-0.441c-0.313,0.319-0.642,0.6-0.979,0.861
				c-0.288-1.582-0.106-3.266,0.597-4.842c0.176-0.394,0.342-0.795,0.498-1.206c0.342-0.894-0.764-1.466-1.469-1.129
				c-4.051,1.933-8.213,3.442-12.505,4.558c-1.99,0.517-4.048,0.689-6.103,0.651c-0.458-0.008-0.918-0.009-1.38-0.001
				C56.914,5.693,38.614,24.233,38.614,46.966v7.995c-0.022,0.057-0.064,0.089-0.066,0.17c-0.059,2.428-1.128,4.667-3.329,5.694
				c-1.267,0.591-0.367,2.147,0.658,1.873c0.628-0.169,1.235-0.381,1.825-0.624c-0.473,0.986-1.051,1.927-1.768,2.805
				c-0.73,0.896,0.158,2.043,1.212,1.57c0.439-0.197,0.887-0.389,1.339-0.579c3.172-1.336,6.546-2.083,9.968-2.445
				c24.858-2.632,53.898-27.284,53.898-27.284c2.546-1.079,5.493-0.021,6.771,2.43l10.824,24.59l1.271-9.827
				C122.91,40.268,118.779,26.961,109.494,17.613z"/>
			<path style="opacity:0.25;fill:#F5A251;" d="M115.157,44.862c-0.75-4.947,0.789-13.131-3.96-14.375
				c-3.836-1.005-4.365,1.75-8.763,5.628c2.527-1.022,5.424,0.031,6.688,2.457l10.824,24.59l0.012-0.093
				C118.532,56.332,116.203,51.754,115.157,44.862z"/>
		</g>
		<g>
			<path style="fill:#F5A251;" d="M118.697,88.081c-0.161-0.192-6.399-4.132-15.222-4.121c-6.361,0.007-14.06,6.78-21.875,5.563
				c-8.651-1.349-17.618-5.58-24.563-5.563c-8.473,0.021-15.176,3.813-15.176,6.22c0,9.991,4.733,19.261,13.534,24.721
				c0.389,0.241,0.904,0.108,1.227-0.196c4.478,4.506,9.512,8.247,15.186,11.259c0.687,0.364,1.305-0.063,1.444-0.693
				c2.496,0.425,4.947,0.557,7.368,0.424c2.421,0.133,4.872,0.001,7.367-0.424c0.14,0.63,0.758,1.058,1.444,0.693
				c5.674-3.012,10.708-6.753,15.186-11.259c0.323,0.305,0.838,0.438,1.227,0.196c8.801-5.46,11.879-14.745,13.027-24.67
				C118.917,89.84,118.937,88.231,118.697,88.081z"/>
			<g>
				<g>
					<path style="fill:#FCD0A3;" d="M64.29,101.261h33.815c0,0-1.599,10.761-17.725,10.723
						C65.752,111.949,64.29,101.261,64.29,101.261z"/>
					<path style="fill:#F7B6AF;" d="M78.312,106.205c-1.985,0.202-6.78,1.843-8.728,2.883c2.39,1.636,5.824,2.885,10.796,2.896
						c5.963,0.014,9.915-1.454,12.558-3.303C92.491,108.312,87.722,105.25,78.312,106.205z"/>
				</g>
				<g>
					<g>
						<path style="opacity:0.29;fill:#FCD0A3;" d="M104.984,74.761c-0.809-0.133-1.455-0.211-1.7-0.237
							c-4.793-0.514-10.716-0.877-14.585,2.559c-1.22,1.084-0.764,2.568,0.83,2.924c0.613,0.138,1.251,0.078,1.876,0.019
							c5.536-0.529,11.038-1.12,16.593-1.532c1.441-0.107,3.082-0.899,1.851-2.286C108.921,75.161,106.268,74.971,104.984,74.761z"
							/>
						<path style="opacity:0.29;fill:#FCD0A3;" d="M54.591,74.761c0.809-0.133,1.455-0.211,1.7-0.237
							c4.793-0.514,10.717-0.877,14.585,2.559c1.22,1.084,0.764,2.568-0.83,2.924c-0.613,0.138-1.251,0.078-1.876,0.019
							c-5.536-0.529-11.039-1.12-16.593-1.532c-1.44-0.107-3.082-0.899-1.851-2.286C50.655,75.161,53.307,74.971,54.591,74.761z"/>
					</g>
					<g>
						<g>
							<g>
								<g>
									<circle style="fill:#67657B;" cx="98.106" cy="68.973" r="3.333"/>
									<circle style="fill:#8E8D9C;" cx="98.106" cy="68.973" r="3.104"/>
									<polygon style="fill:#5F5D73;" points="95.502,67.536 96.845,68.185 95.672,67.263 96.936,68.053 95.871,67.009 
										97.043,67.932 96.097,66.78 97.162,67.824 96.346,66.576 97.292,67.728 96.615,66.399 97.432,67.648 96.902,66.253 
										97.579,67.582 97.204,66.139 97.732,67.534 97.516,66.058 97.89,67.501 97.834,66.011 98.05,67.487 98.156,65.999 
										98.211,67.49 98.477,66.022 98.371,67.51 98.794,66.08 98.527,67.547 99.102,66.171 98.68,67.601 99.4,66.295 
										98.824,67.671 99.682,66.451 98.961,67.756 99.945,66.636 99.088,67.856 100.187,66.849 99.202,67.969 100.405,67.086 
										99.305,68.093 100.596,67.346 99.393,68.228 100.757,67.624 99.466,68.372 100.888,67.919 99.522,68.522 100.985,68.226 
										99.563,68.678 101.049,68.541 99.587,68.837 101.078,68.863 99.593,68.998 101.072,69.185 99.581,69.16 101.032,69.504 
										99.553,69.318 100.958,69.818 99.507,69.472 100.85,70.121 99.444,69.621 100.71,70.411 99.367,69.761 100.539,70.684 
										99.274,69.893 100.34,70.937 99.168,70.014 100.114,71.167 99.049,70.123 99.865,71.372 98.919,70.218 99.596,71.547 
										98.78,70.299 99.309,71.694 98.633,70.364 99.008,71.808 98.479,70.413 98.696,71.889 98.321,70.445 98.377,71.936 
										98.161,70.459 98.056,71.948 98,70.456 97.734,71.924 97.84,70.437 97.417,71.868 97.684,70.4 97.108,71.776 
										97.532,70.345 96.811,71.652 97.387,70.276 96.529,71.496 97.25,70.19 96.266,71.311 97.124,70.09 96.023,71.098 
										97.009,69.978 95.807,70.861 96.906,69.853 95.616,70.601 96.818,69.718 95.454,70.322 96.745,69.575 95.324,70.028 
										96.688,69.424 95.227,69.721 96.648,69.269 95.163,69.405 96.625,69.109 95.133,69.084 96.618,68.949 95.139,68.762 
										96.63,68.788 95.179,68.443 96.659,68.629 95.253,68.129 96.704,68.475 95.361,67.826 96.767,68.327 									"/>
								</g>
								<g>
									<circle style="opacity:0.35;fill:#1D1A3A;" cx="98.116" cy="68.973" r="1.587"/>
									<path style="fill:#FFFFFF;" d="M99.092,68.26c0.001-0.009,0.005-0.017,0.005-0.025c0-0.271-0.219-0.49-0.49-0.49
										c-0.271,0-0.49,0.219-0.49,0.49c0,0.271,0.22,0.49,0.49,0.49c0.041,0,0.078-0.015,0.116-0.023
										c0.036,0.015,0.074,0.023,0.115,0.023c0.169,0,0.306-0.137,0.306-0.306C99.143,68.36,99.122,68.307,99.092,68.26z"/>
								</g>
							</g>
							<g>
								<g>
									<circle style="fill:#67657B;" cx="63.766" cy="68.973" r="3.333"/>
									<circle style="fill:#8E8D9C;" cx="63.766" cy="68.973" r="3.104"/>
									<polygon style="fill:#5F5D73;" points="61.162,67.536 62.504,68.185 61.332,67.263 62.597,68.053 61.531,67.009 
										62.703,67.932 61.757,66.78 62.822,67.824 62.006,66.576 62.952,67.728 62.275,66.399 63.091,67.648 62.562,66.253 
										63.238,67.582 62.864,66.139 63.392,67.534 63.175,66.058 63.55,67.501 63.494,66.011 63.71,67.487 63.816,65.999 
										63.871,67.49 64.137,66.022 64.031,67.51 64.454,66.08 64.187,67.547 64.763,66.171 64.339,67.601 65.06,66.295 
										64.484,67.671 65.342,66.451 64.621,67.756 65.605,66.636 64.747,67.856 65.848,66.849 64.862,67.969 66.065,67.086 
										64.965,68.093 66.255,67.346 65.053,68.228 66.417,67.624 65.126,68.372 66.547,67.919 65.183,68.522 66.645,68.226 
										65.223,68.678 66.708,68.541 65.247,68.837 66.738,68.863 65.253,68.998 66.733,69.185 65.241,69.16 66.692,69.504 
										65.212,69.318 66.618,69.818 65.167,69.472 66.51,70.121 65.104,69.621 66.37,70.411 65.027,69.761 66.199,70.684 
										64.934,69.893 66,70.937 64.828,70.014 65.774,71.167 64.709,70.123 65.525,71.372 64.58,70.218 65.256,71.547 
										64.44,70.299 64.969,71.694 64.292,70.364 64.667,71.808 64.139,70.413 64.356,71.889 63.981,70.445 64.037,71.936 
										63.821,70.459 63.715,71.948 63.66,70.456 63.394,71.924 63.5,70.437 63.077,71.868 63.344,70.4 62.768,71.776 
										63.192,70.345 62.471,71.652 63.047,70.276 62.189,71.496 62.91,70.19 61.926,71.311 62.784,70.09 61.684,71.098 
										62.669,69.978 61.466,70.861 62.566,69.853 61.276,70.601 62.478,69.718 61.114,70.322 62.405,69.575 60.984,70.028 
										62.349,69.424 60.886,69.721 62.308,69.269 60.822,69.405 62.285,69.109 60.793,69.084 62.278,68.949 60.799,68.762 
										62.29,68.788 60.839,68.443 62.319,68.629 60.913,68.129 62.364,68.475 61.021,67.826 62.427,68.327 									"/>
								</g>
								<g>
									<circle style="opacity:0.35;fill:#1D1A3A;" cx="63.776" cy="68.973" r="1.587"/>
									<path style="fill:#FFFFFF;" d="M64.752,68.26c0-0.009,0.005-0.017,0.005-0.025c0-0.271-0.219-0.49-0.49-0.49
										c-0.271,0-0.49,0.219-0.49,0.49c0,0.271,0.22,0.49,0.49,0.49c0.041,0,0.078-0.015,0.116-0.023
										c0.036,0.015,0.075,0.023,0.116,0.023c0.168,0,0.305-0.137,0.305-0.306C64.803,68.36,64.782,68.307,64.752,68.26z"/>
								</g>
							</g>
						</g>
						<g>
							<path style="fill:#3D5561;" d="M106.893,61.099H89.318c-3.219,0-5.838,2.619-5.838,5.837v1.066h-5.572v-1.066
								c0-3.218-2.619-5.837-5.838-5.837H54.496c-3.219,0-5.838,2.619-5.838,5.837v4.075c0,3.218,2.619,5.838,5.838,5.838H72.07
								c3.219,0,5.838-2.62,5.838-5.838v-1.065h5.572v1.065c0,3.218,2.619,5.838,5.838,5.838h17.574c3.219,0,5.838-2.62,5.838-5.838
								v-4.075C112.73,63.718,110.111,61.099,106.893,61.099z M75.908,71.011c0,2.116-1.722,3.838-3.838,3.838H54.496
								c-2.116,0-3.838-1.722-3.838-3.838v-4.075c0-2.115,1.722-3.837,3.838-3.837H72.07c2.116,0,3.838,1.722,3.838,3.837V71.011z
								 M110.73,71.011c0,2.116-1.722,3.838-3.838,3.838H89.318c-2.116,0-3.838-1.722-3.838-3.838v-4.075
								c0-2.115,1.722-3.837,3.838-3.837h17.574c2.116,0,3.838,1.722,3.838,3.837V71.011z"/>
						</g>
					</g>
				</g>
			</g>
		</g>
	</g>
</g>
<g>
</g>
<g>
</g>
<g>
</g>
<g>
</g>
<g>
</g>
<g>
</g>
<g>
</g>
<g>
</g>
<g>
</g>
<g>
</g>
<g>
</g>
<g>
</g>
<g>
</g>
<g>
</g>
<g>
</g>
</svg>
