<?xml version="1.0" encoding="iso-8859-1"?>
<!-- Generator: Adobe Illustrator 19.0.0, SVG Export Plug-In . SVG Version: 6.00 Build 0)  -->
<svg version="1.1" id="Layer_1" xmlns="http://www.w3.org/2000/svg" xmlns:xlink="http://www.w3.org/1999/xlink" x="0px" y="0px"
	 viewBox="0 0 318.965 318.965" style="enable-background:new 0 0 318.965 318.965;" xml:space="preserve">
<g>
	<g>
		<path style="fill:#EAEAE1;" d="M303.673,253.518c-11.151-37.754-67.121-33.566-91.279-44.408
			c-24.157-10.842-20.386-47.219-23.449-53.548h-58.932c-3.058,6.329,0.714,42.711-23.449,53.548
			c-24.157,10.842-80.133,6.655-91.279,44.408c-6.149,20.824-5.857,27.193-7.554,50.26c0,0,76.8,15.187,150.014,15.187
			s153.488-15.187,153.488-15.187C309.53,280.705,309.822,274.342,303.673,253.518z"/>
		<path style="fill:#E0DBD3;" d="M303.673,253.518c-11.151-37.754-67.121-33.566-91.279-44.408
			c-24.157-10.842-20.386-47.219-23.449-53.548H157.74c0,0-0.719,51.024,23.438,61.866s80.133,6.655,91.279,44.408
			c5.857,19.83,5.868,26.552,7.324,47.073c19.234-2.816,31.442-5.126,31.442-5.126C309.53,280.705,309.822,274.342,303.673,253.518z
			"/>
		<polygon style="fill:#C6C5AF;" points="209.157,207.406 176.108,236.122 159.42,208.171 		"/>
		<polygon style="fill:#C6C5AF;" points="109.234,207.744 142.817,236.122 159.42,208.171 		"/>
		<path style="fill:#EAEAE1;" d="M159.42,208.171l-38.344-16.637c0,0-3.389,4.817-11.843,16.21l31.723,22.853L159.42,208.171z"/>
		<path style="fill:#EAEAE1;" d="M159.42,208.171l37.422-16.637c0,0,3.861,4.48,12.315,15.873l-32.195,23.191L159.42,208.171z"/>
		<path style="fill:#E0DBD3;" d="M196.842,191.534l-28.867,12.832c3.26,5.778,7.548,10.516,13.208,13.057
			c2.799,1.253,6.02,2.31,9.555,3.249l18.419-13.265C200.704,196.013,196.842,191.534,196.842,191.534z"/>
		<path style="fill:#3D3D3D;" d="M123.044,244.738c0,0-5.784-7.97-5.784-19.925s5.784-19.925,5.784-19.925
			c20.403,0,32.066,15.94,32.066,15.94v3.985v3.985C155.109,228.798,143.452,244.738,123.044,244.738z"/>
		<path style="fill:#3D3D3D;" d="M195.921,244.738c0,0,5.784-7.97,5.784-19.925s-5.784-19.925-5.784-19.925
			c-20.403,0-32.066,15.94-32.066,15.94v3.985v3.985C163.855,228.798,175.512,244.738,195.921,244.738z"/>
		<path style="fill:#303030;" d="M180.925,230.31c-0.32-0.051-0.624-0.141-0.905-0.259l-16.03-4.541l16.643,0.815
			c0.298-0.017,0.618-0.006,0.939,0.045c1.591,0.259,2.732,1.355,2.552,2.439S182.515,230.574,180.925,230.31z"/>
		<path style="fill:#303030;" d="M181.611,222.627c-0.315,0.079-0.63,0.118-0.933,0.124l-16.519,2.186l15.603-5.845
			c0.27-0.135,0.562-0.253,0.882-0.332c1.563-0.388,3.046,0.157,3.311,1.225C184.224,221.053,183.173,222.234,181.611,222.627z"/>
		<path style="fill:#303030;" d="M138.529,230.31c0.32-0.051,0.624-0.141,0.905-0.259l16.03-4.541l-16.643,0.815
			c-0.298-0.017-0.618-0.006-0.939,0.045c-1.591,0.259-2.732,1.355-2.552,2.439C135.51,229.894,136.943,230.574,138.529,230.31z"/>
		<path style="fill:#303030;" d="M137.843,222.627c0.315,0.079,0.63,0.118,0.933,0.124l16.519,2.186l-15.603-5.845
			c-0.27-0.135-0.562-0.253-0.882-0.332c-1.563-0.388-3.046,0.157-3.311,1.225C135.235,221.053,136.286,222.234,137.843,222.627z"/>
		<path style="fill:#353535;" d="M166.772,217.838c0-1.641-0.984-2.99-2.186-2.99h-10.201c-1.203,0-2.186,1.343-2.186,2.99v13.95
			c0,1.641,0.984,2.99,2.186,2.99h10.201c1.203,0,2.186-1.343,2.186-2.99V217.838z"/>
		<circle style="fill:#3D3D3D;" cx="159.42" cy="255.373" r="5.632"/>
		<circle style="fill:#3D3D3D;" cx="159.42" cy="283.566" r="5.632"/>
		<circle style="fill:#3D3D3D;" cx="159.42" cy="311.759" r="5.632"/>
		
			<ellipse transform="matrix(-0.177 0.9842 -0.9842 -0.177 385.6561 -85.3711)" style="fill:#DDB58E;" cx="228.522" cy="118.558" rx="21.386" ry="11.629"/>
		
			<ellipse transform="matrix(-0.9842 0.177 -0.177 -0.9842 200.0903 219.2807)" style="fill:#E8C59E;" cx="90.265" cy="118.565" rx="11.629" ry="21.386"/>
		<path style="fill:#E8C59E;" d="M223.641,47.365H159.42H95.233c0,0-35.989,146.614,64.187,160.806
			C259.636,193.979,223.641,47.365,223.641,47.365z"/>
		<path style="fill:#DDB58E;" d="M159.42,208.171c100.216-14.192,64.221-160.806,64.221-160.806h-15.024
			c4.114,61.242,9.808,93.774-13.815,129.24C176.085,204.708,159.42,208.171,159.42,208.171z"/>
		<path style="fill:#393C3D;" d="M187.838,5.48c0,0-19.824-9.33-46.477-3.642c-19.953,4.26-52.423,17.829-59.73,46.893
			c0,0-10.932,47.483,7.683,67.931c0,0-0.916-18.548,0.956-33.313c0,0,11.174,4.946,33.69,4.659
			c30.188-0.382,59.444-12.776,68.442-26.355c0,0-1.034,19.532-10.876,27.502c0,0,34.522-5.396,44.729-25.883
			c0,0,3.417,17.935,3.417,51.159c0,0,5.39-7.509,6.649-19.605c2.855-27.44-2.333-65.334-22.876-64.069
			C213.446,30.756,204.745,13.49,187.838,5.48z"/>
		<path style="fill:#DDB58E;" d="M181.526,89.154c9.836-7.976,10.876-27.502,10.876-27.502
			c-8.999,13.574-38.248,25.967-68.442,26.355c-21.763,0.275-32.931-4.333-33.651-4.643c1.433,0.613,44.156,18.554,91.672-3.884
			c0,0-2.58,9.527-8.139,12.804c0,0,43.869-0.793,52.418-29.008C216.054,83.758,181.526,89.154,181.526,89.154z"/>
		<path style="fill:#B5B5B5;" d="M229.127,121.934L229.127,121.934c-9.712,41.57-36.68,55.076-36.68,55.076
			c-5.75-14.85-17.25-14.85-33.027-14.85l0,0l0,0l0,0l0,0c-15.777,0-27.277,0-33.027,14.85c0,0-26.968-13.506-36.68-55.076l0,0
			c3.429,38.58,19.397,79.11,69.707,86.237l0,0l0,0l0,0l0,0l0,0l0,0C209.73,201.044,225.699,160.514,229.127,121.934z"/>
		<path style="fill:#A3A3A3;" d="M159.42,208.171c50.31-7.127,66.278-47.657,69.707-86.237l0,0
			c-7.554,32.341-25.557,47.691-33.173,52.918c-0.377,0.585-0.753,1.169-1.147,1.754C176.13,204.641,159.505,208.154,159.42,208.171
			z"/>
		<path style="fill:#E8C59E;" d="M181.442,179.601c0,4.03-3.62,7.093-7.593,6.43c-4.227-0.703-9.622-1.388-14.585-1.388
			s-10.359,0.686-14.585,1.388c-3.974,0.663-7.593-2.4-7.593-6.43v-1.748c0-3.603,2.917-6.52,6.52-6.52h31.307
			c3.603,0,6.52,2.917,6.52,6.52v1.748H181.442z"/>
	</g>
</g>
<g>
</g>
<g>
</g>
<g>
</g>
<g>
</g>
<g>
</g>
<g>
</g>
<g>
</g>
<g>
</g>
<g>
</g>
<g>
</g>
<g>
</g>
<g>
</g>
<g>
</g>
<g>
</g>
<g>
</g>
</svg>
