<?xml version="1.0" encoding="iso-8859-1"?>
<!-- Generator: Adobe Illustrator 18.0.0, SVG Export Plug-In . SVG Version: 6.00 Build 0)  -->
<!DOCTYPE svg PUBLIC "-//W3C//DTD SVG 1.1//EN" "http://www.w3.org/Graphics/SVG/1.1/DTD/svg11.dtd">
<svg version="1.1" id="Capa_1" xmlns="http://www.w3.org/2000/svg" xmlns:xlink="http://www.w3.org/1999/xlink" x="0px" y="0px"
	 viewBox="0 0 192.236 192.236" style="enable-background:new 0 0 192.236 192.236;" xml:space="preserve">
<g>
	<g>
		<g>
			<path style="fill:#FCD0A3;" d="M135.118,110.06c4,0,7.667-3.433,7.667-7.667c0-4.234-3.667-7.667-7.667-7.667V110.06z"/>
			<path style="opacity:0.16;fill:#FCD0A3;" d="M135.118,110.06c4,0,7.667-3.433,7.667-7.667c0-4.234-3.667-7.667-7.667-7.667
				V110.06z"/>
		</g>
		<g>
			<path style="fill:#FCD0A3;" d="M57.118,110.06c-4,0-7.667-3.433-7.667-7.667c0-4.234,3.667-7.667,7.667-7.666V110.06z"/>
			<path style="opacity:0.16;fill:#FCD0A3;" d="M57.118,110.06c-4,0-7.667-3.433-7.667-7.667c0-4.234,3.667-7.667,7.667-7.666
				V110.06z"/>
		</g>
	</g>
	<g>
		<path style="fill:#58B99B;" d="M99.675,164.453h-6.759c-1.248,0-2.477,0.063-3.688,0.174c4.711,0,9.423,0,14.134,0
			C102.152,164.516,100.923,164.453,99.675,164.453z"/>
		<g>
			<g>
				<g>
					<rect x="92.839" y="145.983" style="fill:#FCD0A3;" width="7.002" height="20.966"/>
					<path style="fill:#FCD0A3;" d="M96.341,153.387L96.341,153.387c-21.907,0-39.667-17.76-39.667-39.667v-34
						c0-21.907,17.76-39.667,39.667-39.667h0c21.907,0,39.667,17.759,39.667,39.667v34
						C136.007,135.627,118.248,153.387,96.341,153.387z"/>
					<path style="opacity:0.16;fill:#FCD0A3;" d="M74.758,142.937c-5.892-7.366-7.637-16.079-7.842-25.324
						c-0.202-9.158-0.265-17.485,0.294-26.664c0.543-8.917,2.318-17.641,6.815-25.005c6.184-10.127,17.325-19.682,27.987-25.481
						c-1.853-0.266-3.746-0.41-5.672-0.41h0c-21.907,0-39.667,17.759-39.667,39.667v34c0,18.021,12.022,33.227,28.481,38.057
						C81.211,149.481,77.66,146.566,74.758,142.937z"/>
				</g>
				<g>
					<path style="fill:#AD483E;" d="M138.007,90.949V79.72c0-22.975-18.691-41.667-41.666-41.667S54.674,56.745,54.674,79.72v11.229
						H138.007z"/>
					<path style="fill:#BC4E43;" d="M96.34,38.053c-1.249,0-2.482,0.065-3.703,0.173c-8.558,5.473,8.181,8.425,3.658,10.973
						c-5.154,2.903-27.125,6.75-29.085,41.75h70.796V79.72C138.007,56.745,119.315,38.053,96.34,38.053z"/>
				</g>
				<g>
					<path style="fill:#AD483E;" d="M89.538,31.385c-4.673-4.062-15.764-12.511-7.27-24.779c6.021-8.698,20.728-8.507,28.064,0.871
						c4.326,5.529,13.68-4.633,15.823-7.351c0.185-0.234,0.558-0.122,0.586,0.175c0.46,4.881,1.53,28.905-21.493,32.058
						c-2.851,0.391-4.985,2.816-4.985,5.694l0,0h-8.411C91.852,38.053,92.047,33.565,89.538,31.385z"/>
					<path style="fill:#BC4E43;" d="M126.742,0.301c-0.022-0.241-0.269-0.35-0.461-0.261c-0.199,1.137-0.593,2.305-1.245,3.487
						c-3.955,7.176-11.3,9.097-18.932,7.705c-4.73-0.863-10.646-5.45-16.876,0.217c-9.434,8.582,1.863,16.347,3.556,22.242
						c0.663,2.308,0.277,2.318-0.119,4.362h7.598c0-2.878,2.134-5.303,4.985-5.694C128.271,29.206,127.201,5.182,126.742,0.301z"/>
				</g>
				<path style="fill:#CDEAF8;" d="M88.896,35.916L88.896,35.916c0-1.362,1.104-2.467,2.467-2.467l1.518,0.258
					c2.758,0.47,5.577,0.47,8.335,0l1.518-0.258c1.363,0,2.467,1.104,2.467,2.467l0,0C105.201,42.824,88.896,42.449,88.896,35.916z"
					/>
			</g>
			<g>
				<path style="fill:#CDEAF8;" d="M131.692,187.024c-0.285-1.747-0.788-3.438-1.481-5.059c-0.315-0.735-0.667-1.457-1.06-2.161
					c-1.016-1.82-2.284-3.527-3.769-5.096c-0.739-0.781-1.535-1.525-2.378-2.233c-2.632-2.213-5.745-4.051-9.205-5.407
					c-3.216-1.26-6.73-2.102-10.436-2.441c-4.711,0-9.423,0-14.134,0c-3.706,0.339-7.22,1.181-10.436,2.441
					c-3.461,1.356-6.574,3.195-9.208,5.409c-0.841,0.707-1.636,1.45-2.375,2.23c-1.485,1.569-2.754,3.277-3.769,5.097
					c-0.393,0.704-0.744,1.425-1.06,2.161c-0.695,1.622-1.198,3.315-1.483,5.064c-0.118,0.724-0.193,1.459-0.235,2.201
					c1.158,0.191,2.317,0.378,3.477,0.552c3.972,0.597,7.951,1.094,11.936,1.477c0.171,0.017,0.343,0.033,0.514,0.049
					c17.282,1.652,34.652,1.072,51.877-1.526c1.155-0.174,2.309-0.357,3.462-0.55C131.886,188.488,131.81,187.751,131.692,187.024z"
					/>
				<path style="fill:#1D1A3A;" d="M113.798,167.068c-3.216-1.26-6.73-2.102-10.436-2.441c-4.711,0-9.423,0-14.134,0
					c-3.706,0.339-7.22,1.181-10.436,2.441C90.46,167.157,102.131,167.157,113.798,167.068z"/>
				<path style="fill:#1D1A3A;" d="M76.075,191.259c0.171,0.017,0.343,0.033,0.514,0.049c17.282,1.652,34.652,1.072,51.877-1.526
					H64.14C68.112,190.379,72.091,190.876,76.075,191.259z"/>
				<path style="fill:#1D1A3A;" d="M131.692,187.024c-18.288,2.753-36.739,3.453-55.1,1.858c-0.171-0.014-0.343-0.029-0.515-0.044
					c-5.068-0.443-10.13-1.055-15.179-1.809c-0.118,0.724-0.193,1.459-0.235,2.201c1.158,0.191,2.317,0.378,3.477,0.552h64.327
					c1.155-0.174,2.309-0.357,3.462-0.55C131.886,188.488,131.81,187.751,131.692,187.024z"/>
				<path style="fill:#1D1A3A;" d="M76.608,175.138c16.253,0.608,32.536,0.451,48.773-0.43c-0.739-0.781-1.535-1.525-2.378-2.233
					c-15.452,0.594-30.933,0.682-46.393,0.237c-0.171-0.005-0.343-0.01-0.514-0.015c-2.171-0.064-4.341-0.139-6.512-0.221
					c-0.841,0.707-1.636,1.45-2.375,2.23c2.96,0.159,5.921,0.3,8.884,0.412C76.266,175.125,76.437,175.132,76.608,175.138z"/>
				<path style="fill:#1D1A3A;" d="M76.599,183.223c17.865,1.188,35.794,0.718,53.611-1.257c-0.315-0.735-0.667-1.457-1.06-2.161
					c-17.474,1.635-35.039,2.004-52.549,0.993c-0.172-0.01-0.343-0.02-0.515-0.03c-4.22-0.246-8.435-0.572-12.646-0.963
					c-0.393,0.704-0.744,1.425-1.06,2.161c4.562,0.502,9.13,0.918,13.703,1.224C76.256,183.2,76.428,183.212,76.599,183.223z"/>
				<path style="fill:#1D1A3A;" d="M88.187,164.416L88.187,164.416c0-1.362,1.105-2.467,2.467-2.467l1.519,0.258
					c2.758,0.47,5.576,0.47,8.334,0l1.519-0.258c1.363,0,2.467,1.104,2.467,2.467l0,0
					C104.493,171.324,88.187,170.949,88.187,164.416z"/>
			</g>
		</g>
		<g>
			<g>
				<path style="fill:none;stroke:#6F6F6E;stroke-width:0.1;stroke-linecap:round;stroke-linejoin:round;stroke-miterlimit:10;" d="
					M74.955,129.307c5.625,5.181,13.135,8.348,21.386,8.348c8.25,0,15.76-3.167,21.386-8.348"/>
				<g>
					<path style="fill:#E95147;" d="M91.153,137.201l1.461,1.849c0.617,0.78,1.556,1.235,2.55,1.235h2.47
						c0.995,0,1.932-0.469,2.529-1.265l1.364-1.818H91.153z"/>
					<path style="fill:#EA5B51;" d="M96.887,135.116l-0.303,0.309c-0.142,0.144-0.374,0.145-0.517,0.002l-0.271-0.271
						c-0.732-0.733-1.922-0.727-2.648,0.012l-1.995,2.032h2.693c0.659,0,1.313,0.103,1.94,0.306l0.304,0.098
						c0.216,0.07,0.45,0.066,0.664-0.011l0.283-0.103c0.531-0.192,1.092-0.291,1.657-0.291h2.834l-2.097-2.097
						C98.727,134.4,97.584,134.406,96.887,135.116z"/>
				</g>
			</g>
			<g>
				
					<ellipse transform="matrix(0.9676 0.2525 -0.2525 0.9676 30.9265 -14.6012)" style="opacity:0.44;fill:#ED685F;" cx="72.344" cy="113.178" rx="11.974" ry="7.361"/>
				
					<ellipse transform="matrix(-0.9676 0.2525 -0.2525 -0.9676 265.1779 192.3197)" style="opacity:0.44;fill:#ED685F;" cx="120.247" cy="113.178" rx="11.974" ry="7.361"/>
			</g>
			<g>
				<g>
					<g>
						<g>
							<g>
								<path style="fill:#67657B;" d="M117.105,100.465c1.364,0.339,2.783-0.465,3.193-1.81c0.047-0.155-0.194-0.22-0.241-0.066
									c-0.37,1.213-1.655,1.941-2.886,1.635C117.015,100.185,116.948,100.426,117.105,100.465L117.105,100.465z"/>
							</g>
						</g>
						<g>
							<g>
								<path style="fill:#67657B;" d="M116.945,100.093c1.189,0,2.184-0.954,2.246-2.138c0.008-0.161-0.242-0.16-0.25,0
									c-0.055,1.05-0.947,1.888-1.996,1.888C116.784,99.843,116.784,100.093,116.945,100.093L116.945,100.093z"/>
							</g>
						</g>
						<g>
							<g>
								<path style="fill:#67657B;" d="M117.207,100.785c0.911,0.626,2.01,0.791,3.066,0.464c0.153-0.048,0.088-0.289-0.066-0.241
									c-0.998,0.309-2.012,0.152-2.873-0.439C117.2,100.478,117.075,100.694,117.207,100.785L117.207,100.785z"/>
							</g>
						</g>
					</g>
					<g>
						<g>
							<circle style="fill:#67657B;" cx="114.166" cy="101.726" r="3.333"/>
							<circle style="fill:#8E8D9C;" cx="114.166" cy="101.726" r="3.104"/>
							<polygon style="fill:#5F5D73;" points="111.561,100.289 112.905,100.938 111.732,100.016 112.997,100.806 111.931,99.763 
								113.103,100.686 112.157,99.533 113.222,100.577 112.406,99.328 113.352,100.482 112.676,99.152 113.491,100.401 
								112.963,99.006 113.638,100.336 113.263,98.892 113.792,100.287 113.576,98.811 113.95,100.255 113.894,98.764 
								114.11,100.241 114.216,98.752 114.271,100.243 114.537,98.775 114.431,100.263 114.854,98.833 114.588,100.301 
								115.163,98.924 114.74,100.354 115.46,99.049 114.885,100.425 115.742,99.204 115.021,100.51 116.006,99.389 115.147,100.61 
								116.247,99.602 115.262,100.722 116.465,99.84 115.365,100.846 116.656,100.099 115.453,100.981 116.817,100.378 
								115.526,101.125 116.947,100.673 115.583,101.276 117.045,100.979 115.623,101.431 117.109,101.295 115.647,101.591 
								117.138,101.616 115.653,101.752 117.133,101.938 115.641,101.912 117.093,102.257 115.613,102.071 117.018,102.571 
								115.567,102.225 116.91,102.874 115.505,102.374 116.77,103.164 115.427,102.515 116.599,103.437 115.334,102.646 
								116.4,103.69 115.228,102.767 116.175,103.92 115.109,102.876 115.926,104.125 114.979,102.971 115.656,104.301 
								114.84,103.052 115.369,104.447 114.693,103.117 115.068,104.561 114.539,103.166 114.756,104.642 114.382,103.198 
								114.437,104.689 114.221,103.213 114.116,104.701 114.06,103.21 113.794,104.678 113.9,103.19 113.477,104.62 
								113.743,103.153 113.168,104.529 113.592,103.099 112.871,104.405 113.447,103.029 112.589,104.249 113.31,102.943 
								112.326,104.064 113.184,102.844 112.084,103.851 113.069,102.731 111.867,103.614 112.967,102.607 111.676,103.354 
								112.879,102.472 111.514,103.075 112.805,102.328 111.384,102.781 112.748,102.178 111.286,102.474 112.708,102.022 
								111.222,102.158 112.684,101.863 111.193,101.837 112.678,101.701 111.199,101.515 112.69,101.541 111.239,101.196 
								112.719,101.382 111.313,100.883 112.764,101.228 111.421,100.579 112.826,101.079 							"/>
						</g>
						<g>
							<circle style="opacity:0.35;fill:#1D1A3A;" cx="114.177" cy="101.726" r="1.587"/>
							<path style="fill:#FFFFFF;" d="M115.152,101.013c0-0.009,0.005-0.017,0.005-0.026c0-0.271-0.219-0.49-0.49-0.49
								c-0.271,0-0.49,0.22-0.49,0.49c0,0.271,0.219,0.49,0.49,0.49c0.041,0,0.078-0.014,0.116-0.023
								c0.036,0.015,0.075,0.023,0.116,0.023c0.168,0,0.305-0.136,0.305-0.305C115.203,101.113,115.181,101.06,115.152,101.013z"/>
						</g>
					</g>
				</g>
				<g>
					<g>
						<g>
							<g>
								<path style="fill:#67657B;" d="M76.926,100.224c-1.23,0.306-2.516-0.422-2.885-1.635c-0.047-0.154-0.288-0.088-0.241,0.066
									c0.41,1.344,1.829,2.148,3.193,1.81C77.148,100.426,77.082,100.185,76.926,100.224L76.926,100.224z"/>
							</g>
						</g>
						<g>
							<g>
								<path style="fill:#67657B;" d="M77.152,99.843c-1.049,0-1.941-0.838-1.996-1.888c-0.008-0.16-0.258-0.161-0.25,0
									c0.062,1.185,1.057,2.138,2.246,2.138C77.313,100.093,77.313,99.843,77.152,99.843L77.152,99.843z"/>
							</g>
						</g>
						<g>
							<g>
								<path style="fill:#67657B;" d="M76.764,100.569c-0.86,0.591-1.875,0.748-2.872,0.439c-0.154-0.048-0.22,0.194-0.066,0.241
									c1.056,0.327,2.154,0.162,3.065-0.464C77.022,100.694,76.897,100.478,76.764,100.569L76.764,100.569z"/>
							</g>
						</g>
					</g>
					<g>
						<g>
							<circle style="fill:#67657B;" cx="79.826" cy="101.726" r="3.333"/>
							<circle style="fill:#8E8D9C;" cx="79.826" cy="101.726" r="3.104"/>
							<polygon style="fill:#5F5D73;" points="77.221,100.289 78.564,100.938 77.392,100.016 78.657,100.806 77.592,99.763 
								78.763,100.686 77.817,99.533 78.882,100.577 78.066,99.328 79.012,100.482 78.335,99.152 79.151,100.401 78.622,99.006 
								79.299,100.336 78.924,98.892 79.452,100.287 79.235,98.811 79.61,100.255 79.554,98.764 79.77,100.241 79.876,98.752 
								79.931,100.243 80.197,98.775 80.091,100.263 80.514,98.833 80.248,100.301 80.823,98.924 80.399,100.354 81.12,99.049 
								80.544,100.425 81.402,99.204 80.681,100.51 81.665,99.389 80.808,100.61 81.908,99.602 80.923,100.722 82.125,99.84 
								81.025,100.846 82.315,100.099 81.113,100.981 82.477,100.378 81.186,101.125 82.607,100.673 81.243,101.276 82.705,100.979 
								81.284,101.431 82.769,101.295 81.307,101.591 82.798,101.616 81.313,101.752 82.793,101.938 81.301,101.912 82.752,102.257 
								81.273,102.071 82.678,102.571 81.227,102.225 82.57,102.874 81.165,102.374 82.43,103.164 81.087,102.515 82.259,103.437 
								80.994,102.646 82.06,103.69 80.888,102.767 81.834,103.92 80.769,102.876 81.585,104.125 80.64,102.971 81.316,104.301 
								80.5,103.052 81.029,104.447 80.353,103.117 80.728,104.561 80.199,103.166 80.416,104.642 80.041,103.198 80.098,104.689 
								79.881,103.213 79.775,104.701 79.72,103.21 79.454,104.678 79.56,103.19 79.137,104.62 79.404,103.153 78.828,104.529 
								79.252,103.099 78.531,104.405 79.107,103.029 78.249,104.249 78.97,102.943 77.986,104.064 78.844,102.844 77.744,103.851 
								78.729,102.731 77.526,103.614 78.627,102.607 77.336,103.354 78.538,102.472 77.175,103.075 78.466,102.328 77.044,102.781 
								78.409,102.178 76.947,102.474 78.368,102.022 76.883,102.158 78.345,101.863 76.853,101.837 78.339,101.701 76.859,101.515 
								78.35,101.541 76.899,101.196 78.379,101.382 76.974,100.883 78.425,101.228 77.081,100.579 78.487,101.079 							"/>
						</g>
						<g>
							<circle style="opacity:0.35;fill:#1D1A3A;" cx="79.837" cy="101.726" r="1.587"/>
							<path style="fill:#FFFFFF;" d="M80.812,101.013c0.001-0.009,0.005-0.017,0.005-0.026c0-0.271-0.22-0.49-0.491-0.49
								c-0.271,0-0.49,0.22-0.49,0.49c0,0.271,0.22,0.49,0.49,0.49c0.042,0,0.078-0.014,0.116-0.023
								c0.036,0.015,0.075,0.023,0.116,0.023c0.168,0,0.305-0.136,0.305-0.305C80.863,101.113,80.842,101.06,80.812,101.013z"/>
						</g>
					</g>
				</g>
			</g>
		</g>
	</g>
</g>
<g>
</g>
<g>
</g>
<g>
</g>
<g>
</g>
<g>
</g>
<g>
</g>
<g>
</g>
<g>
</g>
<g>
</g>
<g>
</g>
<g>
</g>
<g>
</g>
<g>
</g>
<g>
</g>
<g>
</g>
</svg>
