<?xml version="1.0" encoding="iso-8859-1"?>
<!-- Generator: Adobe Illustrator 18.0.0, SVG Export Plug-In . SVG Version: 6.00 Build 0)  -->
<!DOCTYPE svg PUBLIC "-//W3C//DTD SVG 1.1//EN" "http://www.w3.org/Graphics/SVG/1.1/DTD/svg11.dtd">
<svg version="1.1" id="Capa_1" xmlns="http://www.w3.org/2000/svg" xmlns:xlink="http://www.w3.org/1999/xlink" x="0px" y="0px"
	 viewBox="0 0 182.068 182.068" style="enable-background:new 0 0 182.068 182.068;" xml:space="preserve">
<g>
	<g>
		<g>
			<path style="fill:#FCD0A3;" d="M130.047,102.95c4,0,7.667-3.433,7.667-7.667c0-4.234-3.667-7.667-7.667-7.667V102.95z"/>
			<path style="opacity:0.16;fill:#FCD0A3;" d="M130.047,102.95c4,0,7.667-3.433,7.667-7.667c0-4.234-3.667-7.667-7.667-7.667
				V102.95z"/>
		</g>
		<g>
			<path style="fill:#FCD0A3;" d="M52.047,102.95c-4,0-7.667-3.433-7.667-7.667c0-4.234,3.667-7.667,7.667-7.667V102.95z"/>
			<path style="opacity:0.16;fill:#FCD0A3;" d="M52.047,102.95c-4,0-7.667-3.433-7.667-7.667c0-4.234,3.667-7.667,7.667-7.667
				V102.95z"/>
		</g>
	</g>
	<g>
		<g>
			<g>
				<g>
					<path style="fill:#FCD0A3;" d="M91.082,157.405L91.082,157.405c-1.934,0-3.501-1.567-3.501-3.501v-13.964
						c0-1.934,1.567-3.501,3.501-3.501l0,0c1.934,0,3.501,1.567,3.501,3.501v13.964C94.583,155.838,93.016,157.405,91.082,157.405z"
						/>
					<path style="fill:#FCD0A3;" d="M91.082,143.843L91.082,143.843c-21.907,0-39.667-17.759-39.667-39.667v-34
						c0-21.907,17.76-39.666,39.667-39.666l0,0c21.907,0,39.667,17.759,39.667,39.666v34
						C130.749,126.084,112.989,143.843,91.082,143.843z"/>
					<path style="opacity:0.16;fill:#FCD0A3;" d="M69.403,133.394c-5.892-7.366-7.637-16.079-7.841-25.324
						c-0.202-9.157-0.266-17.485,0.294-26.664c0.544-8.917,2.318-17.641,6.814-25.004c6.185-10.128,17.325-19.683,27.987-25.482
						c-1.853-0.266-3.745-0.41-5.672-0.41l0,0c-21.907,0-39.666,17.759-39.666,39.666v34c0,18.021,12.021,33.227,28.48,38.057
						C75.856,139.938,72.305,137.023,69.403,133.394z"/>
				</g>
				<g>
					<path style="fill:#233842;" d="M48.164,86.9c2.235-2.681,3.057-5.429,3.082-8.451c0.155-1.421,0.07-2.918-0.335-4.514
						c-0.042-0.165-0.142-0.265-0.261-0.314c-0.298-0.25-0.906,0.013-0.813,0.523c0.238,1.326,0.426,2.638,0.467,3.929
						c-0.675,9.584-13.203,15.376-16.202,24.239c-1.54,4.55-0.315,8.88,2.998,12.263c3.674,3.752,8.771,5.792,12.109,9.868
						c0.314,0.383,0.64,0.758,1,1.097l0.505,0.475v-0.001c-0.097-1.018-0.381-2.02-0.889-2.907
						c-1.525-2.664-3.938-4.669-6.249-6.761c-4.519-4.09-6.943-8.88-5.234-15.087C39.961,95.378,44.4,91.412,48.164,86.9z"/>
					<path style="fill:#233842;" d="M133.904,94.103c-2.236-2.681-3.058-5.429-3.083-8.451c-0.155-1.421-0.069-2.919,0.335-4.514
						c0.042-0.165,0.142-0.265,0.261-0.315c0.298-0.25,0.906,0.014,0.814,0.524c-0.239,1.326-0.427,2.638-0.468,3.929
						c0.676,9.584,13.204,15.376,16.202,24.239c1.54,4.55,0.315,8.88-2.997,12.263c-3.674,3.752-8.77,5.792-12.11,9.868
						c-0.313,0.383-0.639,0.758-0.999,1.097l-0.506,0.474l0,0c0.097-1.018,0.382-2.02,0.889-2.907
						c1.525-2.664,3.938-4.669,6.249-6.762c4.519-4.089,6.944-8.879,5.234-15.086C142.107,102.581,137.668,98.615,133.904,94.103z"
						/>
					<g>
						<g>
							<path style="fill:#233842;" d="M120.907,10.847c-1.485-4.68-4.44-10.622-10.069-10.839c-3.357-0.129-6.861,1.347-10.05,2.228
								L89.331,5.408c-0.119,0.032-0.195,0.103-0.242,0.185c-4-1.726-8.235-3.317-12.645-2.736
								c-4.279,0.564-7.747,3.077-9.073,7.255c-0.684,2.151-0.793,4.468-0.79,6.708c0.004,2.331,0.045,4.929,1.414,6.93
								c2.273,3.323,7.127,3.584,9.071,7.192c0.181,0.334,0.582,0.228,0.73-0.027c9.458-2.095,20.28-3.094,28.188,3.65
								c0.02,0.015,0.042,0.025,0.065,0.037c0.262,0.166,0.568,0.004,0.656-0.229c1.17-2.89,5.979-2.803,8.549-3.609
								c2.183-0.686,4.396-1.714,5.868-3.527C124.613,22.935,122.397,15.539,120.907,10.847z"/>
							<path style="fill:#233842;" d="M132.704,83.238V70.915c0-23.315-19.08-42.799-42.392-42.399
								C67.67,28.904,49.371,47.444,49.371,70.177v6.325c0,0,14.805-3.493,51.238-0.667C108.79,76.47,132.704,83.238,132.704,83.238
								z"/>
						</g>
						<path style="fill:#F5A251;" d="M111.628,32.193c-0.119-1.378-2.262-1.469-3.268-1.481c-4.257-0.054-8.325-0.82-12.54-1.245
							c-4.533-0.457-8.781,0.189-13.374-0.53c-1.069-0.167-9.94-1.377-8.246,1.753c0.625,1.153,2.485,1.098,3.596,1.086
							c1.684-0.018,3.371-0.053,5.056-0.088c2.702-0.056,5.422-0.165,8.098,0.309c5.979,1.06,12.244,0.17,18.066,1.798
							C110.119,34.102,111.751,33.622,111.628,32.193z"/>
					</g>
				</g>
			</g>
			<path style="fill:#E6E1CD;" d="M126.434,176.856c-0.285-1.747-0.788-3.439-1.481-5.059c-0.316-0.735-0.667-1.457-1.06-2.161
				c-1.016-1.819-2.284-3.527-3.77-5.096c-0.739-0.781-1.535-1.525-2.378-2.233c-2.632-2.213-5.744-4.051-9.205-5.407
				c-3.216-1.261-6.73-2.103-10.436-2.44c-1.211-0.111-2.44-0.174-3.688-0.174h-6.758c-1.248,0-2.477,0.063-3.688,0.174
				c-3.705,0.338-7.22,1.18-10.436,2.44c-3.461,1.356-6.574,3.195-9.207,5.408c-0.842,0.708-1.637,1.451-2.375,2.232
				c-1.485,1.568-2.754,3.276-3.77,5.097c-0.393,0.704-0.744,1.426-1.059,2.161c-0.695,1.621-1.198,3.314-1.483,5.064
				c-0.118,0.725-0.192,1.459-0.235,2.201c1.158,0.191,2.317,0.378,3.477,0.552c3.973,0.597,7.951,1.094,11.935,1.477
				c0.172,0.017,0.343,0.032,0.515,0.049c17.282,1.651,34.651,1.072,51.877-1.526c1.155-0.174,2.309-0.357,3.462-0.549
				C126.628,178.319,126.552,177.583,126.434,176.856z"/>
			<g>
				<path style="fill:#152A35;" d="M89.11,155.736c0-0.801-0.65-1.451-1.451-1.451l0,0c-1.248,0-2.477,0.063-3.688,0.174
					c-3.705,0.339-7.22,1.181-10.436,2.441c-3.461,1.356-6.574,3.195-9.207,5.408c-0.842,0.708-1.637,1.451-2.375,2.232
					c-1.485,1.568-2.754,3.276-3.77,5.097c-0.393,0.704-0.745,1.425-1.059,2.16c-0.695,1.622-1.198,3.315-1.483,5.064
					c-0.118,0.725-0.192,1.459-0.235,2.201c1.158,0.191,2.317,0.378,3.477,0.552c3.973,0.597,7.951,1.094,11.935,1.477
					c0.172,0.017,0.343,0.032,0.515,0.049c5.919,0.565,11.848,0.85,17.778,0.9V155.736z"/>
				<path style="fill:#152A35;" d="M92.966,155.736c0-0.801,0.649-1.451,1.451-1.451l0,0c1.247,0,2.477,0.063,3.688,0.174
					c3.706,0.339,7.22,1.181,10.436,2.441c3.462,1.356,6.574,3.195,9.207,5.408c0.842,0.708,1.637,1.451,2.375,2.232
					c1.485,1.568,2.755,3.276,3.771,5.097c0.393,0.704,0.744,1.425,1.059,2.16c0.695,1.622,1.198,3.315,1.483,5.064
					c0.118,0.725,0.193,1.459,0.235,2.201c-1.158,0.191-2.317,0.378-3.477,0.552c-3.972,0.597-7.951,1.094-11.936,1.477
					c-0.171,0.017-0.343,0.032-0.515,0.049c-5.918,0.565-11.848,0.85-17.777,0.9V155.736z"/>
				<path style="fill:#E94941;" d="M126.434,176.856c-0.285-1.747-0.788-3.439-1.481-5.059c-0.316-0.735-0.667-1.457-1.06-2.161
					c-1.016-1.819-2.284-3.527-3.77-5.096c-0.739-0.781-1.535-1.525-2.378-2.233c-2.632-2.213-5.744-4.052-9.205-5.407
					c-3.216-1.261-6.73-2.103-10.436-2.441c-0.7-0.063-1.408-0.106-2.12-0.135v27.667c9.092-0.221,18.178-1.013,27.224-2.377
					c1.155-0.174,2.309-0.357,3.462-0.549C126.628,178.319,126.552,177.583,126.434,176.856z"/>
				<path style="fill:#E94941;" d="M86.235,154.319c-0.762,0.028-1.518,0.07-2.265,0.139c-3.705,0.339-7.22,1.181-10.436,2.441
					c-3.461,1.356-6.574,3.195-9.207,5.408c-0.842,0.708-1.637,1.451-2.375,2.232c-1.485,1.568-2.754,3.276-3.77,5.097
					c-0.393,0.704-0.745,1.425-1.059,2.16c-0.695,1.622-1.198,3.315-1.483,5.064c-0.118,0.725-0.192,1.459-0.235,2.201
					c1.158,0.191,2.317,0.378,3.477,0.552c3.973,0.597,7.951,1.094,11.935,1.477c0.172,0.017,0.343,0.032,0.515,0.049
					c4.962,0.474,9.932,0.743,14.903,0.854V154.319z"/>
			</g>
		</g>
		<g>
			<g>
				<path style="fill:none;stroke:#6F6F6E;stroke-width:0.1;stroke-linecap:round;stroke-linejoin:round;stroke-miterlimit:10;" d="
					M69.696,119.764c5.626,5.181,13.135,8.348,21.386,8.348c8.251,0,15.76-3.167,21.386-8.348"/>
				<g>
					<path style="fill:#DC2A2C;" d="M85.895,127.657l1.461,1.849c0.617,0.78,1.557,1.235,2.551,1.235h2.47
						c0.995,0,1.933-0.469,2.53-1.265l1.363-1.819H85.895z"/>
					<path style="fill:#E94941;" d="M91.629,125.572l-0.304,0.309c-0.142,0.145-0.374,0.146-0.517,0.002l-0.271-0.271
						c-0.732-0.732-1.922-0.728-2.647,0.012l-1.995,2.032h2.693c0.659,0,1.313,0.104,1.94,0.307l0.304,0.098
						c0.216,0.07,0.449,0.066,0.664-0.011l0.283-0.103c0.531-0.192,1.092-0.291,1.656-0.291h2.834l-2.097-2.097
						C93.469,124.857,92.326,124.862,91.629,125.572z"/>
				</g>
			</g>
			<g>
				
					<ellipse transform="matrix(0.9676 0.2525 -0.2525 0.9676 28.346 -13.5827)" style="opacity:0.25;fill:#F296A4;" cx="67.086" cy="103.634" rx="11.974" ry="7.361"/>
				
					<ellipse transform="matrix(-0.9676 0.2525 -0.2525 -0.9676 252.4214 174.8707)" style="opacity:0.25;fill:#F296A4;" cx="114.988" cy="103.634" rx="11.974" ry="7.361"/>
			</g>
			<g>
				<g>
					<g>
						<g>
							<g>
								<path style="fill:#152A35;" d="M111.752,90.936c1.364,0.339,2.783-0.464,3.194-1.809c0.047-0.155-0.194-0.22-0.241-0.066
									c-0.37,1.213-1.656,1.94-2.886,1.634C111.662,90.656,111.596,90.897,111.752,90.936L111.752,90.936z"/>
							</g>
						</g>
						<g>
							<g>
								<path style="fill:#152A35;" d="M111.593,90.564c1.189,0,2.184-0.953,2.245-2.138c0.008-0.161-0.242-0.16-0.25,0
									c-0.054,1.05-0.946,1.888-1.995,1.888C111.432,90.314,111.432,90.564,111.593,90.564L111.593,90.564z"/>
							</g>
						</g>
						<g>
							<g>
								<path style="fill:#152A35;" d="M111.854,91.257c0.911,0.626,2.01,0.791,3.066,0.464c0.153-0.048,0.088-0.289-0.066-0.241
									c-0.998,0.309-2.013,0.153-2.873-0.438C111.847,90.949,111.722,91.166,111.854,91.257L111.854,91.257z"/>
							</g>
						</g>
					</g>
					<g>
						<g>
							<circle style="fill:#152A35;" cx="108.813" cy="92.198" r="3.333"/>
							<circle style="fill:#8E8D9C;" cx="108.813" cy="92.198" r="3.104"/>
							<polygon style="fill:#5F5D73;" points="106.209,90.761 107.552,91.41 106.38,90.487 107.645,91.278 106.579,90.235 
								107.751,91.157 106.805,90.004 107.869,91.048 107.054,89.8 107.999,90.953 107.323,89.624 108.139,90.872 107.611,89.478 
								108.286,90.807 107.911,89.363 108.44,90.758 108.223,89.282 108.598,90.727 108.542,89.236 108.758,90.712 108.863,89.224 
								108.919,90.715 109.185,89.246 109.078,90.735 109.502,89.304 109.236,90.772 109.811,89.396 109.387,90.826 110.108,89.52 
								109.532,90.896 110.39,89.676 109.668,90.982 110.653,89.861 109.795,91.081 110.895,90.073 109.91,91.194 111.112,90.311 
								110.012,91.319 111.303,90.57 110.101,91.453 111.465,90.85 110.174,91.597 111.595,91.144 110.231,91.747 111.693,91.45 
								110.271,91.903 111.756,91.767 110.294,92.063 111.785,92.087 110.3,92.223 111.78,92.409 110.289,92.384 111.74,92.729 
								110.26,92.542 111.665,93.042 110.215,92.696 111.558,93.346 110.153,92.845 111.417,93.636 110.074,92.986 111.247,93.908 
								109.982,93.118 111.048,94.161 109.875,93.238 110.822,94.392 109.757,93.348 110.573,94.596 109.627,93.443 110.304,94.773 
								109.487,93.524 110.017,94.918 109.34,93.589 109.715,95.032 109.187,93.638 109.403,95.113 109.029,93.67 109.085,95.16 
								108.868,93.685 108.763,95.172 108.708,93.682 108.442,95.15 108.548,93.661 108.125,95.092 108.392,93.624 107.817,95 
								108.239,93.57 107.519,94.876 108.095,93.5 107.237,94.721 107.958,93.414 106.974,94.535 107.831,93.315 106.732,94.322 
								107.716,93.202 106.514,94.085 107.614,93.078 106.323,93.825 107.527,92.944 106.162,93.547 107.453,92.8 106.031,93.252 
								107.396,92.649 105.934,92.945 107.356,92.493 105.87,92.63 107.332,92.334 105.841,92.309 107.326,92.173 105.846,91.986 
								107.338,92.012 105.887,91.667 107.366,91.854 105.961,91.354 107.412,91.699 106.07,91.051 107.474,91.551 							"/>
						</g>
						<g>
							<circle style="opacity:0.35;fill:#1D1A3A;" cx="108.824" cy="92.198" r="1.587"/>
							<path style="fill:#FFFFFF;" d="M109.8,91.485c0-0.009,0.005-0.017,0.005-0.025c0-0.271-0.22-0.49-0.49-0.49
								c-0.271,0-0.49,0.22-0.49,0.49s0.219,0.49,0.49,0.49c0.041,0,0.077-0.014,0.115-0.023c0.036,0.015,0.075,0.023,0.116,0.023
								c0.168,0,0.305-0.137,0.305-0.305C109.851,91.584,109.829,91.532,109.8,91.485z"/>
						</g>
					</g>
				</g>
				<g>
					<g>
						<g>
							<g>
								<path style="fill:#152A35;" d="M71.088,90.695c-1.23,0.306-2.515-0.422-2.885-1.634c-0.047-0.154-0.288-0.088-0.241,0.066
									c0.41,1.344,1.829,2.148,3.193,1.809C71.311,90.897,71.244,90.656,71.088,90.695L71.088,90.695z"/>
							</g>
						</g>
						<g>
							<g>
								<path style="fill:#152A35;" d="M71.315,90.314c-1.049,0-1.941-0.838-1.995-1.888c-0.008-0.16-0.258-0.161-0.25,0
									c0.061,1.184,1.056,2.138,2.245,2.138C71.476,90.564,71.476,90.314,71.315,90.314L71.315,90.314z"/>
							</g>
						</g>
						<g>
							<g>
								<path style="fill:#152A35;" d="M70.927,91.041c-0.861,0.591-1.876,0.748-2.873,0.438c-0.154-0.048-0.22,0.193-0.066,0.241
									c1.056,0.327,2.155,0.163,3.066-0.464C71.185,91.166,71.061,90.949,70.927,91.041L70.927,91.041z"/>
							</g>
						</g>
					</g>
					<g>
						<g>
							<circle style="fill:#152A35;" cx="73.988" cy="92.198" r="3.333"/>
							<circle style="fill:#8E8D9C;" cx="73.988" cy="92.198" r="3.104"/>
							<polygon style="fill:#5F5D73;" points="71.384,90.761 72.727,91.41 71.555,90.487 72.82,91.278 71.754,90.235 72.926,91.157 
								71.98,90.004 73.045,91.048 72.229,89.8 73.175,90.953 72.498,89.624 73.314,90.872 72.785,89.478 73.461,90.807 
								73.086,89.363 73.614,90.758 73.399,89.282 73.773,90.727 73.717,89.236 73.933,90.712 74.038,89.224 74.094,90.715 
								74.36,89.246 74.254,90.735 74.677,89.304 74.41,90.772 74.986,89.396 74.562,90.826 75.282,89.52 74.707,90.896 
								75.565,89.676 74.844,90.982 75.828,89.861 74.97,91.081 76.07,90.073 75.085,91.194 76.287,90.311 75.188,91.319 
								76.479,90.57 75.276,91.453 76.64,90.85 75.349,91.597 76.77,91.144 75.405,91.747 76.867,91.45 75.446,91.903 
								76.932,91.767 75.469,92.063 76.961,92.087 75.476,92.223 76.955,92.409 75.464,92.384 76.915,92.729 75.436,92.542 
								76.841,93.042 75.39,92.696 76.733,93.346 75.327,92.845 76.593,93.636 75.249,92.986 76.422,93.908 75.157,93.118 
								76.223,94.161 75.051,93.238 75.997,94.392 74.932,93.348 75.748,94.596 74.802,93.443 75.479,94.773 74.662,93.524 
								75.192,94.918 74.516,93.589 74.891,95.032 74.362,93.638 74.578,95.113 74.204,93.67 74.26,95.16 74.044,93.685 
								73.938,95.172 73.883,93.682 73.617,95.15 73.723,93.661 73.3,95.092 73.567,93.624 72.991,95 73.414,93.57 72.695,94.876 
								73.27,93.5 72.412,94.721 73.133,93.414 72.149,94.535 73.006,93.315 71.906,94.322 72.892,93.202 71.69,94.085 
								72.789,93.078 71.498,93.825 72.701,92.944 71.337,93.547 72.628,92.8 71.207,93.252 72.571,92.649 71.11,92.945 
								72.53,92.493 71.045,92.63 72.507,92.334 71.016,92.309 72.501,92.173 71.022,91.986 72.513,92.012 71.062,91.667 
								72.541,91.854 71.136,91.354 72.587,91.699 71.244,91.051 72.65,91.551 							"/>
						</g>
						<g>
							<circle style="opacity:0.35;fill:#1D1A3A;" cx="73.999" cy="92.198" r="1.587"/>
							<path style="fill:#FFFFFF;" d="M74.975,91.485c0-0.009,0.005-0.017,0.005-0.025c0-0.271-0.22-0.49-0.49-0.49
								s-0.49,0.22-0.49,0.49s0.22,0.49,0.49,0.49c0.041,0,0.078-0.014,0.116-0.023c0.035,0.015,0.074,0.023,0.115,0.023
								c0.169,0,0.305-0.137,0.305-0.305C75.026,91.584,75.004,91.532,74.975,91.485z"/>
						</g>
					</g>
				</g>
			</g>
		</g>
	</g>
</g>
<g>
</g>
<g>
</g>
<g>
</g>
<g>
</g>
<g>
</g>
<g>
</g>
<g>
</g>
<g>
</g>
<g>
</g>
<g>
</g>
<g>
</g>
<g>
</g>
<g>
</g>
<g>
</g>
<g>
</g>
</svg>
