<?xml version="1.0" encoding="iso-8859-1"?>
<!-- Generator: Adobe Illustrator 19.0.0, SVG Export Plug-In . SVG Version: 6.00 Build 0)  -->
<svg version="1.1" id="Layer_1" xmlns="http://www.w3.org/2000/svg" xmlns:xlink="http://www.w3.org/1999/xlink" x="0px" y="0px"
	 viewBox="0 0 318.543 318.543" style="enable-background:new 0 0 318.543 318.543;" xml:space="preserve">
<g>
	<g>
		<g>
			<path style="fill:#348789;" d="M303.463,253.096c-11.151-37.754-67.121-33.566-91.279-44.408
				c-24.157-10.842-20.386-47.219-23.449-53.548h-58.932c-3.058,6.329,0.714,42.711-23.449,53.548
				c-24.157,10.842-80.133,6.655-91.279,44.408c-6.149,20.824-5.857,27.193-7.554,50.26c0,0,76.8,15.187,150.014,15.187
				s153.488-15.187,153.488-15.187C309.319,280.283,309.612,273.921,303.463,253.096z"/>
			<g>
				<path style="fill:#44ADA0;" d="M15.811,250.854c-0.264,0.731-0.506,1.478-0.736,2.243c-0.444,1.501-0.849,2.923-1.231,4.283
					h1.962v-6.526H15.811z"/>
				<path style="fill:#44ADA0;" d="M10.837,269.851c-1.546,7.948-2.007,14.63-2.715,24.95h7.683v-24.95H10.837z"/>
				<rect x="40.755" y="269.851" style="fill:#44ADA0;" width="12.472" height="24.95"/>
				<rect x="40.755" y="232.429" style="fill:#44ADA0;" width="12.472" height="24.95"/>
				<path style="fill:#44ADA0;" d="M40.755,307.273v1.652c3.901,0.579,8.071,1.175,12.472,1.771v-3.429H40.755V307.273z"/>
				<path style="fill:#44ADA0;" d="M90.655,219.952v-6.537c-3.946,0.866-8.144,1.664-12.472,2.496v4.047h12.472V219.952z"/>
				<rect x="78.177" y="269.851" style="fill:#44ADA0;" width="12.472" height="24.95"/>
				<rect x="78.177" y="232.429" style="fill:#44ADA0;" width="12.472" height="24.95"/>
				<path style="fill:#44ADA0;" d="M78.177,307.273v6.497c4.058,0.444,8.223,0.877,12.472,1.287v-7.779H78.177V307.273z"/>
				<path style="fill:#44ADA0;" d="M115.599,219.952h12.472v-24.95h-7.352c-1.405,2.563-3.091,4.963-5.12,7.11V219.952z"/>
				<rect x="115.599" y="232.429" style="fill:#44ADA0;" width="12.472" height="24.95"/>
				<path style="fill:#44ADA0;" d="M128.077,182.529V166.28c-0.5,4.783-1.186,10.505-2.63,16.255h2.63V182.529z"/>
				<path style="fill:#44ADA0;" d="M115.599,307.273v9.808c4.126,0.27,8.285,0.511,12.472,0.714v-10.522H115.599z"/>
				<rect x="115.599" y="269.851" style="fill:#44ADA0;" width="12.472" height="24.95"/>
				<path style="fill:#44ADA0;" d="M153.027,307.273v11.252c1.501,0.011,3.007,0.017,4.508,0.017c2.647,0,5.306-0.022,7.964-0.056
					v-11.213H153.027z"/>
				<rect x="153.027" y="269.851" style="fill:#44ADA0;" width="12.472" height="24.95"/>
				<rect x="153.027" y="195.007" style="fill:#44ADA0;" width="12.472" height="24.95"/>
				<rect x="153.027" y="232.429" style="fill:#44ADA0;" width="12.472" height="24.95"/>
				<rect x="153.027" y="155.14" style="fill:#44ADA0;" width="12.472" height="27.395"/>
				<path style="fill:#44ADA0;" d="M193.091,182.529c-1.461-5.806-2.147-11.59-2.647-16.401v16.401H193.091z"/>
				<path style="fill:#44ADA0;" d="M190.449,307.273v10.359c4.182-0.219,8.347-0.472,12.472-0.759v-9.6H190.449z"/>
				<path style="fill:#44ADA0;" d="M190.449,219.952h12.472V202.1c-2.023-2.141-3.704-4.541-5.104-7.093h-7.369v24.945H190.449z"/>
				<rect x="190.449" y="269.851" style="fill:#44ADA0;" width="12.472" height="24.95"/>
				<rect x="190.449" y="232.429" style="fill:#44ADA0;" width="12.472" height="24.95"/>
				<path style="fill:#44ADA0;" d="M227.871,307.273v7.526c4.244-0.41,8.408-0.843,12.472-1.287v-6.239H227.871z"/>
				<rect x="227.871" y="269.851" style="fill:#44ADA0;" width="12.472" height="24.95"/>
				<path style="fill:#44ADA0;" d="M240.343,219.952v-4.047c-4.328-0.826-8.526-1.624-12.472-2.496v6.542h12.472V219.952z"/>
				<rect x="227.871" y="232.429" style="fill:#44ADA0;" width="12.472" height="24.95"/>
				<rect x="265.293" y="269.851" style="fill:#44ADA0;" width="12.472" height="24.95"/>
				<path style="fill:#44ADA0;" d="M265.293,307.273v3.209c4.401-0.585,8.571-1.169,12.472-1.737v-1.473L265.293,307.273
					L265.293,307.273z"/>
				<rect x="265.293" y="232.429" style="fill:#44ADA0;" width="12.472" height="24.95"/>
				<path style="fill:#44ADA0;" d="M304.694,257.374c-0.377-1.36-0.787-2.782-1.231-4.283c-0.23-0.781-0.483-1.54-0.748-2.288v6.565
					h1.978L304.694,257.374L304.694,257.374z"/>
				<path style="fill:#44ADA0;" d="M302.715,294.796h7.7c-0.708-10.314-1.175-16.997-2.715-24.95h-4.986
					C302.715,269.846,302.715,294.796,302.715,294.796z"/>
				<rect x="165.499" y="182.529" style="fill:#44ADA0;" width="24.95" height="12.472"/>
				<rect x="128.077" y="182.529" style="fill:#44ADA0;" width="24.95" height="12.472"/>
				<path style="fill:#76C4BB;" d="M128.077,182.529h-2.63c-1.074,4.272-2.574,8.555-4.721,12.472h7.352v-12.472H128.077z"/>
				<rect x="153.027" y="182.529" style="fill:#76C4BB;" width="12.472" height="12.472"/>
				<path style="fill:#76C4BB;" d="M197.818,195.007c-2.153-3.918-3.648-8.2-4.721-12.472h-2.647v12.472H197.818z"/>
				<path style="fill:#44ADA0;" d="M29.716,232.429h11.039v-6.363C36.787,227.848,33.066,229.939,29.716,232.429z"/>
				<rect x="202.921" y="219.952" style="fill:#44ADA0;" width="24.95" height="12.472"/>
				<path style="fill:#44ADA0;" d="M240.343,232.429h24.95v-10.898c-1.922-0.568-3.867-1.09-5.823-1.579h-19.127V232.429z"/>
				<rect x="90.655" y="219.952" style="fill:#44ADA0;" width="24.95" height="12.472"/>
				<rect x="128.077" y="219.952" style="fill:#44ADA0;" width="24.95" height="12.472"/>
				<path style="fill:#44ADA0;" d="M53.233,232.429h24.95v-12.472h-19.11c-1.962,0.495-3.912,1.017-5.84,1.585
					C53.233,221.542,53.233,232.429,53.233,232.429z"/>
				<path style="fill:#44ADA0;" d="M288.821,232.429c-3.355-2.49-7.082-4.581-11.056-6.368v6.368H288.821z"/>
				<rect x="165.499" y="219.952" style="fill:#44ADA0;" width="24.95" height="12.472"/>
				<path style="fill:#76C4BB;" d="M53.233,221.537c-4.317,1.27-8.515,2.748-12.472,4.525v6.363h12.472V221.537z"/>
				<rect x="78.177" y="219.952" style="fill:#76C4BB;" width="12.472" height="12.472"/>
				<rect x="115.599" y="219.952" style="fill:#76C4BB;" width="12.472" height="12.472"/>
				<rect x="153.027" y="219.952" style="fill:#76C4BB;" width="12.472" height="12.472"/>
				<rect x="190.449" y="219.952" style="fill:#76C4BB;" width="12.472" height="12.472"/>
				<rect x="227.871" y="219.952" style="fill:#76C4BB;" width="12.472" height="12.472"/>
				<path style="fill:#76C4BB;" d="M265.293,232.429h12.472v-6.368c-3.957-1.776-8.156-3.254-12.472-4.525L265.293,232.429
					L265.293,232.429z"/>
				<rect x="277.765" y="257.374" style="fill:#44ADA0;" width="24.95" height="12.472"/>
				<rect x="15.811" y="257.374" style="fill:#44ADA0;" width="24.95" height="12.472"/>
				<rect x="202.921" y="257.374" style="fill:#44ADA0;" width="24.95" height="12.472"/>
				<rect x="240.343" y="257.374" style="fill:#44ADA0;" width="24.95" height="12.472"/>
				<rect x="53.233" y="257.374" style="fill:#44ADA0;" width="24.95" height="12.472"/>
				<rect x="165.499" y="257.374" style="fill:#44ADA0;" width="24.95" height="12.472"/>
				<rect x="90.655" y="257.374" style="fill:#44ADA0;" width="24.95" height="12.472"/>
				<rect x="128.077" y="257.374" style="fill:#44ADA0;" width="24.95" height="12.472"/>
				<path style="fill:#76C4BB;" d="M15.811,257.374h-1.967c-1.326,4.766-2.288,8.763-3.007,12.472h4.969v-12.472L15.811,257.374
					L15.811,257.374z"/>
				<rect x="40.755" y="257.374" style="fill:#76C4BB;" width="12.472" height="12.472"/>
				<rect x="78.177" y="257.374" style="fill:#76C4BB;" width="12.472" height="12.472"/>
				<rect x="115.599" y="257.374" style="fill:#76C4BB;" width="12.472" height="12.472"/>
				<rect x="153.027" y="257.374" style="fill:#76C4BB;" width="12.472" height="12.472"/>
				<rect x="190.449" y="257.374" style="fill:#76C4BB;" width="12.472" height="12.472"/>
				<rect x="227.871" y="257.374" style="fill:#76C4BB;" width="12.472" height="12.472"/>
				<rect x="265.293" y="257.374" style="fill:#76C4BB;" width="12.472" height="12.472"/>
				<path style="fill:#76C4BB;" d="M302.715,269.851h4.986c-0.719-3.715-1.681-7.706-3.007-12.472h-1.978v12.472H302.715z"/>
				<path style="fill:#44ADA0;" d="M302.715,294.796h-24.95v12.472h9.853c6.115-0.944,11.224-1.787,15.091-2.445v-10.027H302.715z"
					/>
				<path style="fill:#44ADA0;" d="M40.755,294.796H15.811v10.083c3.676,0.652,8.482,1.473,14.215,2.389h10.735v-12.472
					L40.755,294.796L40.755,294.796z"/>
				<rect x="202.921" y="294.796" style="fill:#44ADA0;" width="24.95" height="12.472"/>
				<rect x="53.233" y="294.796" style="fill:#44ADA0;" width="24.95" height="12.472"/>
				<rect x="128.077" y="294.796" style="fill:#44ADA0;" width="24.95" height="12.472"/>
				<rect x="90.655" y="294.796" style="fill:#44ADA0;" width="24.95" height="12.472"/>
				<rect x="165.499" y="294.796" style="fill:#44ADA0;" width="24.95" height="12.472"/>
				<rect x="240.343" y="294.796" style="fill:#44ADA0;" width="24.95" height="12.472"/>
				<path style="fill:#76C4BB;" d="M7.52,303.356c0,0,2.968,0.585,8.29,1.529v-10.083H8.122
					C7.942,297.392,7.751,300.22,7.52,303.356z"/>
				<rect x="40.755" y="294.796" style="fill:#76C4BB;" width="12.472" height="12.472"/>
				<rect x="78.177" y="294.796" style="fill:#76C4BB;" width="12.472" height="12.472"/>
				<rect x="115.599" y="294.796" style="fill:#76C4BB;" width="12.472" height="12.472"/>
				<rect x="153.027" y="294.796" style="fill:#76C4BB;" width="12.472" height="12.472"/>
				<rect x="190.449" y="294.796" style="fill:#76C4BB;" width="12.472" height="12.472"/>
				<rect x="227.871" y="294.796" style="fill:#76C4BB;" width="12.472" height="12.472"/>
				<rect x="265.293" y="294.796" style="fill:#76C4BB;" width="12.472" height="12.472"/>
				<path style="fill:#76C4BB;" d="M302.715,304.828c5.328-0.911,8.307-1.473,8.307-1.473c-0.23-3.136-0.427-5.958-0.601-8.555h-7.7
					v10.027L302.715,304.828L302.715,304.828z"/>
			</g>
			<g style="opacity:0.25;">
				<path style="fill:#24897A;" d="M303.463,253.096c-11.151-37.754-67.121-33.566-91.279-44.408
					c-24.157-10.842-20.386-47.219-23.449-53.548h-31.206c0,0-0.719,51.024,23.438,61.866s80.133,6.655,91.279,44.408
					c5.857,19.83,5.868,26.552,7.324,47.073c19.234-2.816,31.442-5.126,31.442-5.126
					C309.319,280.283,309.612,273.921,303.463,253.096z"/>
			</g>
			<g>
				<g>
					<g style="opacity:0.25;">
						<polygon style="fill:#24897A;" points="208.946,206.985 175.897,235.7 159.21,207.749 						"/>
					</g>
					<g style="opacity:0.25;">
						<polygon style="fill:#24897A;" points="109.023,207.322 142.606,235.7 159.21,207.749 						"/>
					</g>
					<path style="fill:#EAEAE1;" d="M159.21,207.749l-38.344-16.637c0,0-3.389,4.817-11.843,16.21l31.723,22.853L159.21,207.749z"/>
					<path style="fill:#EAEAE1;" d="M159.21,207.749l37.422-16.637c0,0,3.861,4.48,12.315,15.873l-32.195,23.191L159.21,207.749z"/>
					<path style="fill:#E0DBD3;" d="M196.632,191.112l-28.867,12.832c3.26,5.778,7.548,10.516,13.208,13.057
						c2.799,1.253,6.02,2.31,9.555,3.249l18.419-13.265C200.493,195.592,196.632,191.112,196.632,191.112z"/>
				</g>
			</g>
			<g>
				<g>
					<path style="fill:#C65044;" d="M122.833,244.317c0,0-5.784-7.97-5.784-19.925s5.784-19.925,5.784-19.925
						c20.403,0,32.066,15.94,32.066,15.94v3.985v3.985C154.899,228.377,143.241,244.317,122.833,244.317z"/>
					<path style="fill:#C65044;" d="M195.71,244.317c0,0,5.784-7.97,5.784-19.925s-5.784-19.925-5.784-19.925
						c-20.403,0-32.066,15.94-32.066,15.94v3.985v3.985C163.644,228.377,175.301,244.317,195.71,244.317z"/>
				</g>
				<g>
					<path style="fill:#AD3936;" d="M180.714,229.889c-0.32-0.051-0.624-0.141-0.905-0.259l-16.03-4.541l16.643,0.815
						c0.298-0.017,0.618-0.006,0.939,0.045c1.591,0.259,2.732,1.355,2.552,2.439S182.305,230.153,180.714,229.889z"/>
					<path style="fill:#AD3936;" d="M181.4,222.205c-0.315,0.079-0.63,0.118-0.933,0.124l-16.519,2.186l15.603-5.845
						c0.27-0.135,0.562-0.253,0.882-0.332c1.563-0.388,3.046,0.157,3.311,1.225C184.013,220.632,182.962,221.812,181.4,222.205z"/>
					<path style="fill:#AD3936;" d="M138.318,229.889c0.32-0.051,0.624-0.141,0.905-0.259l16.03-4.541l-16.643,0.815
						c-0.298-0.017-0.618-0.006-0.939,0.045c-1.591,0.259-2.732,1.355-2.552,2.439S136.733,230.153,138.318,229.889z"/>
					<path style="fill:#AD3936;" d="M137.632,222.205c0.315,0.079,0.63,0.118,0.933,0.124l16.519,2.186l-15.603-5.845
						c-0.27-0.135-0.562-0.253-0.882-0.332c-1.563-0.388-3.046,0.157-3.311,1.225C135.024,220.632,136.075,221.812,137.632,222.205z
						"/>
				</g>
				<path style="fill:#AD3936;" d="M166.561,217.417c0-1.641-0.984-2.99-2.186-2.99h-10.201c-1.203,0-2.186,1.343-2.186,2.99v13.95
					c0,1.641,0.984,2.99,2.186,2.99h10.201c1.203,0,2.186-1.343,2.186-2.99V217.417z"/>
			</g>
			<circle style="fill:#2F3233;" cx="159.21" cy="247.088" r="6.346"/>
			<circle style="fill:#2F3233;" cx="159.21" cy="278.856" r="6.346"/>
			<circle style="fill:#2F3233;" cx="159.21" cy="310.623" r="6.346"/>
		</g>
		<g>
			
				<ellipse transform="matrix(-0.177 0.9842 -0.9842 -0.177 384.9922 -85.6602)" style="fill:#DDB58E;" cx="228.311" cy="118.135" rx="21.386" ry="11.629"/>
			
				<ellipse transform="matrix(-0.9842 0.177 -0.177 -0.9842 199.5974 218.4798)" style="fill:#E8C59E;" cx="90.054" cy="118.142" rx="11.629" ry="21.386"/>
			<path style="fill:#E8C59E;" d="M223.431,46.943l-63.653,9.218l-65.396-8.33c0,0-5.48,31.83-5.48,46.438
				c0,44.184,7.931,104.645,70.303,113.48C259.425,193.557,223.431,46.943,223.431,46.943z"/>
			<path style="fill:#DDB58E;" d="M159.21,207.749c100.216-14.192,64.221-160.806,64.221-160.806h-15.024
				c4.114,61.242,9.808,93.774-13.815,129.24C175.875,204.287,159.21,207.749,159.21,207.749z"/>
			<path style="fill:#DDB58E;" d="M90.059,85.939h5.272c-0.607-9.932-0.073-21.302,4.693-26.068
				c9.274-9.274,59.798,8.881,59.798,8.881s51.131-16.328,58.578-8.881c3.912,3.912,4.407,15.726,4.002,26.068h2.282V36.332H90.059
				V85.939z"/>
			<path style="fill:#393C3D;" d="M238.292,30.042c6.413-12.185,14.698-14.282,14.698-14.282C228.545,2.63,195.968,0,159.21,0
				c-49.72,0-68.521,8.869-72.933,30.037c-3.423,16.423-2.012,54.497-0.433,67.149c4.339-0.472,8.611,0.719,11.663,2.102
				c0,0-6.756-34.303,2.518-43.582s59.798,8.881,59.798,8.881s51.131-16.328,58.578-8.881s2.518,43.582,2.518,43.582
				c3.052-1.383,7.324-2.574,11.663-2.102C235.509,66.599,232.817,40.446,238.292,30.042z"/>
			<path style="fill:#393C3D;" d="M150.621,148.654c0,0-13.928,0.511-17.401,16.024c-2.327,10.409-13.669,9.69-18.363,5.548
				c-2.209-1.95-2.934-5.177-0.674-7.357c0,0,1.456-1.349,4.148-1.248c1.877,0.067,3.406,1.557,3.406,3.479
				s-1.523,3.479-3.406,3.479c-0.332,0-0.646-0.067-0.967-0.141c-0.736-0.174-0.259,0.467,0.017,0.714
				c0.388,0.348,0.821,0.646,1.293,0.866c1.085,0.495,2.304,0.545,3.4,0.101c0,0,3.912-1.726,2.636-7.526
				c-0.444-2.035-4.187-6.014-9.651-4.896c-0.399,0.079-0.793,0.163-1.186,0.275c-0.939,0.27-1.849,0.646-2.709,1.13
				c-1.102,0.618-2.113,1.428-2.917,2.428c-0.961,1.197-1.568,2.647-1.81,4.176c-0.337,2.13,0.006,4.322,0.613,6.368
				c0.084,0.287,0.174,0.573,0.27,0.854c0.163,0.483,0.32,0.899,0.579,1.332c0.214,0.365,0.444,0.725,0.686,1.074
				c0.793,1.147,1.703,2.209,2.698,3.176c1.383,1.343,2.945,2.496,4.626,3.412c2.108,1.147,4.401,1.911,6.756,2.293
				c0.972,0.157,1.962,0.253,2.945,0.287c4.069,0.146,8.875-0.725,14.484-3.333c0,0,13.759-6.081,18.053-16.502
				C158.153,164.65,165.763,148.654,150.621,148.654z"/>
			<path style="fill:#393C3D;" d="M167.933,148.654c0,0,13.928,0.511,17.401,16.024c2.327,10.409,13.669,9.69,18.363,5.548
				c2.209-1.95,2.934-5.177,0.674-7.357c0,0-1.456-1.349-4.148-1.248c-1.877,0.067-3.406,1.557-3.406,3.479s1.523,3.479,3.406,3.479
				c0.332,0,0.646-0.067,0.967-0.141c0.736-0.174,0.259,0.467-0.017,0.714c-0.388,0.348-0.821,0.646-1.293,0.866
				c-1.085,0.495-2.304,0.545-3.4,0.101c0,0-3.912-1.726-2.636-7.526c0.444-2.035,4.187-6.014,9.651-4.896
				c0.399,0.079,0.792,0.163,1.186,0.275c0.939,0.27,1.849,0.646,2.709,1.13c1.102,0.618,2.113,1.428,2.917,2.428
				c0.961,1.197,1.568,2.647,1.81,4.176c0.337,2.13-0.006,4.322-0.613,6.368c-0.084,0.287-0.174,0.573-0.27,0.854
				c-0.163,0.483-0.32,0.899-0.579,1.332c-0.214,0.365-0.444,0.725-0.686,1.074c-0.792,1.147-1.703,2.209-2.698,3.176
				c-1.383,1.343-2.945,2.496-4.626,3.412c-2.108,1.147-4.401,1.911-6.756,2.293c-0.972,0.157-1.962,0.253-2.945,0.287
				c-4.069,0.146-8.875-0.725-14.484-3.333c0,0-13.759-6.081-18.053-16.502C160.401,164.65,152.791,148.654,167.933,148.654z"/>
		</g>
	</g>
</g>
<g>
</g>
<g>
</g>
<g>
</g>
<g>
</g>
<g>
</g>
<g>
</g>
<g>
</g>
<g>
</g>
<g>
</g>
<g>
</g>
<g>
</g>
<g>
</g>
<g>
</g>
<g>
</g>
<g>
</g>
</svg>
