<?xml version="1.0" encoding="iso-8859-1"?>
<!-- Generator: Adobe Illustrator 19.0.0, SVG Export Plug-In . SVG Version: 6.00 Build 0)  -->
<svg version="1.1" id="Layer_1" xmlns="http://www.w3.org/2000/svg" xmlns:xlink="http://www.w3.org/1999/xlink" x="0px" y="0px"
	 viewBox="0 0 337.676 337.676" style="enable-background:new 0 0 337.676 337.676;" xml:space="preserve">
<g>
	<g>
		<path style="fill:#D3CEC7;" d="M313.029,272.229c-11.151-37.754-67.121-33.566-91.279-44.408
			c-24.157-10.842-20.386-47.219-23.449-53.548h-58.932c-3.058,6.329,0.714,42.711-23.449,53.548
			c-24.157,10.842-80.133,6.655-91.279,44.408c-6.149,20.824-5.857,27.193-7.554,50.26c0,0,76.8,15.187,150.014,15.187
			s153.488-15.187,153.488-15.187C318.886,299.416,319.178,293.053,313.029,272.229z"/>
		<path style="fill:#C6C1BA;" d="M313.029,272.229c-11.151-37.754-67.121-33.566-91.279-44.408
			c-24.157-10.842-20.386-47.219-23.449-53.548h-31.206c0,0-0.719,51.024,23.438,61.866c24.157,10.842,80.133,6.655,91.279,44.408
			c5.857,19.829,5.868,26.552,7.324,47.073c19.234-2.816,31.442-5.126,31.442-5.126
			C318.886,299.416,319.178,293.053,313.029,272.229z"/>
		<path style="fill:#EB5F24;" d="M166.747,300.416c-50.67,0-92.42-5.536-118.528-10.173c-10.758-1.911-19.818-3.839-26.923-5.491
			c-1.534,6.694-2.259,12.09-2.822,18.559c7.048,1.613,15.777,3.445,26.04,5.278c26.934,4.806,69.999,10.539,122.232,10.539
			c52.21,0,96.388-5.727,124.249-10.533c11.168-1.928,20.628-3.845,28.171-5.514c-0.568-6.43-1.304-11.826-2.85-18.542
			c-7.565,1.697-17.3,3.693-28.862,5.677C260.386,294.874,217.473,300.416,166.747,300.416z"/>
		<path style="fill:#EB5F24;" d="M297.583,250.972c-3.198,0.601-6.576,1.214-10.123,1.827
			c-27.069,4.654-69.988,10.196-120.708,10.196c-50.67,0-92.42-5.536-118.528-10.173c-2.968-0.528-5.8-1.057-8.504-1.579
			c-5.739,4.165-10.415,9.471-13.405,16.378c5.379,1.141,11.46,2.344,18.211,3.552c26.928,4.811,69.994,10.539,122.226,10.539
			c52.21,0,96.388-5.727,124.249-10.533c7.548-1.304,14.321-2.602,20.245-3.822C308.184,260.426,303.418,255.125,297.583,250.972z"
			/>
		<path style="fill:#EB5F24;" d="M263.882,237.864c-15.867-3.547-31.869-5.441-42.132-10.044c-2.389-1.074-4.496-2.394-6.374-3.912
			c-15.103,1.023-31.414,1.664-48.63,1.664c-15.856,0-30.84-0.54-44.74-1.428c-1.804,1.422-3.822,2.659-6.087,3.676
			c-10.494,4.71-26.99,6.582-43.211,10.291c25.22,3.35,57.37,6.171,94.039,6.171C204.315,244.283,237.718,241.321,263.882,237.864z"
			/>
		<path style="fill:#E55420;" d="M319.172,303.086c-0.568-6.43-1.304-11.826-2.85-18.542c-7.565,1.697-17.3,3.693-28.862,5.677
			c-0.933,0.163-1.889,0.32-2.861,0.483c1.703,6.919,2.546,12.315,3.153,18.441c1.107-0.185,2.192-0.371,3.249-0.551
			C302.164,306.672,311.629,304.75,319.172,303.086z"/>
		<path style="fill:#E55420;" d="M311.247,267.356c-3.058-6.925-7.83-12.23-13.664-16.378c-3.198,0.601-6.576,1.214-10.123,1.827
			c-7.307,1.253-15.766,2.574-25.22,3.833c6.93,4.03,12.748,9.325,16.581,16.525c4.345-0.669,8.414-1.332,12.186-1.984
			C298.55,269.874,305.317,268.575,311.247,267.356z"/>
		<path style="fill:#E55420;" d="M221.75,227.82c-2.389-1.074-4.496-2.394-6.374-3.912c-11.539,0.781-23.786,1.338-36.596,1.563
			c3.052,4.688,6.902,8.487,11.758,10.668c6.43,2.883,15.119,4.704,24.613,6.537c18.059-1.192,34.471-2.928,48.731-4.806
			C248.015,234.318,232.013,232.424,221.75,227.82z"/>
		<path style="fill:#EAE5DC;" d="M199.448,245.093c9.741-3.805,17.756-9.409,23.168-16.21l0.416-0.517
			c-0.433-0.18-0.86-0.36-1.276-0.545c-24.157-10.842-20.386-47.219-23.449-53.548h-58.938c-3.058,6.329,0.714,42.711-23.449,53.548
			c-0.416,0.185-0.843,0.371-1.276,0.545l0.416,0.517c5.413,6.795,13.428,12.399,23.168,16.21c9.229,3.603,19.813,5.508,30.61,5.508
			S190.218,248.695,199.448,245.093z"/>
		<path style="fill:#E0DBD3;" d="M190.539,236.133c4.71,2.113,10.634,3.659,17.199,5.053c6.031-3.378,11.089-7.548,14.872-12.304
			l0.416-0.517c-0.433-0.18-0.86-0.36-1.276-0.545c-24.157-10.842-20.386-47.219-23.449-53.548h-31.206
			C167.101,174.273,166.381,225.297,190.539,236.133z"/>
		<path style="fill:#DBB491;" d="M211.234,219.817c-12.5-14.951-10.421-40.356-12.927-45.549h-58.938
			c-2.512,5.193-0.427,30.599-12.927,45.549c7.655,9.611,23.764,16.232,42.396,16.232S203.579,229.428,211.234,219.817z"/>
		<path style="fill:#CCA483;" d="M186.661,233.913c10.747-2.692,19.509-7.74,24.573-14.096
			c-12.5-14.951-10.421-40.356-12.927-45.549h-31.206C167.101,174.273,166.46,219.659,186.661,233.913z"/>
		<path style="fill:#C69E7F;" d="M131.438,211.869c9.78,7.959,21.24,15.85,37.338,18.132c16.137-2.288,27.569-10.342,37.36-18.334
			c-8.144-14.973-5.626-32.83-7.83-37.4h-58.938C137.154,178.842,139.622,196.89,131.438,211.869z"/>
		
			<ellipse transform="matrix(-0.177 0.9842 -0.9842 -0.177 415.0835 -72.5557)" style="fill:#CCA483;" cx="237.877" cy="137.269" rx="21.386" ry="11.629"/>
		
			<ellipse transform="matrix(-0.9842 0.177 -0.177 -0.9842 221.964 254.7507)" style="fill:#DBB491;" cx="99.619" cy="137.276" rx="11.629" ry="21.386"/>
		<path style="fill:#DBB491;" d="M232.997,66.076h-64.221h-64.187c0,0-35.989,146.614,64.187,160.806
			C268.991,212.69,232.997,66.076,232.997,66.076z"/>
		<path style="fill:#CCA483;" d="M168.776,226.882c100.216-14.192,64.221-160.806,64.221-160.806h-15.024
			c4.114,61.242,9.808,93.774-13.815,129.24C185.441,223.419,168.776,226.882,168.776,226.882z"/>
		<path style="fill:#CCA483;" d="M238.629,102.284c0,0-28.013,9.769-69.802,9.769s-69.786-9.769-69.786-9.769V75.878h139.588
			V102.284z"/>
		<path style="fill:#393C3D;" d="M232.148,55.194c6.689-6.452,7.301-16.631,5.531-28.266c-4.794,6.835-10.91,11.337-19.2,12
			c7.082-13.192,4.401-26.102-1.068-38.928c-9.499,33.971-105.061,12.534-122.94,62.973c-2.94,8.29-5.267,29.913-3.805,47.882
			c1.607,19.807,7.931,36.478,7.931,36.478l6.632,1.776c1.304-22.494-0.084-50.732-0.084-50.732s28.328,8.33,64.474,8.33
			s62.923-8.296,62.923-8.296c-0.107,10.145-1,33.403,0.191,50.507l7.723-1.523c0,0,6.233-20.302,6.233-32.779
			C246.694,108.894,249.612,59.871,232.148,55.194z"/>
	</g>
</g>
<g>
</g>
<g>
</g>
<g>
</g>
<g>
</g>
<g>
</g>
<g>
</g>
<g>
</g>
<g>
</g>
<g>
</g>
<g>
</g>
<g>
</g>
<g>
</g>
<g>
</g>
<g>
</g>
<g>
</g>
</svg>
