<?xml version="1.0" encoding="iso-8859-1"?>
<!-- Generator: Adobe Illustrator 19.0.0, SVG Export Plug-In . SVG Version: 6.00 Build 0)  -->
<svg version="1.1" id="Layer_1" xmlns="http://www.w3.org/2000/svg" xmlns:xlink="http://www.w3.org/1999/xlink" x="0px" y="0px"
	 viewBox="0 0 318.965 318.965" style="enable-background:new 0 0 318.965 318.965;" xml:space="preserve">
<g>
	<g>
		<path style="fill:#EAEAE1;" d="M109.228,207.744v109.298c15.76,1.169,32.223,1.922,48.517,1.922
			c17.064,0,34.511-0.826,51.238-2.091l0.174-109.467L109.228,207.744L109.228,207.744z"/>
		<path style="fill:#EAEAE1;" d="M303.673,253.518c-11.151-37.754-67.121-33.566-91.279-44.408
			c-24.157-10.842-20.386-47.219-23.449-53.548h-58.932c-3.058,6.329,0.714,42.711-23.449,53.548
			c-24.157,10.842-80.133,6.655-91.279,44.408c-6.149,20.824-5.857,27.193-7.554,50.26c0,0,76.8,15.187,150.014,15.187
			s153.488-15.187,153.488-15.187C309.53,280.705,309.822,274.342,303.673,253.518z"/>
		<path style="fill:#E0DBD3;" d="M303.673,253.518c-11.151-37.754-67.121-33.566-91.279-44.408
			c-24.157-10.842-20.386-47.219-23.449-53.548H157.74c0,0-0.719,51.024,23.438,61.866s80.133,6.655,91.279,44.408
			c5.857,19.83,5.868,26.552,7.324,47.073c19.234-2.816,31.442-5.126,31.442-5.126C309.53,280.705,309.822,274.342,303.673,253.518z
			"/>
		<polygon style="fill:#C6C5AF;" points="209.157,207.406 176.108,236.122 171.173,205.748 		"/>
		<polygon style="fill:#C6C5AF;" points="109.234,207.744 142.817,236.122 146.796,205.518 		"/>
		<polygon style="fill:#C6C5AF;" points="172.005,205.518 146.796,205.518 144.885,211.7 173.961,211.869 		"/>
		<polygon style="fill:#AAA88F;" points="146.796,205.518 144.885,211.7 145.987,212.42 		"/>
		<polygon style="fill:#AAA88F;" points="173.961,211.869 171.173,205.748 172.331,212.858 		"/>
		<path style="fill:#4C4C4C;" d="M173.433,318.739l0.579-7.987l-6.081-80.51h-16.024l-7.099,80.515l0.585,8.066
			c4.12,0.084,8.24,0.141,12.354,0.141C162.95,318.964,168.188,318.88,173.433,318.739z"/>
		<polygon style="fill:#3A3A38;" points="151.967,230.597 167.93,230.237 168.256,234.734 		"/>
		<polygon style="fill:#4C4C4C;" points="140.541,208.182 178.255,208.159 176.108,221.031 167.593,230.597 151.967,230.597 
			142.693,221.031 		"/>
		<path style="fill:#EAEAE1;" d="M146.796,205.518l-25.72-13.984c0,0-3.389,4.817-11.843,16.21l31.723,22.853l2.704-14.923
			L146.796,205.518z"/>
		<path style="fill:#EAEAE1;" d="M171.122,205.518l25.72-13.984c0,0,3.861,4.48,12.315,15.873l-32.195,23.191l-2.704-14.923
			L171.122,205.518z"/>
		<path style="fill:#E0DBD3;" d="M196.842,191.534l-25.72,13.984l1.776,5.772c2.372,2.602,5.109,4.716,8.279,6.138
			c2.799,1.253,6.02,2.31,9.555,3.249l18.419-13.265C200.704,196.013,196.842,191.534,196.842,191.534z"/>
		<path style="fill:#515147;" d="M233.292,250.73l-15.333-5.559l13.776-3.794l-13.13-29.969l-40.749,107.208
			c4.778-0.163,9.549-0.377,14.293-0.635L233.292,250.73z"/>
		<path style="fill:#515147;" d="M86.189,241.372l13.776,3.794l-15.333,5.559l41.216,67.369c4.716,0.247,9.471,0.444,14.237,0.59
			L99.24,211.734L86.189,241.372z"/>
		<path style="fill:#393C3D;" d="M66.107,312.759c22.977,2.822,50.462,5.379,78.138,6.042
			c-16.648-33.802-29.413-65.491-35.011-111.052h-0.006c-0.849,0.489-1.731,0.95-2.664,1.366
			c-10.645,4.778-27.468,6.638-43.914,10.454L66.107,312.759z"/>
		<path style="fill:#393C3D;" d="M252.846,312.512l3.445-92.954c-16.44-3.811-33.252-5.671-43.897-10.449
			c-0.933-0.416-1.815-0.877-2.67-1.371l-0.017,0.006c-5.587,45.521-18.34,77.199-34.96,110.962
			C202.238,317.902,229.779,315.317,252.846,312.512z"/>
		<path style="fill:#2F3233;" d="M209.73,207.738l-0.017,0.006c-0.703,5.711-1.512,11.196-2.434,16.502
			c16.35,3.136,34.842,6.458,48.275,15.327l0.742-20.015c-16.44-3.811-33.252-5.671-43.897-10.449
			C211.462,208.693,210.579,208.233,209.73,207.738z"/>
		
			<ellipse transform="matrix(-0.177 0.9842 -0.9842 -0.177 385.6561 -85.3711)" style="fill:#CCA483;" cx="228.522" cy="118.558" rx="21.386" ry="11.629"/>
		
			<ellipse transform="matrix(-0.9842 0.177 -0.177 -0.9842 200.0903 219.2807)" style="fill:#DBB491;" cx="90.265" cy="118.565" rx="11.629" ry="21.386"/>
		<path style="fill:#DBB491;" d="M223.641,47.365H159.42H95.233c0,0-35.989,146.614,64.187,160.806
			C259.636,193.979,223.641,47.365,223.641,47.365z"/>
		<path style="fill:#CCA483;" d="M159.42,208.171c100.216-14.192,64.221-160.806,64.221-160.806h-15.024
			c4.114,61.242,9.808,93.774-13.815,129.24C176.085,204.708,159.42,208.171,159.42,208.171z"/>
		<path style="fill:#393C3D;" d="M187.838,5.48c0,0-19.824-9.33-46.477-3.642c-19.953,4.26-52.423,17.829-59.73,46.893
			c0,0-10.932,47.483,7.683,67.931c0,0-0.916-18.548,0.956-33.313c0,0,11.174,4.946,33.69,4.659
			c30.188-0.382,59.444-12.776,68.442-26.355c0,0-1.034,19.532-10.876,27.502c0,0,34.522-5.396,44.729-25.883
			c0,0,3.417,17.935,3.417,51.159c0,0,5.39-7.509,6.649-19.605c2.855-27.44-2.333-65.334-22.876-64.069
			C213.446,30.756,204.745,13.49,187.838,5.48z"/>
		<path style="fill:#CCA483;" d="M181.526,89.154c9.836-7.976,10.876-27.502,10.876-27.502
			c-8.999,13.574-38.248,25.967-68.442,26.355c-21.763,0.275-32.931-4.333-33.651-4.643c1.433,0.613,44.156,18.554,91.672-3.884
			c0,0-2.58,9.527-8.139,12.804c0,0,43.869-0.793,52.418-29.008C216.054,83.758,181.526,89.154,181.526,89.154z"/>
		<path style="fill:#EFB43F;" d="M117.833,302.232c0,1.169-0.956,2.13-2.13,2.13H80.181c-1.169,0-2.13-0.956-2.13-2.13v-13.09
			c0-1.169,0.956-2.13,2.13-2.13h35.522c1.169,0,2.13,0.956,2.13,2.13V302.232z"/>
	</g>
</g>
<g>
</g>
<g>
</g>
<g>
</g>
<g>
</g>
<g>
</g>
<g>
</g>
<g>
</g>
<g>
</g>
<g>
</g>
<g>
</g>
<g>
</g>
<g>
</g>
<g>
</g>
<g>
</g>
<g>
</g>
</svg>
