<?xml version="1.0" encoding="iso-8859-1"?>
<!-- Generator: Adobe Illustrator 18.0.0, SVG Export Plug-In . SVG Version: 6.00 Build 0)  -->
<!DOCTYPE svg PUBLIC "-//W3C//DTD SVG 1.1//EN" "http://www.w3.org/Graphics/SVG/1.1/DTD/svg11.dtd">
<svg version="1.1" id="Capa_1" xmlns="http://www.w3.org/2000/svg" xmlns:xlink="http://www.w3.org/1999/xlink" x="0px" y="0px"
	 viewBox="0 0 175.306 175.306" style="enable-background:new 0 0 175.306 175.306;" xml:space="preserve">
<g>
	<g>
		<path style="fill:#FCD0A3;" d="M55.279,100.826c-4,0-7.667-3.433-7.667-7.667s3.667-7.667,7.667-7.667V100.826z"/>
		<path style="fill:#FCD0A3;" d="M132.279,100.826c4,0,7.667-3.433,7.667-7.667s-3.667-7.667-7.667-7.667V100.826z"/>
	</g>
	<g>
		<path style="fill:#233842;" d="M142.579,24.097c2.361,6.717-20.281,21.555-50.572,33.142
			c-30.291,11.587-56.76,15.534-59.121,8.817C30.525,59.338,53.167,44.5,83.458,32.914S140.218,17.38,142.579,24.097z"/>
		<g>
			<g>
				<rect x="89.28" y="129.052" style="fill:#FCD0A3;" width="7.003" height="20.967"/>
				<path style="fill:#FCD0A3;" d="M92.782,136.456L92.782,136.456c-21.907,0-39.666-17.76-39.666-39.667v-34
					c0-21.907,17.759-39.667,39.666-39.667l0,0c21.907,0,39.667,17.759,39.667,39.667v34
					C132.449,118.697,114.689,136.456,92.782,136.456z"/>
				<path style="opacity:0.16;fill:#FCD0A3;" d="M71.199,126.007c-5.892-7.366-7.637-16.08-7.841-25.324
					c-0.202-9.157-0.265-17.485,0.294-26.664c0.544-8.917,2.318-17.641,6.815-25.004c6.184-10.128,17.325-19.683,27.987-25.481
					c-1.853-0.266-3.745-0.41-5.672-0.41l0,0c-21.907,0-39.666,17.759-39.666,39.667v34c0,18.021,12.022,33.227,28.481,38.057
					C77.652,132.55,74.101,129.636,71.199,126.007z"/>
			</g>
			<g>
				<path style="fill:#F5A251;" d="M121.995,33.436c-1.896-1.908-3.969-3.634-6.192-5.15c-0.301-0.206-0.578-0.432-0.842-0.669
					c-0.117-1.573,0.506-3.202,0.109-4.939c-0.168-0.737-1.161-0.962-1.671-0.441c-0.313,0.319-0.641,0.6-0.979,0.861
					c-0.288-1.583-0.107-3.266,0.597-4.842c0.175-0.394,0.341-0.795,0.498-1.206c0.341-0.894-0.764-1.466-1.469-1.129
					c-4.051,1.933-8.213,3.442-12.505,4.558c-1.989,0.517-4.047,0.689-6.103,0.651c-0.458-0.008-0.918-0.009-1.379-0.001
					c-22.643,0.388-40.942,18.928-40.942,41.661v7.995c-0.022,0.057-0.064,0.089-0.066,0.17c-0.059,2.428-1.129,4.667-3.33,5.694
					c-1.267,0.591-0.367,2.147,0.658,1.873c0.629-0.169,1.235-0.381,1.826-0.624c-0.473,0.986-1.051,1.927-1.768,2.805
					c-0.731,0.896,0.158,2.043,1.212,1.57c0.439-0.197,0.887-0.389,1.339-0.579c3.172-1.336,6.546-2.083,9.968-2.445
					c24.857-2.632,53.897-27.284,53.897-27.284c2.546-1.079,5.494-0.021,6.772,2.431l10.823,24.589l1.272-9.827
					C135.411,56.091,131.281,42.785,121.995,33.436z"/>
				<path style="opacity:0.22;fill:#F5A251;" d="M75.75,61.696c8.525-4.017,15.83-10.114,24.245-14.322
					c6.973-3.486,15.14-6.783,23.056-6.591c1.846,0.045,3.592,0.324,5.247,0.9c-1.73-2.975-3.827-5.755-6.302-8.247
					c-1.896-1.908-3.969-3.634-6.192-5.15c-0.301-0.206-0.578-0.432-0.842-0.669c-0.117-1.573,0.506-3.202,0.109-4.939
					c-0.168-0.737-1.161-0.962-1.671-0.441c-0.313,0.319-0.641,0.6-0.979,0.861c-0.288-1.583-0.107-3.266,0.597-4.842
					c0.175-0.394,0.341-0.795,0.498-1.206c0.341-0.894-0.764-1.466-1.469-1.129c-4.051,1.933-8.213,3.442-12.505,4.558
					c-1.989,0.517-4.047,0.689-6.103,0.651c-0.458-0.008-0.917-0.009-1.379-0.001c-22.643,0.388-40.942,18.928-40.942,41.661v7.413
					C59.454,67.743,67.881,65.404,75.75,61.696z"/>
			</g>
			<path style="fill:#F5A251;" d="M131.199,103.904c-0.161-0.192-6.399-4.132-15.222-4.121c-6.361,0.007-14.06,6.78-21.875,5.563
				c-8.651-1.349-17.619-5.58-24.563-5.563c-8.473,0.021-15.176,3.813-15.176,6.22c0,9.991,4.732,19.261,13.534,24.721
				c0.389,0.241,0.904,0.109,1.227-0.196c4.478,4.506,9.512,8.247,15.186,11.259c0.687,0.364,1.305-0.064,1.444-0.693
				c2.496,0.425,4.947,0.557,7.368,0.424c2.42,0.133,4.872,0.001,7.368-0.424c0.139,0.63,0.757,1.058,1.444,0.693
				c5.673-3.012,10.708-6.753,15.186-11.259c0.323,0.306,0.838,0.438,1.227,0.196c8.801-5.46,11.879-14.745,13.027-24.67
				C131.418,105.663,131.439,104.054,131.199,103.904z"/>
		</g>
		<g>
			<path style="fill:#3D5561;" d="M52.966,46.946c-0.391-0.084,3.21-34.546,6.96-36.111c3.75-1.565,16.81,3.782,19.843,1.174
				c3.032-2.608,2.407-11.476,5.782-11.997s31.001,17.484,36.001,21.913C126.551,26.354,75.381,51.758,52.966,46.946z"/>
			<path style="fill:#E94941;" d="M118.377,19.448c-8.16,1.111-16.265,2.498-24.174,4.915c-14.158,4.325-28.262,9.72-40.885,17.554
				c-0.309,3.021-0.445,5.01-0.352,5.03c22.415,4.813,73.585-20.592,68.586-25.021C120.874,21.324,119.77,20.468,118.377,19.448z"/>
			<path style="fill:#3D5561;" d="M62.116,57.621c9.502-4.737,19.349-8.727,29.409-11.972c10.759-3.471,21.743-5.629,32.931-6.904
				c1.958-0.223,3.915-0.39,5.874-0.54c8.542-5.74,13.229-10.869,12.09-14.107c-2.361-6.717-28.83-2.769-59.121,8.817
				C53.009,44.5,30.367,59.338,32.727,66.056c0.422,1.199,1.615,2.058,3.461,2.593c2.622,0.76,5.427,0.161,7.683-1.375
				C49.561,63.398,56.12,60.609,62.116,57.621z"/>
		</g>
		<g>
			<path style="fill:#58B99B;" d="M96.116,147.523h-6.759c-1.248,0-2.477,0.064-3.688,0.174c4.711,0,9.422,0,14.134,0
				C98.593,147.586,97.364,147.523,96.116,147.523z"/>
			<g>
				<path style="fill:#FFFFFF;" d="M128.133,170.094c-0.285-1.747-0.788-3.439-1.482-5.059c-0.315-0.735-0.667-1.457-1.06-2.161
					c-1.016-1.819-2.284-3.527-3.769-5.096c-0.74-0.781-1.536-1.525-2.378-2.233c-2.633-2.213-5.745-4.052-9.206-5.407
					c-3.216-1.261-6.73-2.102-10.436-2.441c-4.711,0-9.422,0-14.134,0c-3.706,0.339-7.22,1.181-10.436,2.441
					c-3.461,1.355-6.574,3.195-9.207,5.408c-0.842,0.707-1.637,1.45-2.375,2.23c-1.485,1.569-2.754,3.277-3.77,5.098
					c-0.393,0.703-0.744,1.425-1.059,2.16c-0.695,1.622-1.198,3.315-1.483,5.064c-0.118,0.725-0.193,1.459-0.236,2.201
					c1.159,0.191,2.317,0.378,3.477,0.552c3.972,0.597,7.951,1.094,11.935,1.478c0.171,0.016,0.343,0.032,0.515,0.049
					c17.282,1.651,34.652,1.071,51.877-1.526c1.154-0.174,2.308-0.357,3.461-0.55C128.327,171.558,128.252,170.821,128.133,170.094z
					"/>
				<path style="fill:#DC2A2C;" d="M110.24,150.138c-3.216-1.261-6.73-2.102-10.436-2.441c-4.711,0-9.422,0-14.134,0
					c-3.706,0.339-7.22,1.181-10.436,2.441C86.902,150.227,98.572,150.227,110.24,150.138z"/>
				<path style="fill:#DC2A2C;" d="M128.133,170.094c-18.288,2.754-36.739,3.453-55.1,1.858c-0.172-0.015-0.343-0.029-0.515-0.045
					c-5.069-0.443-10.13-1.055-15.179-1.809c-0.118,0.725-0.193,1.459-0.236,2.201c1.159,0.191,2.317,0.378,3.477,0.552
					c3.972,0.597,7.951,1.094,11.935,1.478c0.171,0.016,0.343,0.032,0.515,0.049c17.282,1.651,34.652,1.071,51.877-1.526
					c1.154-0.174,2.308-0.357,3.461-0.55C128.327,171.558,128.252,170.821,128.133,170.094z"/>
				<path style="fill:#DC2A2C;" d="M73.05,158.207c16.252,0.608,32.536,0.451,48.773-0.429c-0.74-0.781-1.536-1.525-2.378-2.233
					c-15.452,0.594-30.933,0.681-46.393,0.237c-0.171-0.005-0.343-0.011-0.515-0.016c-2.171-0.063-4.341-0.138-6.511-0.221
					c-0.842,0.707-1.637,1.45-2.375,2.23c2.96,0.159,5.921,0.3,8.884,0.412C72.707,158.195,72.879,158.202,73.05,158.207z"/>
				<path style="fill:#DC2A2C;" d="M73.04,166.293c17.865,1.188,35.795,0.718,53.611-1.258c-0.315-0.735-0.667-1.457-1.06-2.161
					c-17.473,1.635-35.039,2.004-52.549,0.993c-0.171-0.01-0.343-0.02-0.514-0.03c-4.22-0.246-8.436-0.572-12.647-0.963
					c-0.393,0.703-0.744,1.425-1.059,2.16c4.562,0.502,9.13,0.918,13.703,1.225C72.697,166.271,72.869,166.282,73.04,166.293z"/>
				<path style="fill:#DC2A2C;" d="M84.629,147.486L84.629,147.486c0-1.362,1.104-2.467,2.467-2.467l1.518,0.259
					c2.759,0.47,5.577,0.47,8.335,0l1.518-0.259c1.363,0,2.468,1.104,2.468,2.467l0,0
					C100.935,154.394,84.629,154.019,84.629,147.486z"/>
			</g>
		</g>
	</g>
	<g>
		<g>
			<g>
				<g>
					<g>
						<circle style="fill:#67657B;" cx="110.607" cy="84.796" r="3.333"/>
						<circle style="fill:#8E8D9C;" cx="110.607" cy="84.796" r="3.104"/>
						<polygon style="fill:#5F5D73;" points="108.003,83.359 109.346,84.008 108.173,83.086 109.439,83.876 108.373,82.832 
							109.545,83.755 108.598,82.603 109.664,83.647 108.847,82.399 109.794,83.551 109.117,82.222 109.933,83.471 109.404,82.076 
							110.08,83.406 109.705,81.962 110.234,83.357 110.017,81.881 110.391,83.325 110.336,81.834 110.552,83.31 110.657,81.823 
							110.713,83.313 110.979,81.845 110.873,83.333 111.296,81.903 111.029,83.37 111.605,81.994 111.181,83.424 111.902,82.118 
							111.326,83.494 112.184,82.274 111.463,83.579 112.447,82.459 111.589,83.679 112.689,82.672 111.704,83.792 112.906,82.91 
							111.806,83.916 113.097,83.169 111.894,84.051 113.258,83.448 111.967,84.195 113.389,83.743 112.025,84.345 113.486,84.049 
							112.065,84.501 113.55,84.365 112.088,84.66 113.58,84.686 112.094,84.822 113.574,85.008 112.083,84.983 113.534,85.327 
							112.054,85.141 113.46,85.641 112.008,85.295 113.351,85.944 111.946,85.444 113.212,86.234 111.868,85.584 113.041,86.507 
							111.776,85.716 112.841,86.76 111.67,85.837 112.616,86.991 111.551,85.947 112.367,87.195 111.421,86.041 112.097,87.37 
							111.281,86.122 111.81,87.517 111.134,86.187 111.509,87.631 110.981,86.236 111.197,87.712 110.823,86.268 110.879,87.759 
							110.663,86.283 110.557,87.771 110.502,86.28 110.235,87.747 110.342,86.26 109.919,87.691 110.185,86.223 109.61,87.599 
							110.033,86.168 109.313,87.475 109.888,86.099 109.031,87.319 109.752,86.013 108.767,87.134 109.625,85.913 108.526,86.921 
							109.51,85.801 108.308,86.684 109.408,85.676 108.117,86.424 109.32,85.541 107.956,86.145 109.247,85.398 107.826,85.851 
							109.19,85.247 107.728,85.544 109.15,85.092 107.664,85.228 109.126,84.932 107.634,84.908 109.12,84.772 107.64,84.585 
							109.131,84.611 107.68,84.266 109.16,84.452 107.755,83.952 109.206,84.298 107.863,83.649 109.268,84.15 						"/>
					</g>
					<g>
						<circle style="opacity:0.35;fill:#1D1A3A;" cx="110.618" cy="84.796" r="1.587"/>
						<path style="fill:#FFFFFF;" d="M111.593,84.083c0-0.009,0.005-0.017,0.005-0.025c0-0.271-0.22-0.49-0.491-0.49
							c-0.271,0-0.49,0.219-0.49,0.49c0,0.271,0.22,0.49,0.49,0.49c0.042,0,0.078-0.015,0.116-0.023
							c0.036,0.015,0.075,0.023,0.115,0.023c0.169,0,0.305-0.137,0.305-0.306C111.645,84.183,111.623,84.13,111.593,84.083z"/>
					</g>
				</g>
				<g>
					<g>
						<circle style="fill:#67657B;" cx="76.267" cy="84.796" r="3.333"/>
						<circle style="fill:#8E8D9C;" cx="76.267" cy="84.796" r="3.104"/>
						<polygon style="fill:#5F5D73;" points="73.663,83.359 75.006,84.008 73.834,83.086 75.098,83.876 74.033,82.832 
							75.205,83.755 74.258,82.603 75.323,83.647 74.507,82.399 75.453,83.551 74.777,82.222 75.593,83.471 75.064,82.076 
							75.74,83.406 75.365,81.962 75.893,83.357 75.677,81.881 76.051,83.325 75.996,81.834 76.212,83.31 76.318,81.823 
							76.373,83.313 76.639,81.845 76.532,83.333 76.956,81.903 76.689,83.37 77.264,81.994 76.841,83.424 77.562,82.118 
							76.986,83.494 77.843,82.274 77.122,83.579 78.107,82.459 77.249,83.679 78.349,82.672 77.364,83.792 78.567,82.91 
							77.466,83.916 78.757,83.169 77.554,84.051 78.918,83.448 77.628,84.195 79.048,83.743 77.684,84.345 79.146,84.049 
							77.725,84.501 79.21,84.365 77.748,84.66 79.24,84.686 77.754,84.822 79.234,85.008 77.743,84.983 79.194,85.327 
							77.714,85.141 79.119,85.641 77.668,85.295 79.011,85.944 77.606,85.444 78.871,86.234 77.528,85.584 78.701,86.507 
							77.436,85.716 78.501,86.76 77.329,85.837 78.276,86.991 77.211,85.947 78.027,87.195 77.081,86.041 77.757,87.37 
							76.942,86.122 77.47,87.517 76.794,86.187 77.169,87.631 76.641,86.236 76.858,87.712 76.483,86.268 76.539,87.759 
							76.322,86.283 76.217,87.771 76.162,86.28 75.896,87.747 76.002,86.26 75.579,87.691 75.845,86.223 75.27,87.599 
							75.694,86.168 74.973,87.475 75.548,86.099 74.691,87.319 75.412,86.013 74.427,87.134 75.285,85.913 74.185,86.921 
							75.17,85.801 73.968,86.684 75.068,85.676 73.777,86.424 74.98,85.541 73.616,86.145 74.907,85.398 73.485,85.851 
							74.85,85.247 73.388,85.544 74.809,85.092 73.324,85.228 74.786,84.932 73.295,84.908 74.78,84.772 73.3,84.585 
							74.792,84.611 73.34,84.266 74.82,84.452 73.415,83.952 74.866,84.298 73.523,83.649 74.928,84.15 						"/>
					</g>
					<g>
						<circle style="opacity:0.35;fill:#1D1A3A;" cx="76.278" cy="84.796" r="1.587"/>
						<path style="fill:#FFFFFF;" d="M77.254,84.083c0.001-0.009,0.005-0.017,0.005-0.025c0-0.271-0.22-0.49-0.49-0.49
							c-0.271,0-0.49,0.219-0.49,0.49c0,0.271,0.219,0.49,0.49,0.49c0.041,0,0.078-0.015,0.116-0.023
							c0.036,0.015,0.075,0.023,0.116,0.023c0.169,0,0.305-0.137,0.305-0.306C77.305,84.183,77.283,84.13,77.254,84.083z"/>
					</g>
				</g>
			</g>
			<g>
				<path style="opacity:0.29;fill:#FCD0A3;" d="M117.486,90.584c-0.809-0.133-1.455-0.211-1.7-0.237
					c-4.793-0.514-10.717-0.877-14.585,2.559c-1.22,1.084-0.764,2.568,0.83,2.924c0.613,0.138,1.25,0.078,1.876,0.019
					c5.536-0.529,11.039-1.12,16.593-1.532c1.441-0.108,3.082-0.899,1.851-2.286C121.422,90.985,118.77,90.794,117.486,90.584z"/>
				<path style="opacity:0.29;fill:#FCD0A3;" d="M67.092,90.584c0.809-0.133,1.455-0.211,1.7-0.237
					c4.793-0.514,10.716-0.877,14.585,2.559c1.22,1.084,0.764,2.568-0.83,2.924c-0.613,0.138-1.25,0.078-1.875,0.019
					c-5.537-0.529-11.039-1.12-16.593-1.532c-1.44-0.108-3.082-0.899-1.851-2.286C63.156,90.985,65.808,90.794,67.092,90.584z"/>
			</g>
		</g>
		<path style="fill:#FCD0A3;" d="M76.791,117.084h33.816c0,0-1.599,10.761-17.725,10.723
			C78.254,127.772,76.791,117.084,76.791,117.084z"/>
	</g>
</g>
<g>
</g>
<g>
</g>
<g>
</g>
<g>
</g>
<g>
</g>
<g>
</g>
<g>
</g>
<g>
</g>
<g>
</g>
<g>
</g>
<g>
</g>
<g>
</g>
<g>
</g>
<g>
</g>
<g>
</g>
</svg>
