<?xml version="1.0" encoding="iso-8859-1"?>
<!-- Generator: Adobe Illustrator 19.0.0, SVG Export Plug-In . SVG Version: 6.00 Build 0)  -->
<svg version="1.1" id="Layer_1" xmlns="http://www.w3.org/2000/svg" xmlns:xlink="http://www.w3.org/1999/xlink" x="0px" y="0px"
	 viewBox="0 0 318.55 318.55" style="enable-background:new 0 0 318.55 318.55;" xml:space="preserve">
<g>
	<g>
		<path style="fill:#DD491B;" d="M303.466,253.103c-11.151-37.754-67.121-33.566-91.279-44.408
			c-24.157-10.842-20.386-47.219-23.449-53.548h-58.932c-3.058,6.329,0.714,42.711-23.449,53.548
			c-24.157,10.842-80.133,6.655-91.279,44.408c-6.149,20.824-5.857,27.193-7.554,50.26c0,0,76.8,15.187,150.014,15.187
			s153.488-15.187,153.488-15.187C309.323,280.29,309.615,273.927,303.466,253.103z"/>
		<g>
			<rect x="150.951" y="200.623" style="fill:#E55420;" width="16.631" height="8.319"/>
			<path style="fill:#E55420;" d="M106.357,208.694c-0.185,0.084-0.371,0.163-0.562,0.247h11.888v-8.319h-0.753
				C114.181,203.928,110.73,206.733,106.357,208.694z"/>
			<rect x="175.895" y="200.623" style="fill:#E55420;" width="16.631" height="8.319"/>
			<rect x="126.001" y="200.623" style="fill:#E55420;" width="16.631" height="8.319"/>
			<path style="fill:#E55420;" d="M200.845,208.942h11.904c-0.191-0.084-0.377-0.163-0.562-0.247
				c-4.373-1.962-7.824-4.761-10.572-8.071h-0.77V208.942z"/>
			<path style="fill:#E55420;" d="M275.689,233.892h14.996c-4.114-3.395-8.881-6.098-14.035-8.318h-0.961
				C275.689,225.573,275.689,233.892,275.689,233.892z"/>
			<rect x="101.051" y="225.573" style="fill:#E55420;" width="16.631" height="8.319"/>
			<rect x="200.845" y="225.573" style="fill:#E55420;" width="16.631" height="8.319"/>
			<rect x="150.951" y="225.573" style="fill:#E55420;" width="16.631" height="8.319"/>
			<rect x="76.107" y="225.573" style="fill:#E55420;" width="16.631" height="8.319"/>
			<rect x="225.795" y="225.573" style="fill:#E55420;" width="16.631" height="8.319"/>
			<path style="fill:#E55420;" d="M41.894,225.573c-5.154,2.22-9.92,4.924-14.035,8.318h14.979v-8.318H41.894z"/>
			<rect x="175.895" y="225.573" style="fill:#E55420;" width="16.631" height="8.319"/>
			<rect x="126.001" y="225.573" style="fill:#E55420;" width="16.631" height="8.319"/>
			<rect x="250.739" y="225.573" style="fill:#E55420;" width="16.631" height="8.319"/>
			<rect x="51.157" y="225.573" style="fill:#E55420;" width="16.631" height="8.319"/>
			<rect x="200.845" y="250.523" style="fill:#E55420;" width="16.631" height="8.319"/>
			<rect x="175.895" y="250.523" style="fill:#E55420;" width="16.631" height="8.319"/>
			<rect x="250.739" y="250.523" style="fill:#E55420;" width="16.631" height="8.319"/>
			<path style="fill:#E55420;" d="M17.894,250.523h-1.962c-0.309,0.837-0.596,1.697-0.854,2.58c-0.601,2.04-1.141,3.946-1.63,5.739
				h4.446V250.523z"/>
			<rect x="275.689" y="250.523" style="fill:#E55420;" width="16.631" height="8.319"/>
			<path style="fill:#E55420;" d="M300.639,258.836h4.457c-0.489-1.793-1.029-3.693-1.63-5.739c-0.259-0.882-0.545-1.742-0.854-2.58
				h-1.973C300.639,250.517,300.639,258.836,300.639,258.836z"/>
			<rect x="126.001" y="250.523" style="fill:#E55420;" width="16.631" height="8.319"/>
			<rect x="76.107" y="250.523" style="fill:#E55420;" width="16.631" height="8.319"/>
			<rect x="101.051" y="250.523" style="fill:#E55420;" width="16.631" height="8.319"/>
			<rect x="26.207" y="250.523" style="fill:#E55420;" width="16.631" height="8.319"/>
			<rect x="225.795" y="250.523" style="fill:#E55420;" width="16.631" height="8.319"/>
			<rect x="150.951" y="250.523" style="fill:#E55420;" width="16.631" height="8.319"/>
			<rect x="51.157" y="250.523" style="fill:#E55420;" width="16.631" height="8.319"/>
			<rect x="26.207" y="275.467" style="fill:#E55420;" width="16.631" height="8.319"/>
			<rect x="51.157" y="275.467" style="fill:#E55420;" width="16.631" height="8.319"/>
			<rect x="275.689" y="275.467" style="fill:#E55420;" width="16.631" height="8.319"/>
			<rect x="250.739" y="275.467" style="fill:#E55420;" width="16.631" height="8.319"/>
			<rect x="76.107" y="275.467" style="fill:#E55420;" width="16.631" height="8.319"/>
			<path style="fill:#E55420;" d="M300.639,283.786h8.959c-0.259-2.906-0.551-5.609-0.944-8.319h-8.015
				C300.639,275.467,300.639,283.786,300.639,283.786z"/>
			<rect x="175.895" y="275.467" style="fill:#E55420;" width="16.631" height="8.319"/>
			<rect x="150.951" y="275.467" style="fill:#E55420;" width="16.631" height="8.319"/>
			<rect x="126.001" y="275.467" style="fill:#E55420;" width="16.631" height="8.319"/>
			<rect x="200.845" y="275.467" style="fill:#E55420;" width="16.631" height="8.319"/>
			<rect x="225.795" y="275.467" style="fill:#E55420;" width="16.631" height="8.319"/>
			<path style="fill:#E55420;" d="M17.894,275.467H9.89c-0.388,2.709-0.686,5.407-0.944,8.319h8.942v-8.319H17.894z"/>
			<rect x="101.051" y="275.467" style="fill:#E55420;" width="16.631" height="8.319"/>
			<rect x="126.001" y="300.417" style="fill:#E55420;" width="16.631" height="8.319"/>
			<rect x="101.051" y="300.417" style="fill:#E55420;" width="16.631" height="8.319"/>
			<path style="fill:#E55420;" d="M17.894,305.257v-4.839H7.738c-0.067,0.95-0.141,1.928-0.214,2.945
				C7.524,303.362,11.268,304.099,17.894,305.257z"/>
			<rect x="150.951" y="300.417" style="fill:#E55420;" width="16.631" height="8.319"/>
			<path style="fill:#E55420;" d="M300.639,305.184c6.627-1.113,10.387-1.827,10.387-1.827c-0.073-1.012-0.146-1.99-0.214-2.945
				h-10.173V305.184z"/>
			<rect x="200.845" y="300.417" style="fill:#E55420;" width="16.631" height="8.319"/>
			<rect x="175.895" y="300.417" style="fill:#E55420;" width="16.631" height="8.319"/>
			<rect x="51.157" y="300.417" style="fill:#E55420;" width="16.631" height="8.319"/>
			<rect x="76.107" y="300.417" style="fill:#E55420;" width="16.631" height="8.319"/>
			<path style="fill:#E55420;" d="M42.839,300.417H26.207v6.245c3.906,0.641,8.335,1.343,13.22,2.074h3.417v-8.318h-0.005V300.417z"
				/>
			<path style="fill:#E55420;" d="M292.321,300.417H275.69v8.318h2.203c5.356-0.776,10.201-1.518,14.428-2.192V300.417z"/>
			<rect x="225.795" y="300.417" style="fill:#E55420;" width="16.631" height="8.319"/>
			<rect x="250.739" y="300.417" style="fill:#E55420;" width="16.631" height="8.319"/>
			<rect x="17.894" y="283.786" style="fill:#E55420;" width="8.319" height="16.631"/>
			<path style="fill:#E55420;" d="M26.207,250.523v-15.198c-3.322,3.035-6.149,6.582-8.319,10.758v4.44
				C17.889,250.523,26.207,250.523,26.207,250.523z"/>
			<rect x="17.894" y="258.836" style="fill:#E55420;" width="8.319" height="16.631"/>
			<rect x="17.894" y="250.523" style="fill:#EF6535;" width="8.319" height="8.319"/>
			<rect x="17.894" y="275.467" style="fill:#EF6535;" width="8.319" height="8.319"/>
			<path style="fill:#EF6535;" d="M17.894,305.257c2.406,0.422,5.193,0.894,8.319,1.405v-6.245h-8.319
				C17.894,300.417,17.894,305.257,17.894,305.257z"/>
			<path style="fill:#E55420;" d="M51.157,225.573v-3.395c-2.844,0.894-5.632,1.883-8.319,2.996v0.399H51.157z"/>
			<rect x="42.839" y="233.892" style="fill:#E55420;" width="8.319" height="16.631"/>
			<rect x="42.839" y="283.786" style="fill:#E55420;" width="8.319" height="16.631"/>
			<rect x="42.839" y="258.836" style="fill:#E55420;" width="8.319" height="16.631"/>
			<path style="fill:#E55420;" d="M42.839,308.736v0.506c2.659,0.388,5.435,0.787,8.319,1.18v-1.686H42.839z"/>
			<rect x="42.839" y="225.573" style="fill:#EF6535;" width="8.319" height="8.319"/>
			<rect x="42.839" y="250.523" style="fill:#EF6535;" width="8.319" height="8.319"/>
			<rect x="42.839" y="275.467" style="fill:#EF6535;" width="8.319" height="8.319"/>
			<rect x="42.839" y="300.417" style="fill:#EF6535;" width="8.319" height="8.319"/>
			<rect x="67.788" y="233.892" style="fill:#E55420;" width="8.319" height="16.631"/>
			<rect x="67.788" y="258.836" style="fill:#E55420;" width="8.319" height="16.631"/>
			<path style="fill:#E55420;" d="M76.107,225.573v-9.263c-2.743,0.528-5.525,1.074-8.319,1.658v7.605H76.107z"/>
			<path style="fill:#E55420;" d="M67.788,308.736v3.839c2.715,0.326,5.491,0.652,8.319,0.967v-4.811h-8.319V308.736z"/>
			<rect x="67.788" y="283.786" style="fill:#E55420;" width="8.319" height="16.631"/>
			<rect x="67.788" y="225.573" style="fill:#EF6535;" width="8.319" height="8.319"/>
			<rect x="67.788" y="250.523" style="fill:#EF6535;" width="8.319" height="8.319"/>
			<rect x="67.788" y="275.467" style="fill:#EF6535;" width="8.319" height="8.319"/>
			<rect x="67.788" y="300.417" style="fill:#EF6535;" width="8.319" height="8.319"/>
			<rect x="92.738" y="233.892" style="fill:#E55420;" width="8.319" height="16.631"/>
			<path style="fill:#E55420;" d="M92.738,308.736v6.526c2.743,0.259,5.514,0.506,8.319,0.742v-7.262h-8.319V308.736z"/>
			<path style="fill:#E55420;" d="M101.051,225.573v-14.872c-2.569,0.832-5.362,1.563-8.319,2.254v12.618H101.051L101.051,225.573z"
				/>
			<rect x="92.738" y="258.836" style="fill:#E55420;" width="8.319" height="16.631"/>
			<rect x="92.738" y="283.786" style="fill:#E55420;" width="8.319" height="16.631"/>
			<rect x="92.738" y="225.573" style="fill:#EF6535;" width="8.319" height="8.319"/>
			<rect x="92.738" y="250.523" style="fill:#EF6535;" width="8.319" height="8.319"/>
			<rect x="92.738" y="275.467" style="fill:#EF6535;" width="8.319" height="8.319"/>
			<rect x="92.738" y="300.417" style="fill:#EF6535;" width="8.319" height="8.319"/>
			<rect x="117.683" y="283.786" style="fill:#E55420;" width="8.319" height="16.631"/>
			<rect x="117.683" y="233.892" style="fill:#E55420;" width="8.319" height="16.631"/>
			<path style="fill:#E55420;" d="M117.683,308.736v8.487c2.76,0.174,5.531,0.332,8.319,0.478v-8.965
				C126.001,308.736,117.683,308.736,117.683,308.736z"/>
			<rect x="117.683" y="208.942" style="fill:#E55420;" width="8.319" height="16.631"/>
			<rect x="117.683" y="258.836" style="fill:#E55420;" width="8.319" height="16.631"/>
			<rect x="117.683" y="200.623" style="fill:#E55420;" width="8.319" height="8.319"/>
			<rect x="117.683" y="225.573" style="fill:#EF6535;" width="8.319" height="8.319"/>
			<rect x="117.683" y="250.523" style="fill:#EF6535;" width="8.319" height="8.319"/>
			<rect x="117.683" y="275.467" style="fill:#EF6535;" width="8.319" height="8.319"/>
			<rect x="117.683" y="300.417" style="fill:#EF6535;" width="8.319" height="8.319"/>
			<rect x="142.633" y="233.892" style="fill:#E55420;" width="8.319" height="16.631"/>
			<path style="fill:#E55420;" d="M142.633,308.736v9.617c2.771,0.073,5.542,0.124,8.319,0.157v-9.774L142.633,308.736
				L142.633,308.736z"/>
			<rect x="142.633" y="258.836" style="fill:#E55420;" width="8.319" height="16.631"/>
			<rect x="142.633" y="283.786" style="fill:#E55420;" width="8.319" height="16.631"/>
			<rect x="142.633" y="208.942" style="fill:#E55420;" width="8.319" height="16.631"/>
			<rect x="142.633" y="200.623" style="fill:#E55420;" width="8.319" height="8.319"/>
			<rect x="142.633" y="225.573" style="fill:#EF6535;" width="8.319" height="8.319"/>
			<rect x="142.633" y="250.523" style="fill:#EF6535;" width="8.319" height="8.319"/>
			<rect x="142.633" y="275.467" style="fill:#EF6535;" width="8.319" height="8.319"/>
			<rect x="142.633" y="300.417" style="fill:#EF6535;" width="8.319" height="8.319"/>
			<rect x="167.582" y="283.786" style="fill:#E55420;" width="8.319" height="16.631"/>
			<rect x="167.582" y="233.892" style="fill:#E55420;" width="8.319" height="16.631"/>
			<rect x="167.582" y="258.836" style="fill:#E55420;" width="8.319" height="16.631"/>
			<rect x="167.582" y="208.942" style="fill:#E55420;" width="8.319" height="16.631"/>
			<path style="fill:#E55420;" d="M167.582,308.736v9.724c2.771-0.051,5.542-0.118,8.319-0.208v-9.516H167.582z"/>
			<rect x="167.582" y="200.623" style="fill:#E55420;" width="8.319" height="8.319"/>
			<rect x="167.582" y="225.573" style="fill:#EF6535;" width="8.319" height="8.319"/>
			<rect x="167.582" y="250.523" style="fill:#EF6535;" width="8.319" height="8.319"/>
			<rect x="167.582" y="275.467" style="fill:#EF6535;" width="8.319" height="8.319"/>
			<rect x="167.582" y="300.417" style="fill:#EF6535;" width="8.319" height="8.319"/>
			<rect x="192.532" y="208.942" style="fill:#E55420;" width="8.319" height="16.631"/>
			<rect x="192.532" y="258.836" style="fill:#E55420;" width="8.319" height="16.631"/>
			<path style="fill:#E55420;" d="M192.532,308.736v8.791c2.782-0.152,5.559-0.32,8.319-0.506v-8.285H192.532z"/>
			<rect x="192.532" y="233.892" style="fill:#E55420;" width="8.319" height="16.631"/>
			<rect x="192.532" y="283.786" style="fill:#E55420;" width="8.319" height="16.631"/>
			<rect x="192.532" y="200.623" style="fill:#E55420;" width="8.319" height="8.319"/>
			<rect x="192.532" y="225.573" style="fill:#EF6535;" width="8.319" height="8.319"/>
			<rect x="192.532" y="250.523" style="fill:#EF6535;" width="8.319" height="8.319"/>
			<rect x="192.532" y="275.467" style="fill:#EF6535;" width="8.319" height="8.319"/>
			<rect x="192.532" y="300.417" style="fill:#EF6535;" width="8.319" height="8.319"/>
			<rect x="217.477" y="258.836" style="fill:#E55420;" width="8.319" height="16.631"/>
			<rect x="217.477" y="283.786" style="fill:#E55420;" width="8.319" height="16.631"/>
			<path style="fill:#E55420;" d="M217.477,308.736v7.02c2.799-0.242,5.576-0.489,8.318-0.748v-6.273h-8.318V308.736z"/>
			<path style="fill:#E55420;" d="M225.795,212.949c-2.956-0.686-5.75-1.422-8.318-2.254v14.878h8.318V212.949z"/>
			<rect x="217.477" y="233.892" style="fill:#E55420;" width="8.319" height="16.631"/>
			<rect x="217.477" y="225.573" style="fill:#EF6535;" width="8.319" height="8.319"/>
			<rect x="217.477" y="250.523" style="fill:#EF6535;" width="8.319" height="8.319"/>
			<rect x="217.477" y="275.467" style="fill:#EF6535;" width="8.319" height="8.319"/>
			<rect x="217.477" y="300.417" style="fill:#EF6535;" width="8.319" height="8.319"/>
			<rect x="242.427" y="283.786" style="fill:#E55420;" width="8.319" height="16.631"/>
			<path style="fill:#E55420;" d="M250.739,225.573v-7.605c-2.793-0.585-5.576-1.13-8.319-1.658v9.263H250.739z"/>
			<rect x="242.427" y="233.892" style="fill:#E55420;" width="8.319" height="16.631"/>
			<path style="fill:#E55420;" d="M242.427,308.736v4.553c2.827-0.315,5.598-0.635,8.319-0.961v-3.592H242.427z"/>
			<rect x="242.427" y="258.836" style="fill:#E55420;" width="8.319" height="16.631"/>
			<rect x="242.427" y="225.573" style="fill:#EF6535;" width="8.319" height="8.319"/>
			<rect x="242.427" y="250.523" style="fill:#EF6535;" width="8.319" height="8.319"/>
			<rect x="242.427" y="275.467" style="fill:#EF6535;" width="8.319" height="8.319"/>
			<rect x="242.427" y="300.417" style="fill:#EF6535;" width="8.319" height="8.319"/>
			<rect x="267.376" y="258.836" style="fill:#E55420;" width="8.319" height="16.631"/>
			<rect x="267.376" y="283.786" style="fill:#E55420;" width="8.319" height="16.631"/>
			<path style="fill:#E55420;" d="M267.376,308.736v1.473c2.883-0.388,5.654-0.776,8.319-1.158v-0.315H267.376z"/>
			<rect x="267.376" y="233.892" style="fill:#E55420;" width="8.319" height="16.631"/>
			<path style="fill:#E55420;" d="M267.376,225.573h8.319v-0.405c-2.687-1.113-5.469-2.108-8.319-2.996V225.573z"/>
			<rect x="267.376" y="225.573" style="fill:#EF6535;" width="8.319" height="8.319"/>
			<rect x="267.376" y="250.523" style="fill:#EF6535;" width="8.319" height="8.319"/>
			<rect x="267.376" y="275.467" style="fill:#EF6535;" width="8.319" height="8.319"/>
			<rect x="267.376" y="300.417" style="fill:#EF6535;" width="8.319" height="8.319"/>
			<path style="fill:#E55420;" d="M292.321,235.308v15.215h8.319v-4.468C298.47,241.879,295.643,238.338,292.321,235.308z"/>
			<rect x="292.321" y="258.836" style="fill:#E55420;" width="8.319" height="16.631"/>
			<rect x="292.321" y="283.786" style="fill:#E55420;" width="8.319" height="16.631"/>
			<rect x="292.321" y="250.523" style="fill:#EF6535;" width="8.319" height="8.319"/>
			<rect x="292.321" y="275.467" style="fill:#EF6535;" width="8.319" height="8.319"/>
			<path style="fill:#EF6535;" d="M292.321,306.544c3.125-0.495,5.907-0.956,8.319-1.36v-4.766h-8.319V306.544z"/>
		</g>
		<path style="opacity:0.25;fill:#B22904;enable-background:new    ;" d="M303.466,253.103
			c-11.151-37.754-67.121-33.566-91.279-44.408c-1.141-0.511-2.22-1.079-3.237-1.703l0,0c0,0-4.721,6.52-11.326,14.951
			c27.119,5.829,65.598,8.881,74.631,39.474c5.857,19.83,5.868,26.552,7.324,47.073c19.234-2.816,31.442-5.126,31.442-5.126
			C309.323,280.29,309.615,273.927,303.466,253.103z"/>
		<polygon style="fill:#B22904;" points="109.027,207.329 109.027,207.329 128.053,241.946 152.974,205.676 		"/>
		<polygon style="fill:#B22904;" points="165.452,205.676 185.692,236.578 189.205,241.946 200.199,222.482 208.95,206.991 		"/>
		<path style="fill:#EAEAE1;" d="M152.974,205.676l-32.105-14.557c0,0-3.389,4.817-11.843,16.21l19.251,29.092L152.974,205.676z"/>
		<path style="fill:#EAEAE1;" d="M165.452,205.676l31.183-14.557c0,0,3.861,4.48,12.315,15.873l-19.723,29.43L165.452,205.676z"/>
		<path style="fill:#E0DBD3;" d="M208.95,206.991c-8.453-11.393-12.315-15.873-12.315-15.873l-28.575,13.338
			c3.221,5.548,7.425,10.083,12.916,12.551c4.851,2.175,10.988,3.749,17.789,5.177L208.95,206.991z"/>
		<circle style="fill:#E0DBD3;" cx="159.213" cy="225.292" r="6.7"/>
		<circle style="fill:#E0DBD3;" cx="159.213" cy="250.242" r="6.7"/>
		<circle style="fill:#E0DBD3;" cx="159.213" cy="275.192" r="6.7"/>
		<circle style="fill:#E0DBD3;" cx="159.213" cy="300.142" r="6.7"/>
		<path style="fill:#4C3626;" d="M81.064,107.388c0,0-16.733-56.229,5.154-60.315c0,0,5.109-47.073,71.725-47.073
			c58.32,0,73.624,27.766,75.755,49.478c0,0,20.622,0,4.204,59.489l-37.956,46.05h-87.552L81.064,107.388z"/>
		
			<ellipse transform="matrix(-0.177 0.9842 -0.9842 -0.177 385.0027 -85.6566)" style="fill:#DDB58E;" cx="228.314" cy="118.142" rx="21.386" ry="11.629"/>
		
			<ellipse transform="matrix(-0.9842 0.177 -0.177 -0.9842 199.6052 218.4941)" style="fill:#E8C59E;" cx="90.057" cy="118.15" rx="11.629" ry="21.386"/>
		<path style="fill:#E8C59E;" d="M223.434,46.95l-63.653,9.218c0,0-22.556,0.922-40.957,9.729
			c-16.89,8.088-29.75,23.91-29.919,28.378c-1.647,44.156,7.931,104.645,70.303,113.48C259.429,193.564,223.434,46.95,223.434,46.95
			z"/>
		<path style="fill:#DDB58E;" d="M159.213,207.756C259.429,193.564,223.434,46.95,223.434,46.95h-15.023
			c4.114,61.242,9.808,93.774-13.815,129.24C175.878,204.293,159.213,207.756,159.213,207.756z"/>
		<path style="fill:#DDB58E;" d="M221.051,40.419c0,0-34.741,15.721-86.597,14.883c-45.712-0.736-45.117,36.146-45.516,38.636
			c0,0,10.662-18.593,40.384-23.685c27.007-4.626,48.512,3.114,67.818,4.822c21.488,1.9,28.648-13.445,28.648-13.445L221.051,40.419
			z"/>
		<path style="fill:#4C3626;" d="M219.208,34.416c0,0-32.909,18.171-84.748,16.733c-55.408-1.54-45.802,41.654-45.516,42.795
			c0,0,5.711-20.24,35.157-26.76c19.116-4.232,37.484-2.552,56.538,1.006c42.857,8.004,46.64-15.918,46.64-15.918
			S229.426,42.954,219.208,34.416z"/>
	</g>
</g>
<g>
</g>
<g>
</g>
<g>
</g>
<g>
</g>
<g>
</g>
<g>
</g>
<g>
</g>
<g>
</g>
<g>
</g>
<g>
</g>
<g>
</g>
<g>
</g>
<g>
</g>
<g>
</g>
<g>
</g>
</svg>
