<?xml version="1.0" encoding="iso-8859-1"?>
<!-- Generator: Adobe Illustrator 18.0.0, SVG Export Plug-In . SVG Version: 6.00 Build 0)  -->
<!DOCTYPE svg PUBLIC "-//W3C//DTD SVG 1.1//EN" "http://www.w3.org/Graphics/SVG/1.1/DTD/svg11.dtd">
<svg version="1.1" id="Capa_1" xmlns="http://www.w3.org/2000/svg" xmlns:xlink="http://www.w3.org/1999/xlink" x="0px" y="0px"
	 viewBox="0 0 156.925 156.925" style="enable-background:new 0 0 156.925 156.925;" xml:space="preserve">
<g>
	<g>
		<path style="fill:#FCD0A3;" d="M23.363,82.458c-4,0-7.667-3.433-7.667-7.667s3.667-7.667,7.667-7.667V82.458z"/>
		<path style="fill:#FCD0A3;" d="M101.363,82.458c4,0,7.666-3.433,7.666-7.667s-3.666-7.667-7.666-7.667V82.458z"/>
	</g>
	<g>
		<g>
			<path style="fill:#D3161A;" d="M81.632,35.191c0.572,0.567,43.015-9.924,50.531-9.941c8.375-0.02,9.562,2.075,8.916,3.195
				c-0.666,1.154-29.338,14.512-42.452,17.37C85.513,48.673,81.632,35.191,81.632,35.191z"/>
			<g>
				<rect x="58.708" y="110.671" style="fill:#FCD0A3;" width="7.003" height="20.966"/>
				<g>
					<path style="fill:#FCD0A3;" d="M62.209,118.074L62.209,118.074c-21.907,0-39.666-17.759-39.666-39.666v-34
						c0-21.907,17.759-39.667,39.666-39.667l0,0c21.907,0,39.667,17.76,39.667,39.667v34
						C101.876,100.315,84.117,118.074,62.209,118.074z"/>
					<path style="opacity:0.16;fill:#FCD0A3;" d="M40.626,107.625c-5.892-7.366-7.637-16.079-7.841-25.323
						c-0.202-9.158-0.265-17.485,0.294-26.665c0.543-8.916,2.318-17.641,6.814-25.004C46.078,20.505,57.219,10.95,67.881,5.151
						c-1.853-0.266-3.745-0.41-5.672-0.41l0,0c-21.907,0-39.666,17.76-39.666,39.667v34c0,18.021,12.022,33.227,28.481,38.057
						C47.08,114.169,43.529,111.254,40.626,107.625z"/>
				</g>
			</g>
			<g>
				<g>
					<path style="fill:#AD483E;" d="M101.876,54.791l0.526-2.728C106.036,33.2,96.491,13.951,78.9,6.231
						c-4.904-2.152-10.299-3.386-15.966-3.483c-23.41-0.401-42.392,18.986-42.392,42.399v11.312
						c59.513,0,73.389-18.162,76.441-24.616c0.269-0.568,1.104-0.444,1.205,0.177L101.876,54.791z"/>
					<path style="fill:#AE3024;" d="M37.382,45.759c8.382-0.325,16.196-1.132,24.398-3.021c13.035-3.001,27.677-7.729,36.703-18.008
						c-4.142-8.027-10.874-14.678-19.583-18.5c-4.904-2.152-10.299-3.386-15.966-3.483c-23.41-0.401-42.392,18.986-42.392,42.399
						v11.312C23.539,46.213,31.561,45.984,37.382,45.759z"/>
				</g>
				<g>
					<path style="fill:#DC2A2C;" d="M64,1.786C63.755,0.761,62.892,0,61.855,0c-1.049,0-1.923,0.778-2.156,1.821
						C37.938,3.092,20.506,20.74,19.587,42.594c-0.033,0.788,0.692,1.398,1.469,1.258l7.499-1.359
						c22.023-3.99,44.582-4.023,66.617-0.096l9.697,1.729C104.72,21.328,86.604,2.726,64,1.786z M70.29,34.938
						c-6.501-1.188-19.751-0.063-19.751-0.063c-3.074-6.248-0.268-9.5,4.534-8.878c3.639,0.344,7.277,0.688,10.916,1.032
						C70.821,27.64,72.359,30.866,70.29,34.938z"/>
					<path style="fill:#C7181A;" d="M70.29,34.938c-8.08-1.501-19.751-0.063-19.751-0.063c-0.09-0.185-21.86,3.905-30.81,5.62
						c-0.064,0.695-0.112,1.395-0.142,2.099c-0.033,0.788,0.692,1.398,1.469,1.258l7.499-1.359
						c22.023-3.99,44.582-4.023,66.617-0.096l9.697,1.729c-0.013-1.954,0.101-1.99-0.167-3.873
						C99.558,38.477,72.708,35.429,70.29,34.938z"/>
				</g>
			</g>
		</g>
		<g>
			<path style="fill:#FFFCE3;" d="M97.634,152.262c-0.024-0.184-0.044-0.367-0.073-0.549c-0.285-1.747-0.788-3.439-1.482-5.059
				c-0.315-0.736-0.666-1.458-1.06-2.161c-1.015-1.82-2.284-3.528-3.769-5.097c-0.739-0.781-1.535-1.525-2.378-2.233
				c-2.633-2.213-5.745-4.051-9.206-5.407c-2.892-1.133-6.034-1.905-9.331-2.301c0.01-0.116,0.026-0.229,0.026-0.351
				c0-1.362-1.105-2.468-2.467-2.468l-1.518,0.259c-2.758,0.471-5.576,0.471-8.335,0l-1.518-0.259c-1.363,0-2.467,1.105-2.467,2.468
				c0,0.116,0.017,0.227,0.027,0.339c-3.33,0.392-6.503,1.169-9.422,2.313c-3.461,1.356-6.574,3.195-9.207,5.409
				c-0.841,0.707-1.637,1.45-2.375,2.23c-1.485,1.568-2.754,3.277-3.77,5.097c-0.393,0.704-0.744,1.426-1.059,2.161
				c-0.695,1.622-1.198,3.314-1.483,5.063c-0.118,0.725-0.193,1.46-0.235,2.201c1.158,0.191,2.317,0.378,3.477,0.553
				c3.972,0.597,7.951,1.094,11.935,1.477c0.172,0.017,0.343,0.033,0.515,0.049c4.32,0.413,8.646,0.687,12.974,0.824
				c2.164,0.068,4.329,0.104,6.493,0.105c2.164,0.001,4.329-0.032,6.493-0.098c4.328-0.132,8.654-0.396,12.975-0.79
				c4.321-0.393,8.636-0.917,12.942-1.566c1.154-0.174,2.308-0.357,3.462-0.55C97.766,153.362,97.707,152.811,97.634,152.262z"/>
			<path style="fill:#7BC9EE;" d="M90.544,138.693c-0.536-0.525-1.087-1.039-1.671-1.53c-2.633-2.213-5.745-4.051-9.206-5.407
				c-2.892-1.133-6.034-1.905-9.331-2.301c0.01-0.116,0.026-0.229,0.026-0.351c0-1.362-1.105-2.468-2.467-2.468l-1.519,0.26
				c-2.758,0.47-5.576,0.47-8.334-0.001l-1.518-0.259c-1.363,0-2.467,1.105-2.467,2.468c0,0.116,0.017,0.227,0.027,0.339
				c-3.33,0.392-6.503,1.169-9.422,2.313c-3.461,1.356-6.574,3.195-9.207,5.409c-0.583,0.489-1.134,1.004-1.669,1.528l7.318,1.142
				c13.957,2.177,28.166,2.177,42.123,0L90.544,138.693z"/>
			<path style="fill:#7BC9EE;" d="M97.561,151.713c-0.268-1.645-0.735-3.236-1.368-4.77l-12.639,1.854
				c-14.184,2.08-28.595,2.08-42.779,0l-12.64-1.854c-0.632,1.534-1.1,3.128-1.368,4.773c-0.118,0.725-0.193,1.46-0.235,2.201
				c1.158,0.191,2.317,0.378,3.477,0.553c3.972,0.597,7.951,1.094,11.935,1.477c0.172,0.017,0.343,0.033,0.515,0.049
				c4.32,0.413,8.646,0.687,12.974,0.824c2.164,0.068,4.329,0.104,6.493,0.105c2.164,0.001,4.329-0.032,6.493-0.098
				c4.328-0.132,8.654-0.396,12.975-0.79c4.321-0.393,8.636-0.917,12.942-1.566c1.154-0.174,2.308-0.357,3.462-0.55
				c-0.032-0.559-0.09-1.11-0.163-1.659C97.61,152.078,97.59,151.895,97.561,151.713z"/>
		</g>
	</g>
	<g>
		<g>
			<g>
				<g>
					<g>
						<circle style="fill:#67657B;" cx="80.035" cy="66.415" r="3.333"/>
						<circle style="fill:#8E8D9C;" cx="80.035" cy="66.415" r="3.104"/>
						<polygon style="fill:#5F5D73;" points="77.431,64.978 78.773,65.627 77.602,64.704 78.866,65.495 77.801,64.451 
							78.973,65.374 78.026,64.221 79.091,65.266 78.275,64.017 79.221,65.17 78.544,63.841 79.36,65.09 78.832,63.694 
							79.508,65.024 79.133,63.58 79.661,64.976 79.444,63.5 79.819,64.943 79.763,63.453 79.979,64.929 80.085,63.44 
							80.141,64.932 80.406,63.464 80.3,64.951 80.723,63.521 80.457,64.988 81.032,63.612 80.608,65.043 81.329,63.736 
							80.753,65.113 81.611,63.893 80.89,65.198 81.874,64.078 81.017,65.298 82.117,64.29 81.132,65.41 82.334,64.528 
							81.234,65.535 82.525,64.787 81.322,65.67 82.686,65.066 81.395,65.813 82.816,65.36 81.452,65.964 82.914,65.668 
							81.493,66.12 82.978,65.983 81.516,66.279 83.007,66.304 81.522,66.44 83.002,66.626 81.51,66.601 82.962,66.945 
							81.482,66.759 82.887,67.259 81.436,66.914 82.779,67.563 81.374,67.063 82.639,67.853 81.296,67.203 82.468,68.126 
							81.204,67.335 82.269,68.379 81.097,67.456 82.043,68.608 80.978,67.564 81.795,68.813 80.849,67.66 81.525,68.989 
							80.709,67.74 81.238,69.136 80.562,67.806 80.937,69.25 80.409,67.854 80.625,69.33 80.25,67.887 80.307,69.377 80.09,67.901 
							79.984,69.389 79.929,67.898 79.663,69.366 79.769,67.878 79.346,69.309 79.613,67.841 79.038,69.218 79.461,67.787 
							78.74,69.093 79.316,67.717 78.458,68.938 79.18,67.632 78.195,68.752 79.053,67.532 77.953,68.54 78.938,67.419 
							77.735,68.302 78.836,67.295 77.545,68.043 78.748,67.16 77.384,67.764 78.675,67.017 77.253,67.469 78.618,66.866 
							77.156,67.162 78.577,66.71 77.092,66.847 78.554,66.551 77.062,66.525 78.548,66.39 77.068,66.204 78.559,66.229 
							77.108,65.885 78.588,66.07 77.183,65.571 78.634,65.916 77.29,65.268 78.696,65.768 						"/>
					</g>
					<g>
						<circle style="opacity:0.35;fill:#1D1A3A;" cx="80.046" cy="66.415" r="1.587"/>
						<path style="fill:#FFFFFF;" d="M81.021,65.701c0-0.009,0.005-0.016,0.005-0.025c0-0.271-0.22-0.49-0.491-0.49
							c-0.271,0-0.49,0.22-0.49,0.49c0,0.272,0.219,0.49,0.49,0.49c0.041,0,0.078-0.014,0.116-0.023
							c0.036,0.015,0.075,0.023,0.116,0.023c0.168,0,0.305-0.137,0.305-0.305C81.072,65.802,81.051,65.749,81.021,65.701z"/>
					</g>
				</g>
				<g>
					<g>
						<circle style="fill:#67657B;" cx="45.695" cy="66.415" r="3.333"/>
						<circle style="fill:#8E8D9C;" cx="45.695" cy="66.415" r="3.104"/>
						<polygon style="fill:#5F5D73;" points="43.091,64.978 44.434,65.627 43.261,64.704 44.526,65.495 43.46,64.451 44.632,65.374 
							43.686,64.221 44.751,65.266 43.935,64.017 44.881,65.17 44.205,63.841 45.02,65.09 44.492,63.694 45.167,65.024 
							44.792,63.58 45.321,64.976 45.104,63.5 45.479,64.943 45.423,63.453 45.639,64.929 45.745,63.44 45.8,64.932 46.066,63.464 
							45.96,64.951 46.383,63.521 46.117,64.988 46.692,63.612 46.269,65.043 46.989,63.736 46.414,65.113 47.271,63.893 
							46.55,65.198 47.535,64.078 46.677,65.298 47.776,64.29 46.791,65.41 47.994,64.528 46.894,65.535 48.185,64.787 
							46.982,65.67 48.346,65.066 47.055,65.813 48.476,65.36 47.112,65.964 48.574,65.668 47.152,66.12 48.638,65.983 
							47.176,66.279 48.667,66.304 47.182,66.44 48.662,66.626 47.17,66.601 48.622,66.945 47.142,66.759 48.547,67.259 
							47.096,66.914 48.439,67.563 47.034,67.063 48.299,67.853 46.956,67.203 48.128,68.126 46.863,67.335 47.929,68.379 
							46.757,67.456 47.704,68.608 46.638,67.564 47.455,68.813 46.508,67.66 47.185,68.989 46.369,67.74 46.898,69.136 
							46.222,67.806 46.597,69.25 46.068,67.854 46.285,69.33 45.911,67.887 45.966,69.377 45.75,67.901 45.644,69.389 
							45.589,67.898 45.323,69.366 45.429,67.878 45.006,69.309 45.272,67.841 44.697,69.218 45.121,67.787 44.4,69.093 
							44.976,67.717 44.118,68.938 44.839,67.632 43.855,68.752 44.713,67.532 43.613,68.54 44.598,67.419 43.395,68.302 
							44.496,67.295 43.205,68.043 44.408,67.16 43.043,67.764 44.334,67.017 42.913,67.469 44.277,66.866 42.815,67.162 
							44.237,66.71 42.751,66.847 44.214,66.551 42.722,66.525 44.207,66.39 42.727,66.204 44.219,66.229 42.768,65.885 
							44.248,66.07 42.842,65.571 44.293,65.916 42.951,65.268 44.355,65.768 						"/>
					</g>
					<g>
						<circle style="opacity:0.35;fill:#1D1A3A;" cx="45.706" cy="66.415" r="1.587"/>
						<path style="fill:#FFFFFF;" d="M46.681,65.701c0-0.009,0.005-0.016,0.005-0.025c0-0.271-0.219-0.49-0.49-0.49
							c-0.271,0-0.49,0.22-0.49,0.49c0,0.272,0.22,0.49,0.49,0.49c0.041,0,0.078-0.014,0.116-0.023
							c0.036,0.015,0.075,0.023,0.116,0.023c0.168,0,0.305-0.137,0.305-0.305C46.732,65.802,46.71,65.749,46.681,65.701z"/>
					</g>
				</g>
			</g>
			<g>
				<path style="opacity:0.29;fill:#FCD0A3;" d="M86.914,72.202c-0.809-0.133-1.455-0.21-1.7-0.236
					c-4.793-0.515-10.717-0.877-14.586,2.559c-1.22,1.084-0.764,2.567,0.83,2.924c0.613,0.137,1.25,0.078,1.876,0.019
					c5.536-0.529,11.039-1.12,16.593-1.533c1.441-0.106,3.082-0.898,1.851-2.285C90.85,72.603,88.198,72.413,86.914,72.202z"/>
				<path style="opacity:0.29;fill:#FCD0A3;" d="M36.52,72.202c0.809-0.133,1.455-0.21,1.7-0.236
					c4.793-0.515,10.717-0.877,14.585,2.559c1.22,1.084,0.764,2.567-0.83,2.924c-0.613,0.137-1.251,0.078-1.876,0.019
					c-5.537-0.529-11.039-1.12-16.593-1.533c-1.441-0.106-3.082-0.898-1.851-2.285C32.584,72.603,35.236,72.413,36.52,72.202z"/>
			</g>
		</g>
		<path style="fill:#FABD7E;" d="M45.326,97.209h33.816c0,0-1.599,10.761-17.725,10.723C46.789,107.897,45.326,97.209,45.326,97.209
			z"/>
	</g>
</g>
<g>
</g>
<g>
</g>
<g>
</g>
<g>
</g>
<g>
</g>
<g>
</g>
<g>
</g>
<g>
</g>
<g>
</g>
<g>
</g>
<g>
</g>
<g>
</g>
<g>
</g>
<g>
</g>
<g>
</g>
</svg>
