<?xml version="1.0" encoding="iso-8859-1"?>
<!-- Generator: Adobe Illustrator 18.0.0, SVG Export Plug-In . SVG Version: 6.00 Build 0)  -->
<!DOCTYPE svg PUBLIC "-//W3C//DTD SVG 1.1//EN" "http://www.w3.org/Graphics/SVG/1.1/DTD/svg11.dtd">
<svg version="1.1" id="Capa_1" xmlns="http://www.w3.org/2000/svg" xmlns:xlink="http://www.w3.org/1999/xlink" x="0px" y="0px"
	 viewBox="0 0 159.483 159.483" style="enable-background:new 0 0 159.483 159.483;" xml:space="preserve">
<g>
	<g>
		<path style="fill:#FCD0A3;" d="M40.741,82.296c-4,0-7.667-3.433-7.667-7.666c0-4.234,3.667-7.667,7.667-7.667V82.296z"/>
		<path style="fill:#FCD0A3;" d="M118.741,82.296c4,0,7.667-3.433,7.667-7.666c0-4.234-3.667-7.667-7.667-7.667V82.296z"/>
	</g>
	<g>
		<g>
			<rect x="76.064" y="113.229" style="fill:#FCD0A3;" width="7.003" height="20.966"/>
			<path style="fill:#FCD0A3;" d="M79.566,120.633L79.566,120.633c-21.907,0-39.667-17.759-39.667-39.666V46.966
				c0-21.907,17.76-39.667,39.667-39.667l0,0c21.907,0,39.666,17.759,39.666,39.667v34.001
				C119.232,102.874,101.473,120.633,79.566,120.633z"/>
			<path style="opacity:0.16;fill:#FCD0A3;" d="M57.983,110.184c-5.893-7.366-7.638-16.08-7.842-25.324
				c-0.202-9.158-0.265-17.485,0.294-26.664c0.544-8.917,2.318-17.641,6.815-25.004C63.434,23.063,74.574,13.509,85.237,7.71
				c-1.854-0.266-3.745-0.41-5.672-0.41l0,0c-21.907,0-39.667,17.759-39.667,39.667v34.001c0,18.021,12.022,33.226,28.481,38.056
				C64.436,116.727,60.885,113.812,57.983,110.184z"/>
		</g>
		<g>
			<path style="fill:#58B99B;" d="M82.9,131.7h-6.759c-1.247,0-2.476,0.063-3.688,0.174c4.712,0,9.423,0,14.134,0
				C85.376,131.763,84.148,131.7,82.9,131.7z"/>
			<g>
				<path style="fill:#FFDE67;" d="M114.917,154.271c-0.285-1.747-0.788-3.438-1.482-5.059c-0.314-0.735-0.666-1.457-1.06-2.161
					c-1.016-1.819-2.283-3.527-3.769-5.096c-0.739-0.781-1.535-1.525-2.378-2.233c-2.633-2.212-5.745-4.051-9.205-5.407
					c-3.217-1.26-6.73-2.102-10.437-2.441c-4.711,0-9.422,0-14.134,0c-3.706,0.339-7.22,1.181-10.435,2.441
					c-3.462,1.356-6.574,3.195-9.207,5.409c-0.842,0.707-1.637,1.451-2.376,2.231c-1.484,1.568-2.754,3.277-3.77,5.097
					c-0.392,0.704-0.744,1.425-1.059,2.161c-0.695,1.622-1.198,3.315-1.483,5.064c-0.118,0.725-0.193,1.459-0.235,2.201
					c1.158,0.191,2.317,0.378,3.477,0.552c3.972,0.597,7.951,1.094,11.936,1.477c0.171,0.017,0.343,0.033,0.514,0.049
					c17.282,1.652,34.652,1.072,51.878-1.526c1.154-0.174,2.309-0.357,3.462-0.549C115.11,155.735,115.035,154.998,114.917,154.271z
					"/>
				<path style="fill:#1D1A3A;" d="M97.024,134.314c-3.217-1.26-6.73-2.102-10.437-2.441c-4.711,0-9.422,0-14.134,0
					c-3.706,0.339-7.22,1.181-10.435,2.441C73.685,134.403,85.356,134.403,97.024,134.314z"/>
				<path style="fill:#1D1A3A;" d="M114.917,154.271c-18.288,2.753-36.739,3.453-55.1,1.858c-0.172-0.014-0.344-0.029-0.515-0.044
					c-5.069-0.443-10.13-1.055-15.18-1.809c-0.118,0.725-0.193,1.459-0.235,2.201c1.158,0.191,2.317,0.378,3.477,0.552
					c3.972,0.597,7.951,1.094,11.936,1.477c0.171,0.017,0.343,0.033,0.515,0.049c17.281,1.652,34.651,1.072,51.877-1.526
					c1.154-0.174,2.309-0.357,3.462-0.549C115.11,155.735,115.035,154.998,114.917,154.271z"/>
				<path style="fill:#1D1A3A;" d="M59.833,142.385c16.253,0.608,32.536,0.451,48.773-0.43c-0.739-0.781-1.535-1.525-2.378-2.233
					c-15.452,0.594-30.933,0.682-46.393,0.237c-0.171-0.005-0.343-0.01-0.515-0.015c-2.171-0.063-4.341-0.139-6.511-0.221
					c-0.842,0.707-1.637,1.451-2.376,2.231c2.961,0.159,5.922,0.299,8.884,0.411C59.49,142.372,59.662,142.378,59.833,142.385z"/>
				<path style="fill:#1D1A3A;" d="M59.823,150.47c17.865,1.188,35.795,0.718,53.611-1.257c-0.314-0.735-0.666-1.457-1.06-2.161
					c-17.473,1.635-35.038,2.004-52.549,0.993c-0.171-0.009-0.343-0.02-0.515-0.029c-4.22-0.246-8.435-0.573-12.646-0.964
					c-0.392,0.704-0.744,1.425-1.059,2.161c4.561,0.502,9.129,0.917,13.703,1.224C59.481,150.447,59.652,150.458,59.823,150.47z"/>
				<path style="fill:#1D1A3A;" d="M71.412,131.663L71.412,131.663c0-1.363,1.104-2.467,2.468-2.467l1.518,0.258
					c2.759,0.47,5.577,0.47,8.335,0l1.519-0.258c1.362,0,2.467,1.105,2.467,2.467l0,0C87.718,138.571,71.412,138.196,71.412,131.663
					z"/>
			</g>
		</g>
		<g>
			<path style="fill:#152A35;" d="M108.778,17.613c-1.896-1.909-3.969-3.635-6.192-5.15c-0.301-0.205-0.577-0.432-0.842-0.668
				c-0.117-1.572,0.506-3.202,0.109-4.939c-0.169-0.738-1.161-0.963-1.672-0.441c-0.313,0.319-0.641,0.6-0.979,0.861
				c-0.289-1.582-0.107-3.266,0.597-4.842c0.175-0.393,0.341-0.795,0.498-1.206c0.341-0.894-0.765-1.466-1.469-1.129
				c-4.051,1.933-8.214,3.442-12.506,4.558c-1.989,0.517-4.047,0.688-6.102,0.651c-0.459-0.008-0.919-0.009-1.38-0.001
				C56.199,5.693,37.9,24.233,37.9,46.967v7.994c-0.022,0.057-0.064,0.089-0.066,0.17c-0.059,2.428-1.129,4.667-3.33,5.694
				c-1.267,0.591-0.367,2.147,0.658,1.873c0.628-0.168,1.235-0.38,1.825-0.624c-0.473,0.987-1.051,1.927-1.768,2.805
				c-0.73,0.895,0.158,2.043,1.212,1.57c0.439-0.197,0.887-0.389,1.34-0.579c3.172-1.336,6.546-2.083,9.968-2.445
				c24.857-2.632,53.897-27.284,53.897-27.284c2.546-1.079,5.494-0.021,6.773,2.431l10.823,24.589l1.271-9.827
				C122.194,40.267,118.065,26.961,108.778,17.613z"/>
			<path style="opacity:0.21;fill:#152A35;" d="M118.557,49.923c-0.127-5.083,0.147-10.141-1.498-15.048
				c-2.512-7.488-9.043-11.359-16.905-9.165c-7.078,1.976-12.788,7.257-18.281,11.853c-4.634,3.876-9.344,7.676-14.285,11.156
				c-9.501,6.69-19.805,11.867-31.135,14.329c-0.363,0.632-0.758,1.25-1.233,1.832c-0.73,0.895,0.158,2.043,1.212,1.57
				c0.439-0.197,0.887-0.389,1.339-0.579c3.173-1.336,6.547-2.083,9.969-2.445c24.857-2.632,53.897-27.284,53.897-27.284
				c2.546-1.079,5.494-0.021,6.773,2.431l10.823,24.589l0.525-4.057C118.947,56.242,118.637,53.106,118.557,49.923z"/>
		</g>
	</g>
	<g>
		<g>
			<path style="fill:none;stroke:#233842;stroke-width:0.75;stroke-linecap:round;stroke-linejoin:round;stroke-miterlimit:10;" d="
				M60.723,101.278c0,0,17.192,16.875,37.685,0"/>
			<g>
				<g>
					<g>
						<g>
							<circle style="fill:#67657B;" cx="97.39" cy="68.974" r="3.333"/>
							<circle style="fill:#8E8D9C;" cx="97.39" cy="68.974" r="3.104"/>
							<polygon style="fill:#5F5D73;" points="94.786,67.536 96.129,68.185 94.957,67.263 96.222,68.054 95.156,67.01 
								96.328,67.933 95.382,66.78 96.447,67.824 95.631,66.575 96.577,67.728 95.901,66.399 96.716,67.648 96.188,66.253 
								96.863,67.582 96.488,66.139 97.017,67.534 96.8,66.058 97.175,67.502 97.119,66.011 97.335,67.487 97.441,65.999 
								97.496,67.49 97.762,66.022 97.656,67.51 98.079,66.079 97.813,67.547 98.388,66.171 97.964,67.601 98.685,66.295 
								98.11,67.671 98.967,66.451 98.246,67.757 99.231,66.636 98.372,67.856 99.473,66.849 98.487,67.969 99.69,67.086 
								98.59,68.094 99.88,67.346 98.678,68.228 100.042,67.625 98.751,68.372 100.172,67.919 98.808,68.522 100.27,68.226 
								98.848,68.678 100.333,68.542 98.871,68.838 100.363,68.863 98.878,68.998 100.358,69.184 98.866,69.159 100.318,69.504 
								98.837,69.318 100.243,69.817 98.792,69.472 100.135,70.121 98.73,69.62 99.994,70.411 98.652,69.762 99.824,70.684 
								98.56,69.893 99.625,70.937 98.453,70.014 99.4,71.167 98.334,70.123 99.151,71.371 98.204,70.218 98.881,71.548 
								98.065,70.299 98.594,71.694 97.917,70.364 98.292,71.808 97.764,70.413 97.981,71.889 97.607,70.445 97.662,71.935 
								97.446,70.46 97.34,71.948 97.285,70.457 97.019,71.925 97.125,70.437 96.702,71.867 96.969,70.399 96.394,71.776 
								96.817,70.346 96.096,71.652 96.672,70.275 95.815,71.496 96.535,70.19 95.551,71.31 96.408,70.09 95.309,71.098 
								96.294,69.978 95.091,70.86 96.192,69.853 94.901,70.601 96.104,69.719 94.739,70.322 96.03,69.575 94.609,70.028 
								95.974,69.424 94.512,69.721 95.933,69.268 94.447,69.405 95.909,69.109 94.418,69.084 95.903,68.948 94.424,68.762 
								95.915,68.787 94.464,68.443 95.943,68.629 94.538,68.129 95.989,68.475 94.647,67.826 96.052,68.326 							"/>
						</g>
						<g>
							<circle style="opacity:0.35;fill:#1D1A3A;" cx="97.401" cy="68.974" r="1.587"/>
							<path style="fill:#FFFFFF;" d="M98.377,68.26c0-0.009,0.005-0.017,0.005-0.026c0-0.271-0.22-0.49-0.49-0.49
								s-0.49,0.22-0.49,0.49c0,0.271,0.22,0.49,0.49,0.49c0.041,0,0.078-0.014,0.115-0.023c0.036,0.015,0.075,0.023,0.116,0.023
								c0.169,0,0.305-0.136,0.305-0.305C98.428,68.36,98.406,68.307,98.377,68.26z"/>
						</g>
					</g>
					<g>
						<g>
							<circle style="fill:#67657B;" cx="63.05" cy="68.974" r="3.333"/>
							<circle style="fill:#8E8D9C;" cx="63.05" cy="68.974" r="3.104"/>
							<polygon style="fill:#5F5D73;" points="60.446,67.536 61.789,68.185 60.617,67.263 61.882,68.054 60.817,67.01 
								61.988,67.933 61.042,66.78 62.107,67.824 61.29,66.575 62.236,67.728 61.561,66.399 62.376,67.648 61.848,66.253 
								62.524,67.582 62.149,66.139 62.677,67.534 62.46,66.058 62.835,67.502 62.778,66.011 62.995,67.487 63.101,65.999 
								63.156,67.49 63.422,66.022 63.316,67.51 63.739,66.079 63.473,67.547 64.048,66.171 63.624,67.601 64.345,66.295 
								63.77,67.671 64.627,66.451 63.905,67.757 64.891,66.636 64.032,67.856 65.132,66.849 64.148,67.969 65.35,67.086 
								64.249,68.094 65.54,67.346 64.338,68.228 65.701,67.625 64.41,68.372 65.832,67.919 64.468,68.522 65.93,68.226 
								64.508,68.678 65.993,68.542 64.531,68.838 66.023,68.863 64.537,68.998 66.018,69.184 64.527,69.159 65.978,69.504 
								64.497,69.318 65.902,69.817 64.451,69.472 65.795,70.121 64.39,69.62 65.654,70.411 64.312,69.762 65.484,70.684 
								64.219,69.893 65.284,70.937 64.112,70.014 65.06,71.167 63.994,70.123 64.811,71.371 63.864,70.218 64.541,71.548 
								63.725,70.299 64.254,71.694 63.577,70.364 63.952,71.808 63.424,70.413 63.641,71.889 63.267,70.445 63.322,71.935 
								63.106,70.46 63,71.948 62.944,70.457 62.679,71.925 62.785,70.437 62.362,71.867 62.628,70.399 62.053,71.776 
								62.477,70.346 61.756,71.652 62.332,70.275 61.474,71.496 62.195,70.19 61.211,71.31 62.068,70.09 60.969,71.098 
								61.953,69.978 60.751,70.86 61.852,69.853 60.561,70.601 61.764,69.719 60.4,70.322 61.691,69.575 60.269,70.028 
								61.633,69.424 60.171,69.721 61.593,69.268 60.108,69.405 61.569,69.109 60.078,69.084 61.564,68.948 60.083,68.762 
								61.575,68.787 60.123,68.443 61.604,68.629 60.198,68.129 61.65,68.475 60.306,67.826 61.711,68.326 							"/>
						</g>
						<g>
							<circle style="opacity:0.35;fill:#1D1A3A;" cx="63.062" cy="68.974" r="1.587"/>
							<path style="fill:#FFFFFF;" d="M64.036,68.26c0.001-0.009,0.006-0.017,0.006-0.026c0-0.271-0.22-0.49-0.49-0.49
								c-0.271,0-0.49,0.22-0.49,0.49c0,0.271,0.219,0.49,0.49,0.49c0.041,0,0.077-0.014,0.115-0.023
								c0.036,0.015,0.075,0.023,0.116,0.023c0.168,0,0.305-0.136,0.305-0.305C64.088,68.36,64.067,68.307,64.036,68.26z"/>
						</g>
					</g>
				</g>
				<g>
					<path style="opacity:0.29;fill:#FCD0A3;" d="M104.27,74.761c-0.809-0.133-1.455-0.211-1.7-0.237
						c-4.793-0.514-10.717-0.877-14.585,2.559c-1.221,1.084-0.765,2.567,0.83,2.924c0.612,0.137,1.25,0.078,1.875,0.018
						c5.537-0.529,11.039-1.12,16.594-1.533c1.44-0.107,3.082-0.898,1.851-2.285C108.205,75.161,105.554,74.972,104.27,74.761z"/>
					<path style="opacity:0.29;fill:#FCD0A3;" d="M53.876,74.761c0.809-0.133,1.455-0.211,1.7-0.237
						c4.793-0.514,10.716-0.877,14.585,2.559c1.22,1.084,0.764,2.567-0.83,2.924c-0.613,0.137-1.251,0.078-1.876,0.018
						c-5.536-0.529-11.038-1.12-16.593-1.533c-1.44-0.107-3.082-0.898-1.852-2.285C49.94,75.161,52.592,74.972,53.876,74.761z"/>
				</g>
			</g>
		</g>
		<path style="fill:#152A35;" d="M80.878,118.407c-0.436,0.799-1.574,0.827-2.049,0.049l-1.241-2.035l-1.24-2.035
			c-0.475-0.778,0.071-1.777,0.981-1.799l2.383-0.057l2.383-0.058c0.91-0.021,1.504,0.951,1.067,1.75l-1.142,2.092L80.878,118.407z"
			/>
	</g>
</g>
<g>
</g>
<g>
</g>
<g>
</g>
<g>
</g>
<g>
</g>
<g>
</g>
<g>
</g>
<g>
</g>
<g>
</g>
<g>
</g>
<g>
</g>
<g>
</g>
<g>
</g>
<g>
</g>
<g>
</g>
</svg>
