<?xml version="1.0" encoding="iso-8859-1"?>
<!-- Generator: Adobe Illustrator 19.0.0, SVG Export Plug-In . SVG Version: 6.00 Build 0)  -->
<svg version="1.1" id="Layer_1" xmlns="http://www.w3.org/2000/svg" xmlns:xlink="http://www.w3.org/1999/xlink" x="0px" y="0px"
	 viewBox="0 0 318.538 318.538" style="enable-background:new 0 0 318.538 318.538;" xml:space="preserve">
<g>
	<g>
		<path style="fill:#E8C59E;" d="M295.387,253.091c-10.522-37.754-63.361-33.566-86.164-44.408s-19.245-47.219-22.134-53.548
			h-55.638c-2.889,6.329,0.674,42.711-22.134,53.548c-22.803,10.842-75.642,6.655-86.164,44.408
			c-5.806,20.824-5.525,27.187-7.133,50.26c0,0,72.5,15.187,141.611,15.187s144.888-15.187,144.888-15.187
			C300.917,280.278,301.193,273.915,295.387,253.091z"/>
		<path style="fill:#DDB58E;" d="M179.759,216.995c22.803,10.842,75.642,6.655,86.164,44.408c5.531,19.83,5.542,26.552,6.913,47.073
			c18.155-2.816,29.682-5.126,29.682-5.126c-1.602-23.067-1.326-29.435-7.133-50.26c-10.522-37.754-63.361-33.566-86.164-44.408
			c-22.803-10.842-19.245-47.219-22.134-53.548h-29.456C157.631,155.135,156.951,206.159,179.759,216.995z"/>
		<g>
			<path style="fill:#F4E9D7;" d="M255.835,296.723c-0.163-7.492-4.884-11.938-12.056-14.147c0.792-26.67,5.705-50.614,8.695-62.985
				c-6.852-1.759-13.821-3.097-20.369-4.44c-3.221,13.332-8.184,38.012-9.083,66.003c-8.56,0.748-17.711,2.737-26.018,5.413
				c-21.156,6.823-54.458,6.823-75.614,0c-8.307-2.681-17.458-4.665-26.018-5.413c-0.905-28.092-5.868-52.676-9.083-65.975
				c-6.542,1.338-13.501,2.681-20.341,4.44c2.985,12.332,7.869,36.186,8.667,62.957c-7.172,2.209-11.893,6.66-12.056,14.147
				c-0.09,4.215-0.32,9.836-0.618,14.366c26.636,3.749,61.574,7.447,95.691,7.447c34.741,0,71.168-3.839,98.805-7.655
				C256.149,306.385,255.924,300.871,255.835,296.723z"/>
			<path style="fill:#EDE2D1;" d="M228.974,229.563c7.031,2.13,13.765,4.851,19.593,8.645c1.36-7.554,2.771-13.922,3.906-18.621
				c-6.852-1.759-13.821-3.097-20.369-4.44C231.16,219.047,230.07,223.92,228.974,229.563z"/>
			<g>
				<g>
					<path style="fill:#E0605C;" d="M89.953,304.519c-1.287-0.039-2.237-1.175-3.007-2.215c-0.067,1.422-0.989,3.344-2.456,3.698
						c-1.405,0.343-3.333,0.073-3.805-1.529c-0.163-0.556-0.281-1.079-0.135-1.658c0.073-0.304,0.511-1.428,0.837-1.473
						c-1.304,0.18-2.681-0.461-3.389-1.568s-0.703-2.63,0.011-3.738s2.096-1.737,3.4-1.546c-1.124-1.057-1.298-2.979-0.371-4.21
						c0.922-1.237,2.816-1.619,4.142-0.837c1.326,0.781,1.922,2.614,1.298,4.024c0.399-1,1.18-1.86,2.175-2.276
						s2.192-0.354,3.103,0.225c0.911,0.579,1.478,1.686,1.343,2.754c-0.191,1.518-1.607,2.569-3.013,3.164
						c0.63-0.27,1.872,0.568,2.299,0.984C94.332,300.203,92.803,304.604,89.953,304.519z"/>
				</g>
				<g>
					<path style="fill:#F2AC2F;" d="M83.467,295.594c0.545-0.483,1.242-0.804,1.967-0.837c0.725-0.034,1.473,0.242,1.962,0.776
						c0.523,0.579,0.708,1.4,0.658,2.181c-0.067,0.95-0.483,1.889-1.208,2.507c-0.725,0.618-1.765,0.877-2.675,0.585
						c-1.012-0.326-1.748-1.315-1.86-2.372C82.191,297.381,82.669,296.296,83.467,295.594z"/>
				</g>
			</g>
			<g>
				<path style="fill:#E0605C;" d="M125.717,311.264c0.135-1.068-0.433-2.175-1.343-2.754c-0.911-0.579-2.108-0.641-3.103-0.225
					s-1.776,1.276-2.175,2.276c0.624-1.411,0.034-3.249-1.298-4.024c-1.332-0.781-3.221-0.399-4.142,0.837s-0.753,3.159,0.371,4.21
					c-1.304-0.185-2.687,0.444-3.4,1.546c-0.635,0.989-0.708,2.304-0.214,3.367c5.081,0.41,10.246,0.77,15.457,1.074
					c-0.022-0.821-0.292-1.602-0.871-2.164c-0.427-0.416-1.669-1.253-2.299-0.984C124.11,313.833,125.526,312.776,125.717,311.264z"
					/>
				<path style="fill:#F2AC2F;" d="M120.67,314.811c0.056-0.776-0.135-1.602-0.658-2.181c-0.489-0.54-1.237-0.809-1.962-0.776
					c-0.725,0.034-1.422,0.354-1.967,0.837c-0.798,0.703-1.27,1.787-1.158,2.844c0.051,0.489,0.236,0.956,0.517,1.36
					c1.383,0.101,2.765,0.197,4.159,0.292C120.237,316.57,120.608,315.699,120.67,314.811z"/>
			</g>
			<g>
				<g>
					<path style="fill:#E0605C;" d="M142.899,300.63c-0.753,0.298-1.585-0.129-2.288-0.54c0.315,0.837,0.253,2.175-0.506,2.748
						c-0.731,0.545-1.911,0.866-2.58,0.056c-0.236-0.281-0.427-0.556-0.489-0.922c-0.034-0.191-0.056-0.95,0.118-1.057
						c-0.708,0.427-1.664,0.399-2.349-0.067c-0.686-0.466-1.057-1.349-0.916-2.164s0.787-1.523,1.585-1.737
						c-0.911-0.332-1.484-1.4-1.259-2.344c0.23-0.944,1.225-1.63,2.186-1.512c0.961,0.124,1.759,1.034,1.748,2.007
						c-0.017-0.68,0.219-1.371,0.691-1.855c0.472-0.489,1.18-0.748,1.849-0.641c0.669,0.112,1.27,0.607,1.461,1.259
						c0.264,0.922-0.292,1.883-0.956,2.574c0.298-0.309,1.22-0.135,1.574,0C144.366,297.049,144.569,299.978,142.899,300.63z"/>
				</g>
				<g>
					<path style="fill:#F2AC2F;" d="M136.942,297.078c0.197-0.41,0.517-0.77,0.933-0.972c0.41-0.197,0.911-0.225,1.326-0.034
						c0.444,0.202,0.759,0.635,0.916,1.096c0.197,0.568,0.191,1.214-0.079,1.748c-0.264,0.534-0.804,0.944-1.4,1
						c-0.663,0.062-1.338-0.326-1.664-0.911C136.644,298.421,136.655,297.679,136.942,297.078z"/>
				</g>
			</g>
			<g>
				<path style="fill:#E0605C;" d="M166.838,306.335c1.889,0.63,4.26-0.877,5.328-2.422c0.135,1.697,0.399,3.625,1.815,4.57
					c3.125,2.085,7.908-1.765,7.048-5.238c-0.191-0.764-0.995-2.563-1.883-2.704c1.99,0.315,4.305,0.124,5.576-1.439
					c0.894-1.102,1.034-2.737,0.422-4.019c-0.613-1.282-1.911-2.186-3.311-2.411s-2.878,0.185-4.019,1.029
					c1.096-0.742,1.737-2.04,1.793-3.35c-2.675,0.36-5.413,0.652-8.195,0.866c0.006,0.034,0.011,0.067,0.022,0.096
					c-0.039-0.034-0.079-0.062-0.118-0.09c-1.99,0.152-4.002,0.264-6.02,0.343c-0.854,0.86-1.377,2.057-1.366,3.271
					c0.017,1.731,1.113,3.412,2.698,4.12c-0.393-0.174-1.669,0.781-1.962,1.062c-0.568,0.545-0.798,1.208-1,1.95
					C163.061,304.092,165.028,305.733,166.838,306.335z"/>
				<g>
					<path style="fill:#F2AC2F;" d="M172.953,293.986c0.944-0.157,1.95-0.034,2.782,0.438s1.478,1.298,1.647,2.237
						c0.185,1.012-0.185,2.063-0.787,2.895c-0.736,1.017-1.86,1.776-3.103,1.962c-1.242,0.185-2.585-0.253-3.395-1.208
						c-0.905-1.068-1.04-2.692-0.427-3.951C170.283,295.099,171.57,294.217,172.953,293.986z"/>
				</g>
			</g>
			<g>
				<g>
					<path style="fill:#E0605C;" d="M202.253,308.982c0.264-0.585,0.972-0.804,1.602-0.961c-0.641-0.304-1.349-1.096-1.231-1.844
						c0.112-0.714,0.607-1.551,1.439-1.461c0.292,0.034,0.551,0.079,0.793,0.253c0.124,0.096,0.562,0.511,0.517,0.669
						c0.169-0.635,0.725-1.152,1.377-1.265c0.646-0.112,1.349,0.18,1.72,0.725c0.371,0.54,0.399,1.304,0.062,1.866
						c0.703-0.315,1.624-0.028,2.012,0.641s0.208,1.607-0.41,2.074s-1.574,0.382-2.108-0.174c0.388,0.377,0.63,0.905,0.635,1.439
						c0,0.54-0.259,1.079-0.697,1.388c-0.444,0.309-1.062,0.36-1.529,0.09c-0.663-0.377-0.877-1.237-0.882-2.001
						c0,0.343-0.624,0.753-0.894,0.871C203.4,311.832,201.663,310.28,202.253,308.982z"/>
				</g>
				<g>
					<path style="fill:#F2AC2F;" d="M207.615,307.706c0.118,0.343,0.129,0.725,0.006,1.068c-0.124,0.343-0.393,0.635-0.736,0.753
						c-0.365,0.129-0.781,0.056-1.13-0.118c-0.427-0.214-0.781-0.585-0.922-1.04c-0.146-0.455-0.067-0.984,0.242-1.343
						c0.343-0.405,0.944-0.556,1.45-0.405C207.036,306.779,207.447,307.206,207.615,307.706z"/>
				</g>
			</g>
			<g>
				<path style="fill:#E0605C;" d="M237.073,289.849c-0.326,0.045-0.759,1.169-0.837,1.473c-0.146,0.579-0.028,1.096,0.135,1.658
					c0.472,1.602,2.4,1.872,3.805,1.529c1.467-0.354,2.394-2.276,2.456-3.698c0.77,1.04,1.714,2.175,3.007,2.215
					c2.85,0.09,4.384-4.311,2.428-6.205c-0.427-0.416-1.669-1.253-2.299-0.984c0.826-0.354,1.658-0.866,2.243-1.534
					c-1.287-0.686-2.704-1.259-4.238-1.731c0.028-0.882,0.056-1.759,0.09-2.636c-0.77,0.461-1.377,1.197-1.709,2.035
					c0.624-1.411,0.034-3.249-1.298-4.024c-1.332-0.781-3.221-0.399-4.142,0.837c-0.922,1.237-0.753,3.159,0.371,4.21
					c-1.304-0.185-2.687,0.444-3.4,1.546c-0.714,1.102-0.719,2.625-0.011,3.738C234.386,289.389,235.769,290.029,237.073,289.849z"
					/>
				<g>
					<path style="fill:#F2AC2F;" d="M239.153,284.1c0.545-0.483,1.242-0.804,1.967-0.837c0.725-0.034,1.473,0.242,1.962,0.776
						c0.523,0.579,0.708,1.4,0.658,2.181c-0.067,0.95-0.483,1.889-1.208,2.507c-0.725,0.618-1.765,0.877-2.675,0.585
						c-1.012-0.326-1.748-1.315-1.86-2.372C237.882,285.887,238.354,284.802,239.153,284.1z"/>
				</g>
			</g>
			<g>
				<path style="fill:#E0605C;" d="M247.437,308.763c-0.911-0.579-2.108-0.641-3.103-0.225s-1.776,1.276-2.175,2.276
					c0.624-1.411,0.034-3.249-1.298-4.024c-1.332-0.781-3.221-0.399-4.142,0.837s-0.753,3.159,0.371,4.21
					c-1.304-0.185-2.687,0.444-3.4,1.546c-0.079,0.124-0.146,0.247-0.208,0.377c5.255-0.596,10.342-1.22,15.215-1.855
					c0.034-0.129,0.067-0.264,0.084-0.399C248.916,310.449,248.348,309.342,247.437,308.763z"/>
				<path style="fill:#F2AC2F;" d="M242.834,312.664c-0.472-0.382-1.102-0.579-1.714-0.551c-0.725,0.034-1.422,0.354-1.967,0.837
					c-0.067,0.062-0.129,0.124-0.191,0.185C240.265,312.978,241.558,312.821,242.834,312.664z"/>
			</g>
			<g>
				<path style="fill:#E0605C;" d="M72.451,255.266c1.023-0.871,1.641-2.422,1.697-3.659c0.882,1.192,1.973,2.501,3.457,2.546
					c3.277,0.101,5.042-4.963,2.793-7.133c-0.495-0.478-1.922-1.439-2.647-1.13c1.619-0.686,3.249-1.9,3.462-3.642
					c0.152-1.231-0.5-2.501-1.546-3.17c-1.045-0.663-2.422-0.736-3.569-0.259s-2.046,1.467-2.501,2.619
					c0.719-1.624,0.039-3.732-1.489-4.631c-0.776-0.455-1.714-0.562-2.591-0.382C70.562,242.063,71.585,248.409,72.451,255.266z"/>
				<path style="fill:#F2AC2F;" d="M71.748,250.022c0.815,0.022,1.647-0.275,2.276-0.809c0.837-0.708,1.315-1.793,1.388-2.883
					c0.062-0.894-0.152-1.844-0.753-2.507c-0.562-0.618-1.422-0.933-2.254-0.894c-0.585,0.028-1.158,0.219-1.658,0.523
					C71.085,245.57,71.422,247.762,71.748,250.022z"/>
			</g>
			<g>
				<path style="fill:#E0605C;" d="M91.527,272.386c-0.219,0.028-0.517,0.793-0.568,0.995c-0.096,0.393-0.017,0.742,0.09,1.118
					c0.32,1.085,1.624,1.265,2.574,1.034c0.658-0.157,1.152-0.781,1.422-1.467c-0.185-3.243-0.416-6.424-0.691-9.538
					c-0.084-0.073-0.174-0.141-0.27-0.197c-0.899-0.528-2.181-0.27-2.805,0.568c-0.624,0.837-0.511,2.136,0.253,2.85
					c-0.882-0.129-1.815,0.298-2.299,1.045c-0.483,0.748-0.483,1.776-0.006,2.524C89.712,272.077,90.65,272.51,91.527,272.386z"/>
				<path style="fill:#F2AC2F;" d="M93.41,272.026c0.5,0.157,1.057,0.073,1.506-0.191c-0.084-1.304-0.174-2.597-0.275-3.878
					c-0.124-0.022-0.253-0.028-0.382-0.022c-0.489,0.022-0.961,0.242-1.332,0.562c-0.54,0.478-0.86,1.208-0.787,1.922
					C92.224,271.138,92.724,271.807,93.41,272.026z"/>
			</g>
			<g>
				<path style="fill:#E0605C;" d="M227.259,247.077c1.467-0.354,2.394-2.276,2.456-3.698c0.77,1.04,1.714,2.175,3.007,2.215
					c2.85,0.09,4.384-4.311,2.428-6.205c-0.427-0.416-1.669-1.253-2.299-0.984c1.405-0.596,2.822-1.652,3.013-3.164
					c0.135-1.068-0.433-2.175-1.343-2.754s-2.108-0.641-3.103-0.225s-1.776,1.276-2.175,2.276c0.495-1.119,0.225-2.501-0.568-3.417
					c-0.922,4.867-1.838,10.263-2.659,16.075C226.439,247.217,226.871,247.172,227.259,247.077z"/>
				<path style="fill:#F2AC2F;" d="M226.933,241.883c0.905,0.292,1.95,0.034,2.675-0.585s1.141-1.557,1.208-2.507
					c0.056-0.776-0.135-1.602-0.658-2.181c-0.489-0.54-1.237-0.809-1.962-0.776c-0.135,0.006-0.264,0.022-0.393,0.051
					c-0.337,1.922-0.669,3.906-0.989,5.958C226.855,241.855,226.894,241.872,226.933,241.883z"/>
			</g>
			<g>
				<path style="fill:#E0605C;" d="M223.527,275.539c1.658,0.051,2.552-2.512,1.416-3.608c-0.247-0.242-0.972-0.731-1.338-0.573
					c0.821-0.348,1.641-0.961,1.754-1.844c0.079-0.624-0.253-1.265-0.781-1.602c-0.242-0.157-0.523-0.242-0.809-0.27
					c-0.202,2.58-0.371,5.205-0.511,7.863C223.342,275.523,223.432,275.539,223.527,275.539z"/>
			</g>
			<g>
				<path style="fill:#E0605C;" d="M242.958,257.132c-0.157,0.022-0.371,0.573-0.41,0.719c-0.073,0.281-0.011,0.534,0.067,0.809
					c0.23,0.781,1.169,0.911,1.855,0.748c0.601-0.146,1.017-0.832,1.152-1.461c0.225-1.934,0.467-3.828,0.719-5.682
					c-0.41,0.219-0.731,0.601-0.905,1.034c0.304-0.686,0.017-1.585-0.63-1.962c-0.646-0.382-1.568-0.191-2.023,0.41
					c-0.45,0.601-0.365,1.54,0.18,2.052c-0.635-0.09-1.31,0.214-1.658,0.753c-0.348,0.54-0.348,1.282-0.006,1.821
					C241.648,256.907,242.323,257.222,242.958,257.132z"/>
				<path style="fill:#F2AC2F;" d="M244.312,256.873c0.444,0.141,0.95,0.017,1.304-0.287c0.073-0.062,0.135-0.129,0.191-0.197
					c0.079-0.624,0.157-1.248,0.236-1.86c-0.045-0.079-0.096-0.157-0.157-0.225c-0.236-0.264-0.601-0.393-0.955-0.377
					c-0.354,0.017-0.691,0.174-0.961,0.405c-0.388,0.343-0.618,0.871-0.568,1.388C243.464,256.233,243.823,256.716,244.312,256.873z
					"/>
			</g>
		</g>
		<path style="fill:#CCA281;" d="M123.969,192.731c9.229,7.959,20.054,15.85,35.241,18.132
			c15.237-2.288,26.023-10.342,35.269-18.334c-7.689-14.973-5.311-32.83-7.391-37.4H131.45
			C129.365,159.704,131.692,177.752,123.969,192.731z"/>
		<g>
			
				<ellipse transform="matrix(-0.177 0.9842 -0.9842 -0.177 380.0948 -81.5728)" style="fill:#DDB58E;" cx="224.153" cy="118.132" rx="21.386" ry="11.629"/>
			
				<ellipse transform="matrix(-0.9842 0.177 -0.177 -0.9842 207.8496 217.7336)" style="fill:#E8C59E;" cx="94.213" cy="118.137" rx="11.629" ry="21.386"/>
			<path style="fill:#E8C59E;" d="M208.537,55.29c0,0-12.472,3.485-41.255,3.653c-18.644,0.107-33.724,2.13-51.046,10.938
				c-15.901,8.088-23.056,19.914-23.213,24.382c-1.551,44.156,7.464,104.645,66.171,113.48
				c57.617-8.667,67.402-66.745,66.29-110.636C224.775,69.145,208.537,55.29,208.537,55.29z"/>
			<path style="fill:#DDB58E;" d="M225.483,97.113c-0.708-27.963-16.952-41.823-16.952-41.823s-0.781,0.455-2.406,1.141
				c3.738,55.2,7.43,86.164-13.63,119.747c-17.621,28.103-33.308,31.565-33.308,31.565l0,0
				C216.811,199.077,226.596,140.999,225.483,97.113z"/>
			<path style="fill:#DDB58E;" d="M92.044,122.069h7.048c0.601-21.077,14.057-31.054,27.979-34.927
				c23.809-6.627,31.307-18.66,32.127-20.262c0.815,1.602,8.313,13.63,32.127,20.262c13.922,3.873,27.372,13.849,27.979,34.927
				h7.048V39.653H92.044V122.069z"/>
			<path style="fill:#2F3233;" d="M251.462,99.367C248.753,61.141,236.983,0,159.194,0S69.635,61.141,66.926,99.367
				c-3.979,56.161,3.103,93.061,10.488,103.318c10.837,15.052,27.395,23.095,40.322,19.346s11.236-17.874,25.838-23.82
				c-21.533-8.538-38.743-38.355-43.605-67.655s10.803-42.194,27.103-46.735c23.809-6.627,31.307-20.116,32.127-21.718
				c0.815,1.602,8.313,15.086,32.127,21.718c16.3,4.536,31.964,17.435,27.103,46.735s-22.072,59.118-43.605,67.655
				c14.602,5.947,12.916,20.071,25.838,23.82c12.927,3.749,29.486-4.294,40.322-19.346
				C248.359,192.422,255.441,155.528,251.462,99.367z"/>
		</g>
	</g>
</g>
<g>
</g>
<g>
</g>
<g>
</g>
<g>
</g>
<g>
</g>
<g>
</g>
<g>
</g>
<g>
</g>
<g>
</g>
<g>
</g>
<g>
</g>
<g>
</g>
<g>
</g>
<g>
</g>
<g>
</g>
</svg>
