<?xml version="1.0" encoding="iso-8859-1"?>
<!-- Generator: Adobe Illustrator 19.0.0, SVG Export Plug-In . SVG Version: 6.00 Build 0)  -->
<svg version="1.1" id="Layer_1" xmlns="http://www.w3.org/2000/svg" xmlns:xlink="http://www.w3.org/1999/xlink" x="0px" y="0px"
	 viewBox="0 0 318.549 318.549" style="enable-background:new 0 0 318.549 318.549;" xml:space="preserve">
<g>
	<g>
		<path style="fill:#2F3233;" d="M90.69,151.352l15.592,31.655C61.947,149.272,63.813,105.038,64.6,93.943
			C67.308,55.717,91.33,0,157.946,0c58.319,0,72.135,26.653,69.364,44.841c0,0,6.042-1.742,11.792,3.282
			c14.153,12.388,18.239,53.907,4.367,88.665c-19.307,48.382-48.984,55.745-48.984,55.745L90.69,151.352z"/>
		<path style="fill:#E8C59E;" d="M295.392,253.102c-10.522-37.754-63.361-33.566-86.164-44.408
			c-22.803-10.842-19.245-47.219-22.134-53.548h-55.638c-2.889,6.329,0.674,42.711-22.134,53.548
			c-22.803,10.842-75.642,6.655-86.164,44.408c-5.806,20.824-5.525,27.187-7.133,50.26c0,0,72.5,15.187,141.611,15.187
			s144.888-15.187,144.888-15.187C300.923,280.289,301.199,273.926,295.392,253.102z"/>
		<path style="fill:#393C3D;" d="M157.637,318.548c34.803,0,71.303-3.85,98.957-7.678c-0.287-4.491-0.511-9.993-0.601-14.136
			c-0.433-20.049-33.538-18.312-58.831-10.156c-21.302,6.868-34.151,19.054-37.883,19.054c-3.738,0-16.586-12.185-37.883-19.054
			c-25.293-8.155-58.398-9.892-58.831,10.156c-0.09,4.215-0.32,9.836-0.618,14.366C88.582,314.85,123.52,318.548,157.637,318.548z"
			/>
		<path style="fill:#DDB58E;" d="M179.765,217.006c22.803,10.842,75.642,6.655,86.164,44.408c5.531,19.83,5.542,26.552,6.913,47.073
			c18.155-2.816,29.682-5.126,29.682-5.126c-1.602-23.067-1.326-29.435-7.133-50.26c-10.522-37.754-63.361-33.566-86.164-44.408
			c-22.803-10.842-19.245-47.219-22.134-53.548h-29.458C157.637,155.146,156.957,206.17,179.765,217.006z"/>
		<path style="fill:#CCA281;" d="M123.975,192.742c9.229,7.959,20.054,15.85,35.241,18.132
			c15.237-2.288,26.023-10.342,35.269-18.334c-7.689-14.973-5.311-32.83-7.391-37.4h-55.638
			C129.371,159.715,131.698,177.763,123.975,192.742z"/>
		<g>
			
				<ellipse transform="matrix(-0.177 0.9842 -0.9842 -0.177 380.1135 -81.5669)" style="fill:#DDB58E;" cx="224.16" cy="118.142" rx="21.386" ry="11.629"/>
			
				<ellipse transform="matrix(-0.9842 0.177 -0.177 -0.9842 207.8629 217.754)" style="fill:#E8C59E;" cx="94.219" cy="118.148" rx="11.629" ry="21.386"/>
			<path style="fill:#E8C59E;" d="M219.649,46.949l-59.91,9.218c0,0-21.229,0.922-38.552,9.729
				c-15.901,8.088-28.002,23.91-28.159,28.378c-1.551,44.156,7.464,104.645,66.171,113.48
				C253.53,193.563,219.649,46.949,219.649,46.949z"/>
			<path style="fill:#DDB58E;" d="M159.199,207.755c94.331-14.192,60.45-160.806,60.45-160.806h-14.141
				c3.873,61.242,9.229,93.774-13.006,129.24C174.886,204.292,159.199,207.755,159.199,207.755z"/>
			<path style="fill:#DDB58E;" d="M217.406,40.418c0,0-34.983,0.107-81.51,14.883c-65.025,20.65-35.933,100.693-34.865,102.638
				c0,0,0.59-58.606,34.207-76.98c17.8-9.729,36.028-10.336,55.762-8.144c21.33,2.372,30.863-11.185,30.863-11.185L217.406,40.418z"
				/>
			<path style="fill:#2F3233;" d="M215.67,34.415c0,0-33.257,6.43-81.853,11.101c-74.501,7.161-63.861,76.142-46.095,111.822
				c9.038,18.155,18.503,25.956,18.559,25.675c0,0-12.056-27.867-0.613-66.925c8.032-27.412,30.689-50.822,73.703-47.893
				c41.03,2.793,43.897-15.918,43.897-15.918S225.292,42.953,215.67,34.415z"/>
		</g>
		<g>
			<circle style="fill:#EAE5DC;" cx="216.693" cy="211.762" r="4.721"/>
			<circle style="fill:#EAE5DC;" cx="214.916" cy="220.991" r="4.721"/>
			<circle style="fill:#EAE5DC;" cx="212.37" cy="230.052" r="4.721"/>
			<circle style="fill:#EAE5DC;" cx="209.762" cy="239.056" r="4.721"/>
			<circle style="fill:#EAE5DC;" cx="205.474" cy="247.436" r="4.721"/>
			<circle style="fill:#EAE5DC;" cx="200.325" cy="255.373" r="4.721"/>
			<circle style="fill:#EAE5DC;" cx="194.441" cy="263.039" r="4.721"/>
			<circle style="fill:#EAE5DC;" cx="188.511" cy="270.56" r="4.721"/>
			<circle style="fill:#EAE5DC;" cx="181.311" cy="276.495" r="4.721"/>
			<circle style="fill:#EAE5DC;" cx="173.993" cy="282.475" r="4.721"/>
			<circle style="fill:#EAE5DC;" cx="166.669" cy="288.602" r="4.721"/>
			<circle style="fill:#EAE5DC;" cx="159.216" cy="294.385" r="4.721"/>
			<circle style="fill:#EAE5DC;" cx="101.74" cy="211.762" r="4.721"/>
			<circle style="fill:#EAE5DC;" cx="103.516" cy="220.991" r="4.721"/>
			<circle style="fill:#EAE5DC;" cx="106.056" cy="230.052" r="4.721"/>
			<circle style="fill:#EAE5DC;" cx="108.67" cy="239.056" r="4.721"/>
			<circle style="fill:#EAE5DC;" cx="112.953" cy="247.436" r="4.721"/>
			<circle style="fill:#EAE5DC;" cx="118.107" cy="255.373" r="4.721"/>
			<circle style="fill:#EAE5DC;" cx="123.992" cy="263.039" r="4.721"/>
			<circle style="fill:#EAE5DC;" cx="129.922" cy="270.56" r="4.721"/>
			<circle style="fill:#EAE5DC;" cx="137.122" cy="276.495" r="4.721"/>
			<circle style="fill:#EAE5DC;" cx="144.44" cy="282.475" r="4.721"/>
			<circle style="fill:#EAE5DC;" cx="151.763" cy="288.602" r="4.721"/>
		</g>
		<circle style="fill:#EAE5DC;" cx="228.226" cy="134.928" r="4.367"/>
	</g>
</g>
<g>
</g>
<g>
</g>
<g>
</g>
<g>
</g>
<g>
</g>
<g>
</g>
<g>
</g>
<g>
</g>
<g>
</g>
<g>
</g>
<g>
</g>
<g>
</g>
<g>
</g>
<g>
</g>
<g>
</g>
</svg>
