<?xml version="1.0" encoding="iso-8859-1"?>
<!-- Generator: Adobe Illustrator 19.0.0, SVG Export Plug-In . SVG Version: 6.00 Build 0)  -->
<svg version="1.1" id="Layer_1" xmlns="http://www.w3.org/2000/svg" xmlns:xlink="http://www.w3.org/1999/xlink" x="0px" y="0px"
	 viewBox="0 0 318.965 318.965" style="enable-background:new 0 0 318.965 318.965;" xml:space="preserve">
<g>
	<g>
		<g>
			<g>
				<path style="fill:#E59A23;" d="M94.317,139.672c0,0,6.166,44.92-45.639,43.054c0,0,9.802,17.255,34.533,10.263
					c0,0-13.534,20.667-46.668,10.803c0,0,17.93,34.319,68.937,27.395h22.067v-91.414L94.317,139.672z"/>
			</g>
			<g>
				<path style="fill:#D88832;" d="M116.276,192.989c0,0-3.142,11.134-22.511,20.178l30.475,2.985l9.431-22.078l-39.277-46.319
					l-0.006-0.006C94.395,147.749,98.853,177.493,116.276,192.989z"/>
			</g>
			<g>
				<path style="fill:#D88832;" d="M81.474,195.131L81.474,195.131c9.117-1.36,14.119-8.543,14.119-8.543
					c-7.059,4.716-12.377,6.396-12.377,6.396S82.654,193.844,81.474,195.131z"/>
			</g>
			<g>
				<path style="fill:#E59A23;" d="M224.609,139.672c0,0-6.166,44.92,45.639,43.054c0,0-9.802,17.255-34.533,10.263
					c0,0,13.534,20.667,46.668,10.803c0,0-17.93,34.319-68.937,27.395h-22.067v-91.414L224.609,139.672z"/>
			</g>
			<g>
				<path style="fill:#D88832;" d="M202.644,192.989c0,0,3.142,11.134,22.511,20.178l-30.475,2.985l-9.431-22.078l39.277-46.319
					l0.006-0.006C224.531,147.749,220.068,177.493,202.644,192.989z"/>
			</g>
			<g>
				<path style="fill:#D88832;" d="M237.447,195.131L237.447,195.131c-9.117-1.36-14.119-8.543-14.119-8.543
					c7.059,4.716,12.377,6.396,12.377,6.396S236.271,193.844,237.447,195.131z"/>
			</g>
		</g>
		<g>
			<path style="fill:#EAE5DC;" d="M303.673,253.518c-11.151-37.754-67.121-33.566-91.279-44.408
				c-24.157-10.842-20.386-47.219-23.449-53.548h-58.932c-3.058,6.329,0.714,42.711-23.449,53.548
				c-24.157,10.842-80.133,6.655-91.279,44.408c-6.149,20.824-5.857,27.193-7.554,50.26c0,0,76.8,15.187,150.014,15.187
				s153.488-15.187,153.488-15.187C309.53,280.705,309.822,274.342,303.673,253.518z"/>
			<path style="fill:#E0DBD3;" d="M303.673,253.518c-11.151-37.754-67.121-33.566-91.279-44.408
				c-24.157-10.842-20.386-47.219-23.449-53.548h-31.205c0,0-0.719,51.024,23.438,61.866s80.133,6.655,91.279,44.408
				c5.857,19.83,5.868,26.552,7.324,47.073c19.234-2.816,31.442-5.126,31.442-5.126C309.53,280.705,309.822,274.342,303.673,253.518
				z"/>
			<path style="fill:#D15852;" d="M212.396,209.109c-4.345-1.95-7.779-4.727-10.516-8.004l0,0
				c-5.064,6.357-13.827,11.404-24.573,14.096c1.214,0.86,2.507,1.607,3.878,2.22c4.71,2.113,10.634,3.659,17.199,5.053
				c6.031-3.378,11.089-7.548,14.872-12.304l0.416-0.517C213.239,209.48,212.812,209.295,212.396,209.109z"/>
			<g>
				<path style="fill:#C6C1BA;" d="M309.024,277.074c-7.357,1.726-16.963,3.777-28.53,5.817
					c-26.501,4.676-69.016,10.252-121.079,10.252s-94.55-5.576-121.023-10.246c-11.539-2.04-21.117-4.086-28.463-5.812
					c-0.523,3.912-0.866,7.869-1.208,12.534c7.217,1.664,16.339,3.58,27.209,5.508c27.024,4.783,70.381,10.488,123.485,10.488
					s96.489-5.705,123.535-10.488c10.898-1.928,20.043-3.85,27.277-5.519C309.895,284.943,309.547,280.986,309.024,277.074z"/>
				<path style="fill:#C6C1BA;" d="M159.421,280.665c53.104,0,96.489-5.705,123.536-10.488c9.274-1.641,17.278-3.277,23.916-4.755
					c-0.815-3.496-1.855-7.357-3.198-11.904c-0.017-0.056-0.034-0.107-0.051-0.157c-6.458,1.433-14.209,3.013-23.129,4.586
					c-26.501,4.676-69.016,10.252-121.079,10.252s-94.55-5.576-121.023-10.246c-8.892-1.568-16.626-3.148-23.067-4.581
					c-0.017,0.051-0.034,0.101-0.045,0.152c-1.343,4.553-2.383,8.42-3.198,11.916c6.621,1.478,14.602,3.108,23.848,4.744
					C62.959,274.96,106.317,280.665,159.421,280.665z"/>
				<g>
					<path style="fill:#C6C1BA;" d="M91.962,215.174c-1.726-0.163-3.429-0.326-5.109-0.495c-11.275,2.288-24.157,4.305-35.949,8.054
						c13.186,2.001,28.912,3.974,46.724,5.463C95.283,223.633,93.479,219.17,91.962,215.174z"/>
					<path style="fill:#C6C1BA;" d="M221.344,228.186c17.795-1.489,33.51-3.457,46.69-5.458
						c-11.803-3.749-24.686-5.767-35.961-8.054c-1.669,0.169-3.361,0.332-5.07,0.489
						C225.486,219.159,223.682,223.622,221.344,228.186z"/>
				</g>
				<g>
					<path style="fill:#C6C1BA;" d="M106.036,241.293c-27.845-2.04-50.928-5.345-67.638-8.296c-2.389-0.422-4.688-0.843-6.908-1.265
						c-4.227,2.895-7.925,6.363-10.865,10.578c4.631,0.95,9.741,1.933,15.305,2.923c20.257,3.586,49.692,7.689,85.535,9.521
						C115.119,250.96,110.088,246.295,106.036,241.293z"/>
					<path style="fill:#C6C1BA;" d="M287.458,231.721c-2.231,0.422-4.553,0.849-6.958,1.27c-16.699,2.945-39.76,6.25-67.565,8.29
						c-4.052,5.002-9.083,9.667-15.434,13.461c35.792-1.832,65.205-5.93,85.456-9.516c5.592-0.989,10.724-1.978,15.372-2.928
						C295.383,238.084,291.685,234.616,287.458,231.721z"/>
				</g>
			</g>
			<path style="fill:#E8C59E;" d="M159.482,264.034c47.629,0,60.978-31.369,68.071-50.321c-5.75-1.281-10.938-2.715-15.153-4.609
				c-24.157-10.842-20.386-47.219-23.449-53.548h-58.938c-3.058,6.329,0.714,42.711-23.449,53.548
				c-4.215,1.894-9.403,3.327-15.153,4.609C98.504,232.665,111.853,264.034,159.482,264.034z"/>
			<g>
				<path style="fill:#D15852;" d="M303.673,253.518c-8.678-29.385-44.51-33.358-71.365-38.793l0,0
					c11.91,24.365,20.673,53.806,23.337,97.445l0,0c32.594-4.041,55.582-8.392,55.582-8.392
					C309.53,280.705,309.822,274.342,303.673,253.518z"/>
				<path style="fill:#D15852;" d="M86.504,214.752c-26.833,5.418-62.557,9.431-71.219,38.765
					c-6.149,20.824-5.857,27.193-7.554,50.26c0,0,22.735,4.496,55.256,8.594l0.191-0.202
					C65.843,268.547,74.6,239.112,86.504,214.752z"/>
			</g>
			<path style="fill:#D15852;" d="M86.532,214.747c16.075,56.223,58.398,55.661,72.882,55.661c14.49,0,56.824,0.562,72.894-55.683
				c0.006,0,0.017,0,0.022,0.006c-4.193-0.849-8.167-1.731-11.781-2.748c-13.512,46.37-46.235,46.376-60.247,46.376h-1.771
				c-14.007,0-46.719,0-60.236-46.342c-3.62,1.017-7.588,1.894-11.775,2.743C86.527,214.747,86.532,214.747,86.532,214.747z"/>
		</g>
		<g>
			<path style="fill:#CCA281;" d="M122.083,193.158c9.78,7.959,21.24,15.85,37.338,18.132c16.137-2.288,27.569-10.342,37.36-18.334
				c-8.144-14.973-5.626-32.83-7.83-37.4h-58.938C127.799,160.131,130.267,178.179,122.083,193.158z"/>
			
				<ellipse transform="matrix(-0.177 0.9842 -0.9842 -0.177 385.656 -85.3712)" style="fill:#DDB58E;" cx="228.522" cy="118.557" rx="21.386" ry="11.629"/>
			
				<ellipse transform="matrix(-0.9842 0.177 -0.177 -0.9842 200.0904 219.2806)" style="fill:#E8C59E;" cx="90.265" cy="118.565" rx="11.629" ry="21.386"/>
			<path style="fill:#E8C59E;" d="M223.642,47.365l-64.221-30.16l-64.187,30.16c0,0-35.989,146.614,64.187,160.806
				C259.636,193.979,223.642,47.365,223.642,47.365z"/>
			<path style="fill:#DDB58E;" d="M159.421,208.171c100.216-14.192,64.221-160.806,64.221-160.806h-15.024
				c4.114,61.242,9.808,93.774-13.815,129.24C176.086,204.708,159.421,208.171,159.421,208.171z"/>
			<g>
				<path style="fill:#DDB58E;" d="M216.06,75.035c-26.867-1.619-56.695,12.27-56.695,12.27s-29.817-13.889-56.684-12.27
					c0,0-13.433,12.045-3.35,41.688c-6.537-30.16,3.35-37.518,3.35-37.518c26.867-1.619,56.684,12.27,56.684,12.27
					s29.829-13.889,56.695-12.27c0,0,10.353,8.262,3.35,37.518C229.493,87.08,216.06,75.035,216.06,75.035z"/>
				<path style="fill:#E59A23;" d="M231.359,39.457c0,0-9.167-39.412-71.938-39.457l0,0c-0.017,0-0.034,0-0.051,0s-0.034,0-0.051,0
					l0,0C96.548,0.045,87.381,39.457,87.381,39.457c-7.593,26.883-2.136,60.152-2.136,60.152l6.998,40.064l6.93,0.354l0.152-23.309
					c-10.083-29.643,3.35-41.688,3.35-41.688c26.867-1.619,56.684,12.27,56.684,12.27s29.829-13.889,56.695-12.27
					c0,0,13.433,12.045,3.35,41.688l0.354,23.309l6.857-0.36l6.874-40.058C233.501,99.609,238.952,66.334,231.359,39.457z"/>
				<path style="fill:#F2AC2F;" d="M159.376,47.803C145.29,40.26,105.58,40.26,105.58,40.26
					c39.361,4.716,53.795,13.433,53.795,13.433s14.434-8.718,53.795-13.433C213.165,40.266,173.456,40.266,159.376,47.803z"/>
			</g>
		</g>
	</g>
</g>
<g>
</g>
<g>
</g>
<g>
</g>
<g>
</g>
<g>
</g>
<g>
</g>
<g>
</g>
<g>
</g>
<g>
</g>
<g>
</g>
<g>
</g>
<g>
</g>
<g>
</g>
<g>
</g>
<g>
</g>
</svg>
