<?xml version="1.0" encoding="iso-8859-1"?>
<!-- Generator: Adobe Illustrator 18.0.0, SVG Export Plug-In . SVG Version: 6.00 Build 0)  -->
<!DOCTYPE svg PUBLIC "-//W3C//DTD SVG 1.1//EN" "http://www.w3.org/Graphics/SVG/1.1/DTD/svg11.dtd">
<svg version="1.1" id="Capa_1" xmlns="http://www.w3.org/2000/svg" xmlns:xlink="http://www.w3.org/1999/xlink" x="0px" y="0px"
	 viewBox="0 0 164.066 164.066" style="enable-background:new 0 0 164.066 164.066;" xml:space="preserve">
<g>
	<g>
		<g>
			<path style="fill:#FCD0A3;" d="M137.172,84.949c4,0,7.667-3.433,7.667-7.667c0-4.234-3.667-7.667-7.667-7.667V84.949z"/>
			<path style="opacity:0.16;fill:#FCD0A3;" d="M137.172,84.949c4,0,7.667-3.433,7.667-7.667c0-4.234-3.667-7.667-7.667-7.667
				V84.949z"/>
		</g>
		<g>
			<path style="fill:#FCD0A3;" d="M59.172,84.949c-4,0-7.667-3.433-7.667-7.667c0-4.234,3.667-7.667,7.667-7.667V84.949z"/>
			<path style="opacity:0.16;fill:#FCD0A3;" d="M59.172,84.949c-4,0-7.667-3.433-7.667-7.667c0-4.234,3.667-7.667,7.667-7.667
				V84.949z"/>
		</g>
	</g>
	<g>
		<g>
			<g>
				<path style="fill:#152A35;" d="M133.904,158.854c-0.284-1.747-0.787-3.439-1.481-5.059c-0.316-0.735-0.667-1.457-1.06-2.161
					c-1.016-1.819-2.284-3.527-3.768-5.096c-0.739-0.781-1.535-1.525-2.378-2.233c-2.633-2.213-5.745-4.051-9.206-5.407
					c-3.216-1.261-6.729-2.103-10.436-2.44c-1.211-0.111-2.439-0.174-3.688-0.174h-6.759c-1.248,0-2.477,0.063-3.688,0.174
					c-3.706,0.338-7.22,1.18-10.436,2.44c-3.461,1.357-6.574,3.195-9.207,5.408c-0.842,0.708-1.636,1.451-2.375,2.231
					c-1.485,1.568-2.754,3.276-3.77,5.097c-0.393,0.704-0.744,1.426-1.059,2.161c-0.695,1.621-1.198,3.314-1.483,5.064
					c-0.118,0.725-0.193,1.459-0.235,2.201c1.158,0.191,2.317,0.378,3.477,0.552c3.972,0.597,7.951,1.094,11.935,1.478
					c0.172,0.017,0.343,0.032,0.515,0.049c17.282,1.651,34.652,1.072,51.877-1.526c1.154-0.174,2.309-0.357,3.462-0.549
					C134.099,160.318,134.024,159.581,133.904,158.854z"/>
				<g>
					<path style="fill:#FCD0A3;" d="M98.554,139.404L98.554,139.404c-1.935,0-3.502-1.567-3.502-3.501v-13.964
						c0-1.934,1.567-3.501,3.502-3.501l0,0c1.934,0,3.501,1.567,3.501,3.501v13.964C102.055,137.836,100.488,139.404,98.554,139.404
						z"/>
					<path style="fill:#FCD0A3;" d="M98.554,125.841L98.554,125.841c-21.908,0-39.667-17.759-39.667-39.667v-34
						c0-21.907,17.759-39.666,39.667-39.666l0,0c21.907,0,39.666,17.759,39.666,39.666v34
						C138.22,108.082,120.461,125.841,98.554,125.841z"/>
					<path style="opacity:0.16;fill:#FCD0A3;" d="M76.874,115.392c-5.892-7.366-7.638-16.079-7.842-25.324
						c-0.202-9.157-0.265-17.485,0.294-26.664c0.543-8.917,2.318-17.641,6.815-25.004c6.184-10.128,17.324-19.683,27.987-25.481
						c-1.854-0.266-3.745-0.41-5.672-0.41l0,0c-21.908,0-39.667,17.759-39.667,39.666v34c0,18.021,12.022,33.227,28.481,38.057
						C83.327,121.936,79.777,119.021,76.874,115.392z"/>
				</g>
			</g>
			<g>
				<g>
					<path style="fill:#394C55;" d="M140.175,73.251V52.913c0-23.315-19.079-42.799-42.391-42.399
						c-22.643,0.388-40.942,18.928-40.942,41.661V58.5c0,0,15.876,3.162,36.177,4.156c16.169,0.791,32.072,4.425,47.056,10.554
						L140.175,73.251z"/>
				</g>
				<g>
					<path style="fill:#394C55;" d="M92.013,6.495c-2.248-1.435-4.923-2.487-6.432-3.048c-0.799-0.298-2.73-0.473-3.206-1.196
						c-0.384-0.584-1.596-1.001-2.04-1.083c-3.348-0.861-6.89-0.999-10.336-0.566c-1.136-0.47-2.36-0.676-3.637-0.578
						c-0.131,0.01-0.228,0.067-0.306,0.143c-3.331,0.046-6.731,0.958-9.908,2.452c-0.835-0.203-1.707-0.152-2.522,0.151
						c-0.214,0.039-0.402,0.089-0.515,0.133c-3.201,0.965-6.33,2.937-9.087,5.477c-0.618,0.006-1.234,0.12-1.824,0.361
						c-0.085,0.035-0.149,0.089-0.2,0.149c-0.175,0.091-0.322,0.184-0.411,0.252c-2.803,1.848-5.371,4.731-7.458,8.09
						c-0.325,0.077-0.637,0.199-0.929,0.371c-0.447,0.141-0.979,0.668-1.162,0.907c-2.225,2.569-4.051,6.116-5.343,10.003
						c-0.106,0.071-0.208,0.149-0.31,0.226c-0.17,0.11-0.323,0.241-0.465,0.391c-0.149,0.14-0.288,0.293-0.425,0.449
						c-0.053,0.057-0.104,0.113-0.154,0.178c-0.074,0.09-0.157,0.167-0.227,0.262c-0.052,0.07-0.079,0.141-0.091,0.208
						c-0.064,0.112-0.119,0.215-0.151,0.289c-1.651,3.303-2.694,7.585-3.087,12.04c-0.195,0.14-0.369,0.309-0.523,0.498
						c-0.394,0.101-0.715,1.12-0.784,1.487c-0.857,3.605-0.978,8.004-0.465,12.414c-0.517,0.5-0.795,1.227-0.714,2
						c-0.061,0.341-0.077,0.709-0.07,0.895c-0.043,3.879,0.858,8.41,2.404,12.744c-0.189,0.222-0.321,0.495-0.389,0.807
						c-0.097,0.445-0.025,0.881,0.104,1.304c0.017,0.34,0.077,0.7,0.125,0.879c0.842,3.813,2.776,8.054,5.314,11.915
						c-0.002,0.295,0.036,0.579,0.105,0.85c-0.014,0.682,0.162,1.344,0.447,1.981c0.075,0.178,0.152,0.337,0.205,0.432
						c1.952,3.87,5.424,7.945,9.447,11.258c-0.104,0.332-0.128,0.68-0.035,1.01c-0.054,0.289,0.561,1.017,0.796,1.247
						c1.953,1.906,3.971,3.601,6.273,5.052c1.307,0.824,2.724,1.551,4.18,2.176c0.081,0.097,0.169,0.187,0.255,0.278
						c0.315,2.286,3.184,2.822,4.969,3.184c2.59,0.525,8.877,0.874,7.676,5.332c-0.101,0.376-0.246,0.649-0.513,0.908
						c-0.224,0.219-0.769,0.351-0.808,0.725c-0.193,1.861,3.241-0.932,3.583-1.659c0.322-0.683,0.372-1.476,0.272-2.229
						c-0.457-3.429-2.628-6.727-4.901-9.164c-1.061-1.138-2.271-2.144-3.626-2.883c-1.4-0.765-2.752-0.841-4.223-1.264
						c-0.275-0.079-0.551-0.137-0.824-0.146c-0.349-0.012-0.702-0.043-1.052-0.06c-1.547-2.429-4.349-5.556-6.868-8.841
						c-0.257-0.309-1.313-1.585-2.272-1.836c-0.218-0.055-0.437-0.127-0.654-0.185c-0.867-2.745-2.521-6.238-3.966-9.792
						c-0.167-0.369-0.86-1.892-1.776-2.352c-0.116-0.058-0.231-0.126-0.347-0.185c-0.191-2.863-0.858-6.439-1.372-9.997
						c-0.075-0.406-0.392-2.073-1.24-2.733c-0.043-0.033-0.085-0.071-0.128-0.104c0.44-2.793,0.623-6.207,0.902-9.554
						c0.018-0.41,0.073-2.073-0.652-2.93c1.001-2.551,1.887-5.624,2.827-8.583c0.101-0.374,0.467-1.822-0.002-2.834
						c1.479-2.167,2.937-4.746,4.408-7.188c0.172-0.319,0.792-1.512,0.587-2.575c1.856-1.668,3.749-3.647,5.622-5.473
						c0.228-0.249,1.026-1.149,1.08-2.174c2.13-1.086,4.331-2.393,6.481-3.539c0.27-0.168,1.185-0.76,1.475-1.669
						c2.293-0.45,4.67-1.041,6.968-1.477c0.297-0.08,1.279-0.355,1.774-1.092c2.332,0.21,4.75,0.345,7.061,0.621
						c0.232,0.01,0.854,0.026,1.432-0.184c1.25-0.454,2.433,2.379,3.296,2.851c2.48,1.354,6.591-1.625,8.749-2.662
						c3.356-1.612,6.711-3.225,10.066-4.837c1.021-0.49,2.076-1.008,2.787-1.888C97.395,10.667,94.08,7.815,92.013,6.495z"/>
					<path style="fill:#F5A251;" d="M96.176,8.357c-0.533-0.678-1.188-1.259-1.865-1.798c-1.047-0.835-2.252-1.5-3.574-1.764
						c-2.452-0.489-4.531,0.387-6.729,1.347c-2.775,1.213-5.553,2.427-8.264,3.78c-2.621,1.309-5.246,2.699-7.495,4.599
						c-0.835,0.705-1.613,1.481-2.292,2.34c-0.57,0.72-1.643,1.94-1.3,2.943c0.11,0.323,0.126,0.357,0.354,0.564
						c0.247,0.225,0.788,0.265,1.087,0.367c0.657,0.227,1.309,0.475,1.911,0.824c0.389,0.227,0.781,0.793,1.259,0.826
						c1.021,0.069,1.681-0.997,2.269-1.667c0.745-0.849,1.595-1.594,2.513-2.25c1.882-1.346,4.003-2.314,6.132-3.2
						c3.059-1.273,6.177-2.344,9.313-3.397c1.26-0.423,2.564-0.714,3.884-0.869c0.668-0.079,1.341-0.123,2.014-0.131
						c0.663-0.009,1.325,0.071,1.985-0.022c0.129-0.02-0.175-0.626-0.214-0.718c-0.087-0.205-0.169-0.413-0.264-0.614
						C96.703,9.099,96.457,8.714,96.176,8.357z"/>
					<path style="fill:#F5A251;" d="M51.527,105.8c0.029-0.576-0.017-1.15-0.16-1.707c-0.227-0.878-0.799-1.705-1.734-1.103
						c-0.038-0.395-0.181-0.741-0.532-0.887c-0.688-0.283-1.313,0.332-1.364,1.022c-0.051,0.678,0.078,1.354,0.012,2.046
						c-0.063,0.652-0.194,1.297-0.408,1.914c-0.251,0.723-0.62,1.4-1.081,2.003c-0.416,0.544-1.298,0.977-1.313,1.759
						c-0.019,0.972,1.093,0.959,1.697,0.688c-0.098,0.044,0.304,0.691,0.36,0.749c0.228,0.231,0.506,0.32,0.821,0.269
						c1.118-0.186,1.988-1.824,2.49-2.769C50.946,108.601,51.457,107.196,51.527,105.8z"/>
				</g>
			</g>
		</g>
		<g>
			<g>
				<path style="fill:none;stroke:#6F6F6E;stroke-width:0.1;stroke-linecap:round;stroke-linejoin:round;stroke-miterlimit:10;" d="
					M77.168,101.762c5.626,5.181,13.135,8.348,21.386,8.348c8.25,0,15.76-3.167,21.386-8.348"/>
				<g>
					<path style="fill:#DC2A2C;" d="M93.366,109.656l1.461,1.849c0.616,0.78,1.556,1.235,2.55,1.235h2.471
						c0.995,0,1.932-0.469,2.529-1.265l1.364-1.819H93.366z"/>
					<path style="fill:#E94941;" d="M99.1,107.571l-0.303,0.31c-0.143,0.145-0.374,0.146-0.518,0.002l-0.271-0.271
						c-0.732-0.732-1.923-0.728-2.648,0.012l-1.994,2.032h2.692c0.659,0,1.314,0.104,1.94,0.307l0.304,0.098
						c0.217,0.07,0.45,0.066,0.664-0.011l0.283-0.103c0.531-0.192,1.092-0.291,1.657-0.291h2.834l-2.098-2.097
						C100.941,106.855,99.797,106.861,99.1,107.571z"/>
				</g>
			</g>
			<g>
				
					<ellipse transform="matrix(0.9676 0.2525 -0.2525 0.9676 24.0421 -16.0529)" style="opacity:0.25;fill:#F296A4;" cx="74.557" cy="85.633" rx="11.974" ry="7.361"/>
				
					<ellipse transform="matrix(-0.9676 0.2525 -0.2525 -0.9676 262.5765 137.5639)" style="opacity:0.25;fill:#F296A4;" cx="122.46" cy="85.633" rx="11.974" ry="7.361"/>
			</g>
			<g>
				<g>
					<g>
						<g>
							<g>
								<path style="fill:#152A35;" d="M122.518,72.934c1.364,0.34,2.783-0.465,3.193-1.809c0.047-0.155-0.194-0.22-0.241-0.066
									c-0.37,1.213-1.655,1.941-2.885,1.634C122.428,72.654,122.361,72.895,122.518,72.934L122.518,72.934z"/>
							</g>
						</g>
						<g>
							<g>
								<path style="fill:#152A35;" d="M122.358,72.562c1.189,0,2.184-0.953,2.246-2.138c0.008-0.161-0.242-0.16-0.25,0
									c-0.055,1.05-0.947,1.888-1.996,1.888C122.196,72.312,122.196,72.562,122.358,72.562L122.358,72.562z"/>
							</g>
						</g>
						<g>
							<g>
								<path style="fill:#152A35;" d="M122.62,73.255c0.911,0.627,2.01,0.791,3.065,0.464c0.153-0.048,0.088-0.289-0.066-0.241
									c-0.998,0.309-2.012,0.153-2.872-0.438C122.613,72.947,122.488,73.164,122.62,73.255L122.62,73.255z"/>
							</g>
						</g>
					</g>
					<g>
						<g>
							<circle style="fill:#152A35;" cx="119.578" cy="74.197" r="3.333"/>
							<circle style="fill:#8E8D9C;" cx="119.578" cy="74.197" r="3.104"/>
							<polygon style="fill:#5F5D73;" points="116.974,72.759 118.318,73.409 117.145,72.486 118.41,73.277 117.344,72.233 
								118.516,73.156 117.57,72.002 118.635,73.046 117.819,71.798 118.765,72.951 118.088,71.622 118.905,72.87 118.375,71.476 
								119.051,72.805 118.676,71.362 119.205,72.756 118.989,71.281 119.363,72.725 119.307,71.234 119.523,72.71 119.629,71.222 
								119.684,72.713 119.95,71.244 119.844,72.733 120.267,71.302 120,72.77 120.575,71.394 120.153,72.825 120.873,71.518 
								120.297,72.894 121.155,71.674 120.434,72.98 121.418,71.859 120.561,73.079 121.66,72.072 120.675,73.192 121.878,72.309 
								120.778,73.317 122.069,72.569 120.866,73.451 122.23,72.848 120.939,73.595 122.36,73.142 120.995,73.745 122.457,73.449 
								121.036,73.901 122.522,73.765 121.06,74.061 122.551,74.085 121.066,74.221 122.545,74.408 121.054,74.382 122.505,74.727 
								121.026,74.54 122.431,75.04 120.98,74.695 122.323,75.344 120.917,74.843 122.183,75.634 120.84,74.985 122.012,75.907 
								120.747,75.117 121.813,76.159 120.641,75.237 121.587,76.39 120.522,75.346 121.338,76.594 120.392,75.441 121.069,76.771 
								120.253,75.522 120.782,76.916 120.106,75.587 120.481,77.031 119.952,75.636 120.169,77.112 119.794,75.668 119.85,77.159 
								119.634,75.683 119.529,77.17 119.473,75.68 119.207,77.148 119.313,75.659 118.89,77.09 119.157,75.622 118.581,76.998 
								119.005,75.569 118.284,76.874 118.86,75.498 118.002,76.719 118.723,75.412 117.739,76.534 118.597,75.313 117.496,76.321 
								118.482,75.201 117.28,76.083 118.379,75.076 117.088,75.824 118.291,74.942 116.927,75.545 118.218,74.798 116.797,75.25 
								118.161,74.647 116.699,74.944 118.12,74.492 116.635,74.628 118.098,74.332 116.606,74.307 118.091,74.171 116.612,73.985 
								118.103,74.01 116.652,73.665 118.132,73.852 116.726,73.352 118.177,73.698 116.834,73.049 118.24,73.549 							"/>
						</g>
						<g>
							<circle style="opacity:0.35;fill:#1D1A3A;" cx="119.589" cy="74.197" r="1.587"/>
							<path style="fill:#FFFFFF;" d="M120.565,73.483c0.001-0.009,0.005-0.017,0.005-0.025c0-0.271-0.219-0.49-0.49-0.49
								c-0.271,0-0.49,0.22-0.49,0.49s0.22,0.49,0.49,0.49c0.041,0,0.078-0.014,0.116-0.023c0.035,0.015,0.074,0.023,0.115,0.023
								c0.169,0,0.306-0.137,0.306-0.305C120.616,73.582,120.594,73.531,120.565,73.483z"/>
						</g>
					</g>
				</g>
				<g>
					<g>
						<g>
							<g>
								<path style="fill:#152A35;" d="M78.56,72.693c-1.23,0.306-2.516-0.421-2.885-1.634c-0.047-0.154-0.288-0.088-0.241,0.066
									c0.41,1.344,1.829,2.148,3.193,1.809C78.783,72.895,78.716,72.654,78.56,72.693L78.56,72.693z"/>
							</g>
						</g>
						<g>
							<g>
								<path style="fill:#152A35;" d="M78.786,72.312c-1.049,0-1.941-0.837-1.996-1.888c-0.008-0.16-0.258-0.161-0.25,0
									c0.062,1.184,1.057,2.138,2.246,2.138C78.948,72.562,78.948,72.312,78.786,72.312L78.786,72.312z"/>
							</g>
						</g>
						<g>
							<g>
								<path style="fill:#152A35;" d="M78.398,73.039c-0.86,0.592-1.875,0.748-2.872,0.438c-0.154-0.048-0.22,0.193-0.066,0.241
									c1.056,0.327,2.154,0.163,3.065-0.464C78.656,73.164,78.531,72.947,78.398,73.039L78.398,73.039z"/>
							</g>
						</g>
					</g>
					<g>
						<g>
							<circle style="fill:#152A35;" cx="81.46" cy="74.197" r="3.333"/>
							<circle style="fill:#8E8D9C;" cx="81.46" cy="74.197" r="3.104"/>
							<polygon style="fill:#5F5D73;" points="78.856,72.759 80.199,73.409 79.026,72.486 80.291,73.277 79.225,72.233 
								80.397,73.156 79.451,72.002 80.516,73.046 79.7,71.798 80.646,72.951 79.97,71.622 80.785,72.87 80.257,71.476 
								80.933,72.805 80.558,71.362 81.086,72.756 80.869,71.281 81.244,72.725 81.188,71.234 81.405,72.71 81.51,71.222 
								81.565,72.713 81.831,71.244 81.725,72.733 82.148,71.302 81.882,72.77 82.457,71.394 82.033,72.825 82.754,71.518 
								82.178,72.894 83.036,71.674 82.315,72.98 83.299,71.859 82.442,73.079 83.541,72.072 82.556,73.192 83.759,72.309 
								82.659,73.317 83.949,72.569 82.747,73.451 84.111,72.848 82.82,73.595 84.241,73.142 82.877,73.745 84.339,73.449 
								82.917,73.901 84.403,73.765 82.941,74.061 84.432,74.085 82.947,74.221 84.427,74.408 82.935,74.382 84.387,74.727 
								82.907,74.54 84.312,75.04 82.861,74.695 84.204,75.344 82.799,74.843 84.064,75.634 82.721,74.985 83.893,75.907 
								82.628,75.117 83.694,76.159 82.522,75.237 83.468,76.39 82.404,75.346 83.22,76.594 82.273,75.441 82.95,76.771 
								82.134,75.522 82.663,76.916 81.987,75.587 82.362,77.031 81.833,75.636 82.05,77.112 81.675,75.668 81.731,77.159 
								81.515,75.683 81.409,77.17 81.354,75.68 81.088,77.148 81.194,75.659 80.771,77.09 81.037,75.622 80.462,76.998 
								80.886,75.569 80.165,76.874 80.741,75.498 79.883,76.719 80.604,75.412 79.62,76.534 80.478,75.313 79.378,76.321 
								80.363,75.201 79.16,76.083 80.26,75.076 78.97,75.824 80.173,74.942 78.808,75.545 80.099,74.798 78.678,75.25 
								80.042,74.647 78.58,74.944 80.002,74.492 78.517,74.628 79.979,74.332 78.487,74.307 79.972,74.171 78.492,73.985 
								79.984,74.01 78.533,73.665 80.013,73.852 78.608,73.352 80.058,73.698 78.716,73.049 80.12,73.549 							"/>
						</g>
						<g>
							<circle style="opacity:0.35;fill:#1D1A3A;" cx="81.47" cy="74.197" r="1.587"/>
							<path style="fill:#FFFFFF;" d="M82.446,73.483c0.001-0.009,0.005-0.017,0.005-0.025c0-0.271-0.219-0.49-0.49-0.49
								c-0.271,0-0.49,0.22-0.49,0.49s0.22,0.49,0.49,0.49c0.041,0,0.078-0.014,0.116-0.023c0.036,0.015,0.075,0.023,0.116,0.023
								c0.168,0,0.305-0.137,0.305-0.305C82.497,73.582,82.476,73.531,82.446,73.483z"/>
						</g>
					</g>
				</g>
			</g>
		</g>
	</g>
</g>
<g>
</g>
<g>
</g>
<g>
</g>
<g>
</g>
<g>
</g>
<g>
</g>
<g>
</g>
<g>
</g>
<g>
</g>
<g>
</g>
<g>
</g>
<g>
</g>
<g>
</g>
<g>
</g>
<g>
</g>
</svg>
