<?xml version="1.0" encoding="iso-8859-1"?>
<!-- Generator: Adobe Illustrator 19.0.0, SVG Export Plug-In . SVG Version: 6.00 Build 0)  -->
<svg version="1.1" id="Layer_1" xmlns="http://www.w3.org/2000/svg" xmlns:xlink="http://www.w3.org/1999/xlink" x="0px" y="0px"
	 viewBox="0 0 318.543 318.543" style="enable-background:new 0 0 318.543 318.543;" xml:space="preserve">
<g>
	<g>
		<path style="fill:#EAE5DC;" d="M303.462,253.096c-11.151-37.754-67.121-33.566-91.279-44.408
			c-24.157-10.842-20.386-47.219-23.449-53.548h-58.932c-3.058,6.329,0.714,42.711-23.449,53.548
			c-24.157,10.842-80.133,6.655-91.279,44.408c-6.149,20.824-5.857,27.193-7.554,50.26c0,0,76.8,15.187,150.014,15.187
			s153.488-15.187,153.488-15.187C309.318,280.283,309.611,273.921,303.462,253.096z"/>
		<path style="fill:#E0DBD3;" d="M180.972,217.001c24.157,10.842,80.133,6.655,91.279,44.408c5.857,19.83,5.868,26.552,7.324,47.073
			c19.234-2.816,31.442-5.126,31.442-5.126c-1.697-23.067-1.405-29.435-7.554-50.26c-11.151-37.754-67.121-33.566-91.279-44.408
			c-24.157-10.842-20.386-47.219-23.449-53.548H157.53C157.534,155.14,156.814,206.164,180.972,217.001z"/>
		<path style="fill:#E8C59E;" d="M201.667,200.684c-12.5-14.951-10.421-40.356-12.927-45.549h-58.938
			c-2.512,5.193-0.427,30.599-12.927,45.549c5.963,14.029,37.99,51.575,42.396,51.575
			C163.671,252.259,195.209,215.854,201.667,200.684z"/>
		<path style="fill:#C69E7F;" d="M121.871,192.736c9.78,7.959,21.24,15.85,37.338,18.132c16.137-2.288,27.569-10.342,37.36-18.334
			c-8.144-14.973-5.626-32.83-7.83-37.4h-58.938C127.587,159.71,130.054,177.758,121.871,192.736z"/>
		
			<ellipse transform="matrix(-0.177 0.9842 -0.9842 -0.177 384.9916 -85.6597)" style="fill:#DDB58E;" cx="228.31" cy="118.135" rx="21.386" ry="11.629"/>
		
			<ellipse transform="matrix(-0.9842 0.177 -0.177 -0.9842 199.5964 218.4798)" style="fill:#E8C59E;" cx="90.053" cy="118.142" rx="11.629" ry="21.386"/>
		<path style="fill:#E8C59E;" d="M223.43,46.943l-63.653,9.218l-65.396-8.33c0,0-5.48,31.83-5.48,46.438
			c0,44.184,7.931,104.645,70.303,113.48C259.424,193.557,223.43,46.943,223.43,46.943z"/>
		<path style="fill:#DDB58E;" d="M159.209,207.749C259.426,193.557,223.43,46.943,223.43,46.943h-15.024
			c4.114,61.242,9.808,93.774-13.815,129.24C175.874,204.287,159.209,207.749,159.209,207.749z"/>
		<path style="fill:#DDB58E;" d="M231.613,53.632c-3.361-22.865-22.685-49.473-72.405-49.473s-67.993,28.3-72.405,49.473
			C83.38,70.055,95.65,90.076,95.65,90.076c-0.995-10.69-1.074-24.764,4.373-30.211c9.274-9.274,59.798,8.881,59.798,8.881
			s51.131-16.328,58.578-8.881c4.407,4.407,4.48,18.874,3.805,29.941C222.199,89.812,234.272,71.719,231.613,53.632z"/>
		<path style="fill:#515151;" d="M231.613,49.473C228.252,26.608,208.929,0,159.209,0S91.216,28.3,86.804,49.473
			c-3.423,16.423-2.541,35.067-0.961,47.719c4.339-0.472,8.611,0.719,11.663,2.102c0,0-6.756-34.303,2.518-43.582
			s59.798,8.881,59.798,8.881s51.131-16.328,58.578-8.881s2.518,43.582,2.518,43.582c3.052-1.383,7.324-2.574,11.663-2.102
			C234.272,81.904,234.272,67.56,231.613,49.473z"/>
		<path style="fill:#DDB58E;" d="M158.54,153.01c-14.203,0-31.06-0.433-42.587,2.243c-13.596,3.153-20.695,9.493-20.695,9.493
			c2.715-1.27,11.871-3.204,19.588-0.45c9.336,3.333,25.501,13.731,43.689-6.419c18.188,20.15,34.353,9.752,43.689,6.419
			c7.723-2.76,16.879-0.821,19.593,0.45c0,0-9.471-7.56-23.067-10.713C187.227,151.363,172.743,153.01,158.54,153.01z"/>
		<path style="fill:#515151;" d="M224.16,148.525c0,0-12.742,29.609-42.396,40.693c0.011-0.034,0.028-0.067,0.039-0.101
			c-16.356,5.137-23.269-12.096-23.269-12.096s-6.913,17.238-23.269,12.096c0,0.006,0,0.006,0.006,0.011
			c-28.952-11.151-40.227-40.603-40.227-40.603s0.45,1.911,0.658,4.89c0.45,6.334,0.939,17.497-0.416,25.445
			c-2.754,16.142-5.272,29.143,4.671,44.92c8.774,13.917,22.758,26.58,49.006,31.183c46.044,8.071,61.141-11.955,61.141-11.955
			s-24.478-3.288-23.449-10.168c1.023-6.88,6.16-3.889,20.65-13.158c14.49-9.268,17.407-29.002,14.035-42.16
			c-2.136-8.318-0.062-17.401,1.473-23.185C223.705,150.981,224.16,148.525,224.16,148.525z"/>
		<path style="fill:#464747;" d="M186.66,232.845c1.023-6.88,6.16-3.889,20.65-13.158c14.49-9.268,17.407-29.002,14.035-42.16
			c-2.136-8.318-0.062-17.401,1.473-23.185c0.894-3.367,1.349-5.817,1.349-5.817s-8.481,21.431-8.971,37.613
			c-0.63,20.791-18.458,27.749-40.615,33.33c-11.5,2.895-10.724,16.024-1.534,22.848c8.521,6.323,24.585,6.739,37.062,0.697
			C210.109,243.013,185.631,239.725,186.66,232.845z"/>
		<path style="fill:#515151;" d="M162.311,142.095l-3.816,1.163l-3.726-1.163c0,0-35.82-9.195-59.505,22.651
			c0,0,10.173-5.604,19.588-2.243c9.336,3.333,25.501,11.938,43.689-8.212c18.188,20.15,34.353,11.55,43.689,8.212
			c9.42-3.361,19.593,2.243,19.593,2.243C198.131,132.905,162.311,142.095,162.311,142.095z"/>
	</g>
</g>
<g>
</g>
<g>
</g>
<g>
</g>
<g>
</g>
<g>
</g>
<g>
</g>
<g>
</g>
<g>
</g>
<g>
</g>
<g>
</g>
<g>
</g>
<g>
</g>
<g>
</g>
<g>
</g>
<g>
</g>
</svg>
