<?xml version="1.0" encoding="iso-8859-1"?>
<!-- Generator: Adobe Illustrator 19.0.0, SVG Export Plug-In . SVG Version: 6.00 Build 0)  -->
<svg version="1.1" id="Layer_1" xmlns="http://www.w3.org/2000/svg" xmlns:xlink="http://www.w3.org/1999/xlink" x="0px" y="0px"
	 viewBox="0 0 318.959 318.959" style="enable-background:new 0 0 318.959 318.959;" xml:space="preserve">
<g>
	<g>
		<path style="fill:#4C3626;" d="M231.721,137.21l-14.94-9.443l-27.153,54.357l7.149,10.988c6.244-2.698,12.989-9.212,16.081-12.304
			c1.675,1.877,1.518,4.277,1.518,4.277c7.166-7.571,7.65-24.787,7.65-24.787c2.338,2.209,2.659,4.974,2.659,4.974
			C231.721,152.324,231.721,137.21,231.721,137.21z"/>
		<path style="fill:#4C3626;" d="M87.132,137.21l14.94-9.443l27.153,54.357l-7.149,10.988c-6.245-2.698-12.989-9.212-16.081-12.304
			c-1.675,1.877-1.518,4.277-1.518,4.277c-7.166-7.571-7.65-24.787-7.65-24.787c-2.338,2.209-2.659,4.974-2.659,4.974
			C87.132,152.324,87.132,137.21,87.132,137.21z"/>
		<path style="fill:#5C9EA0;" d="M303.671,253.512c-11.151-37.754-67.121-33.566-91.279-44.408
			c-24.157-10.842-20.386-47.219-23.449-53.548H130.01c-3.058,6.329,0.714,42.711-23.449,53.548
			c-24.157,10.842-80.133,6.655-91.279,44.408c-6.149,20.824-5.857,27.193-7.554,50.26c0,0,76.8,15.187,150.014,15.187
			s153.488-15.187,153.488-15.187C309.527,280.699,309.82,274.337,303.671,253.512z"/>
		<path style="fill:#51989E;" d="M303.671,253.512c-11.151-37.754-67.121-33.566-91.279-44.408
			c-24.157-10.842-20.386-47.219-23.449-53.548h-31.206c0,0-0.719,51.024,23.438,61.866s80.133,6.655,91.279,44.408
			c5.857,19.83,5.868,26.552,7.324,47.073c19.234-2.816,31.442-5.126,31.442-5.126C309.527,280.699,309.82,274.337,303.671,253.512z
			"/>
		<path style="fill:#EAE5DC;" d="M213.674,209.649c-0.433-0.18-0.86-0.36-1.276-0.545c-24.157-10.842-20.386-47.219-23.449-53.548
			H130.01c-3.058,6.329,0.714,42.711-23.449,53.548c-0.416,0.185-0.843,0.371-1.276,0.545c0,0,7.29,13.332,18.408,27.608
			c12.804,16.44,30.003,34.134,35.786,34.134c5.778,0,22.977-17.688,35.786-34.134C206.379,222.981,213.674,209.649,213.674,209.649
			z"/>
		<path style="fill:#E0DBD3;" d="M181.182,217.417c6.239,2.799,14.602,4.598,23.77,6.374c5.469-8.2,8.723-14.141,8.723-14.141
			c-0.433-0.18-0.86-0.36-1.276-0.545c-24.157-10.842-20.386-47.219-23.449-53.548h-31.206
			C157.743,155.556,157.023,206.58,181.182,217.417z"/>
		<path style="fill:#DBB491;" d="M201.877,201.1c-12.5-14.951-10.421-40.356-12.927-45.549H130.01
			c-2.512,5.193-0.427,30.599-12.927,45.549C123.042,215.129,195.419,216.27,201.877,201.1z"/>
		<path style="fill:#DBB491;" d="M173.122,211.526c14.271-1.237,26.293-4.648,28.749-10.421
			c-12.5-14.951-10.421-40.356-12.927-45.549h-31.206C157.743,155.556,157.193,194.428,173.122,211.526z"/>
		<path style="fill:#C69E7F;" d="M122.081,193.152c9.78,7.959,21.24,15.85,37.338,18.132c16.137-2.288,27.569-10.342,37.36-18.334
			c-8.144-14.973-5.626-32.83-7.83-37.4H130.01C127.797,160.126,130.264,178.173,122.081,193.152z"/>
		
			<ellipse transform="matrix(-0.177 0.9842 -0.9842 -0.177 385.6469 -85.3759)" style="fill:#CCA483;" cx="228.519" cy="118.551" rx="21.386" ry="11.629"/>
		
			<ellipse transform="matrix(-0.9842 0.177 -0.177 -0.9842 200.0847 219.268)" style="fill:#DBB491;" cx="90.262" cy="118.558" rx="11.629" ry="21.386"/>
		<path style="fill:#DBB491;" d="M223.64,47.359h-64.221H95.231c0,0-35.989,146.614,64.187,160.806
			C259.633,193.973,223.64,47.359,223.64,47.359z"/>
		<path style="fill:#CCA483;" d="M159.418,208.165c100.216-14.192,64.221-160.806,64.221-160.806h-15.024
			c4.114,61.242,9.808,93.774-13.815,129.24C176.083,204.703,159.418,208.165,159.418,208.165z"/>
		<path style="fill:#CCA483;" d="M214.101,133.124c0,0-3.906-29.115-13.675-43.807c0,0-29.042,38.164-101.283,26.361V69.083h122.771
			v56.824L214.101,133.124z"/>
		<path style="fill:#4C3626;" d="M235.786,48.725C230.064,25.956,201.191,0,159.48,0S88.897,25.956,83.169,48.725
			c0,0-2.614,61.124,6.852,94.134l0.247,6.211l5.199,6.975c0.776,1.242,1.591,2.349,2.462,3.299
			c-2.085-28.362,1.214-43.672,1.214-43.672c74.973,4.946,102.509-32.212,102.509-32.212c14.85,21.415,12.455,49.658,12.455,49.658
			c6.481-2.417,7.874-5.362,7.874-5.362c0.461,11.208-5.508,24.911-5.508,24.911c2.434-1.445,4.317-3.288,5.682-4.952
			c-0.719,7.071-1.22,11.623-1.22,11.623C239.546,138.908,235.786,48.725,235.786,48.725z"/>
		<path style="fill:#F2AC2F;" d="M171.879,300l-12.399-25.124L147.081,300l-27.726,4.03l14.816,14.439
			c7.83,0.315,15.721,0.489,23.573,0.489c9.01,0,18.132-0.23,27.198-0.635l14.664-14.293L171.879,300z"/>
	</g>
</g>
<g>
</g>
<g>
</g>
<g>
</g>
<g>
</g>
<g>
</g>
<g>
</g>
<g>
</g>
<g>
</g>
<g>
</g>
<g>
</g>
<g>
</g>
<g>
</g>
<g>
</g>
<g>
</g>
<g>
</g>
</svg>
