<?xml version="1.0" encoding="iso-8859-1"?>
<!-- Generator: Adobe Illustrator 18.0.0, SVG Export Plug-In . SVG Version: 6.00 Build 0)  -->
<!DOCTYPE svg PUBLIC "-//W3C//DTD SVG 1.1//EN" "http://www.w3.org/Graphics/SVG/1.1/DTD/svg11.dtd">
<svg version="1.1" id="Capa_1" xmlns="http://www.w3.org/2000/svg" xmlns:xlink="http://www.w3.org/1999/xlink" x="0px" y="0px"
	 viewBox="0 0 158.241 158.241" style="enable-background:new 0 0 158.241 158.241;" xml:space="preserve">
<g>
	<g>
		<path style="fill:#FCD0A3;" d="M42.625,83.774c-4,0-7.667-3.433-7.667-7.667s3.667-7.667,7.667-7.667V83.774z"/>
		<path style="fill:#FCD0A3;" d="M120.625,83.774c4,0,7.667-3.433,7.667-7.667s-3.667-7.667-7.667-7.667V83.774z"/>
	</g>
	<g>
		<g>
			<g>
				<rect x="77.669" y="111.987" style="fill:#FCD0A3;" width="7.002" height="20.966"/>
				<path style="fill:#FCD0A3;" d="M81.17,119.391L81.17,119.391c-21.907,0-39.667-17.759-39.667-39.666v-34
					c0-21.907,17.76-39.667,39.667-39.667l0,0c21.907,0,39.667,17.76,39.667,39.667v34
					C120.837,101.632,103.078,119.391,81.17,119.391z"/>
				<path style="opacity:0.16;fill:#FCD0A3;" d="M59.587,108.941c-5.892-7.366-7.637-16.079-7.841-25.323
					c-0.202-9.158-0.266-17.485,0.294-26.665c0.543-8.916,2.318-17.641,6.814-25.004C65.04,21.821,76.18,12.267,86.842,6.468
					c-1.853-0.266-3.745-0.41-5.672-0.41l0,0c-21.907,0-39.667,17.76-39.667,39.667v34c0,18.021,12.022,33.226,28.481,38.057
					C66.041,115.485,62.49,112.57,59.587,108.941z"/>
			</g>
			<g>
				<path style="fill:#AE3024;" d="M129.093,33.866c-5.913-5.999-7.248-14.949-12.012-21.791c-3.717-5.34-8.741-9.284-15.138-10.819
					C90.32-1.533,74.162,0.227,64.11,7.506c-9.351,0.078-18.892,3.89-24.508,11.615c-8.261,11.364-0.739,27.661-10.458,38.059
					c-0.373,0.398-0.388,1.016,0,1.414c2.629,2.705,6.084,3.707,9.542,3.711c33.172,0.034,64.556-27.405,64.556-27.405
					c2.546-1.079,5.493-0.021,6.771,2.431l10.824,24.589c0,0,3.73-1.75,5.085-2.637c0.363-0.238,0.594-0.693,0.46-1.13
					c-1.405-4.57-1.306-9.271-1.971-13.96c-0.259-1.828-0.405-4.17-1.546-5.649c2.22-0.509,4.281-1.59,6.228-3.263
					C129.505,34.927,129.451,34.229,129.093,33.866z"/>
				<path style="opacity:0.21;fill:#152A35;" d="M117.536,37.767c-0.576-3.114-1.703-7.8-4.776-9.402
					c-2.981-1.554-6.51,0.515-9.049,2.051c-4.734,2.865-22.54,18.057-44.712,23.726c-6.219,1.59-26.415,3.918-30.12,3.649
					c-0.03,0.286,0.047,0.579,0.266,0.805c2.628,2.705,6.084,3.707,9.542,3.711c33.172,0.034,64.556-27.405,64.556-27.405
					c2.546-1.079,5.493-0.021,6.771,2.431l10.824,24.589c0,0,0.063-0.029,0.175-0.082C117.793,54.45,118.971,45.518,117.536,37.767z
					"/>
			</g>
		</g>
		<path style="fill:#1D1A3A;" d="M116.567,153.029c-0.285-1.747-0.788-3.438-1.481-5.059c-0.315-0.736-0.667-1.458-1.061-2.161
			c-1.015-1.82-2.283-3.528-3.768-5.097c-0.74-0.781-1.536-1.525-2.379-2.233c-2.633-2.212-5.744-4.051-9.205-5.407
			c-2.892-1.133-6.034-1.905-9.331-2.301c0.01-0.116,0.026-0.23,0.026-0.351c0-1.362-1.105-2.468-2.468-2.468l-1.519,0.259
			c-2.758,0.471-5.576,0.471-8.334,0l-1.519-0.259c-1.362,0-2.467,1.105-2.467,2.468c0,0.116,0.016,0.227,0.026,0.339
			c-3.33,0.392-6.503,1.169-9.422,2.313c-3.461,1.356-6.574,3.195-9.207,5.409c-0.842,0.707-1.637,1.45-2.375,2.23
			c-1.485,1.568-2.754,3.277-3.77,5.097c-0.393,0.704-0.744,1.426-1.06,2.161c-0.695,1.622-1.198,3.314-1.483,5.064
			c-0.117,0.725-0.193,1.46-0.235,2.201c1.158,0.191,2.317,0.378,3.478,0.553c3.972,0.597,7.95,1.094,11.935,1.477
			c0.172,0.017,0.343,0.033,0.515,0.049c17.282,1.652,34.651,1.072,51.877-1.525c1.155-0.174,2.309-0.357,3.462-0.55
			C116.761,154.493,116.685,153.756,116.567,153.029z"/>
	</g>
	<g>
		<g>
			<g>
				<g>
					<circle style="fill:#67657B;" cx="98.341" cy="67.482" r="3.333"/>
					<circle style="fill:#8E8D9C;" cx="98.341" cy="67.482" r="3.104"/>
					<polygon style="fill:#5F5D73;" points="95.737,66.045 97.08,66.694 95.907,65.772 97.171,66.563 96.106,65.519 97.278,66.441 
						96.332,65.289 97.397,66.333 96.581,65.085 97.527,66.238 96.85,64.908 97.667,66.157 97.137,64.763 97.814,66.092 
						97.439,64.648 97.967,66.043 97.751,64.567 98.125,66.011 98.069,64.521 98.286,65.996 98.391,64.509 98.446,65.999 
						98.712,64.531 98.606,66.02 99.029,64.589 98.762,66.057 99.337,64.681 98.915,66.11 99.635,64.805 99.059,66.181 
						99.918,64.96 99.196,66.266 100.18,65.146 99.323,66.365 100.422,65.358 99.438,66.479 100.64,65.596 99.54,66.603 
						100.831,65.855 99.627,66.737 100.992,66.134 99.701,66.881 101.123,66.429 99.757,67.031 101.22,66.735 99.798,67.188 
						101.284,67.051 99.822,67.347 101.313,67.372 99.828,67.508 101.308,67.694 99.816,67.669 101.267,68.014 99.788,67.827 
						101.193,68.327 99.742,67.981 101.085,68.63 99.679,68.13 100.945,68.92 99.602,68.271 100.774,69.193 99.509,68.402 
						100.575,69.446 99.403,68.523 100.349,69.677 99.284,68.633 100.1,69.881 99.154,68.728 99.831,70.057 99.015,68.809 
						99.543,70.203 98.868,68.873 99.243,70.317 98.714,68.922 98.931,70.398 98.556,68.954 98.612,70.445 98.396,68.969 
						98.291,70.457 98.235,68.967 97.969,70.434 98.076,68.946 97.652,70.377 97.918,68.909 97.343,70.285 97.767,68.854 
						97.046,70.161 97.622,68.785 96.764,70.005 97.485,68.699 96.501,69.82 97.359,68.6 96.259,69.607 97.244,68.487 96.042,69.37 
						97.141,68.362 95.851,69.11 97.053,68.228 95.689,68.831 96.98,68.084 95.559,68.537 96.923,67.934 95.461,68.23 
						96.883,67.778 95.398,67.914 96.86,67.618 95.368,67.594 96.853,67.458 95.374,67.271 96.865,67.297 95.414,66.952 
						96.894,67.139 95.488,66.639 96.939,66.984 95.596,66.335 97.002,66.836 					"/>
				</g>
				<g>
					<circle style="opacity:0.35;fill:#1D1A3A;" cx="98.351" cy="67.482" r="1.587"/>
					<path style="fill:#FFFFFF;" d="M99.327,66.77c0.001-0.009,0.005-0.017,0.005-0.025c0-0.271-0.219-0.49-0.49-0.49
						c-0.271,0-0.49,0.219-0.49,0.49c0,0.27,0.22,0.49,0.49,0.49c0.041,0,0.078-0.014,0.116-0.023
						c0.036,0.015,0.074,0.023,0.115,0.023c0.169,0,0.306-0.137,0.306-0.306C99.378,66.869,99.357,66.816,99.327,66.77z"/>
				</g>
			</g>
			<g>
				<g>
					<circle style="fill:#67657B;" cx="64" cy="67.482" r="3.333"/>
					<circle style="fill:#8E8D9C;" cx="64" cy="67.482" r="3.104"/>
					<polygon style="fill:#5F5D73;" points="61.396,66.045 62.74,66.694 61.567,65.772 62.832,66.563 61.766,65.519 62.938,66.441 
						61.992,65.289 63.057,66.333 62.241,65.085 63.187,66.238 62.51,64.908 63.326,66.157 62.797,64.763 63.473,66.092 
						63.098,64.648 63.627,66.043 63.411,64.567 63.785,66.011 63.729,64.521 63.945,65.996 64.05,64.509 64.106,65.999 
						64.372,64.531 64.266,66.02 64.689,64.589 64.422,66.057 64.998,64.681 64.575,66.11 65.294,64.805 64.719,66.181 
						65.577,64.96 64.856,66.266 65.84,65.146 64.982,66.365 66.083,65.358 65.097,66.479 66.3,65.596 65.2,66.603 66.491,65.855 
						65.288,66.737 66.652,66.134 65.361,66.881 66.782,66.429 65.418,67.031 66.879,66.735 65.459,67.188 66.944,67.051 
						65.482,67.347 66.973,67.372 65.488,67.508 66.967,67.694 65.476,67.669 66.927,68.014 65.448,67.827 66.853,68.327 
						65.402,67.981 66.745,68.63 65.339,68.13 66.605,68.92 65.262,68.271 66.434,69.193 65.169,68.402 66.235,69.446 
						65.063,68.523 66.009,69.677 64.944,68.633 65.76,69.881 64.814,68.728 65.491,70.057 64.675,68.809 65.204,70.203 
						64.528,68.873 64.903,70.317 64.375,68.922 64.591,70.398 64.216,68.954 64.272,70.445 64.056,68.969 63.951,70.457 
						63.895,68.967 63.629,70.434 63.735,68.946 63.312,70.377 63.579,68.909 63.003,70.285 63.427,68.854 62.707,70.161 
						63.282,68.785 62.424,70.005 63.145,68.699 62.161,69.82 63.019,68.6 61.918,69.607 62.904,68.487 61.701,69.37 62.801,68.362 
						61.51,69.11 62.713,68.228 61.349,68.831 62.64,68.084 61.219,68.537 62.584,67.934 61.122,68.23 62.543,67.778 61.057,67.914 
						62.519,67.618 61.028,67.594 62.513,67.458 61.034,67.271 62.525,67.297 61.074,66.952 62.553,67.139 61.148,66.639 
						62.599,66.984 61.256,66.335 62.662,66.836 					"/>
				</g>
				<g>
					<circle style="opacity:0.35;fill:#1D1A3A;" cx="64.011" cy="67.482" r="1.587"/>
					<path style="fill:#FFFFFF;" d="M64.987,66.77c0-0.009,0.005-0.017,0.005-0.025c0-0.271-0.22-0.49-0.49-0.49
						c-0.271,0-0.49,0.219-0.49,0.49c0,0.27,0.22,0.49,0.49,0.49c0.041,0,0.078-0.014,0.116-0.023
						c0.035,0.015,0.074,0.023,0.115,0.023c0.169,0,0.306-0.137,0.306-0.306C65.039,66.869,65.016,66.816,64.987,66.77z"/>
				</g>
			</g>
		</g>
		<g>
			<path style="opacity:0.29;fill:#FCD0A3;" d="M105.875,73.519c-0.809-0.133-1.455-0.211-1.7-0.236
				c-4.793-0.515-10.716-0.877-14.585,2.559c-1.22,1.084-0.764,2.567,0.83,2.924c0.613,0.137,1.251,0.078,1.876,0.019
				c5.536-0.529,11.038-1.12,16.593-1.533c1.44-0.107,3.082-0.898,1.851-2.285C109.811,73.919,107.159,73.729,105.875,73.519z"/>
			<path style="opacity:0.29;fill:#FCD0A3;" d="M55.481,73.519c0.81-0.133,1.455-0.211,1.7-0.236
				c4.793-0.515,10.717-0.877,14.585,2.559c1.221,1.084,0.765,2.567-0.83,2.924c-0.612,0.137-1.25,0.078-1.876,0.019
				c-5.536-0.529-11.038-1.12-16.593-1.533c-1.441-0.107-3.082-0.898-1.851-2.285C51.545,73.919,54.197,73.729,55.481,73.519z"/>
		</g>
		<path style="fill:#A82217;" d="M109.694,92.777c-1.608,2.672-5.771,4.826-8.885,4.781c-1.845-0.026-3.331-0.857-4.751-1.826
			c-1.923-1.315-2.832-3.323-5.254-3.922c-4.112-1.016-7.948,1.297-9.634,4.623c-1.686-3.326-5.521-5.639-9.634-4.623
			c-2.422,0.599-3.331,2.606-5.254,3.922c-1.42,0.97-2.906,1.8-4.75,1.826c-3.115,0.045-7.277-2.109-8.886-4.781
			c-0.49-0.814-1.82-0.486-1.81,0.49c0.057,4.714,5.123,9.419,8.86,11.718c5.412,3.33,16.458,5.763,20.888-0.396
			c0.225-0.313,0.946-0.313,1.171,0c4.429,6.158,15.475,3.726,20.887,0.396c3.737-2.299,8.804-7.004,8.86-11.718
			C111.515,92.291,110.184,91.963,109.694,92.777z"/>
	</g>
</g>
<g>
</g>
<g>
</g>
<g>
</g>
<g>
</g>
<g>
</g>
<g>
</g>
<g>
</g>
<g>
</g>
<g>
</g>
<g>
</g>
<g>
</g>
<g>
</g>
<g>
</g>
<g>
</g>
<g>
</g>
</svg>
